<svg preserveAspectRatio="none" width="100%" height="100%" overflow="visible" style="display: block;" viewBox="0 0 126.269 126.754" fill="none" xmlns="http://www.w3.org/2000/svg">
<g id="Group 29">
<g id="Group 27">
<path id="Vector 90" d="M50.1896 106.77C50.2923 106.256 50.1868 105.723 49.8962 105.287C49.6057 104.851 49.1539 104.548 48.6402 104.446C48.1266 104.343 47.5932 104.449 47.1574 104.739C46.7215 105.03 46.419 105.481 46.3163 105.995C46.3163 105.995 46.3163 105.995 46.3163 105.995C46.227 106.443 46.134 106.899 46.0499 107.401C46.0084 107.656 45.9675 107.912 45.9399 108.249C45.9294 108.429 45.9085 108.589 45.9432 108.959C45.9539 109.052 45.969 109.169 46.0128 109.335C46.0676 109.508 46.1025 109.722 46.4068 110.129C46.5443 110.308 46.8165 110.569 47.1603 110.724C47.5135 110.89 47.9067 110.932 48.1905 110.906C48.7612 110.843 48.9698 110.686 49.1533 110.584C49.5036 110.356 49.619 110.208 49.7469 110.066C50.2018 109.501 50.3061 109.192 50.47 108.849C50.6163 108.518 50.7301 108.213 50.8359 107.911C52.0014 104.312 52.5978 100.963 53.1026 97.5094C53.1115 97.445 53.1203 97.3804 53.1291 97.3154C54.8415 83.8368 55.928 70.4475 57.8047 57.1942C57.8091 57.1635 57.8134 57.1328 57.8178 57.1021C59.2633 46.7324 61.3509 36.4916 63.5303 26.1671C63.8426 24.6695 64.1535 23.1698 64.4598 21.6678C64.5606 21.1729 64.4682 20.6555 64.1957 20.2281C63.9232 19.8006 63.4942 19.4983 63.0016 19.3873C62.509 19.2763 61.9917 19.3654 61.5623 19.6347C61.1327 19.9039 60.8274 20.3316 60.7062 20.822C60.7062 20.822 60.7062 20.822 60.7062 20.822C60.3398 22.3052 59.9721 23.7892 59.6062 25.2752C57.0593 35.509 54.7404 45.9175 53.2721 56.4563C53.2676 56.4875 53.2632 56.5187 53.2588 56.5499C51.3597 69.9728 50.3511 83.478 48.7298 96.7325C48.7216 96.7958 48.7135 96.8588 48.7053 96.9214C48.2597 100.237 47.938 103.713 47.0686 106.646C46.9963 106.873 46.9192 107.089 46.8429 107.269C46.7816 107.434 46.6442 107.636 46.7459 107.498C46.7891 107.455 46.8211 107.391 47.0659 107.23C47.1974 107.16 47.356 107.027 47.8696 106.969C48.125 106.945 48.4897 106.984 48.817 107.138C49.1358 107.282 49.3844 107.522 49.5056 107.68C49.7739 108.04 49.79 108.201 49.8297 108.319C49.859 108.431 49.8649 108.489 49.8695 108.527C49.8809 108.667 49.8719 108.603 49.8781 108.555C49.887 108.438 49.9141 108.243 49.9466 108.048C50.0128 107.651 50.1006 107.215 50.1896 106.77Z" fill="var(--stroke-0, #DAE562)"/>
<path id="Vector 91" d="M-1.45969e-08 96.2675C-1.45969e-08 96.7691 0.199249 97.2501 0.553914 97.6048C0.90858 97.9594 1.38961 98.1587 1.89118 98.1587C2.39275 98.1587 2.87378 97.9594 3.22845 97.6048C3.58311 97.2501 3.78236 96.7691 3.78236 96.2675C3.79868 95.072 3.95778 93.5897 4.09448 92.2093C4.55977 87.7573 5.13098 83.2971 5.7136 78.8109C5.71361 78.8108 5.71363 78.8107 5.71365 78.8105L5.70859 78.8466C8.23593 62.2753 11.1172 45.6807 14.0707 29.1867C14.0716 29.1819 14.0725 29.177 14.0734 29.1722C14.8456 24.9503 15.6169 20.7283 16.5472 16.6122C16.8512 15.2517 17.2163 13.9039 17.5249 12.4074C17.6418 11.8384 17.5275 11.2469 17.2064 10.7629C16.8853 10.2788 16.3837 9.94187 15.8127 9.82633C15.2418 9.71078 14.6486 9.82615 14.1646 10.1473C13.6805 10.4683 13.3453 10.9689 13.2317 11.5385C13.2317 11.5385 13.2317 11.5385 13.2317 11.5385C12.9743 12.8333 12.6062 14.2359 12.2956 15.6531C11.352 19.926 10.5984 24.1655 9.8554 28.4241C9.85456 28.429 9.85371 28.4339 9.85287 28.4388C7.02466 45.0284 4.50436 61.6566 1.96818 78.2848L1.96312 78.3208C1.96311 78.3209 1.96309 78.321 1.96308 78.3212C1.37822 82.8258 0.805864 87.2895 0.33191 91.8228C0.192358 93.2733 0.0280214 94.6227 -1.45969e-08 96.2675Z" fill="var(--stroke-0, #DAE562)"/>
<path id="Vector 92" d="M5.26291 99.7804C5.97113 99.7804 6.65035 99.499 7.15113 98.9982C7.65192 98.4974 7.93326 97.8182 7.93326 97.11C7.93326 96.4018 7.65192 95.7226 7.15113 95.2218C6.65035 94.721 5.97113 94.4397 5.26291 94.4397C5.22987 94.4397 5.20518 94.4392 5.19827 94.4389C5.20361 94.4413 5.16976 94.4298 5.37738 94.4595C5.46412 94.4778 5.46419 94.4618 5.77432 94.5595C5.84655 94.5843 5.9323 94.6165 6.03944 94.6668C6.09705 94.6943 6.13861 94.7142 6.22966 94.766C6.35241 94.837 6.49935 94.9321 6.67032 95.0837C6.99782 95.3718 7.50162 95.9854 7.55655 96.924C7.60499 97.8839 7.15431 98.54 6.89313 98.8321C6.72775 99.0131 6.69678 99.0304 6.62986 99.0904C6.56979 99.1416 6.51539 99.1835 6.46591 99.2193C6.36696 99.2907 6.28743 99.3387 6.22054 99.3766C6.06986 99.4593 6.04874 99.4645 5.99124 99.4908C5.89309 99.5332 5.83742 99.5513 5.80982 99.5607C5.68438 99.6008 5.70828 99.59 5.71265 99.5901C5.77803 99.5746 5.97599 99.5388 6.15026 99.5113C6.5131 99.4535 6.90912 99.3995 7.30823 99.3479C8.10255 99.2458 8.91579 99.1534 9.73332 99.0654L9.54559 99.0789C9.59513 99.0771 9.65586 99.0763 9.72625 99.0773C19.6677 100.501 31.2445 104.312 41.9218 107.79L41.878 107.772C41.9158 107.786 41.9533 107.801 41.9907 107.815C44.3348 108.773 46.9432 109.44 48.4596 111.166C48.9372 111.735 49.2823 112.464 49.5899 113.232C49.6231 113.315 49.6912 113.383 49.7747 113.423C49.8586 113.463 49.9511 113.472 50.0363 113.446C50.1214 113.42 50.1935 113.362 50.2408 113.282C50.2879 113.202 50.3065 113.107 50.2881 113.02C50.2881 113.02 50.2881 113.02 50.2881 113.02C50.1104 112.194 49.9051 111.331 49.4588 110.507C47.9076 107.909 45.2884 106.745 42.9975 105.52C42.9606 105.502 42.9234 105.484 42.8861 105.465L42.8423 105.447C32.1763 100.92 22.522 95.5421 9.80046 93.7371C9.64967 93.735 9.50021 93.7363 9.35068 93.7418L9.16295 93.7553C8.31988 93.846 7.47916 93.9413 6.62543 94.0511C6.19329 94.107 5.76548 94.1648 5.30734 94.2376C5.07013 94.2765 4.85617 94.3091 4.51499 94.3854C4.41867 94.409 4.34631 94.4213 4.11643 94.4956C4.06847 94.5118 3.98202 94.5409 3.86165 94.5931C3.79212 94.6247 3.76431 94.6328 3.59792 94.7242C3.52457 94.7657 3.4394 94.8173 3.33563 94.8921C3.28374 94.9297 3.22715 94.9733 3.16508 95.0262C3.09607 95.0881 3.06383 95.1063 2.89507 95.2911C2.6284 95.5893 2.17514 96.2514 2.22389 97.2168C2.27917 98.1609 2.78576 98.7793 3.11852 99.0721C3.29212 99.226 3.44231 99.3234 3.56892 99.3967C3.66288 99.4501 3.70617 99.4709 3.76637 99.4996C3.87843 99.5522 3.96983 99.5867 4.04842 99.6136C4.39025 99.7215 4.40585 99.7078 4.52182 99.7312C4.83036 99.7765 4.90441 99.7701 5.01223 99.7764C5.11158 99.7797 5.18387 99.7803 5.26291 99.7804Z" fill="var(--stroke-0, #DAE562)"/>
<path id="Vector 93" d="M23.8073 13.1299C24.3378 13.1299 24.8466 12.9192 25.2217 12.544C25.5969 12.1689 25.8076 11.6601 25.8076 11.1296C25.8076 10.5991 25.5969 10.0903 25.2217 9.71512C24.8466 9.33998 24.3378 9.12924 23.8073 9.12924C24.1063 9.13681 24.1734 9.18625 24.2092 9.19512C24.2398 9.20792 24.2207 9.2012 24.1901 9.18217C24.1256 9.14353 24.0107 9.05919 23.8936 8.95726C23.655 8.75078 23.3934 8.47381 23.1436 8.17317C22.9259 7.91118 22.7141 7.62938 22.5084 7.33331C22.5084 7.33328 22.5084 7.33324 22.5084 7.33321C22.4982 7.31674 22.689 7.24284 22.8974 7.24349C23.1063 7.23535 23.3146 7.30973 23.3381 7.32687C23.3381 7.32697 23.3382 7.32707 23.3382 7.32717C23.3202 7.37658 23.8794 7.07365 24.6282 6.9536C25.3763 6.81276 26.2771 6.74246 27.2053 6.7131C29.072 6.65643 31.0744 6.73977 33.0971 6.78685L31.9557 6.56015C31.9728 6.56677 31.9899 6.57338 32.007 6.58C40.5764 9.93188 49.226 14.2557 55.3024 21.1787L55.2634 21.1253C55.2666 21.1294 55.2698 21.1335 55.2731 21.1376C56.2043 22.3151 57.154 23.4769 58.0805 24.6926C58.644 25.4305 59.2 26.1866 59.7465 26.9599C59.932 27.2215 60.2288 27.4044 60.556 27.4773C60.8841 27.5497 61.2159 27.5061 61.4939 27.3473C61.7718 27.1884 61.9778 26.9247 62.082 26.6053C62.1854 26.2864 62.1785 25.9378 62.0473 25.6452C62.0473 25.6452 62.0473 25.6452 62.0473 25.6452C61.6588 24.7819 61.2791 23.9022 60.875 23.0221C60.212 21.5735 59.4782 20.1296 58.6157 18.774C58.6127 18.7692 58.6097 18.7645 58.6067 18.7598L58.5677 18.7065C52.5599 10.2328 43.9572 3.9937 34.4539 0.261162C34.4352 0.25389 34.4164 0.246629 34.3976 0.239379L33.2562 0.0126734C31.1079 -0.0323274 28.9254 0.034632 26.6338 0.341515C24.3575 0.822148 21.8537 0.642246 18.93 3.71306C18.9279 3.71574 18.9259 3.71842 18.9238 3.72111C17.6243 5.42518 17.9984 7.92096 19.2174 9.60802C19.219 9.61044 19.2207 9.61286 19.2224 9.61528C19.4847 9.99282 19.7621 10.3635 20.0673 10.7309C20.4209 11.1543 20.8014 11.5697 21.275 11.9818C21.5144 12.188 21.774 12.3938 22.1111 12.6002C22.4798 12.7903 22.7758 13.0733 23.8073 13.1299Z" fill="var(--stroke-0, #DAE562)"/>
</g>
<g id="Group 28">
<path id="Vector 90_2" d="M46.0742 104.568C46.1497 104.05 46.428 103.582 46.8479 103.269C47.2677 102.956 47.7948 102.823 48.3132 102.898C48.8315 102.974 49.2986 103.252 49.6118 103.672C49.9249 104.092 50.0585 104.619 49.983 105.137C49.983 105.137 49.983 105.137 49.983 105.137C49.9168 105.589 49.8515 106.05 49.7623 106.551C49.7158 106.805 49.6686 107.06 49.5816 107.387C49.5313 107.56 49.4973 107.717 49.3403 108.055C49.2994 108.138 49.2458 108.243 49.1486 108.386C49.0391 108.53 48.9345 108.72 48.5112 109.001C48.3218 109.124 47.9779 109.278 47.602 109.309C47.2134 109.347 46.8289 109.255 46.5703 109.135C46.0539 108.884 45.91 108.666 45.7714 108.509C45.5178 108.176 45.4587 107.998 45.3856 107.822C45.1467 107.137 45.1519 106.811 45.1125 106.433C45.086 106.071 45.0809 105.746 45.0824 105.427C45.1916 101.645 45.7529 98.2896 46.4355 94.8669C46.4487 94.8033 46.4621 94.7394 46.4756 94.6752C49.3826 81.4029 52.8494 68.4247 55.526 55.3095C55.5322 55.2791 55.5384 55.2487 55.5446 55.2183C57.6605 44.9645 59.1282 34.6165 60.5375 24.1591C60.7455 22.6435 60.9555 21.1264 61.1707 19.6087C61.2417 19.1085 61.5023 18.6522 61.9024 18.3408C62.3024 18.0295 62.808 17.8886 63.3093 17.9492C63.8106 18.0098 64.268 18.2673 64.5823 18.665C64.8966 19.0627 65.0409 19.568 64.9906 20.0707C64.9906 20.0707 64.9906 20.0707 64.9906 20.0707C64.8383 21.5908 64.6871 23.1122 64.5334 24.6348C63.5008 35.1301 62.1947 45.7135 60.0436 56.1344C60.0374 56.1653 60.0311 56.1962 60.0248 56.227C57.3123 69.5095 53.7333 82.5709 50.8155 95.6014C50.8021 95.6638 50.7886 95.7259 50.7753 95.7876C50.0832 99.0607 49.2206 102.443 49.0561 105.498C49.0479 105.736 49.0481 105.965 49.0595 106.161C49.0621 106.336 49.1236 106.573 49.0741 106.409C49.048 106.354 49.0392 106.283 48.8625 106.049C48.7621 105.939 48.6573 105.761 48.1929 105.534C47.9602 105.426 47.6039 105.339 47.2437 105.375C46.8952 105.404 46.5806 105.546 46.4134 105.654C46.0398 105.904 45.9705 106.051 45.8938 106.148C45.8286 106.244 45.8034 106.297 45.7863 106.331C45.7286 106.459 45.7586 106.402 45.7689 106.354C45.7999 106.241 45.8397 106.048 45.8744 105.854C45.9451 105.458 46.0086 105.017 46.0742 104.568Z" fill="var(--stroke-0, #DAE562)"/>
<path id="Vector 91_2" d="M96.8793 111.506C96.7111 111.978 96.362 112.365 95.909 112.58C95.4559 112.795 94.9359 112.821 94.4634 112.653C93.9908 112.485 93.6045 112.136 93.3893 111.683C93.1741 111.23 93.1477 110.71 93.3159 110.237C93.7015 109.106 94.0487 107.656 94.3829 106.309C95.4376 101.959 96.3953 97.5657 97.3509 93.1439C97.3509 93.1438 97.351 93.1437 97.351 93.1436L97.3437 93.1792C100.52 76.7201 103.371 60.1202 106.12 43.5909C106.121 43.5861 106.122 43.5812 106.122 43.5763C106.811 39.3399 107.5 35.1038 108.004 30.914C108.174 29.5304 108.282 28.1382 108.493 26.6249C108.574 26.0497 108.88 25.5307 109.345 25.1824C109.81 24.8341 110.395 24.6849 110.972 24.7675C111.548 24.8501 112.069 25.1578 112.417 25.6226C112.765 26.0874 112.913 26.6714 112.829 27.2461C112.829 27.2461 112.829 27.2461 112.829 27.2461C112.637 28.5523 112.514 29.997 112.331 31.4363C111.787 35.7783 111.075 40.025 110.347 44.2861C110.346 44.291 110.345 44.2959 110.344 44.3008C107.445 60.8781 104.243 77.3886 101.056 93.9044L101.049 93.94C101.049 93.9401 101.049 93.9402 101.048 93.9404C100.089 98.3802 99.131 102.777 98.0572 107.207C97.7022 108.62 97.4045 109.947 96.8793 111.506Z" fill="var(--stroke-0, #DAE562)"/>
<path id="Vector 92_2" d="M90.7431 113.05C90.0758 112.813 89.5303 112.32 89.2265 111.68C88.9226 111.04 88.8854 110.306 89.1229 109.639C89.3604 108.972 89.8532 108.426 90.493 108.122C91.1327 107.818 91.8669 107.781 92.5341 108.019C92.5653 108.03 92.5887 108.038 92.5953 108.04C92.5895 108.04 92.6252 108.041 92.4197 107.999C92.3318 107.987 92.3371 107.972 92.0122 107.96C91.9358 107.959 91.8442 107.961 91.7264 107.972C91.6629 107.979 91.6171 107.984 91.5139 108.002C91.3745 108.028 91.2041 108.068 90.9923 108.153C90.5871 108.315 89.9067 108.724 89.5402 109.59C89.1726 110.478 89.3772 111.247 89.5253 111.61C89.6204 111.836 89.6437 111.863 89.6866 111.942C89.7261 112.01 89.7633 112.068 89.7979 112.118C89.8672 112.219 89.926 112.29 89.9763 112.349C90.0905 112.477 90.1087 112.489 90.154 112.533C90.2323 112.606 90.2786 112.642 90.3015 112.66C90.4062 112.74 90.3873 112.721 90.3832 112.72C90.3268 112.684 90.1523 112.583 89.9973 112.499C89.6749 112.323 89.3199 112.139 88.9612 111.957C88.2471 111.594 87.512 111.234 86.7713 110.877L86.9436 110.953C86.8976 110.935 86.8406 110.914 86.774 110.891C76.9309 108.898 64.7464 108.606 53.5211 108.302L53.5685 108.299C53.528 108.3 53.4878 108.301 53.4477 108.302C50.9182 108.418 48.2371 108.172 46.2295 109.29C45.5889 109.665 45.0192 110.237 44.4719 110.857C44.4129 110.924 44.3259 110.965 44.2337 110.975C44.1412 110.985 44.0511 110.962 43.9795 110.909C43.908 110.856 43.8598 110.777 43.842 110.686C43.8244 110.594 43.8387 110.499 43.8852 110.423C43.8852 110.423 43.8852 110.423 43.8852 110.423C44.3298 109.704 44.8124 108.961 45.5094 108.333C47.8419 106.407 50.6999 106.188 53.2688 105.803C53.3097 105.798 53.3509 105.793 53.3922 105.788L53.4396 105.786C65.006 105.098 75.9049 103.269 88.495 105.835C88.6377 105.884 88.7781 105.935 88.9171 105.99L89.0895 106.066C89.8533 106.434 90.6134 106.806 91.3809 107.196C91.7692 107.393 92.1529 107.591 92.5601 107.813C92.7705 107.93 92.9611 108.032 93.2569 108.218C93.3398 108.273 93.4038 108.309 93.5955 108.456C93.6352 108.487 93.7069 108.544 93.8028 108.633C93.8577 108.686 93.8812 108.703 94.0073 108.845C94.0625 108.909 94.1254 108.986 94.1981 109.091C94.2344 109.144 94.2731 109.204 94.3138 109.275C94.3581 109.356 94.3823 109.384 94.4793 109.615C94.6305 109.985 94.8355 110.761 94.4658 111.654C94.0971 112.525 93.4125 112.938 93.0008 113.102C92.7856 113.189 92.6114 113.23 92.4676 113.257C92.3612 113.276 92.3134 113.281 92.2471 113.288C92.1239 113.299 92.0262 113.301 91.9431 113.3C91.5849 113.287 91.5748 113.269 91.4577 113.252C91.1518 113.192 91.0842 113.161 90.9806 113.13C90.8858 113.1 90.8175 113.077 90.7431 113.05Z" fill="var(--stroke-0, #DAE562)"/>
<path id="Vector 93_2" d="M105.713 19.9993C105.43 19.5509 105.336 19.0082 105.453 18.4906C105.57 17.9731 105.887 17.5231 106.336 17.2397C106.784 16.9563 107.327 16.8627 107.844 16.9794C108.362 17.0961 108.812 17.4136 109.095 17.8621C109.095 17.8621 109.095 17.8621 109.095 17.8621C109.624 18.6984 110.14 19.4846 110.677 20.2315C110.891 20.5274 111.161 20.8838 111.336 21.0806C111.367 21.1159 111.39 21.1347 111.395 21.131C111.398 21.1307 111.392 21.1177 111.352 21.0793C111.332 21.0601 111.304 21.0344 111.258 20.9996C111.227 20.9774 111.235 20.9786 111.15 20.9256C111.05 20.8687 110.915 20.7845 110.619 20.7091C110.341 20.643 109.762 20.5647 109.122 20.9391C108.475 21.3354 108.263 21.8934 108.185 22.2315C108.063 22.9112 108.196 23.0899 108.2 23.1827C108.227 23.2986 108.242 23.345 108.246 23.3733C108.251 23.4205 108.224 23.4029 108.194 23.3888C108.064 23.3118 107.854 23.1789 107.634 23.0506C107.199 22.8021 106.743 22.5775 106.398 22.2245C103.67 19.4678 100.183 17.4686 96.705 16.3937C96.4463 16.3133 96.1843 16.2375 95.9186 16.1669C87.6192 13.7615 78.5214 16.7884 70.2355 22.0376C70.1402 22.0941 70.0455 22.1494 69.9517 22.2037L70.0058 22.1669C68.7602 22.9385 67.5089 23.7 66.264 24.5167C65.4528 25.0478 64.6431 25.6014 63.836 26.1749C63.5733 26.361 63.2321 26.4354 62.8987 26.3949C62.5645 26.3537 62.2655 26.2009 62.0561 25.9571C61.8467 25.7133 61.7408 25.3946 61.7504 25.0581C61.7608 24.7224 61.8858 24.3963 62.1094 24.1648C62.1094 24.1648 62.1094 24.1648 62.1094 24.1648C62.7977 23.4535 63.4844 22.7231 64.1959 22.0022C65.2866 20.895 66.4386 19.8156 67.6702 18.8467L67.7244 18.8099C67.8085 18.7474 67.8942 18.684 67.9817 18.6199C75.5453 12.6551 86.3314 6.5549 97.6182 9.61268C97.9909 9.70759 98.3572 9.81135 98.7169 9.92319C103.625 11.4655 107.618 14.6822 110.686 18.4689C111.088 18.9703 111.31 19.5779 111.53 20.231C111.652 20.5774 111.745 20.8858 111.892 21.2921C111.94 21.4174 111.949 21.4623 112.031 21.6762C112.066 21.7753 112.104 21.8817 112.145 22.0464C112.161 22.1772 112.303 22.4115 112.175 23.115C112.094 23.4667 111.876 24.0337 111.219 24.4363C110.569 24.8167 109.977 24.7393 109.682 24.6692C109.369 24.5898 109.213 24.4964 109.089 24.4252C108.98 24.3581 108.987 24.3581 108.943 24.3271C108.876 24.2771 108.823 24.2331 108.777 24.1922C108.691 24.1165 108.597 24.021 108.569 23.9882C108.492 23.9042 108.421 23.8235 108.346 23.7391C107.976 23.3171 107.691 22.9267 107.434 22.5734C106.814 21.7121 106.272 20.882 105.713 19.9993Z" fill="var(--stroke-0, #DAE562)"/>
</g>
<path id="Vector 94" d="M108.912 20.5212C109.086 20.5212 109.252 20.4522 109.375 20.3293C109.498 20.2064 109.567 20.0398 109.567 19.866C109.567 19.6922 109.498 19.5256 109.375 19.4027C109.252 19.2798 109.086 19.2108 108.912 19.2108C108.891 19.2125 108.839 19.2041 108.709 19.2313C108.587 19.2463 108.322 19.4004 108.235 19.5871C108.079 19.9418 108.157 20.0196 108.155 20.1122C108.199 20.3595 108.251 20.4646 108.301 20.6C108.304 20.6058 108.306 20.6117 108.308 20.6176C108.641 21.4097 109.369 21.9074 109.684 22.6324C109.685 22.6345 109.686 22.6366 109.687 22.6386C109.863 23.0465 110.011 23.4541 110.119 23.8807C110.138 23.953 110.156 24.0262 110.175 24.1001C110.19 24.1608 110.229 24.213 110.282 24.2452C110.336 24.2774 110.4 24.287 110.461 24.2718C110.522 24.2566 110.574 24.218 110.606 24.1643C110.638 24.1106 110.648 24.0464 110.633 23.9856C110.633 23.9856 110.633 23.9856 110.633 23.9856C110.614 23.9117 110.595 23.837 110.576 23.7618C110.463 23.3142 110.302 22.8723 110.12 22.4523C110.12 22.4502 110.119 22.4481 110.118 22.446C109.805 21.7151 109.805 20.8007 109.525 20.1297C109.523 20.1253 109.521 20.1209 109.519 20.1165C109.482 20.0275 109.446 19.9073 109.45 19.916C109.438 19.9352 109.506 19.9313 109.385 20.2168C109.316 20.3694 109.086 20.5014 109.001 20.5087C108.908 20.5275 108.894 20.5196 108.912 20.5212Z" fill="var(--stroke-0, #DAE562)"/>
<path id="Vector 95" d="M110.682 18.6895C110.528 18.2992 110.226 17.986 109.841 17.8188C109.456 17.6515 109.021 17.6439 108.631 17.7977C108.24 17.9514 107.927 18.2539 107.76 18.6385C107.593 19.0232 107.585 19.4585 107.739 19.8488C107.739 19.8488 107.739 19.8488 107.739 19.8488C107.881 20.1844 107.933 20.2585 108.012 20.4162C108.084 20.5563 108.152 20.6873 108.219 20.8192C108.947 22.2514 109.461 23.7307 109.683 25.2516C109.684 25.2585 109.685 25.2654 109.686 25.2724C109.782 25.9206 110.48 27.0691 110.398 27.6623L112.02 27.7307C112.018 27.7209 112.015 27.711 112.013 27.7011C111.476 25.2341 111.251 22.6185 110.654 19.999L110.645 19.9642C110.642 19.952 110.638 19.9398 110.635 19.9277C110.534 19.6201 110.354 19.289 109.868 18.968C109.607 18.798 109.239 18.8051 109.057 18.9161C108.86 19.0188 108.74 19.1515 108.614 19.2691C108.783 19.2799 108.963 19.3211 109.08 19.4066C109.21 19.4955 109.167 19.6082 109.116 19.6743C109.033 19.8161 108.997 20.0987 109.068 20.3653C109.071 20.3757 109.074 20.3862 109.076 20.3969L109.068 20.3621C109.613 22.8291 109.829 25.4271 110.374 28.0586C110.376 28.0693 110.378 28.0801 110.38 28.0908L111.085 31.1946L112.002 28.1592C112.261 26.8732 112.951 26.0793 112.818 24.8308C112.816 24.8185 112.815 24.8062 112.813 24.7939C112.535 22.8802 111.885 21.0475 111.042 19.3941C110.968 19.2457 110.892 19.1001 110.821 18.9622C110.756 18.8401 110.66 18.6421 110.682 18.6895Z" fill="var(--stroke-0, #DAE562)"/>
<path id="Vector 96" d="M108.026 20.4538C108.34 20.768 108.766 20.9445 109.21 20.9445C109.654 20.9445 110.081 20.768 110.395 20.4538C110.709 20.1396 110.885 19.7135 110.885 19.2693C110.885 18.825 110.709 18.3989 110.395 18.0847C110.348 18.0433 110.328 17.9996 110.085 17.8131C110.013 17.7634 109.932 17.6976 109.711 17.6022C109.593 17.5556 109.441 17.4944 109.159 17.4727C108.888 17.4466 108.421 17.5241 108.078 17.7717C107.396 18.3149 107.439 18.676 107.374 18.8453C107.338 19.0277 107.339 19.1205 107.337 19.2014L107.396 19.6626C107.398 19.6675 107.399 19.6725 107.401 19.6775C107.414 19.7266 107.428 19.7777 107.442 19.8267C108.076 21.9791 108.767 23.9256 109.187 25.9692L109.172 25.8488C109.172 25.8501 109.172 25.8515 109.173 25.8528C109.237 26.3406 109.77 26.8785 110.21 27.4612C110.326 27.6137 110.436 27.7676 110.528 27.9213C110.543 27.9476 110.576 27.9728 110.608 27.9913C110.641 28.0099 110.672 28.0203 110.702 28.0203C110.732 28.0203 110.763 28.0099 110.796 27.9913C110.828 27.9728 110.86 27.9476 110.876 27.9213C110.968 27.7675 111.078 27.6137 111.194 27.46C111.63 26.8872 112.166 26.2684 112.131 25.6043C112.13 25.6026 112.13 25.6009 112.13 25.5992L112.115 25.4788C111.824 23.2076 111.257 20.9579 110.668 18.9205C110.655 18.8761 110.643 18.8306 110.631 18.7875C110.629 18.7832 110.628 18.7788 110.627 18.7745L110.687 19.2356C110.685 19.2911 110.687 19.3592 110.656 19.5172C110.597 19.6624 110.648 19.9979 109.986 20.5261C109.654 20.7666 109.2 20.8413 108.941 20.8161C108.671 20.7953 108.531 20.7377 108.425 20.6959C108.227 20.6101 108.167 20.5581 108.115 20.523C107.952 20.3964 108.001 20.425 108.026 20.4538Z" fill="var(--stroke-0, #DAE562)"/>
<path id="Vector 97" d="M108.824 20.7605C108.824 20.9422 108.896 21.1165 109.024 21.2449C109.153 21.3734 109.327 21.4456 109.509 21.4456C109.69 21.4456 109.865 21.3734 109.993 21.2449C110.121 21.1165 110.194 20.9422 110.194 20.7605C110.198 20.7021 110.183 20.4492 110.098 20.283C110.017 20.1123 109.925 20.0124 109.848 19.9325C109.848 19.9323 109.847 19.9322 109.847 19.9321C109.797 19.8815 109.755 19.8178 109.694 19.7343C109.642 19.6669 109.582 19.5822 109.444 19.4902C109.316 19.4027 109.029 19.2932 108.681 19.3899C107.981 19.652 107.868 20.0063 107.687 20.16C107.377 20.5152 107.181 20.7369 107.151 20.9564L107.174 21.1598C107.172 21.1737 107.173 21.1873 107.175 21.2005C107.581 23.6124 108.677 25.8964 109.265 28.2206L109.264 28.2097C109.265 28.212 109.265 28.2143 109.266 28.2166C109.34 28.5491 109.455 28.8762 109.558 29.208C109.61 29.3726 109.658 29.5399 109.701 29.7109C109.722 29.7947 109.783 29.8751 109.859 29.9343C109.935 29.9936 110.019 30.0268 110.105 30.0268C110.191 30.0268 110.276 29.9936 110.352 29.9343C110.427 29.8751 110.489 29.7947 110.51 29.7109C110.552 29.5401 110.6 29.3654 110.645 29.1881C110.737 28.8303 110.816 28.4667 110.844 28.1109C110.844 28.1084 110.845 28.1059 110.845 28.1035L110.844 28.0925C110.981 25.5398 111.17 23.0011 110.764 20.5849C110.762 20.5716 110.757 20.5588 110.751 20.5462L110.775 20.7497C110.731 20.6984 110.528 20.655 110.273 20.7447C110.207 20.7701 110.137 20.8104 110.033 20.8885C109.93 20.9592 109.765 21.1128 109.481 21.1839C109.195 21.2525 108.98 21.1491 108.915 21.0828C108.84 21.0121 108.838 20.962 108.841 20.9332C108.847 20.8973 108.867 20.8889 108.874 20.8963C108.874 20.8964 108.874 20.8964 108.874 20.8964C108.888 20.909 108.88 20.9105 108.854 20.858C108.825 20.8095 108.822 20.6898 108.824 20.7605Z" fill="var(--stroke-0, #DAE562)"/>
<path id="Vector 98" d="M74.6017 45.2755C74.8523 45.2755 75.0927 45.1759 75.27 44.9987C75.4472 44.8214 75.5468 44.581 75.5468 44.3304C75.5468 44.0797 75.4472 43.8393 75.27 43.6621C75.0927 43.4848 74.8523 43.3853 74.6017 43.3853C74.5867 43.3853 74.5718 43.3853 74.5569 43.3853C74.2884 43.3853 74.0199 43.3853 73.7514 43.3853C73.7365 43.3853 73.7215 43.3853 73.7066 43.3853C73.456 43.3853 73.2156 43.4848 73.0383 43.6621C72.8611 43.8393 72.7615 44.0797 72.7615 44.3304C72.7615 44.581 72.8611 44.8214 73.0383 44.9987C73.2156 45.1759 73.456 45.2755 73.7066 45.2755C73.7215 45.2755 73.7365 45.2755 73.7514 45.2755C74.0199 45.2755 74.2884 45.2755 74.5569 45.2755C74.5718 45.2755 74.5867 45.2755 74.6017 45.2755Z" fill="var(--stroke-0, #DAE562)"/>
<path id="Vector 99" d="M87.137 46.4165C87.4529 47.0482 88.0068 47.5286 88.6769 47.752C89.347 47.9754 90.0784 47.9234 90.7102 47.6075C91.342 47.2916 91.8224 46.7377 92.0457 46.0676C92.2691 45.3975 92.2171 44.6661 91.9012 44.0343C91.9012 44.0343 91.9012 44.0343 91.9012 44.0343C91.8963 44.0244 91.8913 44.0145 91.8863 44.0045C91.7968 43.8255 91.7073 43.6465 91.6178 43.4675C91.6128 43.4575 91.6079 43.4476 91.6029 43.4376C91.287 42.8059 90.7331 42.3255 90.063 42.1021C89.3929 41.8787 88.6615 41.9307 88.0297 42.2466C87.3979 42.5625 86.9175 43.1164 86.6942 43.7865C86.4708 44.4566 86.5228 45.188 86.8387 45.8198C86.8436 45.8297 86.8486 45.8397 86.8536 45.8496C86.9431 46.0286 87.0326 46.2076 87.1221 46.3866C87.1271 46.3966 87.132 46.4065 87.137 46.4165Z" fill="var(--stroke-0, #DAE562)"/>
<path id="Vector 100" d="M74.4316 43.7764C74.4429 43.8215 74.4716 43.8603 74.5115 43.8842C74.5513 43.9081 74.5991 43.9152 74.6442 43.904C74.6893 43.8927 74.728 43.8639 74.752 43.8241C74.7759 43.7842 74.783 43.7365 74.7717 43.6914C74.7651 43.6648 74.7584 43.6382 74.7517 43.6116C74.7212 43.4899 74.6905 43.3679 74.6569 43.2445C74.64 43.1829 74.6225 43.1207 74.6023 43.0572C74.592 43.0253 74.5813 42.993 74.5676 42.9579C74.5358 42.9129 74.5986 42.9187 74.4354 42.7842C74.4192 42.7763 74.3986 42.769 74.3745 42.7662C74.1956 42.7707 74.195 42.8683 74.1799 42.8788C74.1686 42.9031 74.165 42.9172 74.1612 42.9313C74.1545 42.957 74.1516 42.9764 74.1488 42.9954C74.1436 43.0326 74.141 43.0653 74.1387 43.098C74.1344 43.163 74.1324 43.2247 74.131 43.2864C74.1283 43.4096 74.1281 43.5308 74.128 43.6517C74.128 43.6791 74.128 43.7065 74.128 43.7339C74.128 43.7804 74.1465 43.825 74.1794 43.8578C74.2122 43.8907 74.2568 43.9092 74.3033 43.9092C74.3498 43.9092 74.3944 43.8907 74.4272 43.8578C74.4601 43.825 74.4786 43.7804 74.4786 43.7339C74.4786 43.7065 74.4786 43.6792 74.4786 43.6519C74.4787 43.5317 74.4789 43.412 74.4815 43.2943C74.4828 43.2356 74.4847 43.1773 74.4885 43.1217C74.4903 43.0941 74.4927 43.067 74.4959 43.0445C74.4974 43.0335 74.4995 43.0231 74.5003 43.02C74.5005 43.0188 74.5013 43.0188 74.4964 43.0296C74.4874 43.0277 74.4963 43.1084 74.3335 43.1144C74.3121 43.1119 74.2942 43.1055 74.2809 43.0989C74.1675 43.0035 74.2485 43.0741 74.2411 43.0856C74.2502 43.1089 74.2595 43.1362 74.2683 43.1637C74.2859 43.2191 74.3026 43.278 74.3187 43.3368C74.3509 43.4552 74.3813 43.5757 74.4117 43.6968C74.4183 43.7233 74.425 43.7499 74.4316 43.7764Z" fill="var(--stroke-0, #DAE562)"/>
<path id="Vector 101" d="M75.3033 44.8381C75.5171 44.7312 75.6797 44.5437 75.7552 44.317C75.8308 44.0902 75.8133 43.8427 75.7063 43.6289C75.5994 43.415 75.412 43.2525 75.1852 43.1769C74.9584 43.1013 74.7109 43.1189 74.4971 43.2258C74.4971 43.2258 74.4971 43.2258 74.4971 43.2258C74.403 43.2767 74.2457 43.3362 74.0252 43.5291C73.7969 43.7082 73.5849 44.1601 73.6021 44.4656C73.6021 44.4701 73.602 44.4745 73.602 44.4789C73.6048 44.7188 73.6706 44.8664 73.7488 45.0033C73.8384 45.1529 73.9476 45.2749 74.0881 45.4048C74.2405 45.5175 74.3704 45.7332 74.8775 45.7848C74.9022 45.7854 74.9268 45.7849 74.9511 45.7835C75.3895 45.7314 75.5182 45.5193 75.6248 45.4075C75.7257 45.2812 75.7853 45.1716 75.8383 45.0642C75.9406 44.851 76.0062 44.6492 76.053 44.4286C76.0551 44.4182 76.0572 44.4079 76.0592 44.3976C76.1694 43.9099 76.5465 43.0796 76.066 42.4084C76.0596 42.3996 76.0531 42.391 76.0466 42.3826C75.8336 42.1107 75.5948 41.9015 75.2968 41.7269C74.982 41.5709 74.6821 41.3565 73.9137 41.4534C73.8914 41.4575 73.8689 41.4621 73.8464 41.4672C73.4739 41.5396 73.0733 41.8184 72.8816 42.0836C72.679 42.3507 72.6041 42.5733 72.551 42.7529C72.4546 43.1113 72.452 43.35 72.4482 43.5739C72.4482 43.5804 72.4482 43.5869 72.4482 43.5934C72.4674 44.2949 72.5694 44.8463 72.9149 45.6043C72.9167 45.6078 72.9184 45.6113 72.9202 45.6148C73.0528 45.8757 73.1885 46.1691 73.4785 46.4773C73.7531 46.7642 74.3008 47.1644 75.1151 47.0286C75.1203 47.0276 75.1255 47.0266 75.1308 47.0256C75.8762 46.8657 76.2325 46.4101 76.4366 46.0842C76.6416 45.7395 76.7314 45.4199 76.7818 45.097C76.782 45.0957 76.7822 45.0944 76.7824 45.0931C76.8272 44.7697 76.8644 44.4832 76.8312 44.1197C76.8105 43.9362 76.7777 43.735 76.6501 43.4658C76.5201 43.2207 76.2788 42.7626 75.534 42.5298C75.5102 42.5231 75.4865 42.517 75.4627 42.5114C74.7265 42.3635 74.3273 42.6027 74.0815 42.7297C73.8312 42.8767 73.681 43.017 73.5482 43.1554C73.2918 43.4346 73.1169 43.7032 72.9752 44.099C72.9706 44.1123 72.9662 44.1255 72.9619 44.1389C72.8086 44.5841 72.8898 45.1628 73.1077 45.5518C73.3222 45.9515 73.6005 46.1844 73.8108 46.3961C73.8147 46.4 73.8187 46.404 73.8227 46.408C74.0775 46.6515 74.3344 46.9072 74.8512 47.0931C75.3427 47.3137 76.3162 47.1357 76.7333 46.6995C76.7469 46.6875 76.7601 46.6755 76.7731 46.6635C77.3848 46.0322 77.4838 45.6788 77.67 45.2711C77.8262 44.8715 77.9316 44.4921 77.9396 44.0011C77.9397 43.9934 77.9397 43.9857 77.9397 43.978C77.9376 43.6274 77.9014 43.1899 77.6862 42.6922C77.4791 42.1922 77.0415 41.7301 76.6751 41.4964C76.6718 41.4942 76.6685 41.492 76.6652 41.4898C75.991 41.1039 75.3018 41.3951 74.365 41.7234C74.3622 41.7246 74.3593 41.7259 74.3565 41.7271C74.0931 41.8344 73.8377 42.0592 73.7063 42.2561C73.2938 42.9593 73.3706 43.2272 73.3064 43.5658C73.2816 43.8159 73.3615 44.0732 73.5187 44.2795C73.6766 44.4859 73.8989 44.6244 74.1465 44.666C74.3942 44.7077 74.6496 44.6497 74.8663 44.5063C75.0824 44.3629 75.2421 44.1459 75.3006 43.9014C75.3006 43.9014 75.3006 43.9014 75.3006 43.9014C75.3326 43.7705 75.3639 43.6443 75.3949 43.5539C75.4199 43.4663 75.4756 43.4064 75.4136 43.5242C75.3801 43.5876 75.2578 43.7041 75.1494 43.7521C75.1482 43.7527 75.1471 43.7532 75.1459 43.7538C74.957 43.8368 74.9544 43.9661 74.8921 44.1225C74.8405 44.2728 74.7616 44.4093 74.7254 44.3872C74.7251 44.387 74.7247 44.3868 74.7243 44.3865C74.6913 44.3742 74.5346 44.2205 74.4852 44.0904C74.4308 43.9611 74.4461 43.9301 74.4444 43.9791C74.4444 43.9801 74.4444 43.9812 74.4444 43.9822C74.4465 44.0662 74.4621 44.2593 74.4716 44.4153C74.4771 44.4941 74.4802 44.5691 74.4898 44.6141C74.5057 44.6561 74.4976 44.6789 74.6312 44.5642C74.6366 44.5598 74.6423 44.5553 74.6483 44.5507C74.7406 44.4777 74.9145 44.3825 75.1071 44.3557C75.2996 44.3261 75.4652 44.3673 75.5506 44.4101C75.7239 44.5039 75.6809 44.5484 75.6852 44.5439C75.6852 44.5439 75.6852 44.5439 75.6853 44.5439C75.6811 44.5385 75.7787 44.515 75.8963 44.6238C76.0157 44.7232 76.0962 44.9808 76.0391 45.1356C76.0376 45.1403 76.0361 45.1448 76.0346 45.1493C75.9865 45.2762 75.9665 45.2981 75.904 45.3692C75.8688 45.4041 75.8274 45.4499 75.7003 45.5252C75.5761 45.5821 75.3216 45.769 74.7263 45.6533C74.7073 45.6488 74.6882 45.6439 74.6691 45.6386C74.0693 45.4464 73.931 45.1126 73.8712 44.9951C73.8146 44.8558 73.827 44.7972 73.8374 44.7582C73.8649 44.6846 73.9082 44.6985 73.9106 44.6679C73.9106 44.6678 73.9106 44.6676 73.9106 44.6675C73.9162 44.6412 73.9094 44.6127 73.9549 44.523C74.0011 44.4486 74.1227 44.2205 74.5686 44.119C74.5717 44.1184 74.5748 44.1178 74.5779 44.1173C75.0632 44.0427 75.2836 44.2856 75.3144 44.3594C75.3563 44.4513 75.3035 44.4682 75.2899 44.436C75.2897 44.4356 75.2895 44.4351 75.2892 44.4347C75.218 44.3045 75.1604 43.8649 75.1652 43.5904C75.1652 43.5879 75.1652 43.5854 75.1653 43.583C75.1635 43.5001 75.1799 43.4295 75.1656 43.4912C75.1544 43.5234 75.1385 43.6016 75.03 43.7464C74.931 43.8895 74.6654 44.0769 74.4433 44.1172C74.43 44.1202 74.4168 44.1228 74.4038 44.1252C73.977 44.1679 74.0165 44.082 73.9991 44.086C74 44.0767 74.0301 44.0868 74.0377 44.0756C74.038 44.0753 74.0383 44.0748 74.0387 44.0743C74.0528 44.0572 74.1825 43.989 74.3325 44.0085C74.4807 44.0217 74.6316 44.12 74.6386 44.2314C74.6389 44.2356 74.6392 44.2397 74.6394 44.244C74.6447 44.3364 74.629 44.4435 74.6046 44.5196C74.5935 44.5567 74.5774 44.5872 74.5808 44.5855C74.5909 44.5945 74.5939 44.5037 74.8708 44.4639C74.8859 44.463 74.9013 44.4627 74.9169 44.463C75.2338 44.5039 75.2205 44.5694 75.2643 44.538C75.2954 44.5183 75.3222 44.4728 75.3507 44.4478C75.3749 44.4273 75.4025 44.4101 75.4047 44.4831C75.4047 44.4845 75.4047 44.4859 75.4046 44.4873C75.4199 44.5803 75.3043 44.8243 75.2361 44.8645C75.1735 44.9157 75.2091 44.882 75.3033 44.8381Z" fill="var(--stroke-0, #DAE562)"/>
<path id="Vector 102" d="M70.8916 71.9645C71.0201 72.1572 71.2199 72.291 71.447 72.3364C71.6741 72.3819 71.91 72.3352 72.1027 72.2067C72.2954 72.0782 72.4292 71.8785 72.4747 71.6513C72.5201 71.4242 72.4734 71.1883 72.3449 70.9956C72.3449 70.9956 72.3449 70.9956 72.3449 70.9956C72.2074 70.8046 72.1377 70.6306 71.7936 70.3004C71.6824 70.2239 71.5745 70.0558 71.0997 70.0119C71.0888 70.0116 71.0779 70.0114 71.067 70.0115C70.7938 70.0082 70.541 70.1439 70.4139 70.2612C70.2788 70.3823 70.2161 70.4872 70.1674 70.5767C70.076 70.755 70.0493 70.8853 70.0288 71.0066C69.9933 71.246 70.0081 71.4436 70.0408 71.6385C70.0418 71.644 70.0428 71.6495 70.0438 71.655C70.0943 71.9234 70.1879 72.151 70.3243 72.3808C70.4728 72.6039 70.6142 72.8627 71.0703 73.078C71.0781 73.0812 71.0859 73.0844 71.0938 73.0875C71.9964 73.3851 72.6531 72.8543 72.8837 72.2815C72.8858 72.2757 72.8879 72.27 72.89 72.2642C73.0003 71.9446 73.0154 71.6515 72.9435 71.324C72.8683 71.0303 72.6825 70.4963 71.9773 70.3058C71.9582 70.3014 71.9393 70.2976 71.9205 70.2942C71.1347 70.2295 70.96 70.4906 70.7061 70.6239C70.478 70.7826 70.2994 70.9455 70.1225 71.1397C70.1177 71.145 70.113 71.1504 70.1082 71.1557C69.9579 71.3277 69.7874 71.5166 69.6431 71.813C69.5005 72.0973 69.3991 72.5723 69.5587 73.0316C69.5616 73.0404 69.5646 73.0492 69.5678 73.0579C69.8563 73.9282 70.888 74.4105 71.6931 74.1727C71.6969 74.1718 71.7007 74.1708 71.7045 74.1699C73.2246 73.7295 73.8115 72.4821 74.0226 71.4063C74.0251 71.3919 74.0273 71.3774 74.0294 71.363C74.1841 70.5555 73.6318 69.5155 72.7384 69.2753C72.7275 69.2719 72.7165 69.2687 72.7057 69.2656C72.0866 69.1116 71.7284 69.5261 71.5378 69.8963C71.3396 70.2816 71.3219 70.6521 71.1767 70.7804C71.1752 70.7817 71.1737 70.783 71.1721 70.7843C70.9556 70.9692 70.8066 71.2179 70.6831 71.4716C70.5875 71.6691 70.5064 71.8731 70.4249 72.0767C70.5064 71.8731 70.5875 71.6691 70.6831 71.4716C70.8066 71.2179 70.9556 70.9692 71.1721 70.7843C71.1737 70.783 71.1752 70.7817 71.1768 70.7805C71.3412 70.6481 71.6906 70.8288 71.8812 71.103C72.0779 71.3653 72.14 71.7366 71.9097 71.7036C71.9057 71.7028 71.9016 71.7018 71.8974 71.7008C71.7493 71.6717 71.5748 71.5471 71.4901 71.4029C71.4014 71.2587 71.3799 71.1093 71.3986 70.9797C71.3993 70.9751 71.4 70.9706 71.4008 70.966C71.3712 71.1523 71.2884 71.3997 71.2076 71.5441C71.121 71.6977 71.0758 71.7402 71.037 71.7704C71.0367 71.7705 71.0365 71.7707 71.0362 71.7709C71.1368 71.7469 71.3103 71.7657 71.4335 71.8469C71.5585 71.9277 71.6387 72.0359 71.6853 72.198C71.6862 72.2012 71.6871 72.2045 71.6879 72.2078C71.7345 72.382 71.6604 72.5337 71.6232 72.5345C71.584 72.5448 71.5841 72.4763 71.6271 72.4142C71.6285 72.4122 71.6298 72.4102 71.6312 72.4082C71.6842 72.3305 71.7668 72.2461 71.8281 72.197C71.8576 72.1725 71.8842 72.157 71.8753 72.1588C71.8636 72.1546 71.8211 72.2007 71.5956 72.1688C71.5852 72.1668 71.5745 72.1646 71.5636 72.162C71.375 72.1199 71.2363 71.9919 71.187 71.9176C71.1328 71.8394 71.1259 71.7978 71.1209 71.7731C71.1165 71.7249 71.1213 71.73 71.1422 71.6836C71.1426 71.6828 71.143 71.6819 71.1435 71.6811C71.1688 71.64 71.2201 71.6322 71.2905 71.6261C71.3547 71.6221 71.5018 71.6013 71.6538 71.6629C71.6566 71.664 71.6593 71.6651 71.662 71.6662C71.807 71.7442 71.7403 71.7118 71.7323 71.6424C71.7138 71.5746 71.7024 71.4785 71.7039 71.4149C71.7039 71.4136 71.7039 71.4123 71.704 71.4111C71.7043 71.3657 71.7163 71.318 71.7239 71.3185C71.7255 71.321 71.7324 71.333 71.6983 71.4041C71.6786 71.4402 71.6507 71.495 71.5615 71.5757C71.4796 71.6531 71.2852 71.7611 71.073 71.7581C71.0646 71.7582 71.0562 71.7581 71.0479 71.7578C70.6858 71.7195 70.6733 71.622 70.6453 71.6166C70.6236 71.5866 70.7827 71.7941 70.8916 71.9645Z" fill="var(--stroke-0, #DAE562)"/>
<path id="Vector 103" d="M22.4677 68.9683C22.4345 68.8688 22.3631 68.7865 22.2693 68.7395C22.1754 68.6926 22.0668 68.6849 21.9673 68.7181C21.8677 68.7513 21.7854 68.8226 21.7385 68.9165C21.6916 69.0103 21.6839 69.119 21.717 69.2185C21.717 69.2185 21.717 69.2185 21.717 69.2185C21.7865 69.4229 21.8565 69.6527 21.9999 69.8946C22.054 69.9845 22.1202 70.0755 22.2022 70.1594C22.2034 70.1607 22.2046 70.1619 22.2058 70.1632C22.3241 70.2816 22.4397 70.3911 22.608 70.4887C22.694 70.5357 22.7922 70.5839 22.9454 70.5989C23.0868 70.6186 23.3634 70.5606 23.5246 70.3491C23.5274 70.3456 23.5302 70.3421 23.5329 70.3386C23.7845 69.9362 23.7395 69.7551 23.7386 69.5061C23.6949 69.2848 23.7127 68.9352 23.107 68.6654C23.0812 68.6565 23.0552 68.6489 23.0293 68.6424C22.6372 68.556 22.3948 68.6626 22.223 68.7277C22.0493 68.802 21.9233 68.8822 21.8092 68.9688C21.5859 69.1435 21.4121 69.3425 21.3017 69.6434C21.2965 69.6582 21.2915 69.6731 21.2868 69.688C21.0805 70.2257 21.2432 71.2745 22.1425 71.631C22.1593 71.6378 22.1761 71.6442 22.1929 71.6502C23.1461 71.9013 23.6198 71.5653 24.1172 71.1382C24.1241 71.1314 24.131 71.1246 24.1377 71.1177C24.6831 70.5399 24.8498 69.9346 24.9105 69.4019C24.9109 69.3979 24.9112 69.3939 24.9116 69.3899C24.9299 69.1507 24.942 68.9069 24.8775 68.5848C24.8414 68.4224 24.7911 68.2362 24.6431 67.9991C24.5052 67.7722 24.1787 67.4364 23.7089 67.3332C23.6843 67.3276 23.6599 67.3226 23.6357 67.3183C23.0981 67.2391 22.8025 67.386 22.5758 67.4894C22.3513 67.6035 22.1925 67.7277 22.0525 67.8561C21.7772 68.1135 21.5832 68.395 21.4367 68.7122C21.4332 68.7198 21.4298 68.7275 21.4264 68.7352C21.1127 69.5481 21.0302 70.1622 21.3626 71.1195C21.3648 71.1248 21.367 71.13 21.3692 71.1353C21.5036 71.4582 21.7978 71.8807 22.2928 72.1073C22.7853 72.3379 23.3098 72.289 23.662 72.1615C23.6621 72.1615 23.6622 72.1615 23.6622 72.1614C24.5215 71.8314 24.9341 71.1868 25.0673 70.4848C25.0679 70.4813 25.0684 70.4779 25.069 70.4744C25.1264 70.0573 25.0913 69.4627 24.5376 68.9743C23.9612 68.5382 23.4719 68.7456 23.2175 68.8593C23.1309 68.9124 23.0546 69.0159 23.0024 69.1234C22.9503 69.2323 22.9266 69.3362 22.9394 69.4361C22.9522 69.5361 23.0014 69.6306 23.0792 69.7229C23.1569 69.8137 23.2568 69.8947 23.354 69.9242C23.354 69.9242 23.354 69.9242 23.354 69.9242C23.5191 69.9836 23.5185 70.2222 23.2375 70.1211C22.987 69.9841 22.941 69.8996 22.8898 69.9112C22.8895 69.9112 22.8891 69.9113 22.8888 69.9113C22.8374 69.91 22.7366 69.8998 22.9003 69.8054C22.9003 69.8054 22.9003 69.8054 22.9004 69.8054C22.9658 69.7723 23.1644 69.731 23.3815 69.8281C23.5993 69.924 23.696 70.09 23.7132 70.1348C23.7135 70.1356 23.7138 70.1364 23.7142 70.1372C23.7153 70.2109 23.7002 69.8148 23.7496 69.7629C23.7499 69.7623 23.7502 69.7616 23.7504 69.761C23.7615 69.7318 23.7876 69.694 23.7883 69.6889C23.7865 69.6868 23.7804 69.6942 23.7253 69.7206C23.6668 69.7381 23.5623 69.8227 23.2145 69.7745C23.1989 69.7717 23.183 69.7684 23.1669 69.7646C22.8569 69.6956 22.6608 69.4735 22.6123 69.38C22.5548 69.2767 22.5638 69.2431 22.5717 69.2357C22.5938 69.225 22.6344 69.3059 22.6534 69.3892C22.6538 69.3906 22.6541 69.3921 22.6545 69.3935C22.7097 69.5938 22.7231 69.7771 22.7426 69.7408C22.743 69.7404 22.7433 69.7401 22.7436 69.7397C22.7531 69.7315 22.7314 69.7357 22.7256 69.7258C22.7235 69.7228 22.7275 69.6747 22.9117 69.7261C22.9181 69.7283 22.9246 69.7306 22.9313 69.7332C23.0929 69.7881 23.2383 69.9612 23.273 70.0797C23.3143 70.2015 23.3003 70.2761 23.288 70.3183C23.2874 70.3205 23.2866 70.3225 23.2858 70.3245C23.2683 70.3588 23.2476 70.3131 23.2158 70.2807C23.1981 70.2643 23.1794 70.2504 23.1271 70.2523C23.0754 70.2466 22.9746 70.2991 22.7232 70.2389C22.7069 70.2342 22.6903 70.2288 22.6738 70.2225C22.2946 70.0231 22.4347 69.9054 22.4588 69.8974C22.5198 69.8653 22.5079 69.9356 22.6393 69.7347C22.6408 69.7329 22.6425 69.731 22.6441 69.7292C22.7401 69.6139 22.8971 69.5987 22.9258 69.6191C22.9649 69.6359 22.9504 69.6552 22.9305 69.6612C22.8865 69.6749 22.8115 69.6511 22.7695 69.6079C22.769 69.6074 22.7686 69.6069 22.7681 69.6065C22.7371 69.5748 22.7068 69.5348 22.6777 69.4864C22.599 69.3568 22.5352 69.1723 22.4677 68.9683Z" fill="var(--stroke-0, #DAE562)"/>
<path id="Vector 104" d="M36.3476 72.906C36.1719 73.0816 36.0733 73.3199 36.0733 73.5684C36.0733 73.8168 36.1719 74.0551 36.3476 74.2308C36.5233 74.4064 36.7616 74.5051 37.01 74.5051C37.2585 74.5051 37.4967 74.4064 37.6724 74.2308C37.6724 74.2308 37.6724 74.2308 37.6724 74.2308C37.7208 74.1805 37.8428 74.0694 37.9562 73.8778C38.0716 73.6875 38.1361 73.4379 38.1431 73.2483C38.1442 73.2271 38.1449 73.2071 38.1451 73.1868C38.1451 73.1845 38.1452 73.1823 38.1452 73.1801C38.144 72.9555 38.1451 72.8086 38.1192 72.6136C38.103 72.5151 38.0867 72.4144 38.008 72.2553C37.9626 72.1737 37.9175 72.0767 37.7448 71.923C37.6582 71.8506 37.5223 71.7505 37.2979 71.6922C37.0763 71.6297 36.771 71.6616 36.5776 71.7549C36.5048 71.7872 36.4409 71.8257 36.3941 71.8584C36.1579 72.0343 36.1212 72.1374 36.0748 72.2211C36.0359 72.3039 36.023 72.3673 36.0173 72.4259C36.0074 72.5417 36.0309 72.6349 36.0593 72.7248C36.0882 72.8145 36.1239 72.8968 36.1531 72.9868C36.1679 73.0326 36.1806 73.0793 36.1933 73.144C36.2 73.1782 36.2058 73.2141 36.2182 73.2736C36.2413 73.3357 36.2145 73.4038 36.386 73.6285C36.5074 73.7956 36.8363 73.8835 36.9783 73.8423C37.2222 73.7893 37.258 73.7248 37.3162 73.6888C37.3642 73.6513 37.3957 73.6219 37.4227 73.5978C37.4769 73.5484 37.5174 73.5118 37.559 73.4763C37.6406 73.4062 37.721 73.3426 37.8023 73.2645C37.9599 73.1112 38.1376 72.8905 38.1428 72.5271C38.1427 72.4693 38.1381 72.4125 38.1293 72.3576C38.0531 71.9205 37.86 71.5994 37.5953 71.3426C37.3191 71.1071 36.9725 70.8214 36.2003 70.9496C36.1043 70.9705 36.0095 71.0009 35.9198 71.0393C35.0874 71.4556 35.0183 71.9812 34.9268 72.2572C34.8567 72.5614 34.8599 72.7918 34.8724 73.0107C34.8738 73.0334 34.8755 73.0563 34.8774 73.0789C34.9764 73.6135 34.9687 74.2078 35.9267 74.9328C35.9617 74.9543 35.9971 74.9743 36.0327 74.9929C37.0778 75.4604 37.9392 75.1323 38.5408 74.4483C38.5573 74.4279 38.5733 74.4074 38.5887 74.3867C39.1559 73.5074 39.4116 72.8695 39.0034 71.8262C38.9952 71.8091 38.9868 71.7922 38.9781 71.7754C38.5874 70.9492 37.1108 70.8457 36.4466 71.5106C36.4363 71.5194 36.4262 71.5283 36.4161 71.5373C36.1073 71.8039 36.0308 72.1847 36.0704 72.3983C36.1052 72.6247 36.1981 72.7675 36.2908 72.8892C36.4184 73.0506 36.5606 73.1673 36.7117 73.27C36.7738 73.0991 36.843 72.9374 36.9361 72.8127C37.0042 72.7225 37.0926 72.6489 37.1772 72.6663C37.2644 72.6732 37.3089 72.8539 37.1933 73.0227C37.1898 73.0283 37.1862 73.0338 37.1827 73.0394C37.0707 73.2311 36.8429 73.4474 36.5653 73.5168C36.2919 73.5937 35.9983 73.5035 35.9244 73.3522C35.921 73.3456 35.9178 73.339 35.9147 73.3325C35.833 73.1389 35.9155 73.1065 35.9828 73.0739C36.0597 73.0434 36.1278 73.0302 36.248 72.9115C36.254 72.9059 36.2603 72.9002 36.2669 72.8943C36.3806 72.7964 36.5087 72.7618 36.6313 72.756C36.7544 72.7551 36.9044 72.7487 37.1434 72.8655C37.1596 72.874 37.176 72.8832 37.1923 72.893C37.4254 73.047 37.4489 73.1385 37.4836 73.1302C37.5126 73.1288 37.5345 73.0761 37.5529 73.0328C37.5544 73.0292 37.5559 73.0256 37.5575 73.0221C37.5716 72.9875 37.5991 72.9627 37.5983 73.0223C37.5955 73.0535 37.5881 73.1088 37.5262 73.2173C37.4661 73.3192 37.3238 73.5117 37.0315 73.6386C36.9681 73.6658 36.9003 73.6874 36.8323 73.7019C36.2898 73.7812 36.1784 73.5879 36.0899 73.4828C36.0136 73.3591 35.9766 73.2258 35.9684 73.0112C35.9681 72.9843 35.9704 72.9559 35.9757 72.927C36.0141 72.7464 36.163 72.7147 36.2611 72.7361C36.3123 72.7455 36.3545 72.7669 36.3887 72.7762C36.4065 72.7803 36.421 72.7821 36.4452 72.7682C36.4576 72.7612 36.4725 72.7494 36.5032 72.7265C36.5435 72.7053 36.5598 72.6549 36.7808 72.606C36.9091 72.5673 37.2234 72.651 37.3357 72.8071C37.4933 73.0148 37.462 73.0601 37.482 73.1011C37.4915 73.1386 37.4967 73.1532 37.5037 73.165C37.5171 73.1861 37.5344 73.1889 37.5555 73.1915C37.5975 73.1951 37.6528 73.1915 37.7058 73.1971C37.7584 73.2028 37.8106 73.2133 37.8368 73.249C37.8491 73.2676 37.8561 73.2921 37.8406 73.3379C37.8176 73.3848 37.8077 73.4516 37.6071 73.6022C37.567 73.6301 37.5109 73.6641 37.4455 73.6932C37.2724 73.7771 36.9903 73.8068 36.7902 73.7497C36.5873 73.6967 36.4713 73.6088 36.4015 73.5502C36.2632 73.4253 36.2439 73.3648 36.2215 73.3213C36.188 73.2387 36.204 73.2216 36.2144 73.2078C36.2405 73.1826 36.273 73.213 36.2717 73.166C36.2717 73.1655 36.2717 73.165 36.2717 73.1645C36.2717 73.1601 36.2719 73.1553 36.2722 73.1499C36.2484 73.0433 36.4595 72.774 36.3476 72.906Z" fill="var(--stroke-0, #DAE562)"/>
<path id="Vector 105" d="M41.3809 56.8087C41.4463 56.678 41.457 56.5268 41.4108 56.3883C41.3646 56.2498 41.2653 56.1352 41.1347 56.0699C41.0041 56.0046 40.8529 55.9939 40.7143 56.04C40.5758 56.0862 40.4613 56.1856 40.396 56.3162C40.396 56.3162 40.396 56.3162 40.396 56.3162C40.3658 56.3765 40.3351 56.4377 40.3034 56.503C40.2874 56.536 40.2715 56.5691 40.2535 56.609C40.2444 56.6295 40.2352 56.6499 40.2222 56.6832C40.215 56.7034 40.2085 56.7145 40.1924 56.7773C40.1887 56.7942 40.1825 56.8173 40.1781 56.8674C40.1767 56.8889 40.1718 56.9419 40.1863 57.0189C40.1856 57.0863 40.3235 57.4231 40.6507 57.4618C40.9344 57.4751 40.9272 57.4217 40.9963 57.3989C41.0318 57.3792 41.0507 57.3653 41.0682 57.3522C41.0994 57.3279 41.1088 57.3183 41.1224 57.3055C41.1694 57.2585 41.1776 57.245 41.1935 57.2255C41.273 57.1205 41.3489 57.0694 41.4501 56.9823C41.5257 56.9153 41.6125 56.8378 41.6837 56.6906C41.7487 56.552 41.8221 56.28 41.6459 55.941C41.6029 55.8614 41.5512 55.7925 41.4983 55.7361C41.2194 55.4576 41.0046 55.4109 40.8295 55.3591C40.653 55.3155 40.5012 55.3042 40.3519 55.3095C40.0572 55.3227 39.764 55.4048 39.4858 55.6143C39.46 55.634 39.4351 55.6544 39.4113 55.6753C38.7555 56.3203 38.7875 56.9029 38.7922 57.398C38.7928 57.4094 38.7936 57.4207 38.7943 57.432C38.8097 57.6291 38.8537 57.8273 38.9591 58.0761C39.0154 58.2013 39.0813 58.344 39.2342 58.5225C39.3717 58.6953 39.7179 58.9289 40.0707 58.9228C40.1043 58.9233 40.1367 58.9223 40.1679 58.9201C40.5396 58.8793 40.6759 58.7614 40.8072 58.6804C40.9313 58.5937 41.02 58.5123 41.1011 58.4317C41.2609 58.2706 41.3839 58.114 41.5003 57.942C41.5028 57.9382 41.5054 57.9344 41.5079 57.9306C41.5963 57.7959 41.8349 57.7582 42.0961 57.6293C42.2261 57.5607 42.363 57.4808 42.4809 57.2842C42.5375 57.1798 42.5981 57.0586 42.6086 56.7929C42.6098 56.6597 42.6036 56.4828 42.5037 56.2204C42.412 55.9668 42.1512 55.592 41.7763 55.3905C41.6733 55.3328 41.5674 55.289 41.4761 55.2597C41.0551 55.1351 40.8391 55.1808 40.6809 55.1991C40.5249 55.2246 40.4268 55.2573 40.3434 55.2877C40.1807 55.3494 40.0823 55.407 39.9887 55.4654C39.8963 55.5245 39.8175 55.582 39.7225 55.659C39.6739 55.6989 39.6233 55.7409 39.5474 55.8139C39.5088 55.8518 39.4632 55.896 39.3936 55.9803C39.3563 56.0265 39.3141 56.0789 39.2526 56.1794C39.1981 56.2893 39.0825 56.4097 39.0255 56.8742C39.0081 57.0772 39.0267 57.3219 39.1261 57.5798C39.2233 57.8419 39.4166 58.0815 39.5702 58.209C39.9202 58.4928 40.1288 58.5183 40.2718 58.5575C40.6019 58.6189 40.6916 58.5898 40.7965 58.5844C40.8909 58.574 40.9541 58.5607 41.0073 58.5486C41.1145 58.5233 41.1882 58.4982 41.2585 58.4717C41.3957 58.4188 41.5106 58.3613 41.6395 58.2785C41.7672 58.1937 41.9089 58.0902 42.0745 57.8897C42.2321 57.6972 42.446 57.3429 42.4609 56.8602C42.4679 56.6152 42.4232 56.4154 42.3702 56.2586C42.0308 55.4601 41.6503 55.4192 41.2372 55.3113C41.0255 55.276 40.7878 55.2632 40.4969 55.3207C40.2102 55.3731 39.8642 55.5484 39.6552 55.7823C39.5573 55.8873 39.4929 55.9844 39.4416 56.0677C39.1138 56.7087 39.1759 56.941 39.1434 57.2758C39.1381 57.5894 39.1651 57.905 39.3096 58.2601C39.3256 58.2983 39.3425 58.3357 39.3608 58.3731C39.5426 58.7374 39.7949 59.0859 40.2245 59.3623C40.6318 59.6318 41.3729 59.8321 42.104 59.5111C42.1591 59.4872 42.2128 59.4609 42.2629 59.4338C43.6817 58.4449 43.6322 57.5958 43.6371 56.7012C43.6355 56.6838 43.6338 56.6664 43.6319 56.649C43.4645 55.5955 41.91 55.5127 41.2702 55.3481C41.2654 55.3467 41.2607 55.3454 41.256 55.344C40.8379 55.2328 40.5177 55.3998 40.2984 55.5192C40.0765 55.6468 39.8993 55.7842 39.7287 55.9112C39.6352 55.9814 39.5733 56.0859 39.5567 56.2017C39.5402 56.3175 39.5703 56.4351 39.6405 56.5287C39.7107 56.6223 39.8152 56.6842 39.931 56.7007C40.0468 56.7173 40.1645 56.6871 40.2581 56.617C40.2581 56.617 40.2581 56.617 40.2581 56.617C40.4271 56.4902 40.5883 56.3693 40.7346 56.286C40.8855 56.1959 41.0041 56.1812 41.0131 56.1921C41.0134 56.1922 41.0137 56.1924 41.0139 56.1925C41.0699 56.2176 40.9266 56.5724 40.6435 56.7771C40.3751 56.998 40.0338 57.0873 40.0287 57.0396C40.0285 57.0382 40.0284 57.0367 40.0283 57.0352C40.0279 57.001 40.0448 56.9906 40.0853 56.9439C40.1431 56.9015 40.1463 56.7833 40.5685 56.5388C40.596 56.525 40.626 56.5113 40.6575 56.4988C41.0787 56.3296 41.4468 56.4877 41.5507 56.6083C41.673 56.7359 41.6693 56.8405 41.6695 56.9174C41.6693 56.9254 41.6687 56.9333 41.6677 56.9412C41.6536 57.0109 41.587 57.0071 41.5433 56.9971C41.5205 56.9931 41.5027 56.9866 41.4875 57.0044C41.4657 57.0269 41.4803 57.0544 41.3716 57.2497C41.3413 57.2987 41.3016 57.3635 41.2326 57.441C41.0876 57.613 40.8287 57.7538 40.6303 57.8021C40.428 57.855 40.2785 57.8633 40.148 57.8625C40.0176 57.8593 39.9032 57.8434 39.7803 57.7794C39.6605 57.7084 39.515 57.6149 39.3883 57.2729C39.3457 57.1465 39.307 56.9788 39.313 56.7658C39.3263 56.3467 39.5105 56.0521 39.6285 55.9081C39.7542 55.7566 39.8464 55.6935 39.9214 55.6432C39.9974 55.5948 40.0557 55.566 40.1341 55.5357C40.1748 55.5205 40.2184 55.5051 40.2949 55.487C40.3332 55.4783 40.3805 55.4681 40.4591 55.4594C40.5482 55.4556 40.6224 55.4273 40.9367 55.4855C41.0732 55.5232 41.2754 55.5466 41.62 55.826C41.7713 55.9514 41.9623 56.1882 42.0584 56.4471C42.1566 56.7019 42.1748 56.9434 42.1577 57.1427C42.1015 57.5983 41.9904 57.7095 41.9407 57.8115C41.8841 57.904 41.8475 57.949 41.8164 57.9878C41.7585 58.0578 41.7265 58.0883 41.7016 58.1134C41.6533 58.1607 41.6321 58.1789 41.6138 58.1963C41.5793 58.2283 41.5644 58.2452 41.5378 58.2677C41.5102 58.2897 41.4801 58.3148 41.3889 58.3519C41.3412 58.3701 41.2796 58.3928 41.1609 58.4127C41.0398 58.4255 40.8627 58.4697 40.4777 58.3564C40.3942 58.3297 40.2964 58.2893 40.2005 58.2355C39.8517 58.0483 39.61 57.698 39.5296 57.4715C39.441 57.2363 39.4396 57.089 39.4427 56.9849C39.4565 56.7788 39.5089 56.7157 39.5535 56.6692C39.6467 56.5882 39.7431 56.6193 39.827 56.6593C39.9951 56.7469 40.1161 56.9151 40.0743 56.9766C40.0731 56.9783 40.072 56.9801 40.0708 56.9819C40.0159 57.0639 39.9462 57.1475 39.8881 57.2024C39.8601 57.2293 39.8331 57.2492 39.8306 57.2492C39.8355 57.2532 39.8326 57.2126 40.0503 57.1844C40.0688 57.183 40.0888 57.1823 40.11 57.1825C40.335 57.1757 40.5646 57.3347 40.6253 57.4089C40.6997 57.4884 40.7146 57.5133 40.733 57.5187C40.7638 57.5262 40.783 57.4711 40.7957 57.4165C40.7964 57.4132 40.7971 57.4099 40.7978 57.4065C40.8128 57.245 40.9823 57.1078 40.8283 57.2918C40.8222 57.2972 40.8155 57.3025 40.8084 57.3076C40.7328 57.3594 40.6864 57.3448 40.645 57.3205C40.6225 57.3074 40.6005 57.2926 40.5509 57.2673C40.5016 57.2345 40.4159 57.227 40.2309 57.0378C40.1961 56.999 40.1606 56.9497 40.131 56.8915C40.0107 56.6413 40.0876 56.48 40.1362 56.4427C40.1908 56.3978 40.2421 56.4187 40.275 56.4458C40.3201 56.4803 40.3281 56.5456 40.3259 56.5473C40.329 56.5441 40.3239 56.547 40.3562 56.5145C40.3661 56.5051 40.373 56.4978 40.4007 56.4763C40.4164 56.4646 40.4337 56.4517 40.4675 56.4329C40.5341 56.4114 40.5259 56.3586 40.807 56.3717C41.132 56.4102 41.2688 56.745 41.2677 56.8102C41.2818 56.8856 41.277 56.9357 41.2758 56.9555C41.2717 57.0017 41.2664 57.0202 41.2635 57.0332C41.2515 57.0796 41.2508 57.0752 41.2498 57.0792C41.2489 57.0814 41.2532 57.0708 41.2579 57.0606C41.2676 57.0389 41.2807 57.0115 41.2941 56.9839C41.3212 56.928 41.3509 56.8688 41.3809 56.8087Z" fill="var(--stroke-0, #DAE562)"/>
</g>
</svg>
