<svg preserveAspectRatio="none" width="100%" height="100%" overflow="visible" style="display: block;" viewBox="0 0 70.9969 175.052" fill="none" xmlns="http://www.w3.org/2000/svg">
<path id="Vector 86" d="M18.3411 41.7281C18.3411 42.5188 18.6552 43.2771 19.2143 43.8362C19.7734 44.3953 20.5317 44.7094 21.3224 44.7094C22.1131 44.7094 22.8714 44.3953 23.4305 43.8362C23.9896 43.2771 24.3037 42.5188 24.3037 41.7281C24.3037 41.7281 24.3037 41.7281 24.3037 41.7281C24.3009 41.5395 24.3049 41.3921 24.2502 41.0398C24.1943 40.7788 24.1661 40.4358 23.7684 39.7998C23.5314 39.3007 22.234 38.2761 21.014 38.4458C20.7422 38.4629 20.4314 38.5421 20.3052 38.5857C20.1742 38.6284 20.0571 38.6761 19.9524 38.7252C19.743 38.8238 19.5824 38.9263 19.4515 39.0208C19.1914 39.2113 19.0418 39.37 18.9239 39.5019C18.8137 39.6292 18.7951 39.657 18.7427 39.7259C18.6534 39.8461 18.5885 39.947 18.5319 40.0398C18.424 40.2199 18.3883 40.2919 18.328 40.4092C18.1291 40.8094 18.027 41.0687 17.9067 41.3678C17.693 41.9085 17.5057 42.4363 17.3319 42.9381C16.979 43.9619 16.6603 44.9542 16.3471 45.95C15.7187 47.9533 15.1304 49.9288 14.547 51.9241C13.3908 55.8852 12.2733 59.8774 11.1819 63.8465C10.4483 66.5158 9.72485 69.1851 9.00926 71.8531C8.88964 72.2991 8.77206 72.7401 8.65645 73.1762C5.59257 84.1246 3.57305 95.9748 0.453386 106.092C0.243389 106.657 0.108003 107.255 0.0458565 107.828C-0.057729 108.776 0.0292802 109.637 0.156828 110.364C0.246274 110.823 0.326156 111.361 0.714062 112.17C0.987399 112.737 1.67624 113.613 2.80111 113.982C3.9202 114.344 4.80491 114.053 5.3047 113.809C5.91074 113.482 6.29041 113.138 6.6837 112.921C15.12 106.611 20.2922 99.4586 27.0174 92.9146C27.1854 92.744 27.3467 92.5853 27.4963 92.4461C27.6706 92.2834 27.8315 92.1496 27.9456 92.0725C27.9983 92.0363 28.0388 92.0185 28.0081 92.0399C27.9723 92.0529 27.8793 92.1517 27.4295 92.1878C27.1968 92.201 26.8619 92.1604 26.5439 92.0094C26.2361 91.8694 25.9896 91.6341 25.8786 91.4935C25.626 91.1617 25.6358 91.0724 25.6114 91.0416C25.5901 90.9959 25.6075 91.1864 25.5959 91.3693C25.5602 92.1942 25.3671 93.3228 25.164 94.374C24.7439 96.5335 24.2341 98.7286 23.8698 100.973C23.8574 101.049 23.845 101.126 23.8328 101.203C21.3607 116.74 18.7588 132.266 16.5285 147.937C16.5189 148.005 16.5094 148.074 16.5 148.142C15.5938 155.514 14.3649 162.824 15.7137 170.984C15.7374 171.112 15.7622 171.244 15.7842 171.361C15.8398 171.649 15.8863 171.872 16.002 172.24C16.0652 172.436 16.1419 172.642 16.2507 172.871C16.3787 173.138 16.596 173.537 16.9807 173.938C17.4343 174.449 18.502 175.1 19.6447 175.049C20.1796 175.042 20.7111 174.879 20.994 174.752C21.2806 174.628 21.5092 174.489 21.6996 174.353C22.1126 174.049 22.2278 173.909 22.4059 173.721C22.4864 173.632 22.5589 173.545 22.6262 173.461C22.6801 173.393 22.7279 173.33 22.7749 173.266C23.4744 172.259 23.7062 171.654 24.029 170.96C24.6039 169.654 25.0662 168.407 25.5188 167.168C26.415 164.694 27.2369 162.254 28.0743 159.811C29.7371 154.945 31.4234 150.119 33.3074 145.376C33.5398 144.79 33.799 144.147 34.0386 143.56C41.6059 125.27 49.9434 107.147 58.2254 89.0542C58.4143 88.6425 58.6005 88.2372 58.7841 87.8383C62.6798 78.9875 67.0413 71.666 70.8268 61.3807C70.9174 60.9076 70.9886 60.4244 70.9969 59.8157C70.9734 59.2939 71.0939 58.7716 70.6336 57.6058C70.4066 57.0492 69.7308 56.1043 68.6316 55.701C67.5498 55.3038 66.7206 55.4678 66.206 55.5867C65.7749 55.6371 65.3548 55.7114 64.954 55.86C57.4822 58.6978 53.256 64.4106 48.1148 67.1C47.7952 67.2804 47.4813 67.4596 47.1661 67.6408C44.642 69.0868 41.4395 70.6323 40.0931 70.8571C40.5252 70.7524 41.1289 70.7691 41.5867 70.9193C42.0512 71.0646 42.3445 71.2751 42.5134 71.4164C42.8679 71.7357 42.8055 71.8082 42.7496 71.7803C42.6806 71.7514 42.5609 71.6263 42.4602 71.4761C42.4206 71.5109 42.3099 71.234 42.2549 70.9945C40.8305 63.6276 39.725 55.384 38.5752 47.5048C38.5409 47.2619 38.5072 47.0201 38.474 46.7794C36.3457 31.6639 35.8004 19.3669 36.0741 1.39728C35.8644 1.05863 35.503 0.543514 34.6772 0.199244C33.8802 -0.132025 33.0386 0.0184762 32.6715 0.16043C31.8706 0.481539 31.7512 0.699753 31.5551 0.861569C31.2551 1.16075 31.144 1.33508 31.0385 1.48234C28.4932 6.22629 27.6707 9.82054 26.2465 13.9879C26.1838 14.1841 26.1202 14.3834 26.0556 14.5855C22.1271 27.0102 18.8869 39.5768 15.2172 52.0365C14.7028 53.7959 14.1824 55.5546 13.6604 57.3079C13.6429 57.3665 13.6255 57.4249 13.6082 57.4831C11.8496 63.5773 9.92162 69.7195 9.43263 76.1789C9.41102 76.4145 9.4839 76.649 9.63523 76.8309C9.78656 77.0128 10.004 77.1272 10.2396 77.1488C10.4752 77.1704 10.7098 77.0975 10.8917 76.9462C11.0735 76.7948 11.1879 76.5774 11.2095 76.3418C11.2095 76.3418 11.2095 76.3418 11.2095 76.3418C11.6741 70.1163 13.5633 64.0667 15.3183 57.9923C15.3355 57.9344 15.3529 57.8763 15.3703 57.818C15.8919 56.0737 16.4431 54.3304 17.0132 52.5938C21.0767 40.2955 25.9553 28.2532 30.6204 16.2028C30.6967 16.0072 30.7722 15.8146 30.8467 15.6252C32.3569 11.8493 34.0803 7.32606 35.5604 4.62576C35.5554 4.62874 35.564 4.64358 35.3917 4.81846C35.2651 4.91403 35.2147 5.07319 34.5018 5.36146C34.1761 5.48829 33.3854 5.6338 32.6298 5.31988C31.8479 4.99364 31.5167 4.51157 31.3329 4.21594C29.1892 15.7739 30.7721 33.2897 32.4274 47.5616C32.4571 47.8069 32.487 48.0535 32.5173 48.3012C33.5373 56.3199 34.1057 64.018 35.3802 72.4398C35.4576 72.8219 35.4877 73.1766 35.6457 73.8019C35.9374 74.761 35.9616 75.7559 37.5694 77.2734C38.2782 77.9628 40.1566 78.7423 41.6982 78.3285C46.1337 76.9728 47.8478 74.9033 50.5261 73.4831C50.8278 73.3096 51.1252 73.14 51.4254 72.9709C57.9051 69.3356 62.1859 63.978 67.3181 62.2329C67.6029 62.1273 67.864 61.9696 68.1351 61.802C67.8926 61.8366 67.3584 61.9636 66.5478 61.6609C65.7209 61.3495 65.2484 60.635 65.1444 60.3313C65.0155 59.9942 65.0383 59.8684 65.0425 59.8061C65.0523 59.7469 65.0672 59.7566 65.0677 59.788C65.0712 59.8707 65.0548 60.0739 65.0178 60.2791C62.3063 67.7219 57.5538 77.1017 53.7843 85.5382C53.6002 85.9383 53.4134 86.3448 53.2237 86.7576C44.9281 104.861 36.4246 122.865 28.6128 141.321C28.3642 141.917 28.0932 142.569 27.8472 143.165C25.8535 147.992 23.974 152.846 22.1542 157.684C21.2403 160.108 20.346 162.528 19.4341 164.884C18.9792 166.054 18.51 167.238 18.0419 168.261C17.8197 168.758 17.5098 169.326 17.4637 169.37C17.4661 169.366 17.4763 169.35 17.5278 169.292C17.5901 169.229 17.6228 169.174 17.8804 168.983C18.002 168.897 18.1636 168.796 18.3849 168.7C18.6013 168.603 19.0379 168.465 19.4965 168.459C20.4795 168.412 21.4053 168.99 21.7368 169.373C22.0278 169.679 22.1472 169.922 22.2041 170.037C22.2526 170.139 22.2722 170.199 22.2814 170.226C22.2955 170.272 22.2819 170.231 22.2676 170.151C22.2447 170.028 22.2212 169.902 22.1999 169.787C21.0907 163.474 22.0008 156.089 22.8536 148.996C22.8624 148.929 22.8711 148.862 22.88 148.794C24.957 133.269 27.4655 117.71 29.7795 102.114C29.791 102.036 29.8021 101.959 29.8131 101.883C30.1365 99.6008 30.3043 97.328 30.4019 94.9624C30.4399 93.7731 30.4957 92.6238 30.391 91.1705C30.3554 90.803 30.3241 90.3983 30.1586 89.8116C30.0588 89.5091 29.975 89.1566 29.5409 88.5906C29.1764 88.0309 27.9909 87.4478 27.253 87.5501C25.8359 87.7229 25.6179 88.1375 25.2147 88.3781C24.861 88.6493 24.619 88.8741 24.3641 89.1131C24.1508 89.315 23.9492 89.5169 23.7501 89.7218C17.2242 96.2427 11.0108 104.19 4.50767 109.057C4.31181 109.171 4.0478 109.136 4.00602 108.985C4.02675 108.871 4.38176 108.618 5.03818 108.779C5.69689 108.952 6.05578 109.409 6.11318 109.529C6.20464 109.723 6.14317 109.587 6.11936 109.376C6.05961 108.975 6.05457 108.683 6.07669 108.49C6.09007 108.371 6.11151 108.284 6.14367 108.196C9.72309 96.5192 11.3306 85.7123 14.4199 74.704C14.5341 74.2734 14.6501 73.838 14.7682 73.3977C15.4811 70.74 16.2014 68.0821 16.9312 65.4267C18.0168 61.4788 19.1278 57.5102 20.2703 53.5961C20.8464 51.6258 21.4268 49.6777 22.0356 47.7367C22.3383 46.7743 22.646 45.8178 22.9676 44.885C23.1242 44.4319 23.2939 43.958 23.4496 43.565C23.5303 43.36 23.6163 43.163 23.6493 43.0991C23.6539 43.0892 23.6591 43.0832 23.6277 43.1356C23.6096 43.1652 23.5808 43.2116 23.5255 43.2863C23.4919 43.3302 23.4817 43.3467 23.399 43.4422C23.3091 43.5423 23.1857 43.6763 22.95 43.8491C22.8313 43.9348 22.6824 44.0303 22.4842 44.1235C22.3851 44.17 22.2736 44.2155 22.1479 44.2564C22.0272 44.2982 21.7276 44.3747 21.4636 44.3913C20.2766 44.5579 19.0096 43.5531 18.7935 43.0864C18.4209 42.4883 18.412 42.2051 18.3698 42.0259C18.3339 41.7906 18.3434 41.7565 18.3411 41.7281Z" fill="var(--stroke-0, #DAE562)"/>
</svg>
