<svg preserveAspectRatio="none" width="100%" height="100%" overflow="visible" style="display: block;" viewBox="0 0 133.319 132.454" fill="none" xmlns="http://www.w3.org/2000/svg">
<g id="Group 30">
<path id="Vector 106" d="M63.0328 7.33964C63.2496 7.5171 63.5281 7.60113 63.807 7.57324C64.0858 7.54536 64.3422 7.40784 64.5197 7.19095C64.6971 6.97406 64.7811 6.69555 64.7533 6.4167C64.7254 6.13785 64.5879 5.8815 64.371 5.70404C64.371 5.70404 64.371 5.70404 64.371 5.70404C61.8676 3.7413 59.5741 1.63249 56.2215 0.335732C56.2214 0.33572 56.2214 0.335707 56.2213 0.335695C51.6781 -0.445568 47.9812 0.291068 44.1081 0.979092C43.4853 1.1141 42.8674 1.26864 42.2549 1.44796C42.249 1.44968 42.2432 1.4514 42.2373 1.45312C34.3891 3.80416 27.7413 8.33163 21.4351 12.6782C21.4258 12.6847 21.4164 12.6912 21.407 12.6977C14.9186 17.5019 11.2093 23.8476 7.30744 29.842C7.29999 29.8539 7.29255 29.8657 7.28511 29.8776C4.14913 34.7332 2.43252 40.469 1.34031 45.7822C1.33765 45.7946 1.33499 45.8071 1.33234 45.8195C0.429135 50.2807 0.440417 54.5048 0.201842 58.7155C0.201312 58.7258 0.200782 58.7361 0.200252 58.7464C-0.142294 65.9857 -0.158942 73.2358 1.07521 80.6168C1.07655 80.6243 1.07789 80.6318 1.07924 80.6393C1.67956 84.0542 3.19504 86.979 4.46913 89.7987C4.47121 89.8032 4.47328 89.8077 4.47536 89.8122C6.79522 94.7983 9.29159 99.5737 11.9383 104.359C11.9394 104.361 11.9404 104.363 11.9415 104.365C15.5352 110.827 20.7751 115.959 25.9716 120.61C25.9728 120.611 25.9739 120.612 25.975 120.613C31.8327 125.488 38.4892 126.879 44.6414 129.046C44.6507 129.049 44.6601 129.052 44.6695 129.055C52.5973 131.642 60.8581 132.269 68.8784 132.432C68.8868 132.432 68.8953 132.432 68.9037 132.432C75.9843 132.674 83.3066 130.857 89.3361 128.085C89.3554 128.077 89.3748 128.068 89.3941 128.06C94.2305 125.918 98.3605 122.899 102.198 119.781C102.212 119.769 102.226 119.758 102.239 119.747C108.125 114.862 113.437 109.69 118.68 104.302C118.69 104.292 118.7 104.282 118.71 104.271C121.228 101.689 124.886 98.3967 126.506 94.3656C126.51 94.3574 126.513 94.3492 126.517 94.341C128.531 89.8643 130.142 85.4973 131.258 80.8134C131.259 80.8071 131.26 80.8008 131.262 80.7945C132.691 74.556 133.642 68.1354 133.218 61.3268C133.217 61.3161 133.216 61.3055 133.215 61.2949C130.848 50.9551 126.277 46.5163 122.912 39.5338C122.904 39.5188 122.896 39.5038 122.888 39.4888C121.955 37.6815 120.562 35.2947 118.826 33.5442C117.139 31.796 115.53 30.4984 113.909 29.2128C113.903 29.2081 113.897 29.2034 113.891 29.1987C107.371 24.1408 100.838 19.4319 94.1598 14.7252C94.157 14.7232 94.1542 14.7213 94.1514 14.7193C90.3485 12.0326 85.72 9.14578 81.1087 7.62574C81.1044 7.62413 81.1 7.62251 81.0957 7.62088C75.9964 5.6922 70.606 4.02983 65.2285 2.66735C64.5909 2.50494 63.9579 2.34759 63.3171 2.19133L63.0645 2.1261C63.0619 2.12565 63.0593 2.1252 63.0567 2.12474C57.9833 1.21464 52.8447 2.74066 48.2121 3.70788C48.2121 3.70789 48.212 3.7079 48.212 3.70791L48.1387 3.7138C46.4801 4.13244 44.8158 4.697 43.3799 5.43978C43.241 5.50897 43.1311 5.63768 43.0712 5.78896C43.0116 5.94073 43.0068 6.10266 43.0612 6.24776C43.1156 6.39286 43.2257 6.51172 43.3704 6.58684C43.515 6.66145 43.6824 6.68619 43.8326 6.64697C45.3902 6.21343 46.8449 5.88703 48.3943 5.97583L48.321 5.98172C48.3211 5.98173 48.3211 5.98174 48.3212 5.98174C53.0339 6.46925 57.3439 8.34789 61.4189 9.51388C61.421 9.51447 61.4232 9.51507 61.4253 9.51567L61.1728 9.45044C61.7734 9.66092 62.3663 9.87181 62.9636 10.0864C68.0282 11.9022 72.9547 13.8653 78.0609 15.7955C78.0655 15.7973 78.0701 15.799 78.0748 15.8007C82.218 17.1924 85.5253 19.1596 89.255 21.7388C89.2576 21.7406 89.2602 21.7424 89.2628 21.7442C95.796 26.3211 102.392 31.0783 108.644 35.9036C108.65 35.908 108.656 35.9124 108.661 35.9168C110.204 37.1249 111.758 38.299 112.915 39.396C114.055 40.4635 114.781 41.5499 115.704 43.2968C115.711 43.3102 115.718 43.3238 115.726 43.3374C118.972 49.5932 122.927 57.7795 123.855 61.9743C123.855 61.9745 123.856 61.9747 123.856 61.9749C124.203 67.3406 123.487 73.128 122.269 78.7677C122.268 78.7734 122.267 78.7791 122.265 78.7848C121.345 82.9546 120.391 87.3369 119.048 91.307C119.046 91.3141 119.043 91.3212 119.041 91.3282C118.111 94.4455 116.531 96.8198 113.867 99.6102C113.858 99.6202 113.848 99.6301 113.838 99.6401C108.783 104.844 103.476 109.996 97.985 114.552C97.9723 114.562 97.9596 114.572 97.9469 114.583C94.3511 117.516 90.6278 120.197 86.68 121.974C86.664 121.981 86.648 121.989 86.632 121.996C80.7152 124.76 75.1855 127.383 68.9538 127.343C68.9465 127.343 68.9393 127.343 68.932 127.343C61.1244 127.339 53.3574 126.781 46.147 124.479C46.1384 124.476 46.1299 124.474 46.1213 124.471C39.9692 122.426 33.3956 120.726 29.1047 117.086C29.1039 117.085 29.103 117.085 29.1022 117.084C23.9629 112.553 19.0449 107.889 15.8706 102.168C15.8696 102.166 15.8687 102.164 15.8677 102.163C13.3027 97.5279 10.8653 92.7066 8.70152 87.9033C8.6996 87.899 8.69768 87.8947 8.69576 87.8903C7.47998 85.1263 6.51401 82.3834 6.0643 79.7463C6.06319 79.7401 6.06209 79.734 6.061 79.7278C4.93816 73.0604 4.86244 65.9733 5.20077 59.0036C5.20128 58.9937 5.2018 58.9837 5.20231 58.9737C5.42973 54.8462 5.84997 50.6855 6.61707 46.9474C6.61926 46.9371 6.62145 46.9269 6.62364 46.9167C7.70514 41.7179 9.14501 36.9689 11.8476 32.7302C11.8541 32.7198 11.8605 32.7095 11.867 32.6991C15.6035 26.8261 19.386 20.6429 24.3737 16.9068C24.3807 16.9018 24.3877 16.8968 24.3947 16.8917C30.5933 12.4621 36.7711 8.13287 43.6074 5.82574C43.6125 5.82404 43.6176 5.82234 43.6226 5.82063C44.21 5.62468 44.7881 5.41325 45.3609 5.19273C48.7554 3.94613 52.5543 1.80069 55.5796 2.34918C55.5796 2.34919 55.5796 2.34919 55.5796 2.3492C58.116 3.30249 60.6421 5.43005 63.0328 7.33964Z" fill="var(--stroke-0, #DAE562)"/>
<path id="Vector 107" d="M37.383 57.7179C37.383 57.9726 37.4842 58.2168 37.6642 58.3968C37.8443 58.5769 38.0885 58.678 38.3431 58.678C38.5978 58.678 38.842 58.5769 39.022 58.3968C39.2021 58.2168 39.3032 57.9726 39.3032 57.7179C39.3018 57.6727 39.3087 57.5839 39.2807 57.4165C39.2571 57.2575 39.1509 56.9631 38.9307 56.766C38.4673 56.3901 38.2076 56.4612 38.0346 56.4397C38.0309 56.4397 38.0273 56.4396 38.0236 56.4396C37.1873 56.477 36.3134 56.3439 35.5937 57.1125C35.5932 57.1131 35.5927 57.1137 35.5921 57.1144C35.5866 57.1208 35.5811 57.1272 35.5757 57.1336C33.9657 59.4995 34.794 61.375 35.1874 63.0113C35.1886 63.015 35.1897 63.0187 35.1909 63.0225C35.3463 63.6241 36.0095 64.2839 36.5852 64.4374C37.1585 64.6191 37.5822 64.5641 37.9312 64.5272C37.9352 64.5268 37.9391 64.5264 37.9431 64.5259C38.8107 64.4327 39.6311 63.9288 40.2416 63.3141C40.2426 63.313 40.2437 63.312 40.2448 63.3109C41.8289 61.5458 41.6141 59.526 41.5618 57.8144C41.5615 57.8101 41.5612 57.8058 41.5609 57.8015C41.5097 56.905 41.3187 55.8677 40.6417 55.1735C40.6335 55.1651 40.6253 55.1567 40.6172 55.1485C40.106 54.5399 38.8495 54.1048 37.9935 54.3923C37.9718 54.3979 37.9501 54.4036 37.9285 54.4096C36.8394 54.7496 36.1797 55.3729 35.6242 56.1568C35.6102 56.1776 35.5962 56.1986 35.5824 56.2198C33.9043 58.6158 34.4043 61.9598 35.6759 64.1235C35.7104 64.183 35.7472 64.2405 35.787 64.2969C36.8867 65.6067 37.9427 65.3849 38.6406 65.349C38.6721 65.3447 38.7036 65.3401 38.7349 65.3351C40.8792 64.9501 41.8966 63.2691 42.5128 62.0123C42.52 61.9975 42.5271 61.9826 42.5342 61.9678C43.1962 60.4405 43.6293 58.7485 42.633 56.7495L42.4465 56.5083C42.4384 56.5001 42.4302 56.4919 42.422 56.4838C41.6962 55.8064 41.0365 55.6653 40.5456 55.5047C40.5425 55.5038 40.5394 55.5029 40.5363 55.502C40.2531 55.4151 39.7576 55.3303 39.337 55.3887C38.2602 55.5438 37.6485 56.1305 37.1574 56.7764C37.0892 56.8747 37.0297 56.9808 37.0031 57.094C36.9765 57.2073 36.9852 57.3186 37.0324 57.4142C37.0797 57.5099 37.1628 57.5844 37.2689 57.6321C37.375 57.6798 37.4955 57.697 37.6149 57.7025C37.6149 57.7025 37.6149 57.7025 37.6149 57.7025C38.3682 57.7464 39.0619 57.7655 39.3827 57.8778C39.5167 57.9214 39.5699 57.9494 39.8166 58.0198C39.8193 58.0205 39.8221 58.0213 39.8248 58.0221C40.2802 58.1415 40.627 58.2728 40.6264 58.2999C40.6267 58.3002 40.627 58.3004 40.6272 58.3007L40.4407 58.0596C40.7184 58.5009 40.4713 59.7744 39.9215 60.5936C39.9162 60.6023 39.9109 60.611 39.9055 60.6197C39.3659 61.5262 38.6114 62.0236 38.2108 62.0452C38.2036 62.0464 38.1964 62.0475 38.1892 62.0486C38.0915 62.0644 38.006 62.0626 38.019 62.0721C38.0173 62.0821 38.2166 62.1233 38.4085 62.3967C38.4236 62.4191 38.4376 62.442 38.4505 62.4654C37.3614 60.8864 36.8592 59.0758 37.7689 57.6037C37.7741 57.5948 37.7794 57.586 37.7848 57.5772C37.9767 57.2437 38.4021 56.9262 38.6142 56.8779C38.6179 56.8769 38.6215 56.8759 38.6249 56.8751C38.7628 56.8722 38.6081 56.8113 38.7916 56.9525C38.7951 56.956 38.7986 56.9596 38.8021 56.9632C39.0808 57.2463 39.5293 57.5081 39.5942 57.9788C39.5947 57.9827 39.5951 57.9866 39.5955 57.9904C39.7761 59.522 39.7577 61.2612 38.9774 62.0244C38.9769 62.0248 38.9765 62.0252 38.9761 62.0257C38.7177 62.2767 38.2904 62.1732 37.9466 62.0726C37.9449 62.0722 37.9433 62.0717 37.9417 62.0712C37.7415 62.0305 37.6029 61.9313 37.6652 61.8984C37.7274 61.846 37.984 62.0607 37.9817 62.1314C37.9819 62.1319 37.982 62.1323 37.9821 62.1327C37.5387 60.859 37.4367 59.2284 37.7552 58.9533C37.7559 58.9523 37.7567 58.9514 37.7574 58.9504C37.7574 58.9503 37.7575 58.9502 37.7576 58.9501C37.7641 58.9366 37.7291 58.8076 37.7814 58.6571C37.8179 58.5094 37.9832 58.3562 38.0202 58.3598C38.0202 58.3598 38.0201 58.3598 38.0201 58.3598C38.0217 58.3416 37.9523 58.4285 37.6238 58.1729C37.4696 58.0359 37.3994 57.8272 37.3906 57.7549C37.378 57.6748 37.3843 57.6748 37.383 57.7179Z" fill="var(--stroke-0, #DAE562)"/>
<path id="Vector 108" d="M68.2137 42.2332C68.5484 41.9249 68.7468 41.4962 68.7654 41.0415C68.7839 40.5869 68.6212 40.1435 68.3128 39.8089C68.0045 39.4742 67.5758 39.2758 67.1211 39.2572C66.6665 39.2386 66.2231 39.4014 65.8884 39.7098C65.8884 39.7098 65.8884 39.7098 65.8884 39.7098C65.3582 40.1989 64.8469 40.7273 64.3721 41.3212C63.4501 42.4538 62.6804 43.9457 62.4197 45.4834C62.4172 45.4968 62.4148 45.5102 62.4124 45.5236C62.1102 47.22 63.127 48.5151 63.8281 49.1885C64.5807 49.9142 65.3559 50.4012 66.0144 50.8396C66.0338 50.8525 66.0532 50.8652 66.0727 50.8778C67.6692 51.9015 69.5054 51.5883 70.7785 51.0788C70.7913 51.0741 70.804 51.0692 70.8167 51.0643C72.1134 50.5896 72.7692 49.3298 72.9898 48.4696C73.2402 47.5662 73.287 46.7519 73.408 46.0554C73.414 46.021 73.4198 45.9865 73.4255 45.9521C73.7215 43.9359 73.607 41.8621 72.3142 39.8883C72.2855 39.8492 72.2559 39.8113 72.225 39.774C71.1536 38.6068 69.9806 38.6318 69.2051 38.6648C69.176 38.6676 69.1469 38.6707 69.1179 38.6742C66.8509 38.9815 65.3703 40.5298 64.4188 42.0233C64.4079 42.0406 64.3972 42.058 64.3866 42.0755C63.3846 43.7406 63.5893 45.5511 63.9179 46.9135L64.006 47.2009C64.0124 47.2149 64.0188 47.2289 64.0254 47.2428C64.2587 47.7466 64.9146 47.9899 65.4742 47.9862C66.0477 47.9963 66.4987 47.8104 66.8022 47.9047C66.8068 47.9061 66.8114 47.9076 66.816 47.9091C67.0361 47.9826 67.2644 48.0299 67.4939 48.0632C68.1393 48.1542 68.7929 48.147 69.4434 48.1485C68.7929 48.147 68.1393 48.1542 67.4939 48.0632C67.2644 48.0299 67.0361 47.9826 66.816 47.9091C66.8114 47.9076 66.8069 47.906 66.8024 47.9043C66.4902 47.7898 66.3597 47.2883 66.4419 46.8714C66.51 46.4423 66.7703 46.1496 66.7445 46.0571C66.7437 46.0542 66.7429 46.0512 66.7421 46.0483L66.8302 46.3357C66.6642 45.2317 66.7779 44.2939 67.1311 43.7472C67.1349 43.7409 67.1388 43.7346 67.1427 43.7283C67.7784 42.6956 68.7137 41.9271 69.5106 41.8471C69.5214 41.8457 69.5322 41.8443 69.543 41.8428C69.767 41.8126 69.9619 41.7741 70.0734 41.7498C70.1932 41.7263 70.1635 41.6984 70.1034 41.6066C70.1001 41.6013 70.097 41.5959 70.0941 41.5906C70.8631 42.4743 71.3201 44.1409 71.0706 45.5645C71.0666 45.5892 71.0623 45.614 71.0577 45.6387C70.8707 47.1592 70.1662 48.4426 69.8517 48.2558C69.8496 48.256 69.8474 48.2562 69.8452 48.2564C68.9744 48.4695 68.2808 48.2634 67.9262 48.0084C67.9211 48.005 67.9159 48.0015 67.9107 47.998C67.2245 47.5424 66.6328 47.1405 66.2219 46.7362C66.0195 46.5398 65.878 46.3482 65.8256 46.2378C65.7728 46.119 65.7926 46.1434 65.7903 46.1275C65.7918 46.1187 65.7934 46.11 65.795 46.1012C65.9667 45.1348 66.3868 44.2971 67.0532 43.4628C67.393 43.0373 67.7856 42.6278 68.2137 42.2332Z" fill="var(--stroke-0, #DAE562)"/>
<path id="Vector 109" d="M49.3841 99.3443C49.3841 99.5884 49.4811 99.8226 49.6537 99.9952C49.8264 100.168 50.0605 100.265 50.3047 100.265C50.5488 100.265 50.783 100.168 50.9556 99.9952C51.1282 99.8226 51.2252 99.5884 51.2252 99.3443C51.2731 98.4449 51.5756 97.211 51.8758 96.1426C52.2736 94.7588 52.7626 93.3919 53.3996 92.1494C53.4565 92.0393 53.5178 91.9276 53.5795 91.8217C53.6541 91.6636 53.7758 91.6986 53.5075 91.7912C53.2255 91.8157 53.2952 91.7623 53.3925 91.9008C53.6016 92.1503 53.846 92.6035 54.0564 93.0539C54.2711 93.5108 54.4742 93.9971 54.6997 94.4967C54.8127 94.7465 54.9307 95.0001 55.0716 95.2679C55.2395 95.5513 55.286 95.7641 55.7796 96.2666C55.8799 96.3578 55.9891 96.4387 56.102 96.5071C57.4604 97.1794 58.2745 96.6713 58.9845 96.3302C59.0124 96.3144 59.04 96.2985 59.0674 96.2824C61.945 94.7444 61.5443 90.6278 61.6655 89.8181C61.6716 89.8041 61.6776 89.7906 61.6836 89.7779C61.7288 89.6679 61.8656 89.6398 61.8113 89.7857C61.7837 89.8543 61.6776 89.9639 61.521 90.024C61.3657 90.0865 61.2003 90.086 61.1184 90.0644C61.1125 90.063 61.1071 90.0615 61.1022 90.06C60.9904 90.0199 61.1019 90.0583 61.2069 90.128C61.3202 90.198 61.4646 90.297 61.6224 90.4062C61.9456 90.6254 62.3009 90.8914 62.846 91.1563C62.8824 91.1736 62.9197 91.1906 62.9578 91.2072C63.8065 91.6052 65.087 91.637 66.0447 91.0151C66.1385 90.9567 66.2294 90.893 66.3171 90.8239C68.3339 89.3533 68.0166 86.1332 68.0521 86.1592C68.0264 86.2132 67.9825 86.2946 67.9018 86.3904C67.9204 86.3754 67.8504 86.4538 67.7453 86.4887C67.6411 86.5253 67.5949 86.5117 67.6484 86.5354C67.7561 86.5764 68.0751 86.7643 68.3881 87.0102C68.7106 87.2569 69.0564 87.5572 69.4742 87.883C69.6864 88.0466 69.9139 88.218 70.2174 88.3991C70.5355 88.564 70.8645 88.8271 71.7435 88.8736C71.8398 88.8756 71.9358 88.8746 72.0314 88.8703C73.2386 88.8526 74.4851 88.1128 75.1406 87.3227C75.8318 86.5294 76.21 85.7272 76.5248 84.9786C76.8335 84.2297 77.0595 83.5039 77.2728 82.8592C77.3781 82.5413 77.4844 82.2325 77.5757 82.0274C77.6172 81.9305 77.6672 81.8531 77.6399 81.9078C77.6193 81.9387 77.5884 82.008 77.4203 82.1565C77.2715 82.2938 76.8576 82.539 76.3756 82.5351C76.5049 82.5413 76.6474 82.5593 76.8051 82.5903C77.7934 82.6889 78.748 83.7658 81.4824 83.7266C81.9252 83.6836 82.3564 83.5606 82.7276 83.3932C85.5156 81.7858 85.7742 79.994 86.5673 78.498C87.2302 76.9772 87.759 75.466 88.3457 74.2928L86.8254 75.4679C86.8905 75.4533 86.9586 75.4406 87.0312 75.4297C87.6455 75.3224 88.8092 75.0581 90.0028 74.7981L90.2642 74.7772C90.3433 74.7484 90.4206 74.719 90.4958 74.6894C90.6005 74.6481 90.7014 74.605 90.7993 74.5608C92.0236 73.9889 92.9969 73.2728 94.0251 72.6114C94.1259 72.5453 94.2044 72.4274 94.249 72.3006C94.2933 72.1728 94.3 72.0466 94.262 71.9327C94.2241 71.8188 94.1429 71.7219 94.0308 71.6462C93.9191 71.5715 93.7856 71.5243 93.6652 71.5319C93.6652 71.5319 93.6652 71.5319 93.6652 71.5319C92.4598 71.6071 91.2072 71.6704 90.1395 71.6341C90.0578 71.6304 89.9781 71.6256 89.9025 71.6191C89.8482 71.6146 89.7957 71.6085 89.7467 71.6006L90.0082 71.5797C89.0012 71.3342 87.9567 70.7842 86.3819 70.9832C86.2105 71.0079 86.036 71.0389 85.8602 71.0773L84.8173 71.3093L84.3399 72.2524C83.5272 73.8791 83.028 75.3403 82.4284 76.6853C82.1354 77.3504 81.8292 77.9804 81.514 78.4822C81.2183 78.9856 80.8217 79.3176 80.8736 79.2605C80.888 79.2535 80.9368 79.2398 80.988 79.2396C80.8435 79.4036 79.2307 78.8545 77.4125 78.5725C77.0824 78.5298 76.7319 78.5052 76.3675 78.5125C75.7074 78.5076 75.1279 78.8335 74.8473 79.0823C74.5431 79.346 74.4085 79.5497 74.2887 79.7322C74.0721 80.0813 73.9798 80.3239 73.8901 80.5524C73.7216 81.002 73.6231 81.3622 73.5228 81.7121C73.3288 82.4035 73.1584 83.0273 72.9568 83.5817C72.7594 84.1323 72.5205 84.6136 72.3022 84.889C72.0661 85.1696 72.0059 85.2028 71.8069 85.2483C71.7898 85.2511 71.7712 85.2534 71.7508 85.2553C72.1539 85.2938 72.0285 85.3385 71.9329 85.2799C71.8185 85.2304 71.6485 85.1349 71.4685 85.0254C71.1035 84.8039 70.6883 84.5253 70.2141 84.2457C69.7296 83.9705 69.2149 83.6574 68.3926 83.4644C67.6199 83.1964 66.079 83.6097 65.5543 84.394C65.4199 84.5527 65.331 84.7084 65.2691 84.839C65.027 85.4025 65.047 85.6577 65.0139 85.908C64.994 86.1494 64.9878 86.3448 64.9794 86.5267C64.9642 86.8869 64.9435 87.1884 64.8991 87.4466C64.8055 87.9737 64.6592 88.2236 64.4213 88.4149C64.4225 88.414 64.4232 88.4136 64.4235 88.4134C64.4174 88.4066 64.4312 88.4109 64.2638 88.3283C64.2563 88.3242 64.2477 88.3195 64.2382 88.3143C64.085 88.2329 63.8112 88.0322 63.5025 87.7981C63.1538 87.5638 62.929 87.2746 62.0248 86.9521C62.0051 86.9463 61.985 86.9407 61.9645 86.9352C61.3423 86.7202 60.3152 87.0297 59.9288 87.505C59.5061 87.9587 59.3927 88.3534 59.2408 88.6761C59.2239 88.7141 59.2079 88.7519 59.1926 88.7892C58.9547 89.4568 59.0059 89.7256 58.9793 90.048C58.9695 90.3516 58.9698 90.6204 58.9646 90.8787C58.9557 91.3924 58.9282 91.8613 58.8502 92.2829C58.6913 93.1383 58.3602 93.6944 57.7562 94.0483C57.7429 94.056 57.7294 94.0637 57.7156 94.0713C57.6004 94.1352 57.46 94.1708 57.3808 94.1711C57.2966 94.1787 57.3162 94.1198 57.4909 94.2142C57.5194 94.2315 57.5491 94.2535 57.5761 94.2784C57.6637 94.3677 57.5846 94.2915 57.5381 94.2207C57.4862 94.1486 57.422 94.0514 57.3572 93.9503C57.2272 93.7474 57.0891 93.5226 56.9472 93.2959C56.6615 92.8387 56.3583 92.3645 56.0206 91.8891C55.6716 91.4105 55.3387 90.9349 54.7624 90.4307C54.4742 90.2131 54.0411 89.7996 53.2098 89.9073C52.3917 90.0919 52.1495 90.6178 51.9628 90.9243C51.8961 91.0498 51.8285 91.1792 51.7638 91.3044C51.0429 92.7138 50.5308 94.1621 50.1053 95.6376C49.7839 96.8328 49.4683 97.8961 49.3841 99.3443Z" fill="var(--stroke-0, #DAE562)"/>
</g>
</svg>
