<svg preserveAspectRatio="none" width="100%" height="100%" overflow="visible" style="display: block;" viewBox="0 0 236.949 106.706" fill="none" xmlns="http://www.w3.org/2000/svg">
<g id="Group 31">
<path id="Vector 111" d="M127.932 77.298C127.932 76.6712 127.683 76.0701 127.24 75.6269C126.796 75.1837 126.195 74.9348 125.569 74.9348C124.942 74.9348 124.341 75.1837 123.897 75.6269C123.454 76.0701 123.205 76.6712 123.205 77.298C123.205 77.298 123.205 77.298 123.205 77.298C123.249 78.2224 123.486 78.4618 123.607 78.7162C123.746 78.9492 123.861 79.0944 123.967 79.2229C124.177 79.4727 124.354 79.6412 124.523 79.7957C124.859 80.0995 125.162 80.3306 125.464 80.5501C125.466 80.5511 125.467 80.5521 125.468 80.5531C125.547 80.6101 125.635 80.6702 125.708 80.7193C130.58 83.57 135.056 85.3508 139.573 87.8554C139.575 87.8561 139.576 87.8569 139.577 87.8577C140.053 88.1166 140.523 88.3751 141.023 88.6371C141.274 88.7673 141.529 88.8991 141.838 89.0395C141.998 89.1101 142.16 89.1846 142.441 89.2739C142.594 89.3152 142.748 89.3815 143.181 89.4025C143.4 89.4038 143.747 89.4051 144.222 89.1796C144.706 88.9576 145.074 88.4816 145.191 88.2343L145.424 87.3043C145.424 87.2911 145.424 87.2779 145.424 87.2647C145.349 85.9478 144.94 85.4495 144.665 84.8936C144.365 84.3637 144.062 83.9126 143.756 83.4668C143.144 82.5834 142.527 81.7587 141.921 80.9233L141.94 80.9499C141.937 80.9457 141.934 80.9415 141.931 80.9373C139.45 77.3777 136.983 73.762 134.483 70.176C134.082 69.6003 133.68 69.0249 133.278 68.4499C132.984 68.0289 132.534 67.7428 132.027 67.6541C131.521 67.5654 131 67.6816 130.58 67.9769C130.159 68.2723 129.872 68.7226 129.784 69.2287C129.695 69.7348 129.811 70.2553 130.107 70.6755C130.107 70.6755 130.107 70.6755 130.107 70.6755C130.509 71.2465 130.91 71.8183 131.31 72.3905C133.811 75.9595 136.265 79.5463 138.775 83.1477C138.778 83.152 138.781 83.1563 138.784 83.1606L138.803 83.1872C139.391 83.9982 139.954 84.8237 140.464 85.6366C140.717 86.0419 140.957 86.4455 141.144 86.8087C141.336 87.1405 141.423 87.5772 141.376 87.2868C141.376 87.2839 141.376 87.2809 141.376 87.2779L141.609 86.3479C141.696 86.1594 142.019 85.7362 142.443 85.5428C142.858 85.3465 143.138 85.3547 143.29 85.3543C143.591 85.3708 143.614 85.4022 143.642 85.4052C143.673 85.416 143.586 85.384 143.506 85.3468C143.335 85.269 143.114 85.1574 142.899 85.0454C142.461 84.8162 142.006 84.5656 141.55 84.3072C141.549 84.3064 141.547 84.3055 141.546 84.3047C137.122 81.7572 132.32 79.1296 128.337 76.7914C128.299 76.7659 128.26 76.7393 128.236 76.7219C128.236 76.7216 128.236 76.7213 128.235 76.721C128.027 76.5705 127.832 76.4169 127.702 76.298C127.638 76.2415 127.589 76.1876 127.598 76.1967C127.603 76.2044 127.623 76.2234 127.682 76.3206C127.725 76.4408 127.89 76.5315 127.932 77.298Z" fill="var(--stroke-0, #DAE562)"/>
<path id="Vector 112" d="M126.232 78.5439C126.464 78.3118 126.594 77.997 126.594 77.6688C126.594 77.3405 126.464 77.0257 126.232 76.7936C126 76.5615 125.685 76.4312 125.356 76.4312C125.028 76.4312 124.713 76.5615 124.481 76.7936C124.481 76.7936 124.481 76.7936 124.481 76.7936C122.383 79.087 120.295 81.158 118.118 83.2841C118.117 83.2845 118.117 83.2849 118.117 83.2853C116.115 85.2094 113.71 86.7985 111.358 88.3556C110.677 88.8035 109.996 89.2484 109.32 89.6938C109.318 89.6947 109.317 89.6956 109.316 89.6965C106.226 91.7585 102.92 93.3442 99.3647 94.6617C99.3615 94.6629 99.3583 94.6641 99.3552 94.6653C95.1925 96.2057 90.8534 97.4733 86.5908 98.614C86.5862 98.6152 86.5815 98.6164 86.5769 98.6177C82.8379 99.6445 79.3379 100.015 75.2405 100.146C75.2384 100.146 75.2363 100.146 75.2343 100.146C71.5574 100.383 68.1384 100.429 64.7538 100.62C64.7515 100.62 64.7491 100.62 64.7468 100.62C59.7499 100.912 54.721 100.99 49.8645 100.546C49.862 100.546 49.8595 100.546 49.857 100.545C45.1362 100.07 40.0322 99.3375 36.2954 97.9057C36.2944 97.9052 36.2934 97.9048 36.2924 97.9044C32.1774 95.9983 27.6401 93.4389 23.3322 91.0719C23.3295 91.0704 23.3269 91.0689 23.3242 91.0674C20.4898 89.5213 18.1744 87.7161 16.1693 84.7973C16.1688 84.7967 16.1684 84.796 16.1679 84.7954C12.9145 80.1334 9.33661 75.2015 7.29568 70.6266C7.29497 70.6248 7.29425 70.6231 7.29354 70.6213C6.36815 68.2951 6.08851 65.4632 5.89102 62.4327C5.89079 62.4293 5.89055 62.4258 5.89032 62.4224C5.78865 57.7599 6.60127 52.0794 7.72694 47.0673C7.7278 47.0637 7.72865 47.06 7.72951 47.0564C9.04218 42.3289 13.0321 37.2667 16.5867 32.5644C16.5906 32.5593 16.5945 32.5542 16.5985 32.5492C18.0225 30.6872 19.9355 28.9793 21.9472 27.2081C21.9516 27.2042 21.9561 27.2003 21.9605 27.1964C25.5012 24.1104 29.1943 21.0734 33.1235 18.4739C33.1272 18.4714 33.131 18.4689 33.1348 18.4664C37.1204 15.8469 41.4539 13.685 45.7406 11.5669C45.7433 11.5656 45.7459 11.5643 45.7486 11.563C50.463 9.2184 55.5961 7.81408 61.0049 6.60357C61.0072 6.60304 61.0096 6.60251 61.0119 6.60199C65.1524 5.64366 69.5967 5.38825 74.2415 5.55126C74.2439 5.55134 74.2464 5.55143 74.2489 5.55151C79.7039 5.74863 85.2554 6.94429 90.764 8.4056C90.7664 8.40623 90.7687 8.40685 90.771 8.40747C93.705 9.19065 96.7615 10.5756 99.9444 11.7709C99.9466 11.7718 99.9489 11.7726 99.9512 11.7735C103.811 13.2509 107.486 15.623 111.113 18.2081C111.116 18.2102 111.119 18.2122 111.122 18.2142C114.04 20.2422 116.359 23.0041 118.854 25.9868C118.856 25.9888 118.857 25.9908 118.859 25.9928C121.346 28.9528 123.55 31.6582 125.173 34.9017C125.173 34.9025 125.174 34.9034 125.174 34.9043C126.896 38.2488 128.64 41.6092 129.914 44.8989C129.914 44.899 129.914 44.8991 129.915 44.8992C130.717 47.0207 131.215 49.3881 131.526 51.7801C131.751 53.5359 131.875 55.3218 131.892 57.0892L131.905 56.8788C131.904 56.8794 131.904 56.8799 131.904 56.8805C131.669 59.9906 131.614 63.1434 131.654 66.4574L131.667 66.3621C131.667 66.3623 131.667 66.3624 131.667 66.3626C131.652 67.0766 132.224 68.134 132.444 69.0897C132.444 69.0897 132.444 69.0897 132.444 69.0897C133.13 68.3948 134.194 67.8029 134.466 66.8235C134.466 66.8233 134.466 66.8231 134.466 66.8229L134.479 66.7275C135.166 63.7149 136.193 60.5971 136.589 57.3742C136.589 57.3737 136.589 57.3731 136.589 57.3725L136.602 57.1622C136.675 55.1783 136.61 53.2051 136.418 51.2298C136.148 48.5358 135.663 45.8341 134.712 43.1383C134.712 43.1382 134.712 43.138 134.712 43.1379C133.318 39.326 131.579 35.9249 129.879 32.5071C129.879 32.5062 129.879 32.5053 129.878 32.5044C128.102 28.8127 125.474 25.4447 123.009 22.5217C123.007 22.5196 123.006 22.5176 123.004 22.5155C120.512 19.5381 117.702 16.3244 114.201 13.8892C114.197 13.8868 114.194 13.8845 114.191 13.8821C110.447 11.2232 106.477 8.55747 101.854 6.77873C101.851 6.77769 101.848 6.77665 101.846 6.77561C98.7551 5.62339 95.6718 4.26991 92.1268 3.30974C92.1241 3.309 92.1213 3.30826 92.1185 3.30752C86.4402 1.80688 80.5911 0.479653 74.4488 0.20909C74.446 0.208977 74.4433 0.208864 74.4405 0.208751C69.7456 0.0164053 64.7249 -0.339903 59.7065 0.792058C59.7037 0.79268 59.701 0.793301 59.6982 0.793923C54.1964 2.00349 48.4336 3.53623 43.1059 6.18816C43.1029 6.18963 43.0999 6.19111 43.0969 6.19258C38.5789 8.42707 34.3239 11.0817 30.0971 13.8584C30.0931 13.861 30.0891 13.8636 30.0851 13.8663C25.9216 16.6218 21.8779 19.4815 18.0862 22.7476C18.0814 22.7518 18.0766 22.7559 18.0718 22.7601C16.0022 24.5707 13.8082 26.4755 11.9141 28.9325C11.9091 28.939 11.9041 28.9455 11.8991 28.952C8.21007 33.9787 4.24098 38.6533 2.14659 45.737C2.14515 45.743 2.14373 45.7491 2.1423 45.7551C0.922176 51.3803 -0.102954 56.5621 0.00828013 62.8195C0.00867733 62.8254 0.00907788 62.8313 0.009482 62.8371C0.227745 65.9388 0.492767 69.3516 1.83931 72.7893C1.84037 72.7919 1.84143 72.7946 1.84249 72.7972C4.56777 78.8302 7.96092 83.3321 11.2632 88.2297C11.2637 88.2304 11.2641 88.2311 11.2646 88.2317C13.3514 91.4294 16.4144 94.953 20.0966 96.9003C20.0993 96.9018 20.102 96.9033 20.1047 96.9049C24.5997 99.3622 28.8615 101.634 33.9099 103.82C33.9117 103.82 33.9134 103.821 33.9151 103.822C39.4574 105.727 44.2861 105.871 49.3239 106.393C49.3266 106.394 49.3294 106.394 49.3321 106.394C54.663 106.846 59.8933 106.76 65.1097 106.43C65.1122 106.43 65.1148 106.43 65.1173 106.43C68.7323 106.203 72.2671 105.26 75.5738 104.92C75.5758 104.92 75.5777 104.92 75.5797 104.92C79.4236 104.663 83.8847 104.183 87.7937 102.935C87.7986 102.933 87.8034 102.932 87.8082 102.93C92.2397 101.576 96.48 99.928 100.741 98.1739C100.745 98.1725 100.748 98.1712 100.751 98.1698C104.367 96.6835 108.048 94.907 111.281 92.5494C111.282 92.5484 111.284 92.5474 111.285 92.5464C111.975 92.0507 112.645 91.5301 113.301 90.9944C115.574 89.1246 117.693 87.1249 119.843 85.0588C119.844 85.0584 119.844 85.058 119.845 85.0576C122.016 82.9386 124.235 80.7329 126.232 78.5439Z" fill="var(--stroke-0, #DAE562)"/>
<path id="Vector 113" d="M168.601 66.5725C168.95 66.1252 169.462 65.8348 170.024 65.7651C170.587 65.6954 171.155 65.8521 171.602 66.2008C172.049 66.5495 172.34 67.0615 172.409 67.6243C172.479 68.1871 172.322 68.7545 171.974 69.2017C171.974 69.2017 171.974 69.2017 171.974 69.2017C171.308 69.9547 171.039 69.954 170.766 70.1178C170.501 70.2435 170.302 70.32 170.097 70.3981C170.055 70.4141 170.012 70.4298 169.969 70.4454C167.216 71.3642 164.883 71.9713 163.237 73.5371C163.113 73.6578 162.988 73.7788 162.859 73.9021C162.701 74.0541 162.547 74.2041 162.361 74.3743C162.264 74.4617 162.17 74.5475 162.009 74.6733C161.92 74.7389 161.845 74.8068 161.598 74.9383C161.464 74.9979 161.306 75.1063 160.843 75.1578C160.615 75.1795 160.274 75.1547 159.958 75.023C159.643 74.8949 159.423 74.7032 159.301 74.576L158.863 73.8258C158.673 73.1079 158.77 72.7289 158.808 72.4203C159.064 71.1383 159.436 70.4029 159.77 69.4958L159.76 69.5239C159.798 69.4323 159.846 69.25 159.879 69.0541C160.199 66.915 160.163 64.1895 160.797 61.5095C160.9 61.0739 161.022 60.6343 161.172 60.1917C161.322 59.7516 161.641 59.3895 162.058 59.185C162.476 58.9804 162.958 58.9502 163.398 59.1008C163.839 59.2515 164.201 59.5707 164.406 59.9881C164.61 60.4056 164.641 60.8871 164.489 61.3266C164.489 61.3266 164.489 61.3266 164.489 61.3266C164.38 61.6424 164.285 61.9757 164.203 62.3201C163.664 64.519 163.71 66.8479 163.314 69.6536C163.26 69.9539 163.201 70.2709 163.078 70.6559L163.068 70.684C162.796 71.5051 162.508 72.4767 162.424 72.9973C162.402 73.0812 162.457 73.1134 162.378 72.7819L161.94 72.0317C161.836 71.923 161.636 71.7474 161.345 71.629C161.053 71.5071 160.738 71.485 160.536 71.5045C160.124 71.5514 160.014 71.6391 159.926 71.6758C159.772 71.7588 159.778 71.7675 159.77 71.7703C159.772 71.7692 159.831 71.7197 159.887 71.668C160.004 71.5606 160.14 71.4263 160.277 71.2875C160.389 71.1736 160.502 71.056 160.616 70.9362C162.924 68.5174 166.037 67.2796 168.495 66.4314C168.528 66.4194 168.559 66.4078 168.589 66.3966C168.73 66.3435 168.852 66.293 168.922 66.2596C168.953 66.2449 168.971 66.2329 168.94 66.2521C168.911 66.2773 168.822 66.303 168.601 66.5725Z" fill="var(--stroke-0, #DAE562)"/>
<path id="Vector 112_2" d="M170.583 68.2502C170.341 68.1215 170.161 67.9022 170.081 67.6405C170.002 67.3788 170.029 67.0962 170.158 66.8549C170.286 66.6135 170.506 66.4331 170.767 66.3534C171.029 66.2738 171.312 66.3013 171.553 66.43C171.553 66.43 171.553 66.43 171.553 66.43C172.874 67.0927 174.462 67.6812 175.968 68.2477C176.949 68.6113 177.977 68.8766 178.986 69.1069C179.451 69.2115 179.915 69.3007 180.376 69.3823C180.792 69.456 181.207 69.5237 181.622 69.5938C182.699 69.7762 183.803 69.8982 184.933 69.986C185.82 70.0547 186.717 70.1026 187.616 70.127C189.149 70.1669 190.697 70.1357 192.199 70.0562C193.034 70.0099 193.845 69.9328 194.639 69.8181C195.809 69.6561 196.938 69.3681 198.264 69.0568C199.176 68.851 200.009 68.7004 200.841 68.5259C201.875 68.3113 202.87 67.9943 203.832 67.6675C204.6 67.4092 205.358 67.153 206.13 66.9491C207.964 66.4629 209.786 65.9096 211.488 65.241C212.2 64.9602 212.906 64.6697 213.601 64.3673C215.239 63.6504 216.983 62.7384 217.991 61.8919C218.386 61.5426 218.97 60.9812 219.483 60.4888C220.877 59.1464 222.251 57.7367 223.621 56.3298C224.022 55.916 224.375 55.4925 224.683 55.0509C225.245 54.2488 225.73 53.4429 226.201 52.3051C226.463 51.6741 226.714 51.0384 226.931 50.3971C227.687 48.1259 228.514 45.6214 228.757 43.7302C228.803 43.2778 228.798 42.7752 228.75 42.2439C228.674 41.3871 228.487 40.4728 228.265 39.4702C228.178 39.0823 227.995 38.5206 227.803 37.9927C227.052 35.9562 226.112 33.8273 225.059 31.9046C224.885 31.586 224.618 31.2172 224.307 30.8525C222.786 29.104 220.576 27.4767 218.418 25.9067C218.06 25.6484 217.693 25.4171 217.287 25.1859C216.576 24.7826 215.761 24.3913 214.925 24.0004C214.477 23.7911 214.022 23.5869 213.564 23.3873C211.682 22.5701 209.781 21.7518 207.842 21.1106C207.403 20.9658 206.959 20.8298 206.511 20.7039C204.471 20.1321 202.343 19.7919 200.251 19.4661C199.849 19.4044 199.446 19.3491 199.043 19.2979C196.684 18.9927 194.247 19.0538 191.673 19.2082C191.324 19.2285 190.974 19.2605 190.623 19.3038C188.762 19.5286 186.794 19.9466 184.752 20.5621C184.43 20.6581 184.108 20.7657 183.788 20.8848C181.367 21.7898 178.994 23.073 176.649 24.4822C176.406 24.6283 176.163 24.784 175.919 24.9492C174.803 25.7083 173.634 26.683 172.407 27.6111C172.2 27.769 171.995 27.9343 171.791 28.1058C170.319 29.3438 168.977 30.8918 167.656 32.5583C167.508 32.7441 167.367 32.931 167.231 33.1204C166.299 34.4015 165.625 35.9691 164.886 37.6636C164.79 37.8826 164.697 38.0985 164.604 38.3133C163.862 40.0117 163.29 41.4634 162.965 43.1426C162.923 43.3481 162.882 43.5534 162.841 43.7583C162.486 45.5576 162.138 47.3716 161.986 49.0262C161.973 49.1751 161.963 49.3277 161.956 49.4814C161.904 50.6506 162.018 51.9102 162.225 53.158C162.355 53.9377 162.523 54.7189 162.726 55.4789L162.666 55.3121C162.701 55.41 162.74 55.5101 162.784 55.6135C163.225 56.7349 164.488 58.7958 164.285 61.0324C164.243 61.6304 163.495 62.1282 163.028 62.5036C163.028 62.5036 163.028 62.5036 163.028 62.5036C162.722 61.9617 162.038 61.536 161.928 61.2057C161.54 59.9132 160.315 59.2537 159.252 57.3262C159.165 57.16 159.081 56.9869 159.002 56.8063L158.943 56.6395C158.64 55.7491 158.394 54.8505 158.196 53.9354C157.884 52.4686 157.682 50.965 157.699 49.3674C157.702 49.1567 157.709 48.943 157.721 48.7288C157.853 46.665 158.191 44.806 158.517 42.9421C158.555 42.7319 158.592 42.5222 158.63 42.3134C158.962 40.3082 159.707 38.2418 160.466 36.5228C160.563 36.2971 160.662 36.0737 160.761 35.8496C161.527 34.1429 162.378 32.2819 163.637 30.5401C163.816 30.2908 164.001 30.0469 164.188 29.8094C165.568 28.0658 167.06 26.2695 168.924 24.6964C169.184 24.4779 169.452 24.2646 169.729 24.0577C170.915 23.1797 172.081 22.2478 173.455 21.3094C173.753 21.107 174.063 20.9075 174.381 20.7155C176.832 19.2398 179.39 17.8098 182.209 16.719C182.583 16.5753 182.959 16.4337 183.341 16.2969C185.393 15.5591 187.571 14.6939 190 14.3808C190.453 14.3222 190.91 14.2777 191.371 14.2486C194.014 14.0771 196.834 13.9798 199.67 14.3464C200.154 14.4076 200.636 14.4863 201.115 14.5803C203.364 15.0274 205.548 15.658 207.755 16.2761C208.24 16.4124 208.726 16.5501 209.212 16.6924C211.354 17.3203 213.459 18.003 215.506 18.871C216.005 19.0834 216.502 19.3025 216.999 19.532C217.884 19.9425 218.783 20.3659 219.724 20.8987C220.26 21.2027 220.81 21.5535 221.325 21.9364C223.587 23.6441 225.825 25.343 227.945 27.751C228.391 28.2768 228.834 28.8502 229.236 29.5516C230.479 31.7547 231.534 33.9226 232.422 36.3188C232.653 36.9668 232.875 37.6017 233.059 38.4304C233.279 39.4594 233.512 40.5898 233.621 41.8071C233.689 42.566 233.71 43.3646 233.631 44.2025C233.231 47.2507 232.424 49.4911 231.671 51.9541C231.458 52.622 231.268 53.2985 231.085 53.9708C230.734 55.2959 230.18 56.9041 229.239 58.2299C228.727 58.9633 228.15 59.6297 227.54 60.2311C226.095 61.649 224.619 63.0268 223.089 64.3916C222.491 64.9198 221.973 65.3794 221.195 65.9774C219.146 67.4149 217.373 68.0507 215.534 68.8628C214.778 69.1837 214.022 69.4889 213.266 69.7833C211.296 70.546 209.328 71.1365 207.349 71.6442C206.518 71.8563 205.672 71.9854 204.82 72.089C203.702 72.2271 202.599 72.298 201.535 72.4536C200.686 72.5786 199.833 72.7031 199.077 72.8492C197.871 73.0909 196.474 73.4139 195.063 73.5313C194.105 73.617 193.158 73.6264 192.226 73.5935C190.607 73.5316 189.029 73.3958 187.442 73.2656C186.513 73.1881 185.583 73.1075 184.648 73.0048C183.46 72.874 182.25 72.7052 181.046 72.4225C180.583 72.3141 180.125 72.1779 179.676 72.0217C179.176 71.8483 178.688 71.6503 178.209 71.441C177.219 71.0034 176.251 70.5522 175.25 70.1816C173.692 69.5911 172.188 69.0522 170.583 68.2502Z" fill="var(--stroke-0, #DAE562)"/>
<path id="Vector 114" d="M47.6212 59.2196C47.8529 58.9879 47.983 58.6736 47.983 58.346C47.983 58.0183 47.8529 57.7041 47.6212 57.4724C47.3895 57.2407 47.0753 57.1106 46.7476 57.1106C46.42 57.1106 46.1057 57.2407 45.874 57.4724C45.874 57.4724 45.874 57.4724 45.874 57.4724C45.2946 58.1163 45.2492 58.573 45.1378 59.016C44.9317 60.1356 45.0306 61.1096 45.1996 62.0684C45.1998 62.0698 45.2001 62.0711 45.2003 62.0725C45.297 62.8405 46.0852 63.5375 46.6636 63.6616C47.2597 63.8293 47.7448 63.7845 48.2258 63.6997C48.2329 63.6984 48.24 63.697 48.247 63.6956C49.2476 63.4769 50.0207 62.9397 50.58 62.0717C50.5822 62.068 50.5845 62.0643 50.5867 62.0606C51.165 61.3383 51.9276 59.646 51.2767 58.5792C51.2763 58.5785 51.2759 58.5778 51.2755 58.577C50.4817 57.3162 49.6993 56.4582 47.8769 56.0576C47.8723 56.0569 47.8676 56.0562 47.8629 56.0555C46.2071 55.7845 44.7203 56.9042 44.1418 58.092C44.1388 58.0978 44.1358 58.1035 44.1329 58.1092C43.4741 59.1855 43.6144 61.0443 44.5401 61.8604C44.5481 61.8684 44.5562 61.8763 44.5643 61.8841C45.6447 62.813 47.1311 61.8313 47.7097 61.7509C47.7151 61.75 47.7204 61.7491 47.7257 61.7481C48.0009 61.7028 48.2117 61.4885 48.3459 61.2548C48.515 60.9634 48.6164 60.6399 48.7237 60.322C48.7237 60.322 48.7237 60.322 48.7237 60.322C48.6164 60.6399 48.515 60.9634 48.3459 61.2548C48.2117 61.4885 48.0009 61.7028 47.7257 61.7481C47.7204 61.7491 47.7151 61.75 47.7097 61.7509C46.8601 61.7912 46.9849 59.976 47.1656 59.8402C47.1665 59.8388 47.1673 59.8374 47.1681 59.8361C47.211 59.7631 47.3 59.8173 47.3358 59.9064C47.3751 59.9964 47.3693 60.074 47.3995 60.1044C47.3998 60.1046 47.4002 60.1049 47.4006 60.1052C47.4397 60.1297 47.5054 60.1844 47.4711 60.2743C47.445 60.3629 47.2894 60.4447 47.1934 60.4257C47.1929 60.4257 47.1924 60.4256 47.192 60.4255C47.1041 60.4027 47.289 60.4272 47.4598 60.5079C47.6363 60.5819 47.8379 60.7148 47.937 60.7695C47.9372 60.7695 47.9373 60.7696 47.9374 60.7696C48.0129 60.8126 48.2287 60.6987 48.4665 60.7022C48.7031 60.6918 48.9137 60.8672 48.8321 60.9998C48.8315 61.0009 48.8308 61.0019 48.8302 61.0029C48.6724 61.2784 48.2165 61.5399 47.8911 61.5547C47.8889 61.5548 47.8866 61.555 47.8844 61.5551C47.7029 61.5725 47.4944 61.5112 47.4539 61.4557C47.4321 61.4304 47.4658 61.418 47.5226 61.4605C47.5801 61.5004 47.6268 61.5911 47.6296 61.6213C47.6294 61.6202 47.6292 61.6191 47.629 61.618C47.4904 60.8757 47.4455 60.0877 47.5609 59.4993C47.5869 59.2912 47.7336 59.0696 47.6212 59.2196Z" fill="var(--stroke-0, #DAE562)"/>
<path id="Vector 115" d="M67.8253 58.0649C68.6243 58.0649 69.3905 57.7476 69.9554 57.1826C70.5203 56.6177 70.8377 55.8515 70.8377 55.0526C70.8377 54.2536 70.5203 53.4874 69.9554 52.9225C69.3905 52.3576 68.6243 52.0402 67.8253 52.0402C67.8253 52.0402 67.8253 52.0402 67.8253 52.0402C67.9964 52.0452 67.851 52.0405 67.7289 52.0234C67.594 52.0073 67.4192 51.9855 67.2344 51.9663C66.6252 51.901 65.9021 51.8697 65.171 51.9382C65.1573 51.9394 65.1435 51.9407 65.1297 51.9421C64.1481 51.9843 62.9164 52.745 62.4477 53.481C61.9346 54.214 61.812 54.7724 61.7183 55.2288C61.5639 56.1329 61.6343 56.7421 61.7094 57.326C61.8789 58.4662 62.1937 59.4075 62.4902 60.3106C62.5207 60.4424 62.5589 60.5744 62.6077 60.7094C62.9876 61.8769 64.3029 62.4694 64.9994 62.3948C65.7543 62.3718 66.2294 62.1122 66.7121 61.9958C66.774 61.9801 66.8354 61.9654 66.8966 61.9522C67.9918 61.7057 68.9173 61.1752 69.6491 60.3924C69.6781 60.3608 69.7067 60.3289 69.7347 60.2968C70.5075 59.4087 71.4839 58.4522 71.533 57.1616C71.5337 57.1359 71.5339 57.1103 71.5338 57.0846C71.4973 56.0034 70.3436 54.9931 69.2201 54.1496C69.208 54.1406 69.1959 54.1316 69.1838 54.1227C68.6036 53.6987 68.0258 53.591 67.6014 53.5368C67.1621 53.4862 66.8122 53.493 66.508 53.4916C66.094 53.4916 65.6969 53.6561 65.4042 53.9488C65.1115 54.2415 64.947 54.6386 64.947 55.0526C64.947 55.4665 65.1115 55.8636 65.4042 56.1563C65.6969 56.449 66.094 56.6135 66.508 56.6135C66.8096 56.6128 67.0672 56.6162 67.2303 56.6366C67.3967 56.6532 67.4215 56.6959 67.3254 56.6312C67.3236 56.6298 67.3218 56.6286 67.3198 56.6274C67.2416 56.5782 67.0365 56.7157 66.7926 56.8192C66.5545 56.9306 66.3092 57.0158 66.3102 57.1228C66.3102 57.1282 66.3105 57.1337 66.311 57.1393C66.3441 57.4094 66.9307 58.0307 66.8694 58.4703C66.8678 58.4846 66.8662 58.4987 66.8644 58.5127C66.8271 58.8705 66.5883 59.2571 66.3256 59.3081C66.3119 59.3111 66.2978 59.3106 66.284 59.3069C66.1435 59.287 65.9694 59.017 66.118 58.8084C66.1895 58.7094 66.3599 58.6397 66.5919 58.7155C66.8221 58.7835 67.0748 59.0307 67.1664 59.2655C67.1909 59.3242 67.2102 59.3792 67.2257 59.431C67.1983 58.5798 67.2245 57.7481 67.317 57.1016C67.3594 56.7925 67.4415 56.5002 67.4791 56.5289C67.4851 56.5499 67.5083 56.6792 67.2621 57.0483C67.054 57.4203 66.2363 57.9325 65.706 57.9391C65.7106 57.9387 65.7153 57.9383 65.7199 57.9378C65.9704 57.9153 66.2373 57.9193 66.6082 57.9584C66.7245 57.9705 66.8512 57.9861 67.0167 58.0059C67.1947 58.0235 67.3526 58.0578 67.8253 58.0649Z" fill="var(--stroke-0, #DAE562)"/>
<path id="Vector 116" d="M91.5378 53.0286C92.2238 53.0286 92.8817 52.7561 93.3668 52.271C93.8519 51.7859 94.1244 51.128 94.1244 50.442C94.1244 49.756 93.8519 49.0981 93.3668 48.613C92.8817 48.1279 92.2238 47.8554 91.5378 47.8554C91.5378 47.8554 91.5378 47.8554 91.5378 47.8554C91.0927 47.8533 90.576 47.8718 90.097 47.9154C89.3983 47.9776 88.7081 48.0873 88.0279 48.2418C88.021 48.2434 88.014 48.2449 88.0071 48.2465C87.2406 48.4021 86.4469 48.9513 86.0408 49.4962C85.6145 50.046 85.4414 50.5274 85.3194 50.9319C85.0947 51.7403 85.0818 52.3297 85.0765 52.8869C85.0849 53.9842 85.2254 54.9072 85.3851 55.8109C85.3999 55.8946 85.4172 55.9769 85.4378 56.0609C85.7095 57.265 86.8684 58.0031 87.6054 58.0934C88.3823 58.2298 88.9522 58.0833 89.4248 58.1572C89.4635 58.1631 89.502 58.17 89.5402 58.1779C90.7192 58.4047 91.8703 58.3815 93.0821 57.9549C93.1135 57.9434 93.1447 57.9315 93.1756 57.9194C94.1996 57.5058 95.6618 57.1574 96.5449 55.5904C96.5633 55.556 96.5812 55.5213 96.5986 55.4863C97.4117 53.9286 97.5955 51.7975 96.7098 50.5196C96.6961 50.4994 96.6821 50.4795 96.6679 50.4598C95.6131 49.0467 94.4157 48.437 93.2111 47.9686C93.2019 47.9651 93.1926 47.9616 93.1833 47.9581C92.5289 47.6797 90.9815 47.5128 90.0227 48.0162C89.3048 48.3517 88.8764 48.8173 88.499 49.2055C88.3566 49.3804 88.2593 49.6688 88.2069 49.9404C88.1558 50.2159 88.1537 50.4522 88.223 50.6642C88.2922 50.8762 88.4334 51.0657 88.6374 51.2579C88.8401 51.4462 89.0888 51.6215 89.3071 51.6785C89.3071 51.6785 89.3071 51.6785 89.3071 51.6785C89.7004 51.8164 90.0618 52.0882 90.1556 52.3976C90.298 52.8458 89.8164 53.0846 90.0987 53.3591C90.1018 53.3627 90.1049 53.3663 90.1082 53.37C90.5472 53.8581 90.9085 54.4253 90.986 54.5561C90.9871 54.5577 90.9884 54.5591 90.9897 54.5602C91.0617 54.628 91.8304 54.2356 92.2047 54.3144C92.2125 54.3153 92.2203 54.3163 92.2283 54.3176C92.635 54.3695 92.724 55.25 92.2018 55.435C92.1881 55.4403 92.1744 55.4456 92.1605 55.4506C91.6082 55.6561 90.8129 55.659 90.1734 55.4747C90.1529 55.4688 90.1329 55.4614 90.1136 55.4525C89.8129 55.3277 89.6135 54.9287 89.7042 54.6501C89.7473 54.5141 89.8763 54.4226 90.0419 54.4609C90.2059 54.4929 90.3818 54.675 90.4221 54.852C90.4286 54.878 90.4339 54.9028 90.4384 54.927C90.3154 54.1948 90.2311 53.4631 90.2361 52.8959C90.2349 52.6232 90.2767 52.3745 90.2814 52.3816C90.2766 52.3878 90.2671 52.4814 90.0996 52.7021C89.9479 52.919 89.5175 53.2237 89.1601 53.2896C89.1648 53.2885 89.1694 53.2875 89.1741 53.2864C89.6309 53.1826 90.0941 53.1093 90.5558 53.0682C90.8823 53.0394 91.1751 53.0275 91.5378 53.0286Z" fill="var(--stroke-0, #DAE562)"/>
<path id="Vector 117" d="M181.7 43.7779C181.33 44.1477 181.123 44.6493 181.123 45.1724C181.123 45.6954 181.33 46.197 181.7 46.5669C182.07 46.9367 182.572 47.1445 183.095 47.1445C183.618 47.1445 184.119 46.9367 184.489 46.5669C184.489 46.5669 184.489 46.5669 184.489 46.5669C184.561 46.4941 184.645 46.4156 184.788 46.2532C184.865 46.1555 184.943 46.099 185.136 45.7504C185.184 45.6551 185.247 45.5328 185.308 45.3055C185.36 45.0809 185.462 44.679 185.245 44.0722C185.023 43.4505 184.465 43.0573 184.176 42.9423C183.866 42.8099 183.692 42.794 183.557 42.7757C183.467 42.766 183.409 42.7636 183.346 42.7624C183.25 42.7611 183.176 42.7654 183.114 42.7703C182.627 42.824 182.487 42.9096 182.272 43.0043C182.078 43.1 181.909 43.2108 181.748 43.3335C181.426 43.5798 181.137 43.8665 180.839 44.2033C180.824 44.22 180.81 44.2367 180.795 44.2535C180.088 45.0298 179.608 46.5349 180.363 47.7893C180.374 47.8074 180.385 47.8254 180.396 47.8431C181.236 49.0484 182.114 50.5487 184.315 50.3162C184.336 50.3126 184.357 50.3086 184.377 50.3045C185.462 50.0739 186.213 49.5706 186.824 48.9571C187.409 48.3093 187.975 47.6122 188.056 46.106C188.056 46.0802 188.056 46.0543 188.056 46.0281C188.103 45.1195 187.504 43.8804 186.904 43.3983C186.315 42.8733 185.842 42.7149 185.45 42.6115C184.669 42.4317 184.09 42.5411 183.512 42.7306C183.258 42.8182 183.01 42.9291 182.763 43.0601C182.464 43.2364 182.176 43.4132 181.947 43.6167C181.718 43.8215 181.564 44.0477 181.506 44.3043C181.448 44.5609 181.49 44.8312 181.61 45.1145C181.729 45.3966 181.914 45.6799 182.109 45.9673C182.109 45.9673 182.109 45.9673 182.109 45.9673C182.249 46.1854 182.384 46.3879 182.511 46.5747C182.789 46.9898 183.062 47.3499 183.082 47.549C183.087 47.6368 183.005 47.7064 182.726 47.4959C182.442 47.3257 182.038 46.5201 182.079 46.0563C182.079 46.043 182.079 46.03 182.079 46.0172C182.136 45.3069 182.311 45.3497 182.401 45.3103C182.509 45.3028 182.607 45.3042 182.929 45.2974C182.936 45.2975 182.942 45.2977 182.948 45.298C183.262 45.3168 183.371 45.6581 183.26 45.8828C183.167 46.1273 182.914 46.2049 182.963 46.2638C182.964 46.2658 182.966 46.2681 182.967 46.2704C183.015 46.3376 183.049 46.4855 183.061 46.5307C183.076 46.5823 183.115 46.5689 183.164 46.5693C183.166 46.5693 183.168 46.5694 183.17 46.5696C183.217 46.5676 183.332 46.5793 183.439 46.6034C183.492 46.6151 183.544 46.6284 183.577 46.6426C183.59 46.6571 183.682 46.6715 183.436 46.7014C183.402 46.7042 183.355 46.7072 183.285 46.7063C183.239 46.7054 183.194 46.7037 183.121 46.6958C183.01 46.6803 182.861 46.6691 182.574 46.5467C182.307 46.4415 181.769 46.0651 181.556 45.4667C181.348 44.8831 181.447 44.5069 181.493 44.3062C181.548 44.1025 181.6 44.0033 181.637 43.9296C181.784 43.6684 181.798 43.6877 181.811 43.665C181.824 43.6511 181.768 43.711 181.7 43.7779Z" fill="var(--stroke-0, #DAE562)"/>
<path id="Vector 118" d="M198.312 41.8789C198.312 42.5597 198.583 43.2126 199.064 43.6939C199.546 44.1753 200.198 44.4457 200.879 44.4457C201.56 44.4457 202.213 44.1753 202.694 43.6939C203.176 43.2126 203.446 42.5597 203.446 41.8789C203.402 41.7616 203.612 41.4165 203.055 40.2836C202.758 39.7253 202.088 39.2201 201.618 39.065C201.136 38.8895 200.821 38.8809 200.579 38.8742C200.564 38.8741 200.549 38.874 200.534 38.8741C200.268 38.8762 200.082 38.9048 199.909 38.9395C198.725 39.2205 197.899 39.9052 197.283 40.9999C197.278 41.0098 197.273 41.0198 197.267 41.0297C196.419 42.8734 196.989 44.2504 197.641 45.3447C197.643 45.3473 197.645 45.3499 197.646 45.3525C198.501 46.5064 199.471 47.5399 201.637 47.4533C201.642 47.4528 201.646 47.4523 201.65 47.4518C203.712 47.0453 205.351 46.5703 206.046 45.5618C206.048 45.5575 206.051 45.5532 206.053 45.5489C206.277 45.1482 206.504 44.697 206.686 43.9505C206.771 43.5731 206.854 43.1043 206.802 42.4634C206.76 41.8353 206.483 40.989 205.985 40.3937C205.973 40.3788 205.961 40.3641 205.949 40.3496C204.73 39.0725 203.812 39.515 203.184 39.7562C202.54 40.0547 202.077 40.4342 201.671 40.39C201.666 40.3896 201.662 40.3891 201.657 40.3885C201.007 40.3067 200.367 40.2818 199.748 40.2741C199.463 40.2706 199.181 40.2707 198.903 40.2707C198.651 40.2707 198.41 40.3707 198.232 40.5488C198.054 40.7269 197.954 40.9684 197.954 41.2203C197.954 41.4721 198.054 41.7136 198.232 41.8917C198.41 42.0698 198.651 42.1699 198.903 42.1699C199.181 42.1699 199.455 42.1699 199.725 42.1732C200.31 42.1803 200.875 42.2041 201.421 42.2729C201.424 42.2734 201.428 42.2739 201.432 42.2744C201.769 42.3256 202.049 42.8326 202.125 43.3421C202.162 43.5943 202.146 43.8504 202.023 44.0037C201.907 44.1502 201.638 44.2122 201.289 43.8432C201.281 43.8352 201.274 43.827 201.267 43.8187C200.966 43.4921 200.789 42.9777 200.757 42.6813C200.717 42.3733 200.736 42.2349 200.727 42.1756C200.716 42.0665 200.636 42.2097 200.531 42.3859C200.53 42.3879 200.529 42.3899 200.528 42.3919C200.393 42.6389 200.563 43.0193 200.721 43.3746C200.895 43.7302 200.986 44.0257 201.192 43.9851C201.193 43.985 201.194 43.9849 201.195 43.9848C201.404 43.9728 201.337 43.9871 201.247 43.8662C201.156 43.7579 201.055 43.5691 201.035 43.4404C201.035 43.4399 201.034 43.4394 201.034 43.4389C201.011 43.3222 201.041 43.2023 201.101 43.1537C201.153 43.106 201.269 43.1382 201.198 43.3951C201.197 43.3979 201.196 43.4007 201.195 43.4035C201.149 43.5513 201.093 43.6769 201.049 43.7673C200.995 43.8588 200.987 43.9247 200.813 43.9784C200.761 43.9918 200.697 44.0062 200.552 44.0077C200.544 44.0077 200.536 44.0077 200.527 44.0076C200.393 44.0022 200.185 44.0054 199.803 43.8673C199.433 43.7489 198.852 43.3134 198.608 42.8485C198.353 42.391 198.338 42.1033 198.32 41.9749C198.308 41.8426 198.313 41.8272 198.312 41.8789Z" fill="var(--stroke-0, #DAE562)"/>
</g>
</svg>
