<svg preserveAspectRatio="none" width="100%" height="100%" overflow="visible" style="display: block;" viewBox="0 0 140.08 140.722" fill="none" xmlns="http://www.w3.org/2000/svg">
<g id="Group 32">
<path id="Vector 120" d="M0 94.981C0 95.3035 0.128103 95.6127 0.356129 95.8408C0.584154 96.0688 0.893423 96.1969 1.2159 96.1969C1.53838 96.1969 1.84765 96.0688 2.07567 95.8408C2.3037 95.6127 2.4318 95.3035 2.4318 94.981C2.43179 94.8641 2.43184 94.7528 2.43464 94.668C2.43573 94.6278 2.439 94.5882 2.43829 94.5971C2.4353 94.6078 2.44273 94.6097 2.40679 94.7326C2.36204 94.8056 2.4308 94.8802 2.05599 95.2533C1.96018 95.3371 1.77628 95.4547 1.5617 95.5041C1.3405 95.559 1.11062 95.5376 0.954413 95.4911C0.641551 95.3911 0.553948 95.2856 0.475053 95.2201C0.479378 95.2242 0.483704 95.2282 0.488029 95.2323C1.6322 96.2185 2.30886 97.933 4.43099 99.2802C4.47328 99.3022 4.51623 99.3235 4.55984 99.344C4.92688 99.5322 5.51292 99.5791 5.94294 99.3911C6.37504 99.2136 6.63407 98.9382 6.82239 98.6956C7.19006 98.1988 7.34263 97.7375 7.47039 97.2927C7.49054 97.2193 7.50859 97.1488 7.52605 97.0757C7.53133 97.0538 7.53658 97.032 7.54181 97.0101C7.89934 95.5167 8.18377 93.9665 8.24136 92.3708C8.26957 91.568 8.23834 90.7599 8.12476 89.9471C8.06905 89.5442 7.98978 89.1341 7.90296 88.7555C7.85946 88.5642 7.81384 88.3791 7.78003 88.2272C7.76343 88.1528 7.75064 88.0865 7.7468 88.0571C7.73764 88.0364 7.7686 88.0251 7.72663 88.2665C7.7032 88.386 7.61515 88.6138 7.4421 88.7867C7.55894 88.7131 7.37225 88.7473 7.59481 88.7597C7.79435 88.7956 8.16044 88.973 8.51799 89.2081C8.88342 89.4445 9.26311 89.7348 9.67979 90.0472C9.8898 90.2038 10.1073 90.3663 10.3661 90.5367C10.6455 90.7003 10.8621 90.9097 11.5494 91.0569C11.6532 91.0737 11.758 91.0841 11.8621 91.0881C13.0316 91.0956 13.6375 90.4266 14.14 90.0169C14.1698 89.9912 14.1996 89.9655 14.2293 89.9399C17.441 86.6802 16.8888 82.529 16.8973 79.1512C16.8961 79.1066 16.8948 79.0627 16.8937 79.0196C16.894 78.864 16.924 78.9579 16.8237 79.0609C16.7253 79.1469 16.7824 79.076 16.9759 79.0574C17.3641 79.0061 17.9978 79.0732 18.6103 79.1801C19.2354 79.2876 19.888 79.4357 20.5789 79.5766C20.9247 79.6464 21.2833 79.7167 21.6801 79.7697C22.0948 79.8044 22.46 79.919 23.2707 79.7147C23.4913 79.6472 23.6936 79.5717 23.9092 79.4734C26.5257 78.2482 27.0534 75.4494 27.3158 73.5246C27.5736 71.4883 27.5169 69.4808 27.7188 67.8379C27.733 67.7547 27.7544 67.6998 27.7635 67.6982C27.7876 67.6815 27.7384 67.8914 27.5922 68.0355C27.4562 68.1756 27.4057 68.1916 27.6506 68.1827C27.7658 68.1793 27.8857 68.1736 28.0101 68.1613C29.892 67.9302 32.5128 68.5551 35.631 67.6902C35.7884 67.6416 35.9418 67.586 36.0945 67.522C39.6204 65.647 39.5217 62.5782 40.0288 60.4403C40.3823 58.1556 40.552 55.9641 40.752 53.7855C40.7519 53.787 40.7518 53.7885 40.7517 53.7901C40.7435 53.9584 40.6495 54.1356 40.6166 54.1719C40.581 54.216 40.6152 54.173 40.7013 54.1202C40.8782 54.0055 41.2211 53.854 41.5955 53.7289C42.3569 53.4726 43.2672 53.2707 44.1881 53.0857C46.0503 52.7087 48.0036 52.4281 50.0819 51.8607C50.088 51.859 50.0941 51.8573 50.1002 51.8556C51.9878 51.3584 53.1948 49.6644 53.7034 48.3859C54.2572 47.052 54.4795 45.8137 54.6557 44.6166C54.9956 42.2861 54.9966 39.7988 55.3106 38.2079C55.3143 38.1919 55.3179 38.1762 55.3216 38.1608C55.3753 37.9295 55.4476 37.7633 55.4919 37.705C55.5383 37.6415 55.5305 37.7113 55.4481 37.7805C55.4477 37.7809 55.4472 37.7813 55.4467 37.7817C55.9868 36.9616 58.5059 37.5394 62.0351 37.8223C62.0676 37.8232 62.1002 37.8239 62.1329 37.8245C63.4244 37.8579 64.4033 37.3009 64.8972 37.0607C64.9395 37.0395 64.9795 37.0195 65.0174 37.0008C69.1652 34.5765 69.7401 30.8176 70.642 27.8684C71.0305 26.3319 71.3188 24.823 71.5867 23.381C71.7207 22.6644 71.8496 21.9601 71.9867 21.3409C72.0551 21.0318 72.1277 20.7435 72.1931 20.5388C72.2243 20.4396 72.2562 20.3589 72.264 20.3449C72.2667 20.3302 72.2695 20.3849 72.0777 20.622C72.0743 20.626 72.0709 20.63 72.0675 20.634C71.8669 20.8701 71.6245 21.0236 71.4715 21.0913C71.3135 21.1617 71.238 21.1684 71.2184 21.1674C71.1827 21.1596 71.3441 21.1241 71.5506 21.1112C71.9769 21.0808 72.5968 21.0958 73.2464 21.1115C74.5648 21.1393 76.0607 21.1997 77.755 20.9556C77.7582 20.9552 77.7613 20.9547 77.7645 20.9542C78.7544 20.8375 80.0042 20.2107 80.7004 19.3301C81.414 18.4627 81.6924 17.6293 81.8939 16.9268C82.2656 15.5139 82.3298 14.3855 82.426 13.3022C82.5869 11.1753 82.7131 9.2343 83.1239 7.87768C83.133 7.84804 83.142 7.82276 83.1505 7.80072C83.2276 7.63752 83.2217 7.58129 83.5242 7.36873C83.8166 7.17192 84.3743 6.96449 85.0288 6.83909C86.3566 6.58014 87.9954 6.57735 89.6558 6.71517C89.8215 6.72888 89.9906 6.74438 90.1542 6.75994L90.3498 6.78327C90.4835 6.78766 90.6185 6.78955 90.7534 6.78867C92.5213 6.79032 94.1484 5.98864 95.356 5.10795L95.5781 4.98332C95.6257 4.93927 95.6735 4.89416 95.7196 4.84939C96.9279 3.65633 97.4629 2.24325 97.9023 0.927329C97.9465 0.785642 97.9291 0.612103 97.8725 0.456582C97.8148 0.300382 97.7225 0.174967 97.5975 0.0962333C97.4724 0.0175 97.3195 -0.0114653 97.1537 0.00401703C96.989 0.0201784 96.825 0.0794913 96.7163 0.1806C96.7163 0.1806 96.7163 0.1806 96.7163 0.1806C95.7715 1.04985 94.6729 1.72235 93.7516 2.02915C93.7167 2.04089 93.6815 2.05221 93.647 2.0624L93.8691 1.93777C92.7316 2.1666 91.7747 2.05482 90.9364 1.94215C90.8688 1.93364 90.8007 1.92362 90.7323 1.91215L90.928 1.93548C90.7539 1.89687 90.5695 1.85724 90.386 1.81889C88.5224 1.43805 86.5719 1.10851 84.349 1.26555C82.3117 1.37868 78.857 2.34787 77.6003 5.6607C77.5295 5.8443 77.4667 6.03181 77.4121 6.2223C76.6942 8.86511 76.8947 11.1243 76.914 13.1223C76.934 14.105 76.924 15.0593 76.8102 15.6636C76.7613 15.9603 76.6707 16.121 76.725 16.0591C76.7713 15.9892 77.0481 15.871 77.0059 15.8971C77.0043 15.8974 77.0028 15.8976 77.0012 15.8978C76.1448 16.0281 75.0547 15.8491 73.8207 15.6111C73.1932 15.4959 72.5345 15.3581 71.6765 15.2959C71.2407 15.2702 70.7525 15.2523 70.0873 15.3655C69.4538 15.4811 68.4155 15.7706 67.5553 16.7602C67.5483 16.7683 67.5413 16.7766 67.5343 16.7848C66.7324 17.8213 66.6793 18.3479 66.5025 18.8606C66.3595 19.3664 66.2753 19.7972 66.2014 20.2182C66.0593 21.0473 65.9743 21.8076 65.8944 22.5538C65.7384 24.0419 65.618 25.4551 65.4233 26.8192C65.0905 29.4744 64.1774 32.2748 62.9302 32.8056C62.8844 32.8284 62.8409 32.8503 62.7997 32.8709C62.2754 33.1461 62.1682 33.1034 62.2931 33.0872C62.2743 33.0861 62.2554 33.0848 62.2363 33.0835C61.157 33.0162 59.8029 32.6183 58.1194 32.3942C56.5203 32.1476 53.9243 32.2891 52.1379 33.8855C52.1341 33.8887 52.1304 33.8919 52.1266 33.8951C50.8501 35.0152 50.5955 36.3769 50.444 37.2607C50.4391 37.2917 50.4344 37.3224 50.4299 37.3529C50.1296 40.128 50.3975 42.0944 50.2454 44.1521C50.1863 46.1479 49.489 47.9765 48.9638 47.9508C48.959 47.9523 48.9541 47.9537 48.9493 47.9552C47.2713 48.4583 45.3505 48.7719 43.3872 49.1841C42.4001 49.3947 41.3927 49.6148 40.3053 49.9895C39.7586 50.1851 39.1932 50.4027 38.5446 50.8225C37.9556 51.2071 36.9702 52.0361 36.8452 53.4456C36.8447 53.4517 36.8442 53.4578 36.8437 53.464C36.6753 55.6536 36.5541 57.8351 36.2794 59.8837C36.0544 61.8846 35.3409 63.993 34.6604 64.1046C34.6259 64.1191 34.5896 64.132 34.5494 64.1436C32.908 64.6575 30.5802 63.8758 27.6081 64.0912C27.4007 64.1117 27.1894 64.149 26.9771 64.201C26.6606 64.2849 26.0341 64.4287 25.424 64.8983C24.8006 65.3654 24.434 66.0913 24.2929 66.6196C24.1942 66.966 24.158 67.2701 24.1428 67.5508C24.1109 71.5092 24.9234 75.9313 22.7598 76.9974C22.6649 77.0428 22.5719 77.0798 22.4642 77.1145C22.6253 77.0922 22.2772 77.1242 22.0238 77.0811C21.7447 77.047 21.4281 76.9894 21.1082 76.9267C20.4626 76.8 19.7815 76.6474 19.0607 76.5262C18.3338 76.4137 17.5916 76.2851 16.6218 76.399C16.1444 76.4714 15.5134 76.6013 14.9253 77.1779C14.3328 77.7641 14.2039 78.5917 14.2328 79.1094C14.2347 79.1548 14.2366 79.2007 14.2386 79.247C14.3993 82.6025 14.7476 86.4068 12.7679 88.2486C12.7507 88.2635 12.7331 88.2778 12.7151 88.2917C12.3612 88.5816 11.9501 88.5716 11.9752 88.5368C11.9737 88.5361 11.9734 88.5355 11.9729 88.5348C12.1653 88.5862 11.94 88.5083 11.7996 88.3971C11.6375 88.2848 11.4509 88.1403 11.2582 87.9886C10.8697 87.6831 10.454 87.3451 9.975 87.019C9.49096 86.699 8.96047 86.3561 8.16821 86.1654C7.4079 85.9275 6.10828 86.236 5.5322 86.9223C5.29188 87.1635 5.16337 87.4806 5.11999 87.6922C5.03985 88.116 5.09162 88.2936 5.10841 88.4535C5.13329 88.6126 5.15921 88.7224 5.18436 88.8292C5.23489 89.0385 5.28197 89.2096 5.32667 89.3823C5.41458 89.718 5.49197 90.0431 5.55575 90.3699C5.68401 91.025 5.76124 91.688 5.79202 92.375C5.85343 93.738 5.72973 95.1616 5.46021 96.5577C5.45627 96.5781 5.45228 96.5985 5.44825 96.6189C5.43863 96.6689 5.42873 96.7161 5.41766 96.7639C5.35383 97.0508 5.24279 97.3209 5.1551 97.4374C5.11552 97.4963 5.08817 97.4941 5.1663 97.4595C5.24303 97.4192 5.41843 97.4392 5.44278 97.4612C5.42614 97.4534 5.40929 97.445 5.39223 97.4362C4.36007 96.8819 3.67449 94.9267 2.15933 93.4659C2.15291 93.4598 2.14649 93.4537 2.14005 93.4477C2.04958 93.3714 1.95054 93.2574 1.62348 93.1531C1.46019 93.1045 1.22288 93.0827 0.994504 93.1394C0.773023 93.1903 0.582064 93.3121 0.481082 93.4003C0.0842242 93.7934 0.142587 93.897 0.0886981 93.9977C0.0351471 94.1777 0.0342299 94.2371 0.0239334 94.3064C0.00942588 94.4322 0.00711405 94.5102 0.00416112 94.5878C-0.000544429 94.7385 0.000144482 94.8624 0 94.981Z" fill="var(--stroke-0, #DAE562)"/>
<path id="Vector 121" d="M18.87 115.991C19.1389 116.171 19.4681 116.236 19.785 116.172C20.102 116.109 20.3808 115.922 20.5601 115.653C20.7394 115.384 20.8045 115.055 20.7411 114.738C20.6777 114.421 20.491 114.143 20.222 113.963C20.222 113.963 20.222 113.963 20.222 113.963C20.0345 113.838 19.8426 113.71 19.6298 113.576C19.5227 113.509 19.4116 113.44 19.2753 113.366C19.2059 113.328 19.1318 113.289 19.0265 113.243C18.9733 113.22 18.9122 113.195 18.8198 113.166C18.7166 113.143 18.6333 113.086 18.2706 113.104C18.1255 113.119 17.8405 113.161 17.551 113.407C17.0657 113.77 16.658 114.661 16.7643 115.327C16.8406 115.995 17.0852 116.413 17.3098 116.784C17.7751 117.507 18.2841 118.022 18.7923 118.521C19.8017 119.498 20.9018 120.342 21.8076 121.134C21.8498 121.171 21.8915 121.207 21.936 121.244C22.0073 121.304 22.0851 121.362 22.1667 121.417C22.4899 121.63 22.8895 121.829 23.4452 121.899C23.9944 121.986 24.7239 121.772 25.1333 121.417C25.1476 121.406 25.162 121.394 25.1763 121.383C26.9156 120.028 27.0739 117.723 26.8855 116.101C26.7019 114.397 26.2143 112.835 25.8286 111.387C25.8205 111.356 25.8135 111.325 25.8075 111.294C25.7568 111.054 25.7451 110.832 25.7669 110.697C25.7626 110.57 25.9419 110.519 25.753 111.037C25.7064 111.136 25.6344 111.24 25.5547 111.322C25.7086 111.168 25.82 111.088 26.1339 111.023C26.44 110.963 26.8901 110.978 27.3845 111.048C28.436 111.137 29.3612 111.685 31.2856 111.448C31.2888 111.448 31.292 111.447 31.2952 111.446C32.2322 111.263 33.2414 110.638 33.8052 109.808C34.3836 108.987 34.6273 108.13 34.7899 107.345C35.1005 105.787 35.0585 104.259 35.2215 103.145C35.2202 103.157 35.2186 103.169 35.2168 103.181C35.2077 103.416 34.9293 103.82 34.755 103.906C34.5827 104.014 34.5523 104 34.5754 104.003C34.629 103.998 34.8423 103.994 35.0603 104.008C35.5103 104.034 36.0453 104.095 36.5946 104.145C37.6967 104.246 38.8914 104.317 40.1565 104.157C40.2119 104.15 40.2671 104.141 40.322 104.132C41.0471 104.02 41.9123 103.613 42.4785 102.967C43.0534 102.329 43.3243 101.618 43.4834 101.004C43.7842 99.7601 43.7433 98.7177 43.6883 97.714C43.6233 96.7169 43.4939 95.7722 43.3742 94.8768C43.3144 94.4295 43.2559 93.9925 43.2174 93.5963C43.1984 93.4 43.1847 93.2085 43.182 93.0606C43.1762 92.912 43.1964 92.7729 43.1903 92.8551C43.2043 92.7976 43.2183 92.7737 43.2187 92.7806C43.2408 92.8006 43.0403 93.0072 43.0221 92.9998C43.0034 93.0081 43.2026 92.9686 43.4746 92.9884C44.0318 93.0188 44.8097 93.1918 45.6068 93.394C47.2893 93.7282 48.7739 94.5932 51.7168 94.1235C52.5569 93.9118 53.1705 93.5048 53.6565 93.0956C54.1399 92.681 54.4913 92.23 54.8012 91.73C55.1627 91.1569 55.381 90.5123 55.4977 89.9288C55.9006 86.1825 54.7526 84.221 54.6638 82.0083C54.6435 81.7772 54.6385 81.555 54.6511 81.4206C54.6564 81.3529 54.6759 81.3065 54.6784 81.3595C54.6608 81.4122 54.7225 81.5914 54.3002 82.0944C54.0824 82.3704 53.689 82.5058 53.6084 82.5022C53.4912 82.5075 53.6348 82.4988 53.8222 82.546C54.0152 82.5895 54.2694 82.6671 54.5396 82.7617C55.0855 82.9524 55.7039 83.2074 56.3595 83.466C57.6967 83.9566 59.0822 84.6356 61.2598 84.6396C61.8469 84.6226 62.5145 84.5054 63.1687 84.1886C65.2545 83.1176 65.6563 81.1804 65.8643 80.0229C66.0563 78.764 66.0299 77.6709 65.9775 76.6107C65.8593 74.5076 65.5468 72.5363 65.3351 70.7045C65.3776 70.9405 65.3224 71.379 65.1581 71.6677C64.999 71.962 64.8393 72.0791 64.7831 72.1237C64.6563 72.2054 64.8403 72.0974 65.1305 72.0229C65.2884 71.9783 65.471 71.9451 65.6823 71.9271C67.0174 71.7879 69.1158 72.3518 71.5853 72.578C72.4462 72.656 73.0824 72.4312 73.5556 72.2167C74.341 71.8392 74.7988 71.3825 75.2396 70.9079C75.5585 70.5666 75.8289 70.1724 76.038 69.7732C76.8342 68.1637 76.6554 66.8458 76.6164 65.8482C76.5993 65.5974 76.574 65.3509 76.5405 65.1044C76.3922 63.9885 76.0909 62.9036 75.7667 61.9666C75.6084 61.5023 75.4454 61.0651 75.347 60.7399C75.2299 60.4284 75.2949 60.1819 75.2766 60.6353C75.2306 60.9928 75.0413 61.383 74.8453 61.6111C74.6487 61.8466 74.4775 61.9559 74.3666 62.0208C73.9757 62.2124 74.086 62.0804 74.1852 62.0462C74.299 61.9938 74.4883 61.9467 74.6298 61.9319C74.6817 61.9217 74.7526 61.9223 74.8347 61.9385C75.7822 62.1204 77.4729 63.0184 79.397 63.3777C79.5956 63.4155 79.8101 63.4404 80.0381 63.4436C80.8845 63.4829 81.9075 63.0543 82.4667 62.4749C83.0483 61.9018 83.3235 61.3116 83.5113 60.7855C83.5345 60.7191 83.557 60.653 83.5787 60.5873C84.0177 59.2773 84.2507 57.7846 84.1502 56.3371C84.106 55.6188 83.9808 54.9137 83.8603 54.3249C83.8013 54.0335 83.7477 53.7708 83.726 53.6072C83.6957 53.4444 83.7481 53.4149 83.6764 53.6955C83.6771 53.6932 83.6768 53.6946 83.675 53.6993C83.6696 53.718 83.596 53.8666 83.4287 53.9901C83.2633 54.1163 83.0856 54.1454 83.0626 54.1329C83.0095 54.0998 83.3567 54.0794 83.7281 54.1534C84.112 54.2217 84.5602 54.3467 85.0487 54.4991C85.5709 54.6475 85.9702 54.8483 86.9566 55.0121C87.2222 55.0455 87.5126 55.0552 87.825 55.0193C89.0384 54.9689 90.3929 53.9173 90.7549 53.0126C90.818 52.8965 90.8724 52.7783 90.9144 52.6576C91.3301 51.4755 91.5543 50.1218 91.4422 48.7781C91.3905 48.1109 91.2537 47.4515 91.0945 46.883C91.0168 46.6024 90.9344 46.3385 90.8886 46.1762C90.866 46.1007 90.8566 46.0454 90.8597 46.1044C90.8523 46.1549 90.9065 46.3933 90.6871 46.8592C90.6859 46.8535 90.676 46.8671 90.6493 46.8956C90.6035 46.9497 90.4671 47.0527 90.352 47.0851C90.2362 47.1211 90.1854 47.0994 90.2249 47.0864C90.304 47.0534 90.6391 47.084 91.0045 47.179C91.3784 47.2722 91.8025 47.4153 92.2894 47.578C92.8249 47.7182 93.1788 48.0015 94.4613 47.9946C94.8629 47.9608 95.3172 47.8736 95.7948 47.6356C96.4529 47.3229 97.0039 46.6751 97.2476 46.11C97.5044 45.5407 97.5805 45.0513 97.6273 44.6177C97.7069 43.7522 97.6481 43.0558 97.5894 42.3827C97.4657 41.0686 97.2488 39.8214 97.2095 38.9177C97.2759 39.4313 96.9511 40.0223 96.7786 40.1677C96.598 40.3477 96.5415 40.3539 96.5386 40.36C96.5627 40.3369 96.9897 40.1653 97.3763 40.0795C97.5932 40.0281 97.8124 39.9907 98.033 39.9788C99.2299 39.9059 100.077 40.1774 101.98 40.6035C102.534 40.6979 103.153 40.6388 103.702 40.4102C104.575 40.0572 105.286 39.4205 105.696 38.7505C105.885 38.4744 106.038 38.1783 106.124 37.8763C106.702 35.6784 106.263 33.7799 106.409 33.1905L105.654 34.6641C105.664 34.6572 105.692 34.6343 105.734 34.605C105.836 34.5336 106.011 34.4105 106.221 34.2763C107.597 33.4233 109.821 32.1673 112.018 31.5759L112.041 31.5749C112.085 31.5618 112.128 31.5488 112.171 31.5359C113.044 31.2956 114.19 30.8963 114.528 29.993C113.84 30.6783 112.978 30.6071 112.094 30.471C112.053 30.4642 112.011 30.4571 111.967 30.4497L111.99 30.4487C109.668 30.0119 107.276 29.0671 104.401 29.8569C103.931 30.0033 103.44 30.2126 102.934 30.5612C102.724 30.7063 102.504 30.8791 102.29 31.082L101.638 31.7057L101.535 32.5557C101.392 34.9156 101.824 36.0096 101.65 36.7233C101.636 36.8104 101.66 36.8962 101.687 36.9882C101.814 36.972 102.021 36.9154 102.227 36.8338C102.359 36.7783 102.511 36.7663 102.621 36.785C101.668 36.5663 99.6707 35.9015 97.9049 35.9819C97.5528 35.9883 97.2001 35.9976 96.8482 36.0202C96.2092 36.0751 95.5994 36.0863 94.6781 36.5017C94.4115 36.6357 94.0982 36.7956 93.7102 37.1874C93.3306 37.5403 92.8667 38.4204 92.9602 39.2317C93.1245 40.7496 93.5173 41.8744 93.7522 42.9639C93.8721 43.4948 93.9565 44.0099 93.9577 44.3625C93.9613 44.5344 93.9347 44.6534 93.9454 44.6407C93.9462 44.6341 94.0765 44.4699 94.1846 44.4264C94.2592 44.3902 94.2713 44.3986 94.2142 44.3966C94.4241 44.3897 94.2911 44.3902 94.1638 44.3336C94.0247 44.2816 93.84 44.2011 93.6426 44.1098C93.2429 43.9259 92.7901 43.699 92.2632 43.485C91.7308 43.2773 91.1341 43.0466 90.2602 43.0004C89.4305 42.9108 87.994 43.3741 87.3277 44.3025C87.146 44.5301 87.0078 44.7536 86.8905 44.9822C86.5577 45.6783 86.6052 46.1814 86.6198 46.4842C86.646 46.7963 86.6908 46.9958 86.7258 47.1645C86.7997 47.5002 86.858 47.7224 86.9045 47.9382C86.9969 48.3595 87.0433 48.7045 87.0545 49.0556C87.0767 49.7485 86.9499 50.4468 86.6922 51.187C86.6661 51.2618 86.6479 51.3418 86.6338 51.4264C86.6713 51.4435 86.7735 51.3949 86.9391 51.3392C87.1033 51.2799 87.3087 51.2698 87.3909 51.265C87.4378 51.2598 87.4598 51.2621 87.4604 51.2599C87.4827 51.2629 87.2775 51.2038 87.0897 51.125C86.8926 51.0455 86.6682 50.9458 86.4324 50.8402C85.9574 50.6284 85.4414 50.3902 84.8328 50.1815C84.2169 49.9863 83.5297 49.7514 82.4515 49.8555C81.3633 49.8631 79.8299 51.0852 79.5594 52.1186C79.5223 52.2151 79.4891 52.3123 79.4594 52.4099C79.0828 54.1045 79.4932 54.6339 79.5551 55.218C79.674 55.7673 79.7543 56.2069 79.7902 56.6471C79.8638 57.5145 79.7574 58.3718 79.4786 59.2611C79.4648 59.3053 79.4504 59.35 79.4356 59.3951C79.4079 59.4979 79.3685 59.5173 79.4724 59.4136C79.5606 59.307 79.9193 59.1553 80.0971 59.1764C80.1449 59.177 80.1794 59.1819 80.2006 59.1857C79.0133 58.9841 77.9335 58.2533 75.839 57.64C75.6287 57.5878 75.4044 57.5334 75.1585 57.4876C74.7129 57.4046 74.309 57.3417 73.833 57.3322C73.3465 57.3462 72.8556 57.3036 71.9434 57.7819C71.4765 58.0225 70.6013 58.7924 70.4569 59.9118C70.3144 61.2674 70.6904 61.9075 70.8823 62.4331C71.1048 62.9485 71.3106 63.3346 71.4892 63.7036C71.8475 64.4326 72.1057 65.0739 72.2157 65.7408C72.2399 65.8873 72.2586 66.0325 72.272 66.1801C72.3653 67.0283 72.282 67.678 72.2069 67.7568C72.1918 67.7846 72.1741 67.7825 72.1491 67.7804C71.9586 67.9239 71.7075 68.0228 71.6842 68.011C71.6713 68.0124 71.7718 67.9294 72.0985 67.9487C70.3046 67.7126 68.2466 66.7674 65.2572 66.9376C64.7687 66.9791 64.2562 67.0645 63.7393 67.2152C63.2608 67.3652 62.6675 67.5173 61.8801 68.0639C61.5289 68.3194 61.1016 68.6971 60.77 69.3129C60.431 69.9216 60.3166 70.7357 60.4076 71.3331C60.692 73.3313 61.0518 75.1825 61.2053 76.9407C61.2813 77.8082 61.3026 78.6623 61.2133 79.3209C61.1716 79.645 61.0925 79.9121 61.0395 80.0193C60.9771 80.1376 61.0294 80.029 61.1344 79.9843C61.1971 79.954 61.2136 79.9652 61.1335 79.966C60.5569 79.9934 59.3422 79.5761 58.156 79.0623C57.5448 78.8053 56.9052 78.5206 56.166 78.2465C55.3958 78.0005 54.674 77.617 53.1048 77.7106C52.4574 77.7623 51.4995 78.1153 50.8852 78.812C50.2364 79.5557 50.1951 80.0606 50.1108 80.4318C50.0488 80.8055 50.0449 81.0873 50.0446 81.3469C50.0483 81.8328 50.0989 82.2306 50.1605 82.6141C50.5936 85.2414 51.6989 87.938 51.449 89.1036C51.4182 89.2507 51.36 89.3155 51.3006 89.3615C51.159 89.5256 50.9778 89.6878 50.8495 89.7956C50.7196 89.9093 50.6236 89.9381 50.6746 89.923C50.1673 90.097 48.2486 89.6718 46.5814 89.2795C45.6939 89.0887 44.7741 88.8757 43.6016 88.8423C43.0127 88.8376 42.3253 88.8601 41.4991 89.188C40.6721 89.4885 39.8027 90.3456 39.494 91.1618C39.3504 91.5025 39.2713 91.8061 39.2159 92.1191C39.0803 93.1135 39.2063 93.5591 39.2658 94.0893C39.3406 94.5947 39.4292 95.0559 39.5156 95.5069C39.6886 96.4023 39.8586 97.2544 39.9661 98.067C40.0742 98.871 40.1137 99.6659 40.0184 100.204C39.9743 100.471 39.8977 100.633 39.8707 100.68C39.8424 100.726 39.8539 100.753 39.6884 100.804C39.6765 100.807 39.6638 100.81 39.6502 100.813C38.7974 100.973 37.8382 100.982 36.81 100.938C36.2896 100.918 35.7627 100.881 35.1424 100.875C34.8257 100.877 34.4994 100.873 34.0282 100.959C33.7895 101.01 33.4934 101.069 33.0956 101.32C32.6938 101.546 32.251 102.189 32.204 102.69C32.1998 102.717 32.1962 102.743 32.1931 102.77C32.0789 105.805 32.3177 108.723 30.7315 108.888C30.7311 108.888 30.7308 108.888 30.7305 108.888C30.3695 108.993 29.1023 108.561 27.9255 108.265C26.8 107.977 24.7506 107.72 23.3466 109.201C23.2029 109.349 23.078 109.531 22.9916 109.712C22.6173 110.637 22.8853 111.049 22.9733 111.343C23.0949 111.636 23.2193 111.831 23.2882 112.012C23.3003 112.044 23.3116 112.077 23.322 112.111C24.2695 114.963 25.4559 118.331 23.7791 119.635C23.7718 119.641 23.7644 119.647 23.7569 119.652C23.7404 119.643 23.8891 119.563 23.9033 119.536C23.9205 119.5 23.8347 119.42 23.719 119.311C23.6893 119.284 23.6562 119.255 23.6213 119.226C23.5995 119.208 23.5781 119.189 23.5555 119.169C22.471 118.231 21.4405 117.502 20.5222 116.672C20.0721 116.267 19.6429 115.833 19.3845 115.448C19.2552 115.264 19.1938 115.083 19.1983 115.086C19.2215 115.091 19.1104 115.314 19.1415 115.254C18.8699 115.484 18.6105 115.519 18.4882 115.532C18.1822 115.546 18.1544 115.503 18.1046 115.496C18.0657 115.484 18.0576 115.479 18.0554 115.479C18.0532 115.477 18.0794 115.49 18.1086 115.506C18.1692 115.539 18.2509 115.588 18.3337 115.64C18.5016 115.746 18.6834 115.867 18.87 115.991Z" fill="var(--stroke-0, #DAE562)"/>
<path id="Vector 122" d="M42.9857 138.201C42.8103 138.024 42.5719 137.924 42.323 137.923C42.074 137.922 41.8349 138.02 41.6582 138.196C41.4815 138.371 41.3817 138.609 41.3807 138.858C41.3798 139.107 41.4778 139.346 41.6532 139.523C41.6532 139.523 41.6532 139.523 41.6532 139.523C43.2799 140.788 44.6534 140.822 46.3501 140.644C46.4006 140.635 46.4507 140.624 46.5005 140.612C47.6539 140.286 48.1937 139.581 48.7373 138.924C48.7822 138.866 48.8268 138.807 48.8703 138.748C49.4539 137.904 49.6203 137.121 49.8213 136.369C50.2285 134.649 50.4853 133.019 50.6209 131.423C50.6311 131.296 50.6379 131.17 50.6427 131.042C50.637 130.868 50.6671 130.815 50.5622 130.903C50.4378 130.996 50.3403 130.941 50.5066 130.923C50.5757 130.915 50.6743 130.915 50.7871 130.923C51.3983 130.968 52.255 131.204 53.1938 131.308C53.4097 131.332 53.6343 131.348 53.8692 131.352C54.8466 131.375 55.9687 131.092 56.8285 130.398C57.07 130.207 57.2882 129.992 57.4813 129.763C59.6551 126.637 59.3887 123.657 59.8134 120.913C59.8456 120.622 59.8774 120.333 59.909 120.048C59.9225 119.947 59.9478 119.885 59.9452 119.905C59.9451 119.92 59.8873 120.05 59.7497 120.156C59.5389 120.317 59.3949 120.276 59.5389 120.264C60.7442 120.241 62.5969 120.282 64.2179 120.19C64.6177 120.172 65.0202 120.163 65.4248 120.146C66.3025 120.109 67.2689 119.744 67.9342 119.193C68.3909 118.826 68.7435 118.424 69.0375 118.054C71.7676 113.525 70.0277 109.773 70.3129 106.688C70.3255 106.332 70.3517 105.997 70.3972 105.707C70.3797 105.793 70.3041 106.022 70.1078 106.218C69.9144 106.415 69.7085 106.48 69.6448 106.489C69.5131 106.5 69.7169 106.459 69.9369 106.482C70.4056 106.516 71.0427 106.654 71.6803 106.804C72.9831 107.1 74.3324 107.513 76.0001 107.658C76.3366 107.682 76.6986 107.691 77.0821 107.661C77.6541 107.609 78.3474 107.488 79.0502 106.988C79.7675 106.492 80.2012 105.609 80.318 104.948C80.5488 103.598 80.2965 102.695 80.1075 101.818C79.8983 100.955 79.6415 100.17 79.414 99.4397C79.3008 99.0764 79.1934 98.7247 79.1194 98.4267C79.0831 98.2809 79.0551 98.1424 79.045 98.062C79.0279 97.9862 79.0631 97.9301 79.019 98.1863C79.0187 98.1877 79.0182 98.19 79.0173 98.1932C79.035 98.2356 78.7949 98.556 78.6934 98.5726C78.6006 98.6066 78.7471 98.5439 78.9714 98.5383C79.4347 98.514 80.1297 98.5991 80.8325 98.709C82.2917 98.8981 83.7373 99.3714 85.9233 99.1039C86.1688 99.0624 86.3982 99.0105 86.6487 98.9349C87.7305 98.6373 88.8394 97.7888 89.4136 96.8261C90.0099 95.8682 90.2502 94.9282 90.4224 94.0797C90.7453 92.4136 90.7713 90.7708 91.0499 89.8534C91.0711 89.7991 91.1055 89.7273 91.1555 89.6487C91.2703 89.4659 91.4798 89.267 91.7357 89.0929C91.8769 88.9931 92.0192 88.8969 92.165 88.8004C93.2807 88.0555 94.6545 87.5233 96.2401 86.9754C97.7705 86.3701 99.8265 85.9962 101.562 83.8788C101.841 83.5093 102.01 83.1537 102.136 82.8332C103.022 79.8084 103.357 77.9549 103.764 75.985C103.77 75.9863 103.771 76.0133 103.756 76.0601C103.724 76.2212 103.387 76.4262 103.349 76.2967C103.3 76.1913 103.514 75.9633 103.838 75.8401C103.93 75.8052 104.023 75.7767 104.119 75.7555C105.966 75.3127 107.803 75.6516 110.759 75.5072C110.855 75.4973 110.95 75.4852 111.045 75.4707C112.496 75.3286 114.143 74.1256 114.76 72.883C115.439 71.6526 115.639 70.5397 115.8 69.5177C116.09 67.5079 116.052 65.581 116.288 64.2389C116.311 64.1072 116.334 63.9797 116.357 63.8499C116.502 63.049 116.686 62.2646 116.898 61.5644C117.086 60.8936 117.431 60.1805 117.447 60.2214C117.436 60.236 117.42 60.2562 117.396 60.28C117.308 60.384 117.032 60.5413 116.858 60.5639C116.68 60.5937 116.659 60.5614 116.745 60.5778C116.925 60.6012 117.393 60.7761 117.877 61.0149C118.895 61.4927 119.955 62.2139 121.655 62.8158C121.985 62.927 122.3 62.9897 122.594 63.024C124.01 63.1573 124.975 62.7116 125.898 62.2839C126.058 62.2064 126.215 62.126 126.371 62.0435C128.555 60.9074 130.014 58.9236 130.721 57.0895C130.751 57.0119 130.78 56.9344 130.807 56.8572C131.323 55.428 131.641 53.7685 131.532 52.0991C131.483 51.2718 131.325 50.4487 131.158 49.773C131.078 49.4415 130.997 49.1333 130.967 48.972C130.915 48.8088 131.032 48.8257 130.886 49.42L129.645 51.0007C129.471 51.1041 129.319 51.1561 129.22 51.182C128.949 51.2432 128.987 51.2005 129.087 51.2065C129.192 51.2062 129.375 51.2217 129.578 51.2482C129.99 51.302 130.488 51.3925 130.999 51.4868C132.84 51.8384 134.863 52.1923 136.84 52.5425L137.067 52.6005C137.099 52.6022 137.13 52.6038 137.161 52.6052C138.204 52.6491 138.915 51.7132 140.078 51.6572C140.079 51.6572 140.079 51.657 140.079 51.6568C140.08 51.6566 140.08 51.6564 140.08 51.6561C140.08 51.6559 140.08 51.6556 140.08 51.6552C140.08 51.6549 140.08 51.6545 140.08 51.6542C140.08 51.6542 140.08 51.6542 140.08 51.6542C139.624 50.7308 138.511 49.4858 137.759 49.2477C137.735 49.2393 137.711 49.2309 137.687 49.2223L137.914 49.2803C136.14 48.4054 134.457 47.4108 132.534 46.5686C131.987 46.3337 131.419 46.1101 130.745 45.924C130.038 45.7745 129.39 45.4713 127.806 45.8019C127.509 45.8796 127.157 46.0089 126.807 46.2174L125.876 46.772L125.566 47.7981C125.239 49.0023 125.458 49.6581 125.531 50.11C125.63 50.5577 125.722 50.8623 125.794 51.1356C125.94 51.6743 126.028 52.0878 126.073 52.5143C126.162 53.3498 126.063 54.226 125.778 55.1672C125.762 55.2174 125.747 55.2684 125.731 55.3202C125.365 56.551 125.002 57.5922 124.232 57.9958C124.176 58.0254 124.117 58.0495 124.055 58.0689C123.684 58.1984 123.223 58.1033 123.226 58.0707C123.227 58.0678 123.252 58.067 123.304 58.0813C122.597 57.8081 121.514 57.0839 120.259 56.3983C119.607 56.0558 118.905 55.6786 117.833 55.4297C116.875 55.1378 114.741 55.3069 113.623 56.5755C113.493 56.7082 113.375 56.8449 113.265 56.9875C111.552 59.7267 111.866 61.2795 111.522 63.1093C111.503 63.2522 111.486 63.3917 111.469 63.5347C111.242 65.7412 111.427 67.4166 111.273 68.9598C111.209 69.7066 111.055 70.386 110.874 70.7314C110.662 71.0764 110.713 71.0423 110.381 71.1262C110.359 71.1296 110.335 71.1326 110.31 71.1351C108.694 71.2563 105.902 70.763 103.226 71.2906C103.079 71.318 102.933 71.3413 102.784 71.3632C102.184 71.4596 101.477 71.5216 100.617 71.919C99.7684 72.2833 98.7771 73.2585 98.46 74.3318C98.3476 74.6762 98.2843 75.0113 98.2537 75.3232C98.0523 77.6531 98.8432 80.2441 98.449 81.4031C98.4203 81.4793 98.3957 81.5078 98.4168 81.4767C97.4836 82.8213 93.1189 83.0163 89.8066 85.2373C89.5863 85.3831 89.3731 85.5386 89.1632 85.7053C88.5212 86.2132 87.9473 86.8627 87.5214 87.6728C87.337 88.0253 87.184 88.4119 87.0828 88.833C86.6878 90.8122 86.8545 92.1812 86.6651 93.441C86.5868 94.0497 86.4421 94.5761 86.2618 94.8889C86.0749 95.2023 85.9327 95.3233 85.5887 95.4374C85.5089 95.4615 85.4264 95.4804 85.3274 95.4963C84.5079 95.628 82.9758 95.2822 81.4809 94.9886C80.7037 94.8462 79.9027 94.6825 78.8601 94.6915C78.3342 94.7105 77.7231 94.7435 76.9489 95.1163C76.1659 95.4603 75.4277 96.4266 75.2661 97.2003C75.2527 97.251 75.2405 97.3018 75.2293 97.3526C75.0461 98.5654 75.2916 98.9376 75.397 99.4387C75.5311 99.9015 75.6773 100.298 75.8214 100.682C76.1092 101.441 76.3961 102.139 76.6131 102.795C76.8337 103.433 76.9576 104.109 76.9307 104.33C76.9142 104.442 76.9658 104.313 77.0396 104.282C77.1064 104.253 77.0086 104.327 76.7885 104.347C76.6353 104.365 76.4446 104.366 76.2419 104.351C75.1962 104.27 73.9464 103.831 72.6395 103.402C71.9714 103.187 71.2975 102.955 70.4208 102.805C69.9706 102.743 69.4826 102.654 68.6936 102.829C68.2994 102.924 67.7794 103.142 67.3514 103.585C66.9175 104.03 66.7083 104.571 66.6265 105.001C66.5163 105.546 66.4699 106.059 66.4517 106.55C66.3907 110.412 67.4694 114.245 66.3142 115.994C66.1264 116.261 65.9524 116.469 65.793 116.613C65.5557 116.824 65.3949 116.957 65.0945 117.036C64.7619 117.097 64.4249 117.142 64.0853 117.157C62.6197 117.235 61.3972 116.861 59.5214 116.729C59.0468 116.717 58.2496 116.788 57.5435 117.342C56.5548 118.153 56.4359 119.146 56.3851 119.766C56.3692 120.073 56.3586 120.379 56.3512 120.682C56.2635 123.454 56.4899 126.521 55.4634 128.17C55.3871 128.283 55.3036 128.382 55.212 128.471C54.8919 128.782 54.4414 128.959 53.8821 128.964C53.7481 128.965 53.6037 128.957 53.4528 128.94C52.7687 128.872 52.0562 128.621 51.0486 128.471C50.8532 128.446 50.6417 128.428 50.4015 128.433C49.9313 128.437 49.1591 128.568 48.6049 129.155C48.0666 129.732 47.9401 130.337 47.877 130.801C47.859 130.934 47.8443 131.066 47.8336 131.2C47.6947 132.87 47.8902 134.527 47.8103 136.049C47.7748 136.697 47.6531 137.362 47.4164 137.698C47.3859 137.741 47.354 137.785 47.3214 137.827C46.9528 138.316 46.3821 138.732 46.0813 138.783C46.0566 138.789 46.0305 138.794 46.0032 138.799C45.0567 138.979 43.4729 138.659 42.9857 138.201Z" fill="var(--stroke-0, #DAE562)"/>
</g>
</svg>
