<svg preserveAspectRatio="none" width="100%" height="100%" overflow="visible" style="display: block;" viewBox="0 0 88.9196 97.6354" fill="none" xmlns="http://www.w3.org/2000/svg">
<g id="Group 20">
<path id="Vector 34" d="M51.5553 76.4771C51.5553 76.8487 51.7029 77.2051 51.9657 77.4679C52.2285 77.7307 52.5849 77.8783 52.9565 77.8783C53.3282 77.8783 53.6846 77.7307 53.9474 77.4679C54.2102 77.2051 54.3578 76.8487 54.3578 76.4771C54.3578 76.4771 54.3578 76.4771 54.3578 76.4771C54.3578 75.6416 54.3476 74.8069 54.3285 73.9729C54.2404 70.1725 53.9716 66.3896 53.5909 62.6245C53.5897 62.613 53.5886 62.6014 53.5874 62.5898L53.5404 62.1255L53.2238 61.7818C53.0737 61.6053 52.6179 61.2488 52.0267 61.2873C51.4638 61.3328 51.2179 61.5719 51.0797 61.6821C50.8078 61.9356 50.7477 62.0725 50.6703 62.1936C50.5324 62.4347 50.4666 62.601 50.3991 62.7685C50.2685 63.1033 50.1788 63.3931 50.0913 63.6895C49.9202 64.2774 49.7822 64.8475 49.654 65.413C49.3982 66.5496 49.1864 67.6717 48.988 68.8077C48.9841 68.8304 48.9802 68.8532 48.9762 68.876C47.5152 77.5783 46.5001 86.2931 45.4464 95.0133C45.3488 95.8321 45.2515 96.6502 45.1539 97.4713C45.1495 97.5085 45.1604 97.5465 45.1834 97.577C45.2065 97.6074 45.2397 97.6278 45.2766 97.6336C45.3136 97.6395 45.3515 97.6305 45.3828 97.6087C45.4141 97.5869 45.4363 97.5541 45.4437 97.5174C45.4437 97.5174 45.4437 97.5174 45.4437 97.5174C45.6056 96.7067 45.7683 95.8993 45.9323 95.0915C47.6894 86.4961 49.5112 77.89 51.4926 69.393C51.4979 69.3708 51.5032 69.3488 51.5085 69.3267C51.7721 68.2239 52.0356 67.1352 52.3167 66.0619C52.4567 65.5302 52.6022 64.9964 52.7587 64.4945C52.8367 64.2453 52.9179 64.0036 52.9987 63.8037C53.0361 63.7099 53.0815 63.6169 53.0878 63.6089C53.0809 63.611 53.1022 63.6227 52.9348 63.7822C52.8474 63.8476 52.6668 64.0439 52.1746 64.0857C51.941 64.1026 51.6659 64.0304 51.5009 63.939C51.3239 63.8443 51.232 63.754 51.1629 63.6808L50.7992 62.8728C50.8004 62.8841 50.8016 62.8955 50.8027 62.9069C51.1776 66.6143 51.4409 70.3284 51.5267 74.0371C51.5454 74.851 51.5553 75.6644 51.5553 76.4771Z" fill="var(--stroke-0, #DAE562)"/>
<path id="Vector 36" d="M54.6464 34.2708C54.6464 34.6757 54.8072 35.064 55.0935 35.3502C55.3798 35.6365 55.7681 35.7974 56.173 35.7974C56.5778 35.7974 56.9661 35.6365 57.2524 35.3502C57.5387 35.064 57.6995 34.6757 57.6995 34.2708C57.6995 34.2708 57.6995 34.2708 57.6995 34.2708C57.686 33.8119 57.6154 33.6531 57.5685 33.4655C57.5176 33.2907 57.4686 33.1495 57.4234 33.019C57.335 32.7684 57.251 32.5218 57.2385 32.4547C57.2381 32.453 57.2379 32.4519 57.2377 32.4513L55.2746 34.2052C55.1198 34.1517 55.1172 34.1388 55.1055 34.1338C56.7352 35.1443 59.5392 35.1818 61.3595 36.2836C61.3669 36.2881 61.3743 36.2926 61.3817 36.2971C68.1604 40.4002 75.0794 44.289 82.0927 47.9819C82.5906 48.2436 83.0871 48.5032 83.5874 48.7634C83.5874 48.7634 83.5874 48.7634 83.5874 48.7634C83.0871 48.5032 82.5906 48.2436 82.0927 47.9819C75.0794 44.289 68.1604 40.4002 61.3817 36.2971C61.3743 36.2926 61.3669 36.2881 61.3595 36.2836C59.4457 35.1252 58.5736 32.8273 56.5624 31.4546C56.4882 31.416 56.4278 31.3735 56.2075 31.2983L53.7212 30.5145L54.2444 33.0522C54.2479 33.07 54.2515 33.0874 54.2553 33.1046C54.3577 33.5435 54.4597 33.7827 54.5397 34.0219C54.5795 34.1362 54.6143 34.2401 54.6357 34.3143C54.659 34.3753 54.6563 34.4708 54.6464 34.2708Z" fill="var(--stroke-0, #DAE562)"/>
<path id="Vector 30" d="M20.035 55.4932C20.3243 55.3526 20.546 55.1028 20.6511 54.7987C20.7563 54.4947 20.7364 54.1613 20.5958 53.872C20.4551 53.5826 20.2053 53.361 19.9013 53.2558C19.5973 53.1507 19.2639 53.1706 18.9745 53.3112C18.9745 53.3112 18.9745 53.3112 18.9745 53.3112C18.7582 53.4197 18.6489 53.5236 18.5532 53.6152C18.4722 53.6962 18.4359 53.7396 18.3853 53.8005C18.2838 53.9258 18.2277 54.0078 18.1651 54.1C18.0285 54.3054 17.9526 54.435 17.8463 54.6195C17.6673 54.933 17.4967 55.2596 17.3357 55.5779C17.0133 56.2173 16.7213 56.8385 16.4306 57.4707C13.6928 63.5422 11.2772 69.6733 8.86362 75.8174C8.76419 76.0723 8.66607 76.3258 8.57252 76.5693C8.51933 76.7072 8.48483 76.795 8.44042 76.9013C8.41683 76.9573 8.40049 76.9937 8.39166 77.0125C8.38909 77.0208 8.38486 77.016 8.44825 76.9256C8.46321 76.906 8.4458 76.926 8.49897 76.8611C8.5355 76.8193 8.58355 76.7628 8.69082 76.6816C8.79844 76.6072 8.97809 76.4734 9.3441 76.4475C9.71226 76.4084 10.1771 76.6593 10.3382 76.8909C10.5177 77.1212 10.5485 77.2772 10.575 77.3786C10.5913 77.4536 10.5939 77.4841 10.5979 77.5221C10.6086 77.6583 10.5994 77.6943 10.5979 77.7204C10.5953 77.7206 10.6774 77.3694 10.736 77.1579C10.8634 76.6844 11.0095 76.1848 11.1543 75.6976C11.4496 74.7077 11.7527 73.733 12.065 72.7508C12.6866 70.797 13.3404 68.8327 14.0296 66.8874C15.4118 63.0027 16.9274 59.1452 18.8405 55.5112C19.0073 55.1958 19.1764 54.886 19.3507 54.5786C19.4767 54.3564 19.706 54.196 19.9788 54.0622C20.1151 53.9953 20.2613 53.937 20.415 53.8721C20.4924 53.8386 20.5695 53.8079 20.6583 53.7526C20.7031 53.7231 20.7486 53.6965 20.8202 53.6032C20.8405 53.5734 20.8568 53.5541 20.888 53.4899C20.9133 53.4318 20.9592 53.3599 20.9972 53.117C21.0078 53.0322 21.0166 52.9148 20.9985 52.7602C20.989 52.682 20.9732 52.597 20.9416 52.4956C20.899 52.3602 20.8274 52.2051 20.7171 52.0576C20.179 51.3854 19.5449 51.4586 19.3797 51.4645C18.9957 51.5137 18.9669 51.5588 18.8743 51.5853L18.4273 51.9022C17.9316 52.0242 17.4653 52.2213 17.2042 52.5637C14.3994 56.5815 13.2169 60.5461 11.6227 64.4944L11.6527 64.4201C11.5779 64.5952 11.5003 64.7753 11.4241 64.9512C9.91043 68.4169 8.43446 72.0155 7.2818 75.7328C6.86903 77.0562 6.4932 78.3924 6.15711 79.7437C6.10216 79.9667 6.11442 80.207 6.21073 80.4196C6.30689 80.6322 6.47673 80.7988 6.68744 80.8844C6.89816 80.9701 7.13601 80.9694 7.35325 80.8843C7.57064 80.7992 7.74713 80.6357 7.86341 80.4376C7.86341 80.4376 7.86341 80.4376 7.86341 80.4376C8.56033 79.2488 9.24559 78.0631 9.91897 76.8719C11.8051 73.5217 13.6207 70.1666 15.187 66.5822C15.266 66.3999 15.3466 66.2125 15.4246 66.0294L15.4546 65.9552C16.9704 62.1003 18.3569 57.8937 20.3982 54.9835C20.5742 54.7489 20.5742 54.3912 20.5822 53.9943L20.1353 54.3112C20.0594 54.3301 20.0444 54.3694 19.6763 54.4167C19.5192 54.4218 18.8938 54.4958 18.3608 53.8303C18.2518 53.6844 18.1811 53.5312 18.1392 53.398C18.1081 53.2983 18.0927 53.2149 18.0834 53.1386C18.0658 52.9878 18.0745 52.8748 18.0846 52.7948C18.1211 52.5656 18.1614 52.5113 18.1812 52.4676C18.2056 52.4212 18.217 52.4127 18.2299 52.3992C18.2745 52.3635 18.287 52.3964 18.3011 52.4215C18.3256 52.4797 18.3368 52.5592 18.3476 52.6373C18.3677 52.7958 18.3805 52.9593 18.3846 53.1151C18.3915 53.4286 18.3616 53.7146 18.2315 53.9439C18.0514 54.2616 17.8758 54.5795 17.7014 54.9014C15.7152 58.5862 13.941 62.3711 12.2926 66.2083C11.4709 68.129 10.6847 70.0713 9.95574 72.0216C9.58968 73.0027 9.23951 73.9791 8.9036 74.9877C8.73811 75.4857 8.57433 75.9947 8.42379 76.5111C8.38184 76.6569 8.35458 76.7512 8.31107 76.9169C8.275 77.0677 8.2406 77.1499 8.19671 77.4666C8.19126 77.5302 8.18093 77.5951 8.19359 77.7514C8.19814 77.7946 8.20123 77.8288 8.21858 77.9089C8.24669 78.0171 8.2796 78.1782 8.46176 78.4119C8.6256 78.6468 9.0937 78.8993 9.46573 78.86C9.83562 78.8339 10.0197 78.6982 10.1324 78.6199C10.2447 78.535 10.2984 78.4729 10.3412 78.4238C10.4052 78.3458 10.3852 78.3684 10.4045 78.3432C10.4923 78.219 10.5198 78.1584 10.5564 78.0879C10.604 77.9919 10.6278 77.9379 10.6649 77.8527C10.7297 77.7021 10.7696 77.6029 10.8311 77.4468C10.9261 77.205 11.0248 76.9528 11.1238 76.6989C13.5248 70.5852 15.9509 64.4346 18.6353 58.4832C18.9179 57.8683 19.2013 57.2664 19.5011 56.6718C19.6501 56.3769 19.8062 56.0794 19.9524 55.8236C20.0373 55.6758 20.0993 55.5722 20.1786 55.4534C20.2121 55.4034 20.2432 55.3608 20.2619 55.3381C20.2599 55.3214 20.3345 55.3216 20.035 55.4932Z" fill="var(--stroke-0, #DAE562)"/>
<path id="Vector 31" d="M32.1475 70.6333C32.4088 70.6133 32.6514 70.4903 32.822 70.2914C32.9927 70.0925 33.0773 69.8339 33.0573 69.5726C33.0373 69.3113 32.9143 69.0687 32.7154 68.8981C32.5165 68.7274 32.2579 68.6428 31.9966 68.6628C31.9966 68.6628 31.9966 68.6628 31.9966 68.6628C29.8405 68.9618 28.4891 69.9526 26.9729 70.7809C21.384 74.1546 16.1202 77.8057 10.7392 81.3744C10.6544 81.431 10.5752 81.4966 10.5001 81.5693C10.1794 81.8821 9.95087 82.3223 9.70817 82.7436C9.58548 82.955 9.45903 83.1623 9.31612 83.3428C9.26918 83.428 9.07928 83.5332 9.24939 83.5429C9.32059 83.458 9.40229 83.3828 9.49096 83.318C9.5488 83.2758 9.60727 83.2337 9.66575 83.1919C16.5353 78.5626 23.8672 74.5716 31.4 71.1683C31.5726 71.0937 31.7421 71.022 31.9084 70.9534C25.3833 72.3279 18.2949 75.3749 11.7188 78.1313C11.6277 78.1723 11.5381 78.2127 11.4499 78.2527C9.32783 79.2465 7.48508 79.9326 5.05663 81.1636C4.97916 81.2122 4.90383 81.2621 4.82719 81.316C4.58758 81.4862 4.42619 81.7751 4.30396 82.1355C4.24314 82.3231 4.18633 82.5052 4.14106 82.8202C4.12753 82.9774 4.08385 83.2115 4.23391 83.5367C4.39839 83.8749 4.7229 83.9894 4.87365 84.0059L5.17492 84.0194C5.25648 83.9729 5.33942 83.9351 5.42326 83.9117C7.91561 83.0876 9.86669 81.7163 11.9804 80.5108L11.9689 80.5169C12.0085 80.4955 12.0486 80.474 12.089 80.4523C13.5614 79.6671 15.0675 78.9292 16.5739 78.1988C18.0883 77.4659 19.6088 76.7439 21.1275 76.0172C21.1482 76.0073 21.1643 75.9893 21.1722 75.9675C21.1802 75.9457 21.1794 75.9219 21.17 75.901C21.1606 75.88 21.1432 75.8637 21.1216 75.8552C21.1 75.8467 21.0759 75.8469 21.0547 75.8558C21.0547 75.8558 21.0547 75.8558 21.0547 75.8558C19.5048 76.5133 17.9565 77.1742 16.4108 77.8427C14.8726 78.5094 13.3341 79.1787 11.8066 79.887C11.7646 79.9065 11.723 79.9259 11.6818 79.9452L11.6702 79.9513C9.53431 81.0243 7.32046 82.2267 5.14359 82.7065C5.07504 82.7185 5.00256 82.7132 4.93257 82.6944L5.23384 82.708C5.28173 82.6969 5.50514 82.7507 5.63083 82.9867C5.7418 83.211 5.71866 83.333 5.74041 83.3904C5.77004 83.5034 5.84281 83.5131 5.92093 83.5387C6.08042 83.5773 6.25256 83.5942 6.36192 83.5201C6.39759 83.4959 6.43434 83.4723 6.47315 83.4488C8.13568 82.6505 10.5715 81.7119 12.5913 80.7723C12.6805 80.7319 12.7709 80.6907 12.8626 80.6486C19.2586 77.5169 26.2232 74.2497 31.6866 70.4494C31.5219 70.5264 31.3537 70.6055 31.1822 70.6864C23.7213 74.3643 16.5363 78.5578 9.66571 83.1918C9.60726 83.2337 9.5488 83.2758 9.49096 83.318C9.40202 83.383 9.3069 83.4372 9.20617 83.4891C9.19424 83.4952 9.18028 83.5028 9.16815 83.5093C9.16288 83.5118 9.15384 83.5177 9.14787 83.5212C9.14519 83.5227 9.14031 83.5263 9.13566 83.5303C9.13333 83.5324 9.13096 83.5346 9.12826 83.5378C9.12865 83.5377 9.1209 83.5443 9.11768 83.5634C9.10545 83.5855 9.15717 83.6303 9.15961 83.6229C9.2568 83.6151 9.2425 83.607 9.28045 83.5998C9.33572 83.5857 9.39593 83.5692 9.45037 83.558C9.67912 83.5058 9.92143 83.4724 10.1665 83.4431C10.6537 83.3858 11.1517 83.3422 11.5661 83.1636C11.662 83.1221 11.7529 83.0739 11.8376 83.0173C17.2057 79.4562 22.5215 75.7751 27.9732 72.4853C29.3736 71.681 30.9286 70.7653 32.1475 70.6333Z" fill="var(--stroke-0, #DAE562)"/>
<path id="Vector 32" d="M31.9292 70.8939C31.9292 71.3154 32.0967 71.7197 32.3948 72.0177C32.6928 72.3158 33.0971 72.4832 33.5186 72.4832C33.9402 72.4832 34.3444 72.3158 34.6425 72.0177C34.9406 71.7197 35.108 71.3154 35.108 70.8939C35.108 70.8939 35.108 70.8939 35.108 70.8939C35.108 70.5208 35.108 70.1476 35.108 69.7747C35.108 69.7516 35.108 69.7293 35.108 69.7062C35.1078 69.6186 35.1131 69.5647 35.1137 69.5611C35.0969 69.5537 35.1754 69.6067 34.8863 70.0173C34.7807 70.1505 34.6037 70.3097 34.3732 70.413C34.1467 70.5198 33.871 70.5493 33.7163 70.5378C33.3659 70.5151 33.1899 70.3993 33.1184 70.3575C33.0108 70.2853 33.0328 70.2879 33.0616 70.3213C33.2146 70.4822 33.4695 70.8521 33.6875 71.2018C37.3562 77.6592 40.593 84.9015 43.708 91.8961C43.6795 91.8146 43.6302 91.6929 43.655 91.4577C43.672 91.2111 43.8794 90.9119 44.0395 90.8154C44.3626 90.6187 44.4283 90.6738 44.4875 90.6587C44.5859 90.6592 44.5705 90.6669 44.5639 90.6651C44.539 90.6632 44.4721 90.6462 44.4101 90.6243C44.2834 90.5811 44.1443 90.51 44.0746 90.4614C44.0026 90.4102 43.9261 90.3442 43.8499 90.2667C43.6375 90.053 43.2238 89.8709 43.0364 89.5181C41.2247 85.5245 40.5322 80.7586 39.062 76.342C38.9547 76.0049 38.8315 75.6817 38.6819 75.3562C37.708 73.095 35.6564 70.7503 32.5751 70.4878C32.3207 70.489 32.071 70.4685 31.5724 70.6542C31.3383 70.7444 30.9697 70.96 30.7094 71.3007C30.4285 71.6519 30.3046 72.102 30.2842 72.3879C30.2717 72.5273 30.274 72.6595 30.2833 72.7715C30.291 72.8658 30.3038 72.9528 30.3194 73.034C30.3507 73.1967 30.395 73.3374 30.4283 73.4323C30.5036 73.6446 30.5804 73.8015 30.6505 73.9369C30.7966 74.214 30.9306 74.4191 31.0583 74.6096C31.319 74.9941 31.5774 75.3299 31.8268 75.6477C32.3331 76.2891 32.8365 76.8876 33.3364 77.4817C34.3379 78.6679 35.3281 79.8293 36.3056 81.0065C38.2539 83.3489 40.1417 85.7329 41.9464 88.1683L41.8621 88.0456C41.9509 88.1862 42.0377 88.3255 42.1232 88.4646C42.8374 89.6286 44.0843 90.4696 45.0985 91.5668C45.3762 91.8663 45.6348 92.1834 45.8581 92.5191C45.8876 92.5638 45.9156 92.6064 45.944 92.652C46.1905 93.0273 46.3692 93.4582 46.733 93.8214C47.1273 94.221 47.7006 94.1048 48.0831 93.931C48.0831 93.931 48.0831 93.931 48.0831 93.931C47.6482 93.9918 47.1687 93.9403 46.9905 93.6007C46.7965 93.2741 46.7342 92.8324 46.6712 92.3897C46.6639 92.3362 46.658 92.2849 46.6514 92.2305C46.6041 91.8212 46.5768 91.3956 46.5489 90.9623C46.4518 89.3888 46.322 87.6767 45.5221 86.376C45.4271 86.2214 45.3308 86.0673 45.2325 85.9123L45.1483 85.7896C43.2778 83.2751 41.2835 80.8497 39.2359 78.5087C38.2099 77.3336 37.17 76.1812 36.1494 75.0407C35.6417 74.472 35.1347 73.9023 34.6689 73.3461C34.4414 73.074 34.2139 72.7914 34.0367 72.5456C33.9513 72.4277 33.8725 72.3078 33.8328 72.2384C33.814 72.2069 33.8054 72.1855 33.8167 72.2191C33.8204 72.2619 33.8808 72.3109 33.8616 72.6992C33.8492 72.885 33.7591 73.2266 33.5437 73.4948C33.3439 73.7553 33.0743 73.9056 32.934 73.9582C32.6328 74.0658 32.5818 74.0283 32.5635 74.0285C33.9347 73.9094 36.1344 74.3638 37.0228 76.1615C37.1501 76.4071 37.2598 76.6567 37.3589 76.9234C39.0268 81.2107 39.8431 85.6975 41.8486 90.1489C42.0661 90.5547 42.107 91.1021 42.4785 91.5271C42.608 91.6736 42.7537 91.8173 42.916 91.9485C43.1872 92.1627 43.433 92.2924 43.7054 92.4086C43.8438 92.4655 43.9811 92.5165 44.167 92.5594C44.266 92.5792 44.3557 92.6041 44.5634 92.6013C44.6755 92.5835 44.7967 92.6328 45.1655 92.4055C45.3477 92.2938 45.5709 91.9706 45.5909 91.6968C45.6187 91.4352 45.5635 91.2877 45.5245 91.1794C42.7329 83.8953 40.2454 76.6643 36.3754 69.554C36.102 69.1126 35.8713 68.7101 35.3862 68.1634C35.2692 68.0371 35.0727 67.8372 34.8118 67.6722C34.6277 67.5584 34.3281 67.3927 33.8785 67.3661C33.4417 67.2997 32.664 67.6408 32.4089 68.0287C32.1569 68.3632 32.1274 68.5043 32.058 68.701C32.0018 68.8819 31.9755 69.0527 31.9649 69.1303C31.9381 69.3266 31.9295 69.5124 31.9292 69.7062C31.9292 69.7293 31.9292 69.7516 31.9292 69.7747C31.9292 70.1476 31.9292 70.5208 31.9292 70.8939Z" fill="var(--stroke-0, #DAE562)"/>
<path id="Vector 33" d="M50.5179 64.066C50.7443 64.5281 51.145 64.8814 51.6318 65.0481C52.1187 65.2148 52.6519 65.1813 53.114 64.9549C53.5761 64.7285 53.9294 64.3278 54.0961 63.8409C54.2628 63.354 54.2293 62.8209 54.0029 62.3587C54.0029 62.3587 54.0029 62.3587 54.0029 62.3587C53.9115 62.2028 53.8807 61.9965 53.4334 61.4747C53.2212 61.2343 52.6366 60.7508 51.8284 60.7462C51.0487 60.7546 50.6575 61.0548 50.4204 61.2176C50.3989 61.2336 50.3777 61.2498 50.3567 61.2662C49.6166 61.8637 49.292 62.4752 49.0149 62.9978C47.8585 65.5386 47.4287 67.5759 47.2169 69.7358C47.2154 69.7554 47.2139 69.775 47.2125 69.7947C46.7748 76.2609 46.5868 82.6293 45.8 88.9778C45.7993 88.9835 45.7986 88.9891 45.7979 88.9948C45.5265 91.192 45.5205 93.8562 44.8045 95.4768C44.8048 95.4769 44.8051 95.477 44.8054 95.4771L46.0326 95.7147C46.1144 95.894 46.0896 95.9205 46.0913 95.948C46.0873 95.9707 46.0799 95.9707 46.0734 95.9659C46.0601 95.9545 46.0478 95.9203 46.0369 95.8819C46.0152 95.8027 45.9969 95.7038 45.98 95.5999C45.9467 95.3911 45.9187 95.1605 45.9035 94.9289C45.8737 94.4646 45.8973 93.9887 46.0821 93.5854C46.0821 93.5852 46.0822 93.585 46.0823 93.5848C46.8176 92.0302 47.6293 90.5097 48.3126 88.9295C48.6164 88.237 48.904 87.5375 49.1751 86.8306C49.1751 86.8306 49.1751 86.8306 49.1751 86.8306C48.904 87.5375 48.6164 88.237 48.3126 88.9295C47.6293 90.5097 46.8176 92.0302 46.0823 93.5848C46.0822 93.585 46.0821 93.5852 46.0821 93.5854C45.8973 93.9886 45.5774 94.3292 45.253 94.7C45.0912 94.8859 44.9282 95.0782 44.7861 95.2986C44.7152 95.41 44.6495 95.5251 44.5946 95.6667C44.5674 95.7379 44.5426 95.8128 44.5252 95.9123C44.5169 95.9644 44.5098 96.0178 44.5109 96.0969C44.5181 96.1785 44.5018 96.2611 44.6094 96.4894L45.3053 97.3549L45.8366 96.727C45.8388 96.7255 45.841 96.724 45.8431 96.7225C48.1807 94.5231 49.0489 92.1594 49.6572 89.6314C49.6584 89.6256 49.6596 89.6198 49.6607 89.614C50.992 83.1742 51.8956 76.6226 52.3325 70.1623C52.3339 70.1428 52.3352 70.1234 52.3365 70.1041C52.4769 68.146 52.2387 65.9552 52.6407 64.6239C52.7077 64.3864 52.8229 64.2503 52.7452 64.3249C52.7429 64.3267 52.7404 64.3286 52.7377 64.3306C52.6309 64.3969 52.3905 64.6165 51.7751 64.6266C51.4801 64.6264 51.1642 64.5252 50.9677 64.4105C50.7653 64.2953 50.6584 64.1878 50.5901 64.1158C50.3608 63.837 50.4647 63.9324 50.5179 64.066Z" fill="var(--stroke-0, #DAE562)"/>
<path id="Vector 35" d="M54.7579 65.1381C55.1468 65.1381 55.5198 64.9836 55.7948 64.7086C56.0698 64.4336 56.2243 64.0606 56.2243 63.6717C56.2243 63.2828 56.0698 62.9098 55.7948 62.6348C55.5198 62.3598 55.1468 62.2053 54.7579 62.2053C54.7579 62.2053 54.7579 62.2053 54.7579 62.2053C54.572 62.2057 54.4032 62.2036 54.3273 62.1959C54.296 62.1955 54.2752 62.1796 54.4026 62.2205C54.4676 62.2472 54.5883 62.2802 54.7899 62.4607C54.9958 62.6264 55.2099 63.0705 55.1994 63.3661C55.2006 63.4049 55.1999 63.4419 55.198 63.4768C55.1458 63.9399 55.0511 63.9671 55.034 64.0201C55.0086 64.0576 55.0138 64.0466 55.0271 64.0319C55.0526 64.0016 55.1251 63.9288 55.1895 63.8697C55.3418 63.7295 55.5184 63.5837 55.7012 63.4382C56.074 63.1421 56.4879 62.8364 56.8953 62.5408C57.7214 61.9428 58.5653 61.3537 59.4176 60.7595C64.6625 57.1342 69.9105 53.404 75.2214 49.8151C75.3302 49.7418 75.4392 49.6682 75.5484 49.5942C77.7941 48.0886 80.0301 46.5015 82.5443 45.4709C82.7169 45.4045 82.8898 45.3431 83.0666 45.2919C80.7281 46.6394 77.9491 47.6846 75.4132 48.9201C75.2918 48.9785 75.1691 49.0375 75.045 49.0972C67.5526 52.6487 60.3412 56.9711 53.1233 60.7413C52.8718 60.8615 52.5879 60.9653 52.3373 61.0292C51.4942 61.2725 50.6265 61.4064 49.7722 61.8342C49.4401 62.0116 49.1418 62.137 48.632 62.5375C48.5551 62.6013 48.4878 62.6588 48.4175 62.7234C48.3621 62.7764 48.2918 62.8334 48.1601 62.9957C48.1428 63.0176 48.1239 63.0424 48.1028 63.0721C48.0946 63.0838 48.1017 63.0733 48.0779 63.1081C48.0516 63.1472 48.0219 63.1939 47.9881 63.2561C47.9257 63.3838 47.819 63.5562 47.7841 63.965C47.7212 64.347 47.9935 65.1568 48.5124 65.4701C49.0049 65.7915 49.3371 65.768 49.5265 65.773C49.6465 65.7685 49.6437 65.7655 49.6681 65.7637C49.6885 65.7615 49.7075 65.7591 49.7254 65.7566C49.7613 65.7516 49.7927 65.746 49.821 65.7405C50.0395 65.6939 50.113 65.6563 50.1888 65.6269C50.5281 65.4733 50.5781 65.4274 50.7303 65.3426C50.8677 65.2618 50.9644 65.2028 51.0997 65.12C51.2058 65.0546 51.3205 64.9832 51.4437 64.906C51.889 64.6258 52.3387 64.3353 52.7794 64.0478C53.6697 63.4669 54.5351 62.8905 55.4078 62.3061C57.1412 61.1443 58.881 59.963 60.6153 58.7958C64.0911 56.4577 67.5785 54.1453 71.1678 52.0138C71.3129 51.9277 71.4571 51.8432 71.6007 51.7602C76.1054 49.1791 81.1316 47.0987 86.2334 46.99C86.259 46.99 86.2796 46.99 86.2922 46.9902C86.297 46.9902 86.3011 46.9906 86.2871 46.9898C86.2824 46.9893 86.265 46.989 86.2226 46.9821C86.1899 46.9741 86.2102 46.9875 86.0762 46.9424C86.0163 46.9177 85.9265 46.8858 85.799 46.7667C85.7348 46.7022 85.6726 46.6343 85.6097 46.4878C85.5437 46.3335 85.5337 46.1377 85.5686 45.9955C85.6453 45.7045 85.7693 45.6196 85.8269 45.5611C85.8549 45.5368 85.875 45.5219 85.8932 45.5091C85.9289 45.4843 85.9515 45.4718 85.9684 45.4626C86.0027 45.4447 86.0007 45.4465 86.0096 45.4423C86.0218 45.437 86.0182 45.4388 86.0148 45.44C86.0042 45.4441 85.9896 45.4494 85.9686 45.4568C84.0423 46.1035 81.9018 46.3368 79.9847 47.0592C79.8451 47.1118 79.7039 47.1685 79.5613 47.2297C73.8494 49.7029 68.3273 52.4418 62.8007 55.2244C60.5918 56.3391 58.3868 57.4652 56.1754 58.5895C56.1001 58.6278 56.0386 58.691 56.0062 58.7701C55.9737 58.8492 55.9727 58.9368 56.0039 59.0149C56.035 59.093 56.096 59.1559 56.174 59.1909C56.2519 59.226 56.3401 59.2295 56.421 59.2055C56.421 59.2055 56.421 59.2055 56.421 59.2055C58.8055 58.4965 61.1694 57.7219 63.5134 56.8988C69.3734 54.8472 75.1108 52.4523 80.7529 50.0096C80.8931 49.9495 81.0292 49.8878 81.1611 49.8249C82.9786 48.9651 84.6013 47.6537 86.5163 47.0102C86.546 46.9997 86.5654 46.9929 86.6053 46.9777C86.6234 46.9707 86.6402 46.9644 86.6761 46.9486C86.6969 46.9391 86.6993 46.9391 86.7483 46.9135C86.7714 46.9009 86.7992 46.8854 86.8389 46.8577C86.8592 46.8434 86.881 46.8273 86.9105 46.8016C86.9718 46.7399 87.0979 46.6522 87.1752 46.3586C87.2103 46.2152 87.2003 46.0181 87.1338 45.8628C87.0704 45.7152 87.0077 45.6466 86.9427 45.5813C86.8135 45.4606 86.7213 45.4273 86.658 45.4014C86.515 45.3533 86.5332 45.3666 86.4947 45.3575C86.4426 45.3489 86.407 45.347 86.3942 45.3461C86.3597 45.3438 86.3338 45.3435 86.3186 45.3432C86.2815 45.3426 86.2599 45.3428 86.2334 45.3427C80.6185 45.4695 75.4339 47.5318 70.6532 50.0595C70.5016 50.1409 70.3491 50.2236 70.1957 50.3076C66.5011 52.3301 62.8187 54.3658 59.1607 56.4511C57.3358 57.4916 55.509 58.5519 53.7118 59.6183C52.8077 60.1548 51.9155 60.6903 51.0137 61.2348C50.5678 61.5036 50.1151 61.7777 49.6843 62.0347C49.5656 62.1057 49.4568 62.1702 49.3589 62.2276C49.2354 62.3003 49.1477 62.3511 49.0395 62.4124C48.9856 62.4429 48.9401 62.4679 48.9061 62.486C48.8645 62.5095 48.8022 62.5362 48.8842 62.4994C48.9232 62.4853 48.9682 62.4575 49.1663 62.4149C49.1921 62.4098 49.2212 62.4047 49.2548 62.4C49.2716 62.3976 49.2895 62.3954 49.3088 62.3933C49.332 62.3916 49.3288 62.3888 49.4443 62.3845C49.6269 62.3895 49.954 62.365 50.4432 62.6842C50.9587 62.9951 51.2295 63.8015 51.167 64.1787C51.1324 64.5827 51.0277 64.7491 50.9693 64.8695C50.9027 64.9903 50.865 65.0356 50.8649 65.0373C50.8465 65.0631 50.8307 65.0838 50.8169 65.1013C50.7105 65.2308 50.7013 65.2274 50.7035 65.2281C50.708 65.2244 50.7407 65.1961 50.7899 65.156C50.7867 65.1525 51.068 64.9831 51.3108 64.8635C52.0057 64.5145 52.7254 63.9496 53.4563 63.4656C53.7337 63.2871 54.0183 63.1032 54.2844 62.9514C61.4766 58.5268 68.235 53.9725 75.4678 49.9035C75.5875 49.8354 75.7059 49.768 75.8229 49.7012C78.2654 48.2835 80.7739 46.7232 83.0645 45.285C82.8888 45.3408 82.717 45.4044 82.5443 45.4709C80.0373 46.4978 77.5971 47.7334 75.2057 49.0352C75.0902 49.0989 74.9752 49.1626 74.8605 49.2263C69.2566 52.3482 63.5194 55.2108 57.9587 58.4965C57.0509 59.038 56.1564 59.5879 55.2593 60.1845C54.8151 60.4808 54.3617 60.7936 53.9126 61.1348C53.6896 61.3052 53.4706 61.4772 53.2177 61.7044C53.1086 61.803 52.9678 61.9353 52.8279 62.0932C52.744 62.1902 52.6894 62.2513 52.5794 62.4154C52.5278 62.4946 52.4755 62.5837 52.4251 62.6943C52.3684 62.8192 52.285 63.0368 52.2696 63.3148C52.2672 63.3588 52.2665 63.4046 52.2679 63.4521C52.2588 63.8432 52.5162 64.3788 52.7923 64.608C53.0635 64.8527 53.2714 64.9274 53.4251 64.9856C53.7315 65.0886 53.8993 65.0984 54.0557 65.1161C54.3566 65.1422 54.5662 65.1371 54.7579 65.1381Z" fill="var(--stroke-0, #DAE562)"/>
<path id="Vector 37" d="M81.4095 48.7933C81.7866 49.0191 82.238 49.0858 82.6644 48.9788C83.0907 48.8717 83.4571 48.5997 83.6829 48.2225C83.9086 47.8453 83.9753 47.3939 83.8683 46.9676C83.7612 46.5412 83.4892 46.1749 83.112 45.9491C83.112 45.9491 83.112 45.9491 83.112 45.9491C81.39 45.0043 79.9322 44.4002 78.354 43.6816C71.6723 40.7171 64.9746 37.8935 58.2663 35.0515C58.2218 35.0327 58.178 35.0142 58.1349 34.9959C57.571 34.7555 56.9826 34.4898 56.5221 34.2402C56.462 34.2073 56.4185 34.1816 56.3845 34.1596C56.3713 34.1509 56.3602 34.1423 56.3729 34.1488C56.3807 34.1533 56.3859 34.1552 56.422 34.1812C56.4389 34.1935 56.4606 34.21 56.4894 34.2344C56.5194 34.2616 56.5455 34.2776 56.6449 34.3893C56.6902 34.442 56.7445 34.5099 56.8061 34.6115C56.8367 34.6624 56.8691 34.722 56.901 34.7939C56.9332 34.8736 56.9612 34.9164 57.0112 35.1394C57.1116 35.5146 56.9875 36.1872 56.6576 36.5489C56.5025 36.737 56.3392 36.8476 56.2762 36.8885C56.1919 36.9431 56.1152 36.9824 56.047 37.0129C55.4897 37.2168 55.5019 37.1333 55.4168 37.1534C55.2878 37.1525 55.3096 37.15 55.3027 37.1519C55.3083 37.1552 55.3631 37.1674 55.4167 37.1816C55.6527 37.2426 55.9435 37.3306 56.2299 37.4202C57.3861 37.7854 58.579 38.1991 59.7814 38.5661C59.9456 38.6164 60.1139 38.6678 60.2863 38.7203C67.3523 40.8836 74.5669 42.6644 81.6874 44.6845C81.8227 44.7233 81.9562 44.7596 82.0876 44.7935C84.0642 45.3296 86.3144 45.4691 88.0221 46.3204C88.1093 46.3538 88.0927 46.492 88.0061 46.2632C88.0017 46.0134 88.0448 46.0305 87.95 46.0111C87.8737 45.9992 87.7724 45.9923 87.6729 46.0065C87.5958 46.0176 87.5143 46.0237 87.4341 46.0243C81.452 44.6818 74.9741 41.6015 68.4504 40.3934C68.4225 40.3875 68.3946 40.3815 68.3667 40.3756C64.906 39.4789 61.5205 38.2136 58.3884 36.4718C57.9209 36.21 57.4601 35.9364 57.0088 35.6494C57.003 35.6458 56.9972 35.6421 56.9915 35.6384C56.0513 34.9883 55.1799 34.2424 54.3632 33.4338C54.3594 33.4302 54.3543 33.4282 54.349 33.4282C54.3438 33.4283 54.3387 33.4304 54.335 33.4341C54.3313 33.4378 54.3292 33.4428 54.3292 33.4481C54.3292 33.4534 54.3312 33.4585 54.3349 33.4622C54.3349 33.4622 54.3349 33.4622 54.3349 33.4622C55.1273 34.2926 55.9726 35.0849 56.9142 35.7526C56.9225 35.758 56.9282 35.7618 56.934 35.7656C57.3844 36.0593 57.8449 36.3389 58.3125 36.6061C61.4461 38.3843 64.8404 39.6574 68.3049 40.628C68.3379 40.6357 68.3656 40.6422 68.3932 40.6487C75.0347 42.0155 80.4285 45.7753 87.4406 47.3413C87.5811 47.3407 87.7203 47.3309 87.8617 47.3105C88.0467 47.2829 88.2285 47.2101 88.4165 47.0845C88.5112 47.0196 88.6086 46.9444 88.7128 46.8226C88.8112 46.709 88.9451 46.4889 88.9154 46.2361C88.8961 46.0192 88.7556 45.8629 88.6777 45.8005C88.5929 45.7299 88.5243 45.69 88.4604 45.6476C86.4613 44.6438 84.6827 43.6547 82.7388 42.8326C82.6124 42.781 82.4829 42.7301 82.3503 42.6802C75.3875 40.0738 68.4594 37.3982 61.3752 35.1837C61.2014 35.1297 61.0315 35.0772 60.8653 35.0263C59.644 34.6538 58.4223 34.3314 57.144 34.033C56.816 33.9579 56.508 33.8874 56.1127 33.8154C56.0141 33.7981 55.904 33.7791 55.7645 33.7626C55.6634 33.7524 55.6358 33.7432 55.4093 33.7409C55.3574 33.7414 55.2983 33.7434 55.2247 33.7507C55.1345 33.762 54.9473 33.7746 54.6643 33.8973C54.5921 33.9295 54.5119 33.9707 54.4246 34.0273C54.3591 34.0698 54.1908 34.184 54.0324 34.3762C53.6959 34.7459 53.5696 35.4282 53.6722 35.8148C53.7237 36.0444 53.7529 36.0896 53.7866 36.173C53.8201 36.2483 53.8543 36.3115 53.8872 36.3661C53.9532 36.4751 54.0134 36.551 54.0659 36.612C54.1821 36.7429 54.2212 36.7702 54.264 36.8085C54.306 36.8445 54.343 36.8732 54.377 36.8984C54.4523 36.9537 54.4824 36.9719 54.5226 36.9977C54.6016 37.0473 54.6629 37.0812 54.7137 37.1087C54.8308 37.1718 54.9043 37.2068 55.001 37.2534C55.6638 37.5616 56.242 37.7913 56.8394 38.0471C56.8841 38.0661 56.9294 38.0853 56.9755 38.1048C63.6745 40.9427 70.3812 43.7707 77.0027 46.7085C78.5066 47.387 80.1821 48.1189 81.4095 48.7933Z" fill="var(--stroke-0, #DAE562)"/>
<path id="Vector 47" d="M31.2479 28.1127C31.2479 28.3311 31.3347 28.5406 31.4892 28.6951C31.6437 28.8495 31.8532 28.9363 32.0716 28.9363C32.2901 28.9363 32.4996 28.8495 32.654 28.6951C32.8085 28.5406 32.8953 28.3311 32.8953 28.1127C32.8811 28.3583 32.8486 28.3486 32.8491 28.3661C32.8442 28.3774 32.8477 28.3691 32.8519 28.3614C32.8622 28.3418 32.8801 28.3107 32.9006 28.2772C32.9418 28.2095 32.9928 28.1318 33.0419 28.0587C33.1453 27.9051 33.2552 27.7496 33.3687 27.5915C33.5939 27.2781 33.8279 26.9628 34.0652 26.646C34.5337 26.0213 35.0176 25.3886 35.4981 24.7634C37.511 22.1485 39.5436 19.5472 41.5697 16.9386C41.6239 16.8688 41.6784 16.7988 41.7333 16.7285C45.3209 12.1834 49.0915 7.37246 52.2178 2.74709C52.3152 2.62785 52.4091 2.52339 52.4957 2.4397C52.4274 2.51018 52.3166 2.63322 52.0464 2.7482C51.952 2.79452 51.61 2.88488 51.3278 2.83138C51.0412 2.79615 50.7452 2.60955 50.6587 2.52776C50.4279 2.32769 50.359 2.16742 50.3171 2.08355C50.2896 2.02371 50.2767 1.98479 50.2683 1.95917C50.2426 1.87058 50.2566 1.93978 50.255 1.98165C50.259 2.09969 50.2562 2.26501 50.2492 2.42491C50.2352 2.75981 50.2055 3.13585 50.1714 3.49316C50.1015 4.22931 50.0092 4.98141 49.9106 5.72918C49.7123 7.22286 49.4825 8.74223 49.253 10.2433C48.7904 13.2632 48.3185 16.2843 47.9357 19.3215C47.9266 19.3936 47.9176 19.4657 47.9087 19.5379C47.1781 23.5273 48.6714 28.433 49.622 31.4687C49.634 31.535 49.6536 31.6005 49.6777 31.6663C49.7414 31.9058 49.8455 32.1417 49.9679 32.3924C50.1035 32.6503 50.1903 32.8865 50.5006 33.318C50.6436 33.4937 50.9539 33.8644 51.5914 33.896C52.1957 33.9503 53.0709 33.5369 53.4012 32.9994C53.7599 32.4824 53.8591 32.0125 53.9344 31.6058C54.068 30.7698 54.0364 30.0598 53.9938 29.3446C53.8941 27.9298 53.6754 26.5817 53.456 25.2484C53.0125 22.5818 52.4941 19.9537 52.2612 17.3421C52.252 17.2395 52.2432 17.1415 52.2348 17.0441C51.983 14.0582 51.8503 11.0359 52.1736 8.1049C52.2594 7.3731 52.3795 6.64624 52.5652 5.95802C52.5682 5.94712 52.5725 5.93187 52.5768 5.91668C52.8346 5.19691 52.9494 3.99754 52.5943 3.18916C52.5457 3.05088 52.4428 2.93658 52.31 2.87078C52.177 2.80501 52.0252 2.79314 51.8858 2.83839C51.7465 2.88364 51.6305 2.98248 51.5616 3.11379C51.4928 3.24507 51.4766 3.39806 51.5186 3.53848C51.5186 3.53848 51.5186 3.53848 51.5186 3.53848C51.7485 4.26671 51.6568 4.75917 51.3841 5.56088C51.3793 5.576 51.3745 5.59127 51.3696 5.6067C51.1335 6.38109 50.9826 7.15806 50.868 7.93236C50.4358 11.0221 50.4995 14.1007 50.6424 17.1534C50.6474 17.2528 50.6526 17.3529 50.658 17.4536C50.8015 20.1972 51.2203 22.8738 51.5436 25.5253C51.7033 26.8438 51.8551 28.1724 51.8863 29.4407C51.8993 30.0706 51.8806 30.6963 51.7722 31.1973C51.7236 31.4349 51.6281 31.6426 51.5916 31.6688C51.5387 31.686 51.7308 31.5901 51.6606 31.605C52.1228 31.6319 52.2901 31.8778 52.3315 31.9198C52.4173 32.0453 52.3928 31.9102 52.4383 31.8038C52.4735 31.6864 52.5245 31.5483 52.5546 31.4114C52.5641 31.3134 52.5668 31.2164 52.5598 31.1213C51.741 26.6388 51.3539 23.8209 51.951 20.0489C51.9604 19.9765 51.9696 19.9041 51.9788 19.8317C52.363 16.7824 52.6372 13.7206 52.8498 10.6404C52.9544 9.10825 53.0463 7.55469 53.1129 6.00678C53.1457 5.23038 53.1739 4.44795 53.184 3.64812C53.188 3.2574 53.1895 2.844 53.174 2.41688C53.1653 2.20654 53.1563 1.99609 53.1239 1.71231C53.1162 1.64952 53.1064 1.57473 53.0909 1.48521C53.0738 1.39302 53.064 1.33032 53.0171 1.16745C52.9949 1.0938 52.9671 1.01292 52.9235 0.917295C52.8584 0.780911 52.7607 0.577055 52.4999 0.351877C52.4005 0.25843 52.0766 0.0556031 51.7677 0.0178028C51.4636 -0.040181 51.0886 0.0575103 50.9796 0.11055C50.6729 0.240262 50.5231 0.393027 50.413 0.508599C50.248 0.69637 50.1072 0.881655 49.979 1.06209C46.8985 6.29631 44.0441 11.093 40.4322 15.7173C40.3776 15.7878 40.3232 15.8579 40.269 15.9276C38.2431 18.536 36.2124 21.1349 34.192 23.7595C33.7093 24.3876 33.2228 25.0237 32.747 25.6581C32.5058 25.9802 32.2672 26.3016 32.0307 26.6305C31.9111 26.7971 31.7944 26.9621 31.675 27.1394C31.6177 27.2247 31.5568 27.3169 31.494 27.4197C31.4622 27.4722 31.4316 27.5234 31.3945 27.5935C31.3786 27.6239 31.3567 27.6662 31.3325 27.723C31.3173 27.777 31.2612 27.8319 31.2479 28.1127Z" fill="var(--stroke-0, #DAE562)"/>
<path id="Vector 48" d="M4.94679 24.0556C4.65312 24.1571 4.4118 24.3711 4.27593 24.6505C4.14006 24.93 4.12076 25.2519 4.22228 25.5456C4.3238 25.8393 4.53781 26.0806 4.81725 26.2165C5.09669 26.3523 5.41866 26.3716 5.71233 26.2701C5.71233 26.2701 5.71233 26.2701 5.71233 26.2701C5.64266 26.2627 6.11049 26.2638 6.49589 26.3574C6.90307 26.4417 7.34728 26.5615 7.79059 26.6852C8.68132 26.9358 9.59839 27.2101 10.5129 27.4691C11.394 27.7196 12.2844 27.9628 13.1773 28.193C13.3106 28.2273 13.4459 28.2616 13.5832 28.2958C18.5796 29.5374 23.7094 30.0626 28.7734 30.7447C29.1843 30.8016 29.6303 30.8575 29.9982 30.9164C30.3516 30.9771 30.5329 31.0082 30.8757 31.0674C30.9534 31.0809 30.9685 31.0834 31.0804 31.1029C31.1248 31.1107 31.1602 31.1169 31.1866 31.1215C31.2023 31.1243 31.2023 31.1243 31.2267 31.1287C31.235 31.1301 31.2466 31.1325 31.2273 31.1286C31.2121 31.1238 31.2391 31.1363 31.1305 31.1006C31.1115 31.0932 31.0886 31.0858 31.0348 31.057C30.9911 31.0021 30.8532 31.0616 30.6845 30.5914C30.6069 30.3368 30.7809 29.9866 30.9145 29.8987C31.0485 29.7892 31.1269 29.7737 31.1795 29.7558C31.2826 29.7283 31.3133 29.7316 31.3422 29.7289C31.4347 29.7269 31.4301 29.7312 31.4459 29.7317C31.4804 29.7355 31.4731 29.7351 31.4757 29.7354C31.4676 29.7341 31.4706 29.7346 31.4676 29.7341C31.4637 29.7335 31.4586 29.7326 31.4527 29.7317C31.2853 29.704 31.2003 29.6894 31.0175 29.6585C30.4557 29.5633 29.8922 29.4669 29.3163 29.3682C28.1724 29.1721 27.0464 28.9779 25.9035 28.7799C23.6166 28.3837 21.3519 27.988 19.0723 27.5849C14.5591 26.7664 9.84324 26.003 5.56693 25.0173C5.36991 24.9503 5.16539 24.8779 4.92349 24.8141C4.8005 24.7828 4.671 24.7515 4.49577 24.7365C4.3293 24.7407 4.05593 24.6598 3.65173 25.0007C3.53352 25.1136 3.46238 25.2576 3.43043 25.3679C3.40303 25.4602 3.39362 25.542 3.391 25.6152C3.38764 25.7452 3.40194 25.8315 3.41696 25.9133C3.44584 26.0597 3.48397 26.1755 3.52432 26.2885C3.60051 26.4981 3.68854 26.6906 3.77453 26.8691C3.95542 27.2427 3.10398 28.1896 3.31949 28.5666C5.75895 32.6711 8.42019 36.343 11.0443 40.129C11.3206 40.5245 11.5724 40.881 11.8516 41.2745C13.0403 42.9462 14.3588 44.5749 15.7145 46.1405C16.3995 46.9324 17.0936 47.7072 17.7976 48.4724C18.1494 48.855 18.5108 49.2425 18.8639 49.6182C19.0418 49.808 19.2177 49.9943 19.3823 50.174C19.4609 50.2596 19.5438 50.3526 19.596 50.4148C19.6233 50.4467 19.6425 50.4745 19.6314 50.4522C19.6247 50.4359 19.6084 50.4145 19.5772 50.3118C19.5532 50.2291 19.4874 49.9539 19.6361 49.6366C19.5896 49.7518 19.5431 49.8145 19.5401 49.8213C19.5302 49.8269 19.6269 49.7868 19.6389 49.7979C19.6518 49.8041 19.5715 49.803 19.45 49.7534C19.2096 49.6594 18.8954 49.4504 18.5909 49.2071C17.9797 48.7174 17.3727 48.1014 16.7884 47.4777C15.621 46.2231 14.4862 44.8652 13.361 43.5258C11.1024 40.8256 8.83595 38.1057 6.42481 35.4987L6.40938 35.4823C6.29287 35.3635 6.17684 35.2465 6.06086 35.1307C5.69433 34.7646 5.32515 34.4074 4.94801 34.0537C4.09628 33.2438 3.15746 32.4712 2.39409 31.7166C2.36258 31.6845 2.33328 31.654 2.3029 31.6217C1.87186 31.1614 1.6377 30.7922 1.45225 30.164C1.39129 29.9762 1.25825 29.8203 1.08238 29.7307C0.906516 29.641 0.702235 29.6249 0.514478 29.6859C0.326721 29.7468 0.170869 29.8799 0.0812076 30.0557C-0.00845419 30.2316 -0.0245812 30.4359 0.0363743 30.6236C0.0363743 30.6236 0.0363743 30.6236 0.0363743 30.6236C0.215787 31.3057 0.705207 32.1299 1.21896 32.6421C1.25674 32.6822 1.29276 32.7196 1.33111 32.7588C2.2245 33.6382 3.0933 34.3409 3.92591 35.1394C4.29005 35.4834 4.6448 35.8306 4.99606 36.1877C5.1072 36.3007 5.2183 36.4149 5.32982 36.5309L5.31438 36.5145C7.66167 39.1051 9.8365 41.8489 12.0088 44.6224C13.0935 46.0011 14.1827 47.4055 15.3547 48.7657C15.9469 49.4458 16.5582 50.1265 17.2915 50.7661C17.67 51.087 18.0538 51.3994 18.6217 51.6635C18.9225 51.7953 19.2604 51.9126 19.7161 51.9049C20.166 51.9041 20.6851 51.6841 21.0022 51.3769C21.2871 51.1115 21.458 50.833 21.5964 50.5558C21.7729 50.1809 21.7001 49.836 21.6584 49.6948C21.608 49.5293 21.5655 49.4553 21.5252 49.3791C21.4523 49.2486 21.399 49.1745 21.345 49.0981C21.248 48.9626 21.1594 48.85 21.0784 48.7457C20.9117 48.5328 20.757 48.3371 20.6005 48.1349C20.2923 47.737 19.9885 47.3302 19.6961 46.9229C19.1116 46.1094 18.5514 45.2728 17.9967 44.4203C16.9011 42.7324 15.8311 40.9882 14.7245 39.3078C14.464 38.9127 14.23 38.5536 13.9717 38.1561C11.4976 34.3123 8.88463 30.4476 6.63873 26.6641C6.45535 26.3436 5.21876 26.5938 5.05233 26.2515C4.97864 26.0992 4.90673 25.9383 4.859 25.8061C4.83373 25.7369 4.81557 25.6729 4.81045 25.6447C4.80723 25.6308 4.80987 25.6253 4.80931 25.6632C4.80275 25.6978 4.81881 25.8315 4.63834 26.0207C4.39012 26.2161 4.34784 26.1329 4.38298 26.151C4.41436 26.1531 4.48812 26.1667 4.56583 26.1873C4.7247 26.2288 4.91235 26.2931 5.10746 26.3598C9.77682 27.4504 14.2513 28.1461 18.8255 28.9805C21.1073 29.3837 23.3734 29.7794 25.6618 30.1756C26.8054 30.3736 27.9321 30.5678 29.0771 30.7641C29.6535 30.8628 30.2173 30.9592 30.781 31.0548C30.9657 31.086 31.0462 31.0998 31.2243 31.1293C31.2312 31.1304 31.2373 31.1314 31.2429 31.1323C31.2497 31.1334 31.2352 31.1311 31.2628 31.1354C31.2713 31.1365 31.2678 31.1367 31.3039 31.1407C31.3201 31.1412 31.3157 31.1455 31.4083 31.1435C31.4373 31.1408 31.4681 31.1441 31.5712 31.1167C31.6237 31.0987 31.7021 31.0832 31.8362 30.9737C31.9698 30.8858 32.1438 30.5356 32.0662 30.281C31.8975 29.8108 31.7595 29.8703 31.7158 29.8154C31.662 29.7865 31.6391 29.7792 31.62 29.7718C31.5112 29.7359 31.5373 29.7482 31.5208 29.7432C31.496 29.7381 31.4934 29.7378 31.4784 29.7351C31.4482 29.7296 31.45 29.73 31.4328 29.7269C31.4047 29.722 31.3685 29.7157 31.3234 29.7078C31.2101 29.6881 31.1952 29.6855 31.117 29.672C30.7728 29.6125 30.5915 29.5814 30.2376 29.5207C29.7887 29.4491 29.3826 29.3997 28.9648 29.3416C23.9343 28.6637 19.0391 27.2867 14.1585 26.0263C14.0247 25.9918 13.8927 25.9577 13.7625 25.9241C12.8901 25.6992 12.0201 25.4616 11.1533 25.2152C10.2519 24.9599 9.34958 24.6898 8.4221 24.4288C7.95705 24.2994 7.48419 24.1698 6.96827 24.0624C6.43399 23.9818 5.92927 23.7801 4.94679 24.0556Z" fill="var(--stroke-0, #DAE562)"/>
</g>
</svg>
