<svg preserveAspectRatio="none" width="100%" height="100%" overflow="visible" style="display: block;" viewBox="0 0 113.983 112.842" fill="none" xmlns="http://www.w3.org/2000/svg">
<path id="Vector 83" d="M60.855 59.9307C60.855 59.5308 60.6962 59.1473 60.4134 58.8646C60.1307 58.5818 59.7472 58.423 59.3473 58.423C58.9474 58.423 58.5639 58.5818 58.2812 58.8646C57.9984 59.1473 57.8396 59.5308 57.8396 59.9307C57.8396 59.9307 57.8396 59.9307 57.8396 59.9307C57.8422 62.6459 58.0568 65.3207 58.3814 67.9809C58.3833 67.996 58.3851 68.0111 58.387 68.0262C58.5804 70.2711 60.4519 72.0205 61.93 72.8088C61.9438 72.8168 61.9575 72.8247 61.9712 72.8326C63.4045 73.6909 65.5053 74.1115 67.3176 73.4052C67.3447 73.3953 67.3717 73.3851 67.3987 73.3747C72.0807 71.2966 73.1863 66.608 74.0419 62.8203C74.0473 62.7932 74.0526 62.7661 74.0578 62.739C74.5667 59.6919 73.8888 56.9695 73.0835 54.3189C73.0714 54.2813 73.0593 54.244 73.0472 54.207C72.718 53.2116 72.2611 52.1571 71.432 51.263C70.7379 50.5051 69.804 49.9801 68.9101 49.683C68.8522 49.6632 68.7938 49.6441 68.735 49.6255C63.6447 48.1302 58.732 50.2033 54.7228 52.547C54.6636 52.5825 54.6046 52.6182 54.5458 52.6539C50.6877 54.9151 47.9349 58.8159 46.3835 62.7947C46.3497 62.8773 46.3161 62.9599 46.2829 63.0425C44.1995 68.2304 43.7829 73.9774 44.9091 79.4562C44.9325 79.5663 44.956 79.6745 44.9796 79.7809C45.7917 83.6931 48.5232 87.3233 52.143 89.1053C52.2702 89.1699 52.398 89.2326 52.5271 89.2939C59.724 91.7745 65.266 88.7902 70.9033 87.699C71.0116 87.6727 71.1197 87.6465 71.2276 87.6206C82.0467 83.2833 85.5098 73.1886 90.299 64.8401C90.3407 64.7584 90.3822 64.677 90.4236 64.5957C92.77 59.0958 90.7634 53.8494 89.6752 48.9685C89.6523 48.8792 89.6294 48.7899 89.6067 48.7007C88.4398 44.0912 85.0465 40.6033 81.6146 37.9187C81.522 37.8468 81.4289 37.7749 81.3352 37.7031C69.0709 30.0542 55.5067 36.587 44.4812 41.1758C44.4507 41.1897 44.4203 41.2037 44.39 41.2178C37.6625 44.5209 36.1165 51.7707 34.8828 57.4551C33.7329 63.4045 33.1531 69.3119 32.2741 75.1457C32.2534 75.2851 32.2346 75.4236 32.2177 75.5611C31.423 80.0933 33.4524 85.1888 36.2062 88.3173C36.2916 88.4237 36.3782 88.5292 36.466 88.6336C44.04 97.204 55.2578 100.435 66.0227 100.437C66.1296 100.434 66.2362 100.431 66.3426 100.427C79.9462 99.6154 87.3766 87.8216 93.9165 78.7462C94.0128 78.6102 94.1077 78.4742 94.2012 78.3381C102.473 67.2492 98.499 52.6201 94.9383 41.2069C94.8552 40.9013 94.7643 40.6004 94.6647 40.3011C92.9143 35.0376 89.1427 30.8763 85.3218 27.4902C85.0887 27.2841 84.8505 27.0859 84.6077 26.8956C74.6539 19.7425 62.7141 22.667 52.6423 24.5005C52.3258 24.5656 52.0111 24.6355 51.6982 24.7102C39.7371 27.5617 30.9481 37.181 25.712 47.448C25.5941 47.6783 25.4786 47.9078 25.3657 48.1366C18.3139 60.6342 21.0964 76.5051 25.9131 88.5134C26.0161 88.8284 26.1237 89.1379 26.237 89.4463C28.9058 96.8563 34.4729 102.851 40.3485 107.212C40.6208 107.419 40.8988 107.618 41.1821 107.81C56.4156 116.503 73.2481 112.513 87.5438 106.496C87.8556 106.35 88.1623 106.198 88.4671 106.041C96.0132 102.089 100.61 95.2835 105.173 89.3875C105.37 89.1313 105.568 88.8612 105.751 88.5976C111.898 78.5096 112.41 67.6732 113.775 57.1828C113.802 56.9259 113.827 56.6695 113.849 56.4135C115.245 39.4284 105.464 24.8927 96.8447 12.1888C96.7025 11.9834 96.5574 11.7812 96.4094 11.5823C90.1452 3.27665 79.84 1.14937 71.0715 0.203703C70.8581 0.181675 70.6445 0.161402 70.4307 0.142848C58.8401 -0.763187 48.0432 2.79394 37.9582 6.48205C37.8103 6.53711 37.6629 6.59273 37.5159 6.64892C27.3241 10.5027 18.5996 17.5711 12.0148 25.9183L11.8404 26.1575C11.7893 26.2373 11.7384 26.3172 11.6876 26.3973C10.4573 28.3372 9.36154 30.3494 8.38089 32.4092C4.67525 40.2137 2.62368 48.565 1.20541 56.863L1.19568 56.9133C1.19186 56.9424 1.18806 56.9714 1.18427 57.0004C0.529514 61.9347 0.216848 66.876 0.000847399 71.7747C-0.00931561 71.9998 0.0723509 72.2226 0.223787 72.3939C0.375461 72.5653 0.58449 72.6711 0.808984 72.6883C1.03348 72.7056 1.25623 72.633 1.43232 72.4869C1.60818 72.3408 1.72296 72.133 1.74734 71.9091C1.74734 71.9091 1.74734 71.9091 1.74734 71.9091C2.26827 67.0311 2.77962 62.1858 3.81537 57.4549C3.8214 57.4271 3.82744 57.3993 3.8335 57.3715L3.82377 57.4218C5.88555 49.4569 9.20373 41.8928 13.2198 34.9473C14.2843 33.1084 15.3992 31.3126 16.5635 29.5569C16.6116 29.4844 16.6597 29.4121 16.708 29.3399L16.5336 29.5792C22.7889 21.9842 30.6735 15.8255 39.7151 12.4015C39.8458 12.3516 39.9769 12.3021 40.1083 12.2531C49.9534 8.61164 60.0587 5.21665 69.9568 5.92421C70.1394 5.93815 70.3216 5.95356 70.5034 5.97048C78.828 6.73344 87.3818 8.87091 91.9867 14.9224C92.1 15.0696 92.2115 15.2192 92.3209 15.3714C101.166 27.8063 110.922 41.0557 109.642 56.052C109.622 56.2789 109.6 56.5061 109.576 56.7338C108.336 66.9404 107.129 77.9835 101.971 85.9267C101.827 86.1257 101.675 86.3255 101.524 86.5108C96.803 92.3936 91.9488 98.0447 85.9334 101.133C85.6888 101.26 85.4437 101.381 85.1952 101.497C72.4139 107.138 55.7338 110.153 44.2522 103.279C44.0405 103.135 43.8333 102.989 43.6303 102.839C37.946 98.7439 32.5179 94.3083 30.2062 87.9872C30.1106 87.7271 30.0201 87.4662 29.9337 87.2008C25.107 74.6793 23.2536 61.6813 29.5365 50.1962C29.6398 49.987 29.7453 49.7767 29.8532 49.5655C34.6969 40.0224 42.432 31.3215 52.689 28.7523C52.9584 28.6842 53.2295 28.6203 53.5022 28.5606C63.3786 26.4963 74.5868 24.2915 82.3046 29.8803C82.4988 30.0273 82.6907 30.1788 82.8801 30.3354C86.7 33.4864 90.6033 36.6709 92.1297 41.1517C92.2153 41.404 92.2934 41.6571 92.3649 41.9137C96.0981 53.6743 99.6467 66.792 92.1336 76.9172C92.0476 77.0425 91.9599 77.1677 91.8707 77.2928C85.3639 86.486 76.8722 96.0491 66.2072 96.3116C66.1208 96.314 66.0343 96.3159 65.9475 96.3171C56.3196 96.3063 45.8814 93.0233 39.7155 85.902C39.6431 85.8158 39.5712 85.7294 39.4998 85.6427C36.9118 82.6575 34.9736 79.7087 35.4925 75.9647C35.5061 75.8546 35.5212 75.7433 35.538 75.6308C37.6648 64.4993 37.2914 49.8862 46.0398 44.757C46.0608 44.7472 46.0819 44.7375 46.103 44.7278C56.8038 40.0848 69.7759 33.9783 79.655 39.971C79.7461 40.036 79.8365 40.1011 79.9262 40.1661C83.2632 42.5878 86.5846 45.3608 87.5827 49.2224C87.6059 49.3111 87.6288 49.3998 87.6516 49.4885C88.8065 54.274 90.4057 59.5777 88.5309 63.6252C88.4897 63.7049 88.4483 63.7848 88.4067 63.8648C83.9469 72.0056 78.3621 81.6709 70.4773 84.2387C70.3654 84.2615 70.2534 84.2845 70.1415 84.3077C64.5322 85.393 58.2647 87.4094 54.2022 85.7706C54.1035 85.7236 54.0061 85.6757 53.9093 85.6265C51.1895 84.2707 48.9083 82.0189 48.0734 79.0086C48.0476 78.9169 48.022 78.8231 47.9968 78.7275C46.7535 73.9309 46.7483 68.6266 48.6109 63.9765C48.6418 63.8993 48.6729 63.8223 48.7044 63.7454C50.1747 60.0295 52.5688 56.868 55.9084 54.8956C55.963 54.8624 56.0177 54.8294 56.0726 54.7965C59.7861 52.5877 64.1481 50.7427 68.0538 51.8493C68.0971 51.862 68.1397 51.875 68.1815 51.8882C68.8331 52.094 69.3642 52.3874 69.7866 52.8222C70.2891 53.3327 70.6597 54.0724 70.9317 54.9018C70.9427 54.9352 70.9536 54.9689 70.9646 55.0028C71.7142 57.3882 72.1641 60.0419 71.6969 62.2443C71.6912 62.2692 71.6855 62.2941 71.6798 62.3191C70.8743 65.8553 69.2537 69.732 66.4123 70.6773C66.3985 70.6818 66.3847 70.6862 66.371 70.6905C65.4719 70.9746 64.5359 70.6798 63.5453 70.1041C63.5339 70.0975 63.5226 70.091 63.5113 70.0844C62.2485 69.3631 61.4989 68.6797 61.3796 67.6554C61.3778 67.6409 61.376 67.6263 61.3742 67.6118C61.0613 65.0522 60.8567 62.4702 60.855 59.9307Z" fill="var(--stroke-0, #DAE562)"/>
</svg>
