<svg width="147" height="147" viewBox="0 0 147 147" fill="none" xmlns="http://www.w3.org/2000/svg">
<path d="M144.56 52.3926C144.571 52.1994 144.504 52.0099 144.375 51.8658C144.246 51.7217 144.065 51.6348 143.871 51.6242C143.678 51.6136 143.489 51.6802 143.345 51.8093C143.201 51.9384 143.114 52.1194 143.103 52.3126C143.097 52.4297 143.09 52.5433 143.082 52.641C143.078 52.6885 143.072 52.7355 143.069 52.7535C143.069 52.7588 143.062 52.7688 143.084 52.7076C143.111 52.6707 143.07 52.6295 143.302 52.422C143.41 52.3104 143.787 52.2316 143.961 52.3172C144.143 52.3864 144.189 52.4506 144.232 52.4902C144.228 52.4855 144.223 52.4808 144.219 52.476C143.062 51.3297 142.481 49.5325 140.645 48.2413C140.609 48.2199 140.572 48.1992 140.535 48.1792C140.255 48.0174 139.823 47.9601 139.487 48.0842C139.15 48.2011 138.926 48.409 138.756 48.6058C138.422 49.0088 138.255 49.4233 138.117 49.8296C138.095 49.8968 138.075 49.9616 138.056 50.0291C138.049 50.0504 138.043 50.0717 138.037 50.0929C137.15 52.8361 136.849 56.6675 137.477 58.8433C137.49 58.7907 137.541 58.6745 137.636 58.5895C137.417 58.7739 137.305 58.8021 136.978 58.7266C136.664 58.6425 136.277 58.4104 135.909 58.1377C135.535 57.8624 135.165 57.5419 134.772 57.2088C134.335 56.8814 134.103 56.5076 133.186 56.2033C133.104 56.1852 133.021 56.1722 132.937 56.1643C132.009 56.1003 131.414 56.6016 130.92 56.9609C130.892 56.9826 130.863 57.0045 130.835 57.0265C127.711 59.8355 127.997 63.9393 127.838 67.309C127.837 67.3539 127.836 67.3982 127.835 67.4418C127.828 67.6698 127.773 67.7573 127.733 67.79C127.691 67.8343 127.515 67.9075 127.264 67.9231C126.757 67.9591 126.106 67.8439 125.478 67.7012C124.121 67.4609 123.163 66.7922 121.105 66.915C120.904 66.965 120.72 67.0228 120.525 67.0998C118.171 68.0392 117.523 70.5595 117.2 72.4317C116.87 74.3968 116.86 76.3662 116.591 78.0985C116.57 78.2202 116.54 78.3235 116.509 78.3925C116.455 78.5087 116.423 78.4841 116.416 78.4618C116.404 78.443 116.318 78.4543 116.058 78.4639C115.923 78.4697 115.784 78.4741 115.643 78.4802C113.534 78.5928 111.011 77.797 108.149 78.4357C108.013 78.4696 107.881 78.5094 107.749 78.5564C104.713 79.9142 104.492 82.7832 103.926 84.8658C103.466 87.0814 103.186 89.2588 102.873 91.4257C102.873 91.4258 102.873 91.4258 102.873 91.4258C102.87 91.4226 102.886 91.4095 102.842 91.4613C102.8 91.5091 102.697 91.5923 102.56 91.6695C102.279 91.83 101.884 91.9733 101.468 92.0899C100.627 92.3241 99.6874 92.4784 98.7443 92.617C96.8436 92.8972 94.884 93.0773 92.8584 93.5214C92.8524 93.5228 92.8465 93.5241 92.8406 93.5254C89.465 94.5219 89.0733 97.7503 88.5865 99.8526C88.1599 102.109 88.0819 104.491 87.6709 106.299C87.6661 106.318 87.6612 106.336 87.6563 106.354C87.5133 106.917 87.2793 107.238 87.1656 107.306C87.1652 107.307 87.1648 107.307 87.1644 107.307C85.8119 108.529 83.0913 107.42 79.878 107.035C79.8483 107.033 79.8185 107.03 79.7887 107.028C78.7836 106.943 77.9563 107.335 77.4435 107.554C77.4003 107.573 77.3586 107.591 77.3181 107.609C70.7027 111.801 71.4523 120.17 69.8649 123.531C69.8663 123.53 69.8677 123.528 69.8691 123.527C70.0585 123.339 70.1712 123.368 70.0498 123.388C69.9439 123.412 69.7162 123.424 69.4639 123.415C68.9513 123.399 68.3268 123.325 67.6846 123.254C66.3888 123.113 64.9809 122.952 63.4442 123.089C63.4414 123.089 63.4385 123.089 63.4357 123.09C62.6311 123.144 61.6618 123.57 61.0771 124.229C60.4806 124.879 60.2018 125.563 59.997 126.174C59.6088 127.406 59.4955 128.495 59.3644 129.553C59.1245 131.644 58.9539 133.642 58.3939 135.228C58.3723 135.288 58.3494 135.345 58.3255 135.398C57.8271 137.076 53.7033 137.213 50.4861 136.607C50.3181 136.579 50.1473 136.549 49.983 136.52L49.8665 136.5C49.7464 136.487 49.6252 136.477 49.504 136.469C47.9257 136.359 46.4009 136.895 45.168 137.579L45.0308 137.646C44.9839 137.681 44.9366 137.717 44.8907 137.752C43.6858 138.704 42.9698 139.931 42.3629 141.126C42.3201 141.213 42.3142 141.321 42.3393 141.421C42.3648 141.522 42.4193 141.607 42.4979 141.663C42.5764 141.719 42.6747 141.742 42.7783 141.733C42.8814 141.723 42.9813 141.682 43.0488 141.613C43.0488 141.613 43.0488 141.613 43.0488 141.613C43.9438 140.702 44.9732 139.936 45.977 139.507C46.015 139.491 46.0537 139.475 46.0917 139.46L45.9545 139.527C47.124 139.231 48.2172 139.22 49.2349 139.367C49.3155 139.378 49.3964 139.391 49.4771 139.405L49.3607 139.385C49.5305 139.428 49.7097 139.473 49.8876 139.516C51.6896 139.948 53.5605 140.314 55.611 140.249C57.529 140.21 60.4254 139.491 61.5803 136.863C61.6468 136.715 61.7072 136.563 61.7614 136.407C62.5476 134.061 62.533 131.862 62.6608 129.842C62.7189 128.841 62.794 127.854 63.0011 127.098C63.1011 126.726 63.2453 126.438 63.3512 126.319C63.4598 126.205 63.49 126.176 63.7238 126.144C63.7257 126.144 63.7276 126.144 63.7295 126.144C64.7604 126.047 65.9213 126.266 67.1595 126.531C67.7853 126.66 68.4291 126.809 69.1972 126.895C69.9358 126.902 71.0095 127.266 72.4449 125.996C72.4502 125.99 72.4554 125.985 72.4606 125.979C73.0739 125.276 73.1795 124.819 73.3519 124.382C73.5036 123.944 73.6074 123.547 73.702 123.153C73.8861 122.374 74.0208 121.632 74.1519 120.897C74.4111 119.431 74.6433 118.009 74.9532 116.625C75.5479 113.94 76.5562 110.998 78.4306 110.191C78.4759 110.171 78.5198 110.152 78.5623 110.133C79.0945 109.894 79.3798 109.832 79.5369 109.861C79.5584 109.863 79.5799 109.865 79.6016 109.868C81.9295 109.978 85.3609 112.268 89.0186 109.75C89.0216 109.748 89.0247 109.746 89.0277 109.743C90.0581 108.94 90.3633 107.85 90.5488 107.054C90.555 107.026 90.561 106.999 90.5669 106.972C91.0086 104.454 90.9083 102.375 91.2135 100.276C91.4615 98.2582 92.1568 96.1105 93.3929 95.9022C93.3981 95.9009 93.4033 95.8997 93.4084 95.8984C95.1921 95.4796 97.1333 95.2788 99.0957 94.9807C100.079 94.829 101.078 94.667 102.118 94.3726C102.639 94.2194 103.17 94.0439 103.743 93.7161C104.275 93.4105 105.055 92.8 105.202 91.7606C105.203 91.7561 105.204 91.7515 105.204 91.7469C105.499 89.5724 105.749 87.3993 106.154 85.3226C106.546 83.3128 107.222 81.0459 108.496 80.6509C108.555 80.6297 108.616 80.6116 108.68 80.5961C110.646 80.119 112.988 80.9991 115.75 80.9318C115.941 80.9235 116.136 80.9031 116.331 80.8715C116.636 80.8193 117.133 80.7345 117.612 80.4126C118.1 80.094 118.412 79.5717 118.553 79.1528C118.649 78.8802 118.696 78.6281 118.724 78.3881C119.093 74.5968 118.325 69.9814 121.132 68.621C121.254 68.5717 121.371 68.5333 121.503 68.4993C121.538 68.4781 121.889 68.4947 122.172 68.5517C122.472 68.6061 122.793 68.684 123.114 68.7658C123.761 68.931 124.427 69.1196 125.121 69.2763C125.818 69.4261 126.531 69.5818 127.388 69.5273C127.812 69.4889 128.334 69.3992 128.808 68.9805C129.286 68.5577 129.43 67.9214 129.432 67.4755C129.432 67.4305 129.433 67.385 129.434 67.339C129.491 63.9772 129.315 60.0879 131.654 58.0878C131.675 58.0719 131.696 58.0564 131.717 58.0413C132.117 57.749 132.574 57.648 132.786 57.689C132.808 57.6916 132.829 57.6953 132.849 57.7004C132.834 57.6878 133.051 57.8041 133.213 57.9348C133.387 58.0686 133.571 58.227 133.759 58.3901C134.135 58.7182 134.525 59.0685 134.964 59.4012C135.405 59.729 135.885 60.0656 136.549 60.262C137.191 60.4903 138.205 60.3056 138.719 59.7693C138.885 59.6198 138.981 59.4167 139.019 59.2731C138.495 55.6406 138.491 53.3892 139.269 50.4325C139.275 50.4121 139.28 50.3916 139.285 50.3711C139.3 50.3172 139.314 50.2661 139.33 50.2139C139.424 49.9001 139.56 49.5988 139.714 49.4144C139.788 49.3227 139.865 49.2736 139.889 49.2671C139.914 49.263 139.891 49.2552 139.944 49.2781C139.965 49.2897 139.987 49.3018 140.008 49.3145C141.217 50.0948 141.796 52.0364 143.16 53.4793C143.165 53.4853 143.171 53.4913 143.177 53.4973C143.23 53.5482 143.288 53.6216 143.484 53.6959C143.671 53.7867 144.065 53.7047 144.184 53.5839C144.44 53.3577 144.411 53.288 144.448 53.2241C144.49 53.1068 144.495 53.0599 144.506 53.0071C144.523 52.9089 144.529 52.8388 144.535 52.769C144.547 52.632 144.553 52.5107 144.56 52.3926Z" fill="#DAE562"/>
<path d="M127.064 30.7963C126.909 30.68 126.714 30.6302 126.522 30.6577C126.33 30.6853 126.157 30.788 126.04 30.9432C125.924 31.0984 125.874 31.2935 125.902 31.4855C125.929 31.6774 126.032 31.8506 126.187 31.9669C126.187 31.9669 126.187 31.9669 126.187 31.9669C126.368 32.1017 126.55 32.2392 126.747 32.3784C126.845 32.4479 126.947 32.5181 127.064 32.5909C127.124 32.6275 127.186 32.6649 127.268 32.706C127.373 32.7414 127.372 32.8121 127.78 32.8347C127.872 32.8307 128.049 32.8134 128.234 32.6729C128.645 32.3922 128.985 31.7419 128.934 31.2064C128.903 30.6697 128.716 30.2889 128.529 29.9442C128.141 29.2669 127.676 28.7417 127.207 28.2353C126.269 27.2347 125.229 26.355 124.334 25.4837C124.298 25.4475 124.262 25.413 124.224 25.3775C124.163 25.3206 124.097 25.2643 124.029 25.2112C123.758 25.004 123.431 24.811 122.994 24.7231C122.563 24.6244 122.001 24.7495 121.655 25.0127C121.642 25.0222 121.628 25.0318 121.615 25.0414C118.448 27.7815 120.181 31.6906 120.664 34.5053C120.671 34.5372 120.677 34.5689 120.683 34.6003C120.724 34.8315 120.747 35.0497 120.744 35.2161C120.757 35.3774 120.66 35.4954 120.749 35.2705C120.771 35.2291 120.806 35.1834 120.843 35.1496C120.366 35.6398 119.492 35.6653 118.445 35.4252C117.377 35.2358 116.414 34.6579 114.793 34.7791C114.79 34.7795 114.788 34.7799 114.785 34.7804C112.945 34.9724 111.8 36.8836 111.528 38.2914C111.166 39.7566 111.148 41.2354 110.926 42.4451C110.926 42.4409 110.927 42.4366 110.928 42.4319C110.931 42.3441 111.075 42.1572 111.136 42.1368C111.196 42.1043 111.16 42.1253 111.093 42.1291C110.955 42.1429 110.719 42.1325 110.483 42.1087C110 42.0603 109.471 41.9746 108.931 41.901C107.85 41.7523 106.707 41.6341 105.517 41.7289C105.47 41.7328 105.423 41.7377 105.376 41.7434C104.05 41.8018 102.873 43.1667 102.641 44.2193C102.322 45.3062 102.308 46.2998 102.32 47.2657C102.342 49.0998 102.736 51.3019 102.59 52.3649C102.562 52.4721 102.53 52.5503 102.498 52.6112C102.607 53.0275 100.722 52.8583 99.1811 52.3147C97.5231 51.8773 95.9966 51.0154 93.522 51.2906C92.852 51.4205 92.3245 51.7233 91.8912 52.0502C91.4601 52.3802 91.1217 52.7555 90.8221 53.1725C90.4958 53.623 90.2809 54.1406 90.1543 54.6307C89.6054 57.8356 90.6276 60.0034 90.6592 62.3042C90.6734 62.5669 90.6733 62.8246 90.6528 63.0286C90.6427 63.1342 90.6212 63.2267 90.6051 63.2581C90.6006 63.29 90.5453 63.2445 90.767 63.0027C90.8227 62.9241 90.9478 62.8933 90.8822 62.9029C90.3928 62.9413 88.9271 62.2513 87.7329 61.687C86.4551 61.1209 85.1401 60.421 83.2854 60.3215C82.7997 60.3086 82.2644 60.3754 81.7408 60.5944C80.085 61.3212 79.6211 62.8794 79.3818 63.9353C79.1482 65.063 79.1162 66.1082 79.1173 67.1315C79.1308 69.1693 79.3456 71.1314 79.4692 73.006C79.4572 72.9359 79.4887 72.7494 79.5583 72.6439C79.6253 72.5351 79.6686 72.5193 79.6425 72.5333C79.5841 72.5741 79.3122 72.6762 78.9799 72.7477C78.747 72.8008 78.4963 72.8308 78.2288 72.8388C76.5573 72.8926 74.5053 72.1389 72.1869 71.783C71.5677 71.6904 71.0707 71.8266 70.6807 71.9773C70.0321 72.2418 69.5952 72.6035 69.1827 72.9899C68.908 73.2479 68.6712 73.5503 68.4833 73.8654C67.7609 75.131 67.8222 76.3204 67.8189 77.2894C67.8226 77.5201 67.8341 77.7473 67.8534 77.9753C67.9375 79.0075 68.1751 80.0183 68.4565 80.9304C68.5942 81.3839 68.7422 81.8196 68.8453 82.1891C68.9577 82.5501 68.9631 82.8761 68.9543 82.7839C68.9871 82.6032 69.0974 82.4054 69.2001 82.2989C69.3035 82.1882 69.3822 82.1468 69.4217 82.1261C69.5549 82.0758 69.3635 82.1624 69.1855 82.1829C68.9973 82.2126 68.7641 82.225 68.5623 82.2091C68.4718 82.2032 68.371 82.1862 68.2647 82.157C67.1042 81.8247 65.5855 80.8754 63.8294 80.4507C63.6766 80.4128 63.5132 80.3849 63.3407 80.373C62.7017 80.3106 61.939 80.5818 61.4857 80.9997C61.0178 81.4125 60.764 81.8752 60.5843 82.3075C60.5594 82.3684 60.5352 82.4289 60.5117 82.4892C60.0382 83.6909 59.7559 85.043 59.7779 86.3777C59.784 87.0417 59.8643 87.6992 59.9525 88.2858C60.0527 88.8453 60.073 89.4646 60.0601 89.3584C60.0524 89.3794 60.0451 89.3973 60.0383 89.4125C60.0003 89.4952 59.9875 89.4951 60.0079 89.4866C60.0278 89.477 60.0328 89.4964 59.9441 89.5132C59.7686 89.551 59.3556 89.4976 58.9414 89.3764C58.0411 89.1396 57.3139 88.6768 55.8872 88.3048C55.6767 88.266 55.4495 88.2462 55.2078 88.2607C54.2738 88.257 53.2556 88.9971 52.9324 89.7112C52.8731 89.8179 52.82 89.9257 52.7751 90.0349C52.3316 91.106 52.0602 92.3155 52.0876 93.5324C52.098 94.1378 52.1839 94.74 52.3 95.2862C52.3566 95.5574 52.4201 95.8168 52.4606 96.0163C52.4805 96.1117 52.4923 96.1966 52.4942 96.212C52.502 96.2325 52.4731 96.1408 52.5947 95.9136C52.5695 95.9626 52.548 95.9953 52.5318 96.0171C52.469 96.0766 52.5392 96.0941 52.2792 96.1111C52.0406 96.1152 51.6576 96.0235 51.2659 95.8843C50.8684 95.7449 50.448 95.5617 49.9884 95.3693C49.4994 95.1925 49.1201 94.9213 48.1607 94.8777C47.8271 94.8861 47.4627 94.9376 47.086 95.1004C45.9617 95.5816 45.6281 96.7519 45.5345 97.4459C45.4293 98.2042 45.4569 98.8669 45.4924 99.5145C45.5686 100.79 45.7532 102.024 45.7612 103.053C45.7404 102.803 45.9235 102.516 45.988 102.473C46.0584 102.411 46.0395 102.438 45.9874 102.457C45.7785 102.547 45.308 102.661 44.8672 102.716C44.6212 102.748 44.3739 102.767 44.1268 102.764C42.814 102.766 41.7577 102.358 40.0688 101.88C39.6515 101.785 39.1852 101.804 38.7638 101.953C38.0924 102.183 37.5385 102.651 37.2077 103.167C37.0489 103.398 36.9174 103.645 36.8317 103.9C36.2308 105.77 36.5727 107.529 36.376 108.464L36.8764 107.606C36.8237 107.649 36.7546 107.698 36.676 107.746C36.4868 107.863 36.2408 107.99 35.9716 108.112C34.2524 108.859 31.9535 109.55 29.7135 109.813L29.7001 109.813C29.6556 109.82 29.6118 109.826 29.5689 109.833C28.6862 109.95 27.582 110.195 27.1269 111.031C27.7848 110.337 28.703 110.364 29.5798 110.474C29.6214 110.479 29.6638 110.484 29.707 110.49L29.6936 110.49C31.9742 110.846 34.3013 111.48 36.9169 110.819C37.3417 110.699 37.7799 110.53 38.2206 110.261C38.4033 110.149 38.5925 110.016 38.7743 109.862L39.1823 109.515L39.2747 109.004C39.5286 107.009 39.1643 105.732 39.4738 104.737C39.5096 104.609 39.528 104.482 39.551 104.354C39.5383 104.232 39.5192 104.149 39.5294 104.144C39.5341 104.143 39.5362 104.141 39.559 104.146C40.6854 104.469 42.4182 105.151 44.0721 105.163C44.3978 105.173 44.7242 105.176 45.0501 105.166C45.6411 105.137 46.2158 105.125 46.9751 104.829C47.1933 104.735 47.4391 104.622 47.7283 104.36C48.0109 104.122 48.3487 103.554 48.3173 103.005C48.2546 101.604 47.9606 100.437 47.8104 99.2925C47.7336 98.7281 47.6847 98.1732 47.7246 97.7195C47.7433 97.496 47.7904 97.3052 47.8388 97.204C47.8926 97.0991 47.8985 97.1012 47.9451 97.0759C47.9819 97.0593 48.0643 97.0397 48.1904 97.0414C48.1589 97.0383 48.332 97.0715 48.4957 97.1412C48.6667 97.2094 48.8617 97.3021 49.0636 97.4026C49.4703 97.6048 49.9051 97.8392 50.3902 98.0559C50.8784 98.2682 51.4115 98.4884 52.1237 98.5579C52.8063 98.6548 53.8836 98.3626 54.4364 97.6799C54.5859 97.5115 54.704 97.3416 54.8075 97.163C55.2396 96.2189 54.9951 95.8734 54.9871 95.5611C54.9354 95.2568 54.885 95.0232 54.8449 94.7919C54.764 94.336 54.722 93.9252 54.7254 93.5105C54.7304 92.6865 54.922 91.8663 55.2562 91.0549C55.29 90.9726 55.3202 90.8865 55.3491 90.7971C55.409 90.5913 55.2516 90.5578 55.3444 90.5241C55.3695 90.5225 55.4099 90.5248 55.462 90.5362C56.029 90.68 57.0905 91.3172 58.1489 91.7197C58.7057 91.9214 59.3138 92.139 60.1695 92.0959C61.0292 92.117 62.1782 91.297 62.4519 90.4949C62.4853 90.4203 62.516 90.3444 62.5442 90.2673C62.8992 89.0403 62.6085 88.4722 62.5611 87.8923C62.4726 87.3295 62.4105 86.8326 62.4001 86.3354C62.3752 85.3491 62.5607 84.3735 62.9244 83.4186C62.9425 83.371 62.9611 83.323 62.9803 83.2746C63.0502 83.0907 63.144 82.9621 63.1789 82.9322C63.2217 82.904 63.1376 82.935 63.165 82.9275C63.1724 82.928 63.1876 82.9299 63.2101 82.9357C64.5299 83.2417 65.6882 84.0706 67.5216 84.6992C67.7035 84.7542 67.8945 84.8084 68.0994 84.8543C68.8834 84.9767 69.4535 85.2545 70.734 84.7454C71.0794 84.5884 71.6822 84.1071 71.818 83.3759C71.9886 81.4546 71.3201 80.8827 71.0763 80.0305C70.7677 79.2418 70.5413 78.4983 70.4653 77.7362C70.4483 77.5686 70.4374 77.4023 70.4325 77.2335C70.3984 76.3522 70.4722 75.5717 70.7122 75.1994C70.7717 75.1005 70.8441 75.0272 70.9313 74.9653C71.183 74.769 71.4843 74.6148 71.6635 74.5585C71.7707 74.5203 71.8163 74.5443 71.7272 74.5395C73.6405 74.8791 75.6558 75.86 78.3193 75.842C78.7538 75.829 79.2038 75.7786 79.6552 75.6737C80.1028 75.5632 80.6213 75.4482 81.2481 75.061C81.5281 74.8806 81.8529 74.6193 82.1098 74.199C82.3712 73.7834 82.4825 73.2251 82.4419 72.7916C82.2802 70.8147 82.0332 68.9232 81.9872 67.0907C81.8787 65.3587 82.3187 63.1886 82.8212 63.1801C82.904 63.1455 83.0259 63.1197 83.2073 63.1256C84.1039 63.1537 85.3252 63.6911 86.5118 64.2661C87.7927 64.8012 88.7412 65.6756 91.0262 65.7901C91.5296 65.7756 92.2302 65.5584 92.705 65.0815C93.166 64.6117 93.2315 64.2467 93.311 63.9642C93.3769 63.679 93.3967 63.445 93.4102 63.2243C93.4324 62.8092 93.4109 62.4448 93.377 62.0894C93.1529 59.5288 92.1804 56.9221 92.5527 55.2582C92.6135 55.0268 92.7134 54.8512 92.8414 54.7067C93.0291 54.4853 93.2561 54.2775 93.4644 54.1196C93.6746 53.958 93.8796 53.8647 94.0083 53.8414C95.0139 53.6631 96.815 54.276 98.4618 54.7477C99.3194 54.9881 100.198 55.2417 101.244 55.332C101.769 55.3684 102.359 55.375 103.029 55.1507C103.7 54.9453 104.389 54.3378 104.676 53.7036C104.806 53.4391 104.885 53.1955 104.947 52.9366C105.188 50.3834 104.616 48.974 104.562 47.1767C104.436 45.4852 104.681 43.7654 105.646 43.7579C105.667 43.7546 105.689 43.7515 105.711 43.7489C106.653 43.6404 107.658 43.7027 108.696 43.8151C109.22 43.87 109.745 43.9412 110.33 43.9829C110.627 44.0006 110.93 44.0197 111.321 43.9713C111.518 43.9418 111.752 43.9043 112.045 43.741C112.34 43.5934 112.662 43.1765 112.717 42.8257C112.721 42.8068 112.724 42.788 112.728 42.7692C113.07 39.9503 112.819 36.639 115.039 36.3314C115.04 36.3313 115.041 36.3311 115.041 36.331C116.571 36.07 119.183 38.6775 122.096 36.4932C122.201 36.3965 122.293 36.277 122.36 36.1549C122.656 35.5339 122.496 35.185 122.439 34.9207C122.361 34.6551 122.27 34.4494 122.216 34.2531C122.207 34.2204 122.198 34.1874 122.19 34.154C121.477 31.2752 120.293 27.7273 122.394 26.1345C122.403 26.1281 122.413 26.1217 122.422 26.1154C122.52 26.0573 122.546 26.0797 122.642 26.1241C122.737 26.1724 122.88 26.2836 123.03 26.4218C123.068 26.4567 123.108 26.4939 123.148 26.5314C123.173 26.5548 123.197 26.5781 123.223 26.6031C124.22 27.5683 125.222 28.3767 126.11 29.286C126.984 30.0969 127.804 31.493 127.342 31.514C127.509 31.3882 127.66 31.3764 127.729 31.3731C128.022 31.3938 127.918 31.4111 127.923 31.3986C127.904 31.3893 127.869 31.3695 127.833 31.3471C127.76 31.3017 127.676 31.244 127.591 31.1842C127.421 31.0635 127.244 30.9308 127.064 30.7963Z" fill="#DAE562"/>
<path d="M104.774 6.65882C104.874 6.77046 105.013 6.83808 105.162 6.84684C105.311 6.85559 105.458 6.80474 105.569 6.70549C105.681 6.60624 105.749 6.46671 105.757 6.31759C105.766 6.16847 105.715 6.02198 105.616 5.91034C105.616 5.91034 105.616 5.91034 105.616 5.91034C104.28 4.73193 102.871 4.5626 101.317 4.65629C101.271 4.66237 101.225 4.66936 101.18 4.67728C100.184 4.89473 99.6031 5.51109 99.0611 6.10523C99.0157 6.15762 98.9707 6.21103 98.9268 6.26467C98.3726 6.97792 98.1738 7.72727 97.9661 8.44797C97.5327 10.1078 97.2769 11.7316 97.0526 13.3323C97.0352 13.4601 97.0199 13.5866 97.0055 13.7145C96.9846 13.946 96.9263 14.1065 96.9002 14.1501C96.8865 14.1922 96.8063 14.2586 96.5788 14.2612C96.4753 14.2625 96.3545 14.2525 96.2259 14.2341C95.5401 14.1307 94.7266 13.8462 93.8454 13.7008C93.644 13.6676 93.4366 13.641 93.2223 13.6269C92.3309 13.5602 91.3302 13.7678 90.5456 14.3431C90.3251 14.5018 90.1236 14.6828 89.9428 14.8789C87.8462 17.5983 87.9399 20.6057 87.4324 23.3316C87.3891 23.6227 87.3456 23.9131 87.3013 24.2005C87.26 24.5054 87.1366 24.6409 87.1754 24.5928C87.2037 24.5762 87.1569 24.6213 86.9467 24.6169C85.6098 24.5348 83.8917 24.3331 82.2992 24.3354C81.9111 24.331 81.5214 24.3263 81.1303 24.3306C80.3668 24.3341 79.5452 24.6077 78.94 25.0581C78.5257 25.3582 78.1893 25.7034 77.8978 26.0373C75.2686 29.8719 76.6671 33.7228 76.2496 36.9449C76.2148 37.3271 76.1643 37.6954 76.0873 38.0326C76.084 38.0493 76.1067 37.976 76.1806 37.9118C76.2533 37.8472 76.3145 37.8421 76.2859 37.8517C76.2322 37.8752 75.9711 37.8761 75.7071 37.831C75.1609 37.7431 74.5259 37.5515 73.8921 37.3539C72.6082 36.9594 71.3037 36.4689 69.77 36.2528C69.4619 36.2133 69.135 36.1887 68.7966 36.198C68.2933 36.2153 67.7137 36.296 67.1441 36.6592C66.5644 37.0189 66.1909 37.6798 66.0642 38.2247C65.8128 39.3366 65.9921 40.2055 66.1416 41.0446C66.307 41.8762 66.5274 42.6573 66.7262 43.4052C66.8253 43.7785 66.9205 44.145 66.9882 44.4802C67.0215 44.6449 67.0481 44.8088 67.0591 44.9336C67.0743 45.06 67.054 45.171 67.0686 45.095C67.0661 45.104 67.0636 45.1121 67.0611 45.1196C67.0081 45.2377 67.056 45.1771 66.9776 45.2284C66.8946 45.2714 66.6524 45.3148 66.3678 45.3075C65.7883 45.297 65.0787 45.157 64.3685 45.0015C62.9158 44.7114 61.4797 44.1841 59.5567 44.3192C59.3388 44.3437 59.1367 44.3779 58.917 44.4312C56.8374 44.8444 55.756 47.0372 55.4528 48.5309C55.0701 50.0972 54.9956 51.6835 54.6322 52.795C54.5881 52.9205 54.5227 53.0519 54.4386 53.1808C54.2449 53.4789 53.9471 53.752 53.6013 53.9742C53.4404 54.0788 53.2783 54.178 53.112 54.2755C50.5924 56.001 47.03 55.3596 43.6292 58.4512C43.3944 58.7282 43.2386 59.0103 43.1179 59.2756C42.186 61.8801 41.9664 63.8721 41.4894 65.8909C41.4746 65.9515 41.4591 65.9961 41.447 66.027C41.4044 66.1105 41.4741 66.1454 41.3249 66.314C41.1833 66.4703 40.8602 66.6476 40.4753 66.7445C40.3705 66.7711 40.2658 66.7928 40.1584 66.8094C38.1232 67.1581 36.1182 66.6777 33.4266 66.6699C33.3448 66.6738 33.2636 66.6797 33.1831 66.6875C31.9503 66.7505 30.5922 67.633 29.9988 68.665C29.3627 69.6851 29.116 70.6993 28.9218 71.6571C28.5543 73.5563 28.5185 75.4338 28.2015 76.9336C28.1724 77.0661 28.1437 77.1947 28.114 77.3257C27.7651 78.8722 27.2032 80.7549 26.6691 81.3797C26.6548 81.3958 26.6438 81.4063 26.6361 81.4134C26.5982 81.4411 26.6489 81.4142 26.6273 81.4238C26.6074 81.43 26.4902 81.4326 26.3159 81.3868C25.9618 81.2987 25.4597 81.0555 24.9574 80.768C23.9221 80.191 22.8986 79.4119 21.4285 78.7942C21.1798 78.6943 20.9363 78.6306 20.7031 78.5897C19.5791 78.4147 18.6977 78.7043 17.8662 79.0273C17.7225 79.0853 17.581 79.1468 17.4411 79.2112C15.4884 80.0951 14.1522 81.8197 13.421 83.4955C13.3898 83.5664 13.3597 83.637 13.3307 83.7074C12.7883 85.0112 12.4324 86.4967 12.4553 88.0029C12.4618 88.7515 12.5656 89.4995 12.6922 90.1557C12.7533 90.4794 12.819 90.791 12.851 91.0117C12.8947 91.2353 12.8389 91.3501 12.903 91.1186L13.6984 90.2124C13.7696 90.1753 13.822 90.1624 13.8419 90.1583C13.9195 90.1701 13.4059 90.1456 12.9734 90.0331C12.5142 89.9276 12.0088 89.7825 11.4981 89.6319C9.66855 89.081 7.74289 88.4925 5.83426 87.9319L5.69999 87.8897C5.6699 87.8849 5.64026 87.8803 5.61106 87.8759C4.63247 87.7393 3.81487 88.1949 2.80204 87.9992C2.80184 87.9992 2.80161 87.9992 2.8014 87.9993C2.8012 87.9994 2.80104 87.9996 2.80094 87.9997C2.80085 87.9999 2.80082 88.0001 2.80084 88.0003C2.80086 88.0006 2.80093 88.0008 2.80105 88.0009C2.80105 88.0009 2.80105 88.0009 2.80105 88.0009C3.35796 88.7602 4.34413 89.6243 5.14212 89.8677C5.16715 89.8761 5.19241 89.8845 5.21791 89.8931L5.08364 89.851C6.85331 90.7192 8.55399 91.6804 10.4167 92.5279C11.5521 92.9431 12.3172 93.6292 14.5123 93.428C14.7326 93.3831 14.9887 93.3039 15.2417 93.1715L15.8164 92.8709L16.0371 92.2653C16.3153 91.4348 16.1917 90.906 16.1448 90.5087C16.0815 90.1142 16.0087 89.8044 15.9507 89.5159C15.832 88.9424 15.7569 88.4421 15.7394 87.9337C15.701 86.9278 15.9004 85.9043 16.2883 84.8853C16.309 84.8307 16.3302 84.7755 16.352 84.7196C16.8597 83.3941 17.5081 82.1981 18.5897 81.7065C18.6678 81.6706 18.7484 81.6396 18.8313 81.6131C19.3228 81.4506 19.8839 81.4683 20.1618 81.5364C20.2187 81.5488 20.261 81.5643 20.2848 81.5764C21.1705 81.9645 22.208 82.7462 23.378 83.4554C23.9784 83.8106 24.6137 84.1827 25.4948 84.4352C26.3015 84.7127 27.8743 84.6634 28.7749 83.7569C28.8798 83.6611 28.9764 83.561 29.068 83.4547C30.5974 81.3176 30.5662 79.6711 30.9865 77.9284C31.0135 77.7894 31.0393 77.6535 31.0654 77.514C31.405 75.496 31.3449 73.7644 31.6154 72.1402C31.7424 71.3441 31.9471 70.5881 32.2565 70.0819C32.5772 69.5742 32.8777 69.3771 33.438 69.3121C33.4745 69.3086 33.5126 69.3058 33.5522 69.304C35.44 69.2816 38.012 69.8859 40.5466 69.5137C40.6843 69.4951 40.8207 69.4782 40.9599 69.4613C41.5092 69.3895 42.1217 69.3278 42.8174 69.0265C43.5055 68.7465 44.2704 68.0482 44.5627 67.2366C44.664 66.9756 44.7292 66.7161 44.7686 66.4686C45.1345 64.2274 44.7036 61.7566 45.2794 60.2537C45.3343 60.1315 45.3928 60.0406 45.4344 59.9938C47.0387 58.2523 51.206 58.4461 54.4077 56.4877C54.6202 56.3632 54.8268 56.2307 55.0311 56.0883C55.6192 55.6789 56.1501 55.1478 56.5508 54.4841C56.7244 54.1955 56.8713 53.8794 56.9754 53.5368C57.7186 50.3023 57.4059 46.9512 59.437 46.5615C59.5527 46.5334 59.6658 46.514 59.795 46.5001C60.8949 46.4014 62.3871 46.8552 63.8576 47.209C64.6114 47.3865 65.3819 47.577 66.3079 47.6158C66.7736 47.625 67.2932 47.6145 67.9091 47.3565C68.5292 47.1183 69.1097 46.4401 69.2758 45.8378C69.2886 45.7985 69.3004 45.759 69.3115 45.7192C69.4978 44.846 69.3287 44.4527 69.2516 43.9963C69.1533 43.5604 69.0363 43.1658 68.9194 42.7794C68.6854 42.0121 68.4441 41.2824 68.2672 40.5738C68.0909 39.8775 67.9811 39.1485 68.0732 38.7067C68.1218 38.4867 68.1713 38.4165 68.2596 38.3465C68.3508 38.2745 68.572 38.2029 68.8635 38.1925C69.0635 38.1837 69.2881 38.1968 69.5163 38.2263C70.6795 38.3836 71.9235 38.8861 73.2055 39.3605C73.8555 39.5977 74.5094 39.8471 75.2963 40.0177C75.6969 40.0938 76.1239 40.1804 76.7354 40.0759C77.0417 40.0185 77.4247 39.8783 77.7453 39.58C78.0701 39.2806 78.2433 38.9023 78.3231 38.5793C78.4473 38.0913 78.5157 37.6175 78.5582 37.1549C78.8671 33.46 77.8672 29.5819 79.4616 27.3612C79.6861 27.0854 79.909 26.8506 80.1379 26.674C80.4755 26.4135 80.8069 26.2522 81.2259 26.2048C81.5753 26.1713 81.9269 26.1527 82.2789 26.1566C83.7778 26.158 85.1074 26.5385 86.841 26.7353C87.2484 26.7647 87.8601 26.733 88.4045 26.3514C89.1686 25.7964 89.3293 25.0239 89.4031 24.4859C89.4388 24.1845 89.4702 23.8831 89.499 23.584C89.8055 20.8303 89.7387 17.7718 91.0993 15.8995C91.2063 15.7694 91.3233 15.6527 91.4507 15.5507C91.8993 15.1868 92.4942 15.0209 93.136 15.0569C93.29 15.065 93.4496 15.0839 93.6123 15.1108C94.3421 15.2264 95.0688 15.515 95.9886 15.6946C96.1661 15.7259 96.3539 15.7507 96.5599 15.7561C96.969 15.7718 97.5727 15.6887 98.0153 15.2616C98.4487 14.841 98.5829 14.3527 98.6544 13.9502C98.677 13.819 98.6973 13.6891 98.7151 13.5575C98.9439 11.9125 98.9295 10.2575 99.1603 8.70608C99.2655 8.04213 99.4336 7.36165 99.7632 6.94155C99.7989 6.89689 99.8358 6.85249 99.8733 6.80918C100.305 6.30968 100.895 5.86754 101.371 5.78703C101.401 5.78198 101.432 5.77732 101.464 5.77308C102.569 5.65359 104.094 6.00099 104.774 6.65882Z" fill="#DAE562"/>
</svg>
