<svg width="189" height="159" viewBox="0 0 189 159" fill="none" xmlns="http://www.w3.org/2000/svg">
<path d="M101.89 65.7841C101.978 65.8306 102.082 65.84 102.177 65.8102C102.273 65.7804 102.353 65.7139 102.399 65.6253C102.446 65.5366 102.455 65.4332 102.425 65.3376C102.395 65.2421 102.329 65.1623 102.24 65.1158C102.24 65.1158 102.24 65.1158 102.24 65.1158C98.724 63.5244 95.0393 64.3374 91.5317 64.6643C91.5279 64.6648 91.5242 64.6653 91.5204 64.6658C86.9862 65.2745 82.4892 66.0469 78.0125 66.9452C76.2067 67.3135 74.4051 67.7129 72.6181 68.1705C72.5983 68.1756 72.5786 68.1806 72.5589 68.1857C68.6618 69.271 64.5046 70.4555 61.5475 73.7395C61.5326 73.7574 61.5179 73.7751 61.5034 73.7927C59.0741 77.1729 60.7282 81.0563 62.0586 84.0939C62.0651 84.1076 62.0717 84.1213 62.0783 84.1349C63.5633 86.6857 66.336 87.0757 68.5416 87.8883C68.5786 87.9002 68.6157 87.912 68.6529 87.9237C72.7544 89.158 76.9574 89.2959 81.0849 89.4672C81.1212 89.4683 81.1577 89.4694 81.1942 89.4705C85.7828 89.5814 90.3113 89.2591 94.8365 88.8734C94.864 88.871 94.8916 88.8686 94.9193 88.8661C100.57 88.3515 106.183 87.6612 111.787 86.7006C111.801 86.6981 111.816 86.6955 111.83 86.6929C115.546 86.0155 119.42 85.1409 122.719 82.8893C122.726 82.8845 122.734 82.8797 122.741 82.8749C123.768 82.2225 124.293 80.9412 124.4 80.0375C124.402 80.0266 124.403 80.0157 124.405 80.0047C124.683 77.2435 123.324 75.1491 122.09 73.3168C122.076 73.2971 122.062 73.2774 122.048 73.2578C118.383 69.0589 113.402 69.04 109.059 67.9829C109.025 67.9764 108.99 67.9698 108.956 67.9633C102.264 66.765 95.5615 66.3261 88.8423 66.0039C88.8128 66.0026 88.7833 66.0013 88.7539 66C82.1425 65.7265 75.5175 65.8638 68.9262 66.6005C68.908 66.6025 68.8899 66.6046 68.8719 66.6067C64.2472 67.2984 59.4382 67.6371 55.2916 71.0125C55.28 71.0255 55.2685 71.0386 55.257 71.0518C54.0735 72.4203 54.4129 74.1922 54.6839 75.4914C54.6882 75.5123 54.6925 75.5331 54.697 75.554C56.0355 80.6325 60.8683 82.931 64.8509 85.074C64.8996 85.0985 64.9485 85.1225 64.9978 85.146C67.204 86.1362 69.4481 86.6087 71.6546 86.9254C71.7062 86.9318 71.7581 86.938 71.8104 86.944C76.2033 87.4289 80.5956 87.6139 84.9978 87.6043C85.0448 87.6041 85.0918 87.6039 85.1389 87.6036C89.893 87.5735 94.6245 87.2893 99.3478 86.8263C99.386 86.8225 99.4242 86.8186 99.4624 86.8147C105.351 86.2271 111.101 84.6439 116.578 82.5773C116.6 82.569 116.622 82.5608 116.644 82.5525C117.9 82.0402 119.405 81.5923 120.52 80.0922C120.534 80.0719 120.549 80.0515 120.563 80.031C121.199 79.1652 121.383 77.7846 120.96 76.7406C120.951 76.7152 120.942 76.6898 120.932 76.6646C118.555 72.7743 115.182 72.3196 112.243 70.743C112.208 70.727 112.173 70.711 112.137 70.6951C107.409 68.7131 102.556 67.8307 97.6895 67.0633C97.6501 67.0574 97.6106 67.0516 97.5711 67.0458C91.5469 66.1772 85.4693 65.9109 79.3975 66.1904C79.365 66.192 79.3325 66.1935 79.3 66.1952C74.5453 66.4305 69.8193 67.1054 65.1763 68.0804C65.1547 68.085 65.1331 68.0895 65.1116 68.094C61.5825 68.8597 57.9846 69.8294 54.7737 71.9012C54.7618 71.909 54.75 71.9167 54.7383 71.9245C53.7669 72.5475 53.2378 73.6839 52.9474 74.5921C52.9431 74.6044 52.9389 74.6166 52.9347 74.6289C52.2018 76.898 53.2192 78.9611 54.1987 80.5641C54.2108 80.5834 54.2229 80.6027 54.2352 80.6219C56.0627 83.3372 58.7877 84.8181 61.3858 86.1971C61.416 86.2126 61.4462 86.2279 61.4766 86.2432C66.5483 88.6289 71.9568 88.5923 77.1582 88.9773C77.1912 88.9791 77.2242 88.9808 77.2574 88.9825C84.2609 89.2282 91.1067 88.4642 97.9518 87.6508C97.9721 87.6483 97.9924 87.6457 98.0127 87.6432C103.129 87.0001 108.22 86.0088 113.197 84.5553C113.204 84.5533 113.211 84.5514 113.217 84.5495C116.49 83.5389 120.039 82.4358 122.667 79.3631C122.668 79.3609 122.67 79.3586 122.672 79.3564C123.508 78.3922 123.916 76.946 123.827 75.9685C123.827 75.9674 123.827 75.9664 123.827 75.9654C123.157 72.2714 120.862 71.2108 119.155 69.6576C119.142 69.6475 119.13 69.6374 119.117 69.6274C114.6 66.3535 109.7 65.6676 105.111 64.28C105.08 64.2711 105.048 64.2623 105.016 64.2535C101.737 63.3522 98.4152 62.7919 95.0811 62.4702C95.0492 62.4672 95.0173 62.4642 94.9854 62.4612C91.3883 62.1241 87.7851 62.2209 84.2275 62.4877C84.201 62.4897 84.1746 62.4917 84.1482 62.4937C82.8582 62.5911 81.5713 62.7137 80.288 62.8636C77.9665 63.1353 75.6559 63.4952 73.3684 63.9733C73.3507 63.977 73.3331 63.9807 73.3154 63.9844C70.1952 64.6411 67.1684 65.6754 64.1729 66.7397C64.1649 66.7426 64.1568 66.7455 64.1487 66.7483C61.6556 67.629 59.2612 68.7502 56.9082 69.8815C56.7799 69.9428 56.6813 70.0526 56.6341 70.1867C56.5868 70.3208 56.5947 70.4681 56.656 70.5963C56.7174 70.7246 56.8272 70.8232 56.9613 70.8705C57.0953 70.9178 57.2427 70.9098 57.3709 70.8485C57.3709 70.8485 57.3709 70.8485 57.3709 70.8485C59.7254 69.7165 62.0714 68.6191 64.5082 67.7583C64.5161 67.7555 64.524 67.7527 64.5319 67.7499C67.4726 66.7082 70.5706 66.1952 73.6364 65.676C73.6537 65.6731 73.6711 65.6701 73.6885 65.6672C75.9429 65.2877 78.2115 64.985 80.4876 64.7764C81.7455 64.6613 83.0058 64.5754 84.2664 64.5243C84.2922 64.5232 84.3181 64.5222 84.3439 64.5212C87.8256 64.3837 91.299 64.529 94.7154 64.9534C94.7458 64.9571 94.7761 64.9609 94.8065 64.9647C98.0147 65.3698 101.205 65.9422 104.253 66.8742C104.282 66.8833 104.312 66.8924 104.341 66.9015C108.895 68.3663 113.831 69.4969 117.073 72.1306C117.082 72.1383 117.091 72.146 117.1 72.1538C118.646 73.4414 120.268 75.3728 120.257 76.1909C120.257 76.191 120.257 76.1912 120.257 76.1914C120.295 76.845 120.458 77.1512 120.251 77.4987C120.25 77.5004 120.249 77.5021 120.248 77.5038C118.653 79.7873 115.59 81.2822 112.522 82.2689C112.515 82.2709 112.509 82.2728 112.503 82.2748C107.706 83.8027 102.745 84.8319 97.7324 85.5403C97.7125 85.5432 97.6926 85.546 97.6727 85.5488C90.9163 86.4607 84.0692 87.3062 77.3385 87.1587C77.3069 87.1576 77.2754 87.1563 77.2441 87.1551C72.0901 86.867 66.6783 86.9317 62.2065 84.7949C62.1796 84.7814 62.1528 84.7678 62.126 84.754C59.622 83.4474 57.0699 81.919 55.6518 79.7273C55.6423 79.712 55.6328 79.6966 55.6234 79.6813C54.7265 78.2334 54.1294 76.5307 54.6432 75.2362C54.646 75.2289 54.6488 75.2215 54.6517 75.2142C54.9387 74.4718 55.4082 74.0486 55.9265 73.7134C55.9331 73.709 55.9398 73.7047 55.9465 73.7003C58.7459 71.8989 62.1505 70.9455 65.5564 70.2311C65.5772 70.2268 65.598 70.2225 65.6189 70.2183C70.1686 69.2863 74.7868 68.7089 79.4132 68.48C79.4448 68.4784 79.4765 68.4768 79.5081 68.4753C85.4227 68.202 91.3902 68.4483 97.248 69.2743C97.2864 69.2798 97.3248 69.2853 97.3631 69.2909C102.127 70.0137 107.016 70.7177 111.318 72.5305C111.35 72.5447 111.381 72.559 111.413 72.5733C114.207 73.899 117.801 75.5242 118.729 77.4855C118.732 77.495 118.735 77.5044 118.738 77.5137C118.85 77.9185 118.722 78.2107 118.47 78.5884C118.464 78.597 118.458 78.6057 118.451 78.6144C118.006 79.2924 116.939 79.9145 115.789 80.3922C115.77 80.4002 115.75 80.4082 115.731 80.4163C110.426 82.6034 104.953 84.409 99.2746 84.9771C99.2378 84.9808 99.2011 84.9846 99.1643 84.9882C94.5043 85.4448 89.8097 85.6927 85.1331 85.7043C85.0869 85.7043 85.0406 85.7043 84.9944 85.7043C80.665 85.6974 76.3196 85.4784 72.0307 85.0045C71.9797 84.9988 71.9291 84.9932 71.8788 84.9878C69.6818 84.7197 67.3615 85.0142 65.4691 84.1561C65.4271 84.1361 65.3856 84.1158 65.3443 84.095C61.4041 82.0296 56.8509 79.5729 55.831 75.3164C55.8274 75.2989 55.8239 75.2813 55.8205 75.2637C55.5679 74.0081 55.7743 72.7728 56.4361 72.0832C56.4428 72.0755 56.4497 72.0678 56.4566 72.0602C59.587 69.508 64.6342 68.829 69.0615 68.2441C69.0792 68.242 69.0969 68.24 69.1146 68.2379C75.5927 67.513 82.1576 67.3023 88.686 67.573C88.7152 67.5742 88.7443 67.5755 88.7734 67.5768C95.4243 67.8952 102.115 68.5251 108.589 69.8062C108.622 69.8131 108.655 69.82 108.687 69.8269C112.922 70.8278 117.919 71.6414 120.252 74.5538C120.262 74.567 120.271 74.5803 120.281 74.5936C121.431 76.2259 122.439 78.127 122.239 79.7128C122.239 79.7191 122.238 79.7254 122.237 79.7317C122.136 80.4985 122.072 80.9993 121.644 81.3237C121.641 81.326 121.638 81.3284 121.635 81.3307C118.781 83.4538 115.191 84.5201 111.561 85.1816C111.547 85.1841 111.533 85.1866 111.519 85.1891C105.991 86.1439 100.384 86.8399 94.7855 87.3493C94.7581 87.3517 94.7308 87.3541 94.7035 87.3565C90.2114 87.7402 85.7041 88.0539 81.239 87.9451C81.2035 87.944 81.1681 87.943 81.1329 87.9419C77.0231 87.7811 72.8558 87.9019 68.9876 86.8212C68.9526 86.811 68.9176 86.8007 68.8828 86.7903C66.6506 86.0819 64.0066 85.5163 63.0182 83.6745C63.0134 83.6648 63.0087 83.6551 63.0041 83.6453C61.6597 80.7496 60.5703 76.9531 62.4729 74.6059C62.4858 74.5908 62.4988 74.5757 62.5121 74.5605C65.069 71.7856 69.1414 70.658 72.9295 69.6289C72.949 69.6239 72.9686 69.6189 72.9882 69.6139C74.7579 69.1607 76.5347 68.7046 78.3114 68.2542C82.7119 67.1528 87.1344 66.0164 91.6155 65.4144C91.6192 65.414 91.6229 65.4135 91.6266 65.413C95.0806 65.0674 98.8307 64.3595 101.89 65.7841Z" fill="#6942B5"/>
<path d="M148.235 71.8572C148.108 71.9525 148.025 72.0941 148.002 72.2511C147.98 72.408 148.021 72.5674 148.116 72.6941C148.212 72.8208 148.353 72.9045 148.51 72.9268C148.667 72.949 148.827 72.908 148.953 72.8128C148.953 72.8128 148.953 72.8128 148.953 72.8128C149.846 72.1445 150.829 71.513 151.805 70.9141C157.283 67.668 163.063 64.6134 169.013 62.5571C169.222 62.4956 169.446 62.4367 169.637 62.3962C169.759 62.3703 169.863 62.3516 169.946 62.3397C170.057 62.3234 170.139 62.3205 170.158 62.3228C170.155 62.3221 170.145 62.3228 170.105 62.31C170.053 62.2939 169.894 62.219 169.814 62.028C169.737 61.8402 169.789 61.6883 169.811 61.6405C169.83 61.5981 169.835 61.5969 169.836 61.5938C169.825 61.6087 169.759 61.674 169.68 61.7374C169.371 61.9858 168.966 62.2394 168.583 62.4719C167.793 62.9478 166.971 63.3953 166.148 63.8308C164.499 64.701 162.817 65.5302 161.124 66.3424C157.746 67.9584 154.322 69.5068 150.885 70.9775C150.509 71.1379 150.139 71.2982 149.765 71.4634C149.572 71.5487 149.376 71.6369 149.183 71.7272C149.132 71.751 149.083 71.7746 149.034 71.7979C149.004 71.8125 148.986 71.8216 148.951 71.8386C148.937 71.8459 148.922 71.8533 148.898 71.8662C148.885 71.8738 148.884 71.8724 148.827 71.9077C148.813 71.9174 148.795 71.9285 148.761 71.9557C148.743 71.9795 148.783 71.9065 148.62 72.1092C148.584 72.1658 148.525 72.2479 148.5 72.4257C148.466 72.5967 148.553 72.8941 148.713 73.0325C149.039 73.297 149.161 73.219 149.231 73.2353C149.374 73.2261 149.344 73.2216 149.357 73.2214C149.363 73.2202 149.369 73.219 149.374 73.2178C149.414 73.2087 149.43 73.2031 149.445 73.1982C149.634 73.1296 149.688 73.1007 149.795 73.0555C150.188 72.8837 150.565 72.7102 150.952 72.5305C151.126 72.4493 151.307 72.3642 151.486 72.2796C155.206 70.5104 158.832 68.555 162.533 66.7617C162.602 66.7279 162.67 66.6946 162.738 66.6616C163.739 66.1739 164.744 65.6695 165.727 65.1382C166.756 64.5856 167.765 63.9768 168.74 63.3441C168.801 63.3048 168.844 63.2429 168.86 63.1719C168.875 63.1009 168.862 63.0266 168.823 62.9654C168.784 62.9042 168.722 62.8612 168.651 62.8456C168.58 62.8301 168.505 62.8435 168.444 62.8827C168.444 62.8827 168.444 62.8827 168.444 62.8827C167.47 63.5147 166.486 64.1082 165.467 64.656C164.494 65.1817 163.494 65.6833 162.498 66.1688C162.431 66.2016 162.362 66.2347 162.293 66.268C158.595 68.0374 154.731 69.4796 150.94 71.0419C150.758 71.1164 150.574 71.1919 150.398 71.2638C150.007 71.4239 149.623 71.582 149.241 71.7361C149.161 71.7686 149.015 71.826 149.007 71.828C149.015 71.8255 149.025 71.8216 149.061 71.8134C149.065 71.8123 149.071 71.8112 149.076 71.8101C149.089 71.8099 149.058 71.8058 149.198 71.7967C149.267 71.8131 149.388 71.735 149.714 71.9992C149.874 72.1375 149.961 72.4346 149.927 72.6054C149.902 72.7831 149.843 72.8649 149.808 72.9212C149.645 73.1223 149.686 73.0489 149.669 73.0725C149.636 73.0986 149.62 73.1084 149.608 73.1165C149.564 73.1443 149.575 73.1361 149.571 73.1386C149.571 73.1388 149.58 73.1343 149.588 73.1306C149.609 73.1207 149.625 73.1133 149.65 73.1017C149.691 73.0827 149.738 73.0617 149.786 73.0401C149.969 72.9579 150.163 72.8725 150.351 72.7891C150.718 72.6268 151.084 72.4678 151.455 72.3081C154.917 70.815 158.33 69.2053 161.703 67.5269C163.394 66.6831 165.073 65.823 166.733 64.9215C167.562 64.4696 168.391 64.0082 169.213 63.5046C169.617 63.253 170.026 63.0008 170.441 62.6659C170.487 62.6286 170.559 62.5668 170.611 62.5169C170.663 62.4661 170.721 62.4112 170.798 62.3097C170.836 62.257 170.862 62.2232 170.907 62.1244C170.959 62.0092 171.016 61.8002 170.92 61.5657C170.82 61.3276 170.616 61.2165 170.491 61.1757C170.402 61.1465 170.348 61.1391 170.285 61.1318C170.154 61.1193 170.075 61.1255 170.004 61.1298C169.931 61.1348 169.848 61.1446 169.775 61.1553C169.657 61.1725 169.529 61.1962 169.387 61.2266C169.156 61.2762 168.906 61.3427 168.677 61.4099C162.448 63.5658 156.774 66.5882 151.181 69.8947C150.185 70.5059 149.183 71.1485 148.235 71.8572Z" fill="#DAE562"/>
<path d="M161.361 87.5348C161.239 87.3607 161.052 87.2425 160.842 87.2061C160.632 87.1698 160.417 87.2183 160.243 87.3409C160.068 87.4636 159.95 87.6504 159.914 87.8602C159.878 88.0701 159.926 88.2858 160.049 88.4599C160.049 88.4599 160.049 88.4599 160.049 88.4599C160.254 88.7224 160.368 88.7457 160.474 88.8069C160.556 88.8471 160.648 88.881 160.709 88.9012C160.849 88.947 160.965 88.9745 161.087 89.0007C161.317 89.0488 161.538 89.0799 161.75 89.1047C162.18 89.1541 162.593 89.1784 163.008 89.193C167.676 89.2783 172.192 88.5338 176.662 87.639C176.867 87.5968 177.075 87.5549 177.285 87.5134C177.384 87.4932 177.446 87.4807 177.548 87.4544C177.62 87.4333 177.636 87.4357 177.775 87.3762C177.833 87.3457 177.903 87.326 178.046 87.1853C178.114 87.1123 178.217 86.9891 178.262 86.7664C178.336 86.4521 178.136 86.101 178 86.0015C177.733 85.7881 177.619 85.8165 177.598 85.8007C177.568 85.7943 177.544 85.7902 177.521 85.7868C177.21 85.7526 177.13 85.7651 176.946 85.7628C176.649 85.764 176.344 85.7722 176.058 85.7791C175.471 85.7946 174.894 85.8112 174.314 85.8267C173.152 85.8586 171.996 85.886 170.836 85.9268C168.506 86.0226 166.224 86.1006 163.8 86.6319L163.579 86.7033C163.468 86.7568 163.429 86.7367 163.082 86.9759C163.033 87.0135 162.994 87.0443 162.918 87.116C162.832 87.2003 162.728 87.3135 162.625 87.4928C162.541 87.6278 162.365 88.0284 162.41 88.4665C162.456 88.9297 162.644 89.211 162.797 89.397C163.162 89.784 163.25 89.7638 163.384 89.8436C163.519 89.9045 163.55 89.9116 163.616 89.9337C164.005 90.0422 164.057 90.0247 164.196 90.046C165.788 90.1719 167.107 89.3473 168.576 89.2861C168.805 89.2742 169.037 89.2814 169.264 89.3131C172.417 89.7644 175.557 90.418 178.696 91.0618C179.478 91.2234 180.258 91.3861 181.04 91.549C181.154 91.5729 181.273 91.5503 181.371 91.4863C181.468 91.4224 181.537 91.3222 181.56 91.2079C181.584 91.0936 181.562 90.9746 181.498 90.8769C181.434 90.7792 181.334 90.711 181.219 90.6872C181.219 90.6872 181.219 90.6872 181.219 90.6872C180.438 90.5242 179.657 90.3614 178.874 90.1996C175.73 89.5549 172.586 88.8995 169.386 88.4412C169.155 88.4089 168.926 88.3549 168.701 88.2863C167.335 87.8571 165.812 86.8802 164.557 86.7836C164.517 86.7837 164.391 86.748 164.602 86.8047C164.644 86.8191 164.663 86.8221 164.771 86.871C164.883 86.9396 164.956 86.9121 165.302 87.2795C165.448 87.4568 165.632 87.7297 165.677 88.1811C165.721 88.6083 165.549 88.9955 165.47 89.123C165.371 89.2936 165.275 89.3977 165.198 89.4726C165.132 89.536 165.098 89.5616 165.058 89.5923C164.788 89.777 164.827 89.7251 164.806 89.7408L164.586 89.8121C166.619 89.3116 168.908 88.828 171.127 88.3608C172.243 88.1306 173.364 87.9124 174.492 87.7299C175.054 87.6391 175.615 87.5572 176.177 87.4923C176.449 87.4606 176.742 87.4316 176.999 87.4146C177.073 87.41 177.134 87.4068 177.189 87.4048C177.252 87.402 177.323 87.4053 177.294 87.4009C177.287 87.3997 177.277 87.3979 177.26 87.3942C177.249 87.3801 177.178 87.4203 176.917 87.2161C176.787 87.1216 176.589 86.7758 176.662 86.4673C176.706 86.2489 176.807 86.1301 176.87 86.0618C177.004 85.9305 177.058 85.921 177.092 85.9016C177.161 85.8726 177.133 85.8875 177.116 85.8915C177.076 85.904 177.027 85.9166 176.951 85.9337C176.745 85.9802 176.541 86.0243 176.339 86.0659C171.95 86.9486 167.457 87.6719 163.063 87.5879C162.68 87.5746 162.301 87.5516 161.935 87.5094C161.756 87.4887 161.574 87.462 161.418 87.4292C161.337 87.412 161.265 87.3936 161.215 87.3767C161.192 87.3696 161.171 87.3602 161.176 87.3624C161.183 87.375 161.211 87.3467 161.361 87.5348Z" fill="#DAE562"/>
<path d="M148.77 118.714C148.897 119.313 149.257 119.836 149.77 120.169C150.283 120.502 150.907 120.618 151.506 120.491C152.104 120.364 152.628 120.004 152.961 119.491C153.294 118.978 153.41 118.354 153.283 117.755C153.283 117.755 153.283 117.755 153.283 117.755C153.053 116.862 152.791 116.615 152.569 116.293C152.341 115.998 152.12 115.77 151.891 115.558C151.432 115.138 150.952 114.792 150.351 114.491C150.341 114.486 150.332 114.482 150.322 114.477C150.188 114.412 150.047 114.35 149.897 114.293C149.689 114.214 149.565 114.169 149.28 114.089C149.125 114.05 149.062 114.028 148.77 113.986C148.631 113.968 148.472 113.954 148.263 113.963C148.076 113.978 147.419 113.989 146.754 114.559C146.398 114.847 146.051 115.451 145.986 115.914C145.943 116.151 145.941 116.362 145.955 116.54C145.974 116.731 145.986 116.774 146.007 116.876C146.089 117.226 146.202 117.437 146.287 117.592C146.409 117.805 146.537 117.968 146.622 118.07C146.705 118.169 146.786 118.257 146.868 118.342C146.937 118.413 147.004 118.477 147.074 118.544C147.612 119.042 148.077 119.38 148.562 119.728C149.527 120.409 150.503 121.009 151.486 121.594C153.498 122.758 155.302 123.845 157.601 125.005C157.817 125.099 157.966 125.164 158.189 125.256C158.244 125.279 158.363 125.327 158.473 125.364C158.501 125.372 158.527 125.385 158.661 125.416C158.728 125.429 158.803 125.45 158.985 125.452C159.078 125.45 159.203 125.449 159.409 125.384C159.463 125.365 159.754 125.281 160.014 124.988C160.283 124.703 160.391 124.234 160.353 123.955C160.267 123.385 160.096 123.292 160.028 123.183C159.952 123.094 159.883 123.035 159.871 123.025C159.846 123.002 159.824 122.984 159.804 122.968C159.764 122.937 159.732 122.913 159.7 122.89C159.501 122.752 159.387 122.686 159.252 122.602C158.99 122.443 158.749 122.299 158.489 122.144C157.991 121.847 157.511 121.558 157.02 121.259C156.044 120.664 155.079 120.061 154.117 119.453C152.237 118.257 150.13 116.955 148.494 115.918L145.809 118.975C146.494 119.758 146.964 120.14 147.524 120.633C150.036 122.765 152.887 124.291 155.617 126.018L155.585 125.991C155.81 126.144 156.034 126.299 156.254 126.458C157.307 127.215 158.33 128.018 159.34 128.857C159.968 129.378 160.592 129.912 161.217 130.447C161.315 130.53 161.447 130.572 161.58 130.568C161.714 130.563 161.837 130.513 161.929 130.424C162.02 130.335 162.073 130.213 162.081 130.08C162.089 129.946 162.051 129.813 161.971 129.714C161.971 129.714 161.971 129.714 161.971 129.714C161.452 129.074 160.932 128.433 160.398 127.796C159.542 126.772 158.65 125.762 157.716 124.785C157.521 124.58 157.325 124.374 157.128 124.169L157.096 124.143C154.801 121.894 152.615 119.475 150.245 117.461C149.763 117.048 149.164 116.532 148.927 116.297L146.241 119.355C148.503 120.602 150.441 121.397 152.543 122.368C153.577 122.839 154.608 123.314 155.625 123.809C156.136 124.059 156.631 124.306 157.127 124.567C157.383 124.703 157.621 124.831 157.851 124.963C157.958 125.023 158.091 125.104 158.125 125.127C158.126 125.128 158.121 125.125 158.104 125.111C158.096 125.104 158.084 125.095 158.067 125.08C158.061 125.073 158.011 125.032 157.942 124.951C157.881 124.852 157.715 124.767 157.63 124.203C157.592 123.926 157.699 123.46 157.966 123.177C158.224 122.886 158.512 122.803 158.565 122.784C158.767 122.721 158.887 122.72 158.975 122.718C159.146 122.72 159.205 122.738 159.251 122.747C159.339 122.768 159.323 122.767 159.33 122.768C159.341 122.773 159.261 122.742 159.224 122.727C159.066 122.662 158.924 122.597 158.728 122.506C157.094 121.616 155.275 120.036 153.673 118.606C152.86 117.874 152.054 117.126 151.296 116.397C150.926 116.039 150.542 115.663 150.281 115.364C150.222 115.296 150.169 115.226 150.175 115.224C150.176 115.223 150.205 115.248 150.274 115.364C150.32 115.447 150.402 115.587 150.472 115.881C150.489 115.966 150.5 116.002 150.516 116.171C150.529 116.328 150.528 116.519 150.488 116.738C150.428 117.167 150.101 117.74 149.768 118.008C149.14 118.54 148.58 118.53 148.455 118.545C148.302 118.552 148.209 118.541 148.148 118.534C148.029 118.518 148.043 118.517 148.041 118.519C148.064 118.528 148.129 118.552 148.232 118.593C148.25 118.6 148.273 118.611 148.301 118.624C148.302 118.625 148.304 118.626 148.306 118.627C148.434 118.688 148.624 118.818 148.764 118.949C148.833 119.013 148.894 119.08 148.915 119.108C148.937 119.108 148.907 119.21 148.77 118.714Z" fill="#DAE562"/>
<path d="M9.85996 81.5416C9.77359 81.6029 9.71508 81.6959 9.69731 81.8003C9.67954 81.9047 9.70396 82.0118 9.7652 82.0982C9.82644 82.1846 9.91949 82.2431 10.0239 82.2609C10.1282 82.2786 10.2354 82.2542 10.3218 82.193C11.2863 81.5109 12.3058 80.875 13.3376 80.2653C17.8807 77.636 22.6554 75.2838 27.6341 73.6713C28.2432 73.4837 28.8549 73.318 29.4706 73.1907C29.7298 73.1369 29.9371 73.0992 30.1345 73.0697C30.2635 73.0501 30.3731 73.0371 30.4619 73.0301C30.5245 73.0235 30.6928 73.0208 30.6985 73.0282C30.7024 73.0274 30.7062 73.0372 30.645 73.0078C30.5902 72.989 30.4623 72.8494 30.4625 72.7155C30.4852 72.4519 30.5265 72.5264 30.5001 72.5269C30.4709 72.5561 30.3603 72.6375 30.2911 72.6808C30.1079 72.7992 29.931 72.8968 29.7205 73.0094C28.914 73.4331 28.0896 73.7998 27.2462 74.1677C25.5493 74.9026 23.8505 75.5782 22.1309 76.2535C20.4166 76.9255 18.6894 77.5886 16.9725 78.2568C16.1037 78.5953 15.2658 78.9228 14.3937 79.2722C13.9642 79.4441 13.5363 79.6171 13.1033 79.7969C12.9072 79.8779 12.6621 79.9815 12.4543 80.0721C12.3215 80.1307 12.2488 80.1619 12.1083 80.2286C12.0253 80.2696 11.9948 80.2808 11.8737 80.3524C11.8313 80.3803 11.7898 80.4002 11.6844 80.4959C11.632 80.552 11.5492 80.6084 11.4407 80.8461C11.3909 80.9653 11.3345 81.1589 11.3754 81.4077C11.4115 81.6557 11.5761 81.9014 11.7297 82.0209C12.0516 82.2617 12.2096 82.2284 12.2373 82.2439C12.2941 82.2518 12.3361 82.2535 12.3708 82.254C12.4395 82.2546 12.4811 82.2501 12.5159 82.2462C12.6449 82.2291 12.6931 82.2133 12.765 82.195C13.7052 81.943 14.5578 81.6001 15.3901 81.2406C19.5365 79.3859 22.9812 76.4942 26.755 74.1805C26.9284 74.0729 27.0955 73.9669 27.2641 73.8403C27.3458 73.7763 27.4264 73.7179 27.5062 73.6151C27.5241 73.589 27.5467 73.5604 27.5581 73.5024C27.5777 73.4468 27.5184 73.3432 27.4718 73.3288C27.3835 73.287 27.3274 73.295 27.2709 73.2937C26.6947 73.3445 26.1655 73.4417 25.6087 73.5556C25.3082 73.621 25.0097 73.6978 24.7233 73.7979C23.426 74.2548 22.1387 74.7105 20.9393 75.2372C20.8077 75.2952 20.6776 75.3538 20.5487 75.4134C20.2431 75.5545 19.9435 75.6963 19.6464 75.8345C18.6221 76.3101 17.6316 76.7475 16.4431 76.9633C16.3851 76.9734 16.3282 76.9967 16.2841 77.037C16.2399 77.0771 16.2122 77.1302 16.2068 77.187C16.2014 77.2438 16.2186 77.3011 16.2543 77.3489C16.2901 77.3967 16.3416 77.4304 16.3967 77.4513C16.3967 77.4513 16.3967 77.4513 16.3967 77.4513C17.6165 77.9095 19.0469 77.8153 20.2587 77.4123C20.6137 77.2975 20.9557 77.1602 21.2851 77.0081C21.4241 76.9439 21.5603 76.8765 21.6946 76.8066C22.9183 76.1695 23.9789 75.3135 25.1104 74.6176C25.3601 74.4646 25.6029 74.297 25.8494 74.1351C26.2876 73.8516 26.7755 73.5525 27.2757 73.5092C27.3156 73.5071 27.3677 73.5154 27.3678 73.5183C27.3659 73.5251 27.3361 73.4743 27.3443 73.4662C27.3467 73.458 27.3409 73.4738 27.331 73.4856C27.2855 73.5439 27.2063 73.6053 27.131 73.6592C26.9717 73.7717 26.8039 73.8682 26.6291 73.9631C22.7336 76.0534 18.5049 77.5962 14.5683 79.3533C13.7859 79.6926 12.9842 80.0216 12.2282 80.2439C12.2042 80.252 12.1849 80.2516 12.2732 80.2394C12.2979 80.2367 12.331 80.2328 12.393 80.2333C12.4243 80.2338 12.4632 80.2353 12.5175 80.2428C12.5437 80.2581 12.6956 80.2237 13.0153 80.4624C13.1677 80.5809 13.3315 80.8253 13.3674 81.072C13.4081 81.3194 13.3519 81.5113 13.3029 81.6287C13.1959 81.8628 13.1166 81.9148 13.0697 81.9657C12.9753 82.0511 12.9525 82.0576 12.9366 82.0691C12.9082 82.0849 12.9503 82.0598 12.9976 82.0361C13.0965 81.986 13.1651 81.9526 13.2837 81.8965C13.472 81.807 13.7076 81.699 13.8957 81.6123C14.3128 81.4213 14.7304 81.2319 15.1492 81.0416C16.0005 80.6552 16.8188 80.2816 17.6662 79.8918C19.3408 79.1212 21.0205 78.3351 22.6889 77.5409C24.3632 76.7432 26.0166 75.9469 27.6869 75.1084C28.519 74.6875 29.3281 74.2776 30.1599 73.797C30.3799 73.668 30.5632 73.5574 30.7829 73.4048C30.8668 73.345 31.0065 73.2445 31.112 73.1356C31.1313 73.095 31.3132 73.0039 31.3182 72.6612C31.316 72.4833 31.161 72.3041 31.0533 72.2569C30.9456 72.1989 30.839 72.1879 30.8195 72.1848C30.4686 72.1562 30.291 72.204 30.0004 72.2479C29.7838 72.2864 29.5662 72.3316 29.2977 72.3918C28.6528 72.5381 28.024 72.7158 27.3988 72.9084C22.3085 74.5589 17.5331 76.9168 12.9319 79.5776C11.8868 80.1953 10.853 80.8394 9.85996 81.5416Z" fill="#DAE562"/>
<path d="M9.37535 48.9567C9.6652 49.1716 10.0286 49.2626 10.3855 49.2097C10.7425 49.1567 11.0638 48.9641 11.2787 48.6743C11.4937 48.3844 11.5847 48.0211 11.5317 47.6641C11.4788 47.3072 11.2862 46.9859 10.9963 46.7709C10.9963 46.7709 10.9963 46.7709 10.9963 46.7709C10.6814 46.5404 10.4685 46.3642 10.209 46.1167C10.1736 46.0829 10.1384 46.049 10.1025 46.014C9.95333 45.8709 9.80718 45.7092 9.78789 45.6803C9.7855 45.6796 9.79526 45.6866 9.82967 45.7682C9.84458 45.8493 9.99308 46.0336 9.82965 46.5717C9.74256 46.8258 9.53505 47.052 9.38509 47.1493C9.22466 47.2573 9.1244 47.2838 9.05739 47.3036C8.92265 47.3371 8.89544 47.3279 8.88623 47.3287C8.8755 47.3264 8.92377 47.3266 8.98085 47.3334C9.2147 47.3625 9.4473 47.394 9.67862 47.4278C15.2376 48.2173 20.5255 50.4946 25.5974 53.3633C26.186 53.6773 26.7589 53.9981 27.4609 54.2826C28.103 54.5352 28.6043 54.734 29.1992 54.968C29.3275 55.0186 29.4665 55.0734 29.6307 55.1374C29.7865 55.1981 29.9113 55.2469 30.0429 55.2979C30.2429 55.3739 30.3137 55.403 30.5189 55.4761C30.5737 55.495 30.6131 55.509 30.6795 55.5275C30.6882 55.5298 30.6977 55.5323 30.7086 55.535C30.7306 55.5351 30.7485 55.5639 30.9971 55.565C31.0702 55.5592 31.1705 55.5633 31.3745 55.4772C31.5635 55.4164 31.9551 55.0615 31.9692 54.6348C31.9871 54.2306 31.8416 54.0598 31.7804 53.9619C31.7085 53.8646 31.6615 53.8247 31.6257 53.7922C31.4927 53.6821 31.4714 53.6821 31.4352 53.659C31.3972 53.6381 31.3972 53.6386 31.3947 53.6371C31.3892 53.6342 31.384 53.6315 31.3788 53.6288C31.3582 53.6181 31.3388 53.6083 31.3186 53.5984C31.2416 53.5604 31.1254 53.5077 31.078 53.4857C29.9073 52.959 28.8286 52.4925 27.69 51.9903C25.4345 50.9985 23.2067 50.0083 20.9633 49.0028C16.6118 47.0205 11.631 44.8976 8.00253 42.9597L6.4609 45.4557C7.18436 45.7861 7.83595 46.0343 8.5115 46.2921C11.7215 47.4958 15.1273 47.9638 18.4423 48.6805L18.428 48.676C18.7797 48.7608 19.1299 48.8511 19.478 48.9483C21.7193 49.5724 23.9211 50.3367 26.0663 51.2482C27.2435 51.7477 28.4019 52.2887 29.5465 52.8683C28.4606 52.1849 27.3471 51.5474 26.2088 50.948C24.1345 49.8541 21.9826 48.8959 19.8089 47.9934C19.4712 47.853 19.1346 47.7101 18.7987 47.5654L18.7844 47.5609C15.6531 46.3015 12.6588 44.6791 9.56072 43.5169C8.92303 43.2747 8.24841 43.0169 7.69926 42.7724L6.15763 45.2684C11.094 47.9523 15.3783 49.3682 20.0102 51.2658C22.3012 52.1703 24.5746 53.059 26.8629 53.9673C28.0117 54.4251 29.1297 54.866 30.2571 55.3398C30.3 55.3576 30.4084 55.4052 30.4462 55.4225C30.4561 55.427 30.4628 55.43 30.4639 55.4303C30.4642 55.4304 30.4641 55.4303 30.4635 55.43C30.4515 55.4165 30.5149 55.4814 30.2952 55.3119C30.2608 55.2806 30.2148 55.2417 30.1436 55.1453C30.0831 55.0484 29.9378 54.8784 29.9557 54.4748C29.9697 54.0488 30.361 53.6944 30.5491 53.6339C30.7524 53.5482 30.8515 53.5525 30.9231 53.5467C31.1677 53.5486 31.165 53.5731 31.1816 53.5717C31.1884 53.5734 31.1934 53.5748 31.1972 53.5758C31.2247 53.584 31.2013 53.5781 31.1685 53.5672C31.0173 53.5167 30.9331 53.487 30.7443 53.4187C30.6165 53.3727 30.4934 53.328 30.3392 53.2712C30.1767 53.2111 30.038 53.1597 29.91 53.1121C29.3164 52.8907 28.8133 52.7006 28.1707 52.4545C27.67 52.26 27.0879 51.9495 26.5252 51.6469C21.4837 48.7985 16.1021 45.9186 10.1179 44.8128C9.86882 44.7658 9.6178 44.7216 9.36491 44.6803C9.2225 44.6585 9.07576 44.6384 8.86727 44.637C8.74244 44.6387 8.58639 44.6383 8.33673 44.7036C8.21317 44.7392 8.05634 44.7874 7.84426 44.931C7.64502 45.062 7.39614 45.3368 7.2889 45.6477C7.08446 46.3027 7.26729 46.6121 7.3272 46.8038C7.40827 46.9973 7.48103 47.1085 7.5468 47.2081C7.8046 47.5772 8.00346 47.7606 8.19797 47.9571C8.24216 48.0006 8.28628 48.0434 8.33157 48.0865C8.6454 48.3903 9.04754 48.7195 9.37535 48.9567Z" fill="#DAE562"/>
<path d="M29.9335 30.4066C30.0104 30.7689 30.2282 31.0858 30.5388 31.2876C30.8494 31.4893 31.2274 31.5594 31.5897 31.4825C31.952 31.4055 32.2689 31.1878 32.4706 30.8772C32.6724 30.5666 32.7425 30.1885 32.6655 29.8262C32.347 28.7708 31.9752 28.5671 31.592 28.1627C31.2019 27.81 30.7788 27.5141 30.2443 27.2833C30.0794 27.2133 29.9028 27.1511 29.7099 27.1025C29.3734 27.0227 29.1368 26.962 28.6796 26.9369C28.5605 26.9337 28.2319 26.9223 27.8911 27.0396C27.7001 27.0973 27.2789 27.3103 27.0456 27.6963C26.7987 28.0822 26.7795 28.5198 26.8296 28.7979C27.0423 29.6325 27.2631 29.703 27.4474 29.9616C27.7975 30.3536 28.1377 30.64 28.4589 30.9028C29.123 31.4396 29.7892 31.9009 30.4713 32.3507C31.8192 33.2335 33.2099 34.0387 34.6075 34.8092C37.4654 36.3008 40.0651 37.9236 43.3758 38.9165C43.5083 38.9328 43.6289 38.9439 43.7398 38.9495C43.9483 38.9452 44.1133 39.0053 44.4874 38.8272C44.6155 38.7589 44.7603 38.5832 44.784 38.4052C44.8129 38.2392 44.7633 38.0911 44.7265 38.0104C44.6674 37.8761 44.5644 37.7518 44.5096 37.6892C44.2222 37.3751 43.9608 37.1818 43.676 36.9618C43.1251 36.5464 42.5574 36.1629 41.9994 35.7879C40.8804 35.0397 39.7451 34.307 38.6134 33.5856C36.3646 32.1448 33.9922 30.7339 31.7914 29.475C31.7451 29.4467 31.7172 29.4264 31.7176 29.4256C31.724 29.4311 31.7252 29.4262 31.7875 29.4871C31.8217 29.5226 31.8724 29.5754 31.9375 29.6823C31.9741 29.7266 32.2465 30.2381 32.0092 30.7784C31.7877 31.2753 31.419 31.4055 31.3032 31.4506C31.2053 31.4847 31.1444 31.4941 31.1027 31.5003C31.0182 31.5104 31.0253 31.5063 31.0178 31.5073C31.0181 31.5073 31.0593 31.51 31.1056 31.5158C33.2984 31.9366 36.2251 32.7883 38.0203 33.896C38.2023 34.0288 38.3393 34.1296 38.5389 34.2672C38.5635 34.2839 38.579 34.2947 38.6274 34.3261C38.6485 34.3396 38.67 34.3532 38.6981 34.3697C38.7272 34.3857 38.6786 34.3617 38.7934 34.4212C38.8235 34.4356 38.8598 34.4534 38.9297 34.4782C39.0069 34.4983 39.0871 34.5508 39.3945 34.5422C39.5456 34.531 39.8058 34.4936 40.0798 34.267C40.3593 34.0441 40.4966 33.6499 40.4963 33.4185C40.4773 32.913 40.3998 32.9398 40.3787 32.8528C40.2543 32.6191 40.2173 32.6105 40.1814 32.5634C40.1486 32.5276 40.1259 32.5057 40.1087 32.4892C40.092 32.4732 40.0771 32.4595 40.0623 32.4462C40.0352 32.4216 39.9965 32.3881 39.9816 32.3753C39.8931 32.2998 39.8169 32.2374 39.729 32.1658C38.7627 31.388 37.8549 30.5849 36.922 29.7699C36.4538 29.3629 35.9869 28.9597 35.4787 28.5595C35.23 28.3635 34.9609 28.1611 34.6695 27.9664C34.5183 27.8662 34.355 27.7641 34.1702 27.6652C34.0553 27.6062 33.9668 27.5604 33.804 27.4974C33.721 27.4659 33.631 27.4355 33.5235 27.4082C33.3822 27.3748 33.1994 27.3364 32.9262 27.3489L31.9207 27.3467L31.4261 28.4673C31.1695 29.2788 31.3049 29.5651 31.3356 29.8687C31.3895 30.156 31.4584 30.3752 31.5321 30.5827C31.6804 30.9919 31.8487 31.3293 32.0308 31.6503C32.4319 32.3489 33.4321 32.5515 34.2614 32.7587C34.7637 32.8853 35.2127 33.0227 35.4788 33.3211C36.2458 34.179 37.0578 34.9954 37.8795 35.8009C38.6866 36.5907 39.5057 37.3679 40.3243 38.1456C39.5057 37.3679 38.6866 36.5907 37.8795 35.8009C37.0578 34.9954 36.2458 34.179 35.4788 33.3211C35.2125 33.0227 35.1394 32.5508 35.1439 32.0541C35.1453 31.2224 35.3719 30.3444 35.1134 29.8915C34.9927 29.6804 34.8833 29.4735 34.8088 29.3115C34.7718 29.2327 34.7449 29.1628 34.7347 29.1495C34.7059 29.1573 34.7959 29.1243 34.6381 29.6452L33.138 30.7636C32.7144 30.7639 32.7208 30.7039 32.6939 30.7014C32.6844 30.6923 32.7109 30.6962 32.7511 30.7089C32.8222 30.7293 32.9332 30.774 33.0471 30.8243C33.2705 30.9222 33.5281 31.0507 33.7745 31.1768C34.281 31.4385 34.7935 31.721 35.3048 32.0179C36.3225 32.6108 37.3484 33.265 38.2466 33.9883C38.3244 34.0515 38.3935 34.1087 38.4496 34.1571C38.459 34.1653 38.4801 34.1837 38.4839 34.1874C38.4865 34.1898 38.4867 34.1901 38.4828 34.1864C38.4787 34.1824 38.4693 34.1739 38.445 34.1474C38.4178 34.1099 38.3864 34.1085 38.2642 33.8794C38.2437 33.7935 38.1668 33.8215 38.1478 33.3177C38.1475 33.087 38.2846 32.6933 38.5636 32.4708C38.8371 32.2446 39.0966 32.2074 39.2469 32.1962C39.5525 32.1877 39.6302 32.2397 39.7039 32.2587C39.7704 32.2822 39.8023 32.2981 39.8272 32.31C39.9139 32.3548 39.8732 32.3346 39.8909 32.3441C39.9031 32.3512 39.9051 32.3527 39.9031 32.3513C39.8955 32.3463 39.8829 32.3377 39.87 32.3287C39.7371 32.2357 39.5921 32.1275 39.4249 32.002C36.6984 30.3237 34.4092 29.6043 31.4112 28.9892C31.3083 28.9773 31.216 28.9668 31.0614 28.9635C30.971 28.9639 30.9359 28.9592 30.7591 28.9804C30.6782 28.992 30.5839 29.0088 30.4585 29.0525C30.303 29.1112 29.9004 29.2643 29.6677 29.7894C29.4154 30.3564 29.7053 30.9208 29.7577 30.988C29.8379 31.12 29.9107 31.2004 29.9745 31.266C30.0976 31.3871 30.1351 31.4102 30.2083 31.466C30.3415 31.5617 30.4044 31.5975 30.5086 31.6586C32.9608 32.9717 35.3788 33.9494 37.8166 35.0589C39.0278 35.6061 40.2408 36.1692 41.4046 36.7828C41.9837 37.0895 42.5679 37.4168 43.0996 37.7698C43.3679 37.9501 43.6298 38.1388 43.8066 38.3225C43.8404 38.3556 43.8804 38.4143 43.872 38.4C43.8716 38.3963 43.8453 38.3462 43.8606 38.2504C43.872 38.1486 43.9681 38.042 44.0102 38.0243C44.1115 37.9901 43.917 38.0373 43.7867 38.0209C43.7053 38.0168 43.6071 38.0076 43.4934 37.9927C40.7708 37.139 38.0821 35.0925 35.5848 33.288C34.3311 32.353 33.0913 31.383 31.9095 30.4023C31.3136 29.9066 30.7298 29.4077 30.2015 28.9073C29.9525 28.6701 29.6829 28.3979 29.5313 28.2011C29.4947 28.1541 29.4625 28.1057 29.4602 28.0969C29.4514 28.0928 29.4912 28.0817 29.5505 28.3558C29.5827 28.5226 29.577 28.8666 29.3787 29.1755C29.1893 29.486 28.8737 29.6337 28.7728 29.6634C28.5657 29.7278 28.5389 29.705 28.5564 29.7115C28.6166 29.7168 28.7991 29.749 29.0214 29.8077C29.0558 29.8169 29.1012 29.8323 29.152 29.8539C29.319 29.9237 29.5339 30.0644 29.7077 30.2244C29.7943 30.3033 29.8733 30.3894 29.9241 30.4568C29.9751 30.5093 29.9935 30.6179 29.9335 30.4066Z" fill="#DAE562"/>
</svg>
