<svg width="215" height="215" viewBox="0 0 215 215" fill="none" xmlns="http://www.w3.org/2000/svg">
<path d="M113.944 88.1352C113.547 88.117 113.159 88.2572 112.865 88.5249C112.572 88.7927 112.397 89.1661 112.378 89.563C112.36 89.9599 112.5 90.3478 112.768 90.6413C113.036 90.9348 113.409 91.1099 113.806 91.1281C113.806 91.1281 113.806 91.1281 113.806 91.1281C114.251 91.1357 114.426 91.056 114.605 91.0041C114.751 90.9552 114.89 90.8959 114.992 90.8486C115.221 90.743 115.397 90.6461 115.568 90.5496C115.91 90.3553 116.233 90.1519 116.53 89.9606C117.145 89.563 117.719 89.1711 118.299 88.7725C122.673 85.7273 126.991 82.7313 131.452 79.8932C131.468 79.8832 131.483 79.8732 131.499 79.8632C137.773 75.9536 144.145 71.1984 149.715 67.2195L147.31 66.1966C147.315 66.2147 147.32 66.2329 147.325 66.251C150.661 77.328 155.238 87.7651 161.122 97.7134L161.108 97.6891C161.111 97.695 161.115 97.7008 161.118 97.7066C161.558 98.4312 162.019 99.1118 162.396 99.8306C163.01 100.98 163.379 102.355 163.653 103.726C163.703 102.332 163.839 100.901 163.492 99.4328C163.281 98.53 162.922 97.6882 162.513 96.914C162.509 96.9078 162.506 96.9015 162.503 96.8953L162.488 96.871C157.378 86.9572 153.745 76.009 150.546 65.3532C150.541 65.3358 150.536 65.3185 150.531 65.3012L149.97 63.2818L148.126 64.2783C141.592 68.8854 136.24 73.3733 129.886 77.3383C129.871 77.3482 129.855 77.358 129.84 77.3679C125.335 80.2331 120.933 83.2875 116.6 86.3043C116.031 86.6953 115.471 87.078 114.906 87.4427C114.636 87.6172 114.346 87.7983 114.09 87.9433C113.965 88.0145 113.84 88.0808 113.742 88.1258C113.699 88.146 113.656 88.1626 113.653 88.1631C113.658 88.1687 113.661 88.1336 113.944 88.1352Z" fill="#6942B5"/>
<path d="M95.0656 56.3527C94.8597 56.2068 94.6043 56.1486 94.3554 56.1909C94.1066 56.2333 93.8849 56.3728 93.7389 56.5787C93.5929 56.7846 93.5347 57.04 93.5771 57.2888C93.6194 57.5376 93.7589 57.7594 93.9648 57.9054C93.9648 57.9054 93.9648 57.9054 93.9648 57.9054C93.8289 57.7991 93.864 57.8086 93.8719 57.8278C93.8854 57.8464 93.916 57.8943 93.9424 57.9397C93.9866 58.0143 94.0609 58.1545 94.108 58.2491C94.224 58.4806 94.3301 58.7112 94.4453 58.9696C94.6609 59.4543 94.8783 59.9758 95.0828 60.4757C95.5009 61.4998 95.9048 62.5308 96.3074 63.565C99.4866 71.7908 102.623 80.0746 106.273 88.1578C106.308 88.2346 106.343 88.3114 106.378 88.3881C107.042 89.7757 107.484 91.0761 108.561 92.6004C108.651 92.7083 108.749 92.8229 108.925 92.9599C109.035 93.0423 109.171 93.1294 109.375 93.1892C109.576 93.2504 109.853 93.2557 110.08 93.1791C110.546 93.0135 110.707 92.7445 110.825 92.5724C111.043 92.2075 111.1 91.9434 111.161 91.6787C111.268 91.1602 111.284 90.6929 111.27 90.2293C111.267 90.1412 111.263 90.0552 111.257 89.9674C109.001 77.6406 101.252 68.4325 96.3305 57.8946C96.2696 57.7737 96.2087 57.6528 96.1479 57.5318L96.1059 57.455C95.7914 56.8671 95.0338 56.3536 94.3941 56.2686C93.7471 56.1606 93.2442 56.2575 92.7939 56.3667C91.9075 56.6012 91.1999 56.9573 90.5048 57.3315C89.1621 58.0714 87.9178 58.9388 86.7291 59.8054C84.3401 61.5607 82.0976 63.4042 79.8337 65.2787C75.3435 69.0141 70.9193 72.8008 66.3599 76.4515C66.2987 76.5009 66.2387 76.5494 66.1789 76.5977C62.2361 79.7814 58.2899 82.9608 54.3656 86.1648C52.6401 87.5729 50.9197 88.9838 49.2004 90.3983C50.9629 89.0379 52.7222 87.676 54.486 86.3166C58.4975 83.2236 62.5277 80.1541 66.5952 77.1352C66.6569 77.0894 66.7188 77.0435 66.7808 76.9974C71.4902 73.538 76.1973 70.0884 80.9099 66.6649C83.2817 64.9485 85.6241 63.2532 88.0199 61.6536C89.2064 60.867 90.4397 60.0787 91.6356 59.4625C92.243 59.1514 92.8618 58.878 93.3864 58.7524C93.6445 58.6884 93.8749 58.6803 93.9507 58.7C94.0284 58.7323 93.9225 58.6616 93.9745 58.7186L93.9326 58.6417C93.9941 58.765 94.0559 58.888 94.1178 59.0108C99.1213 69.5894 107.177 79.1799 109.283 90.1069C109.288 90.1755 109.293 90.2421 109.296 90.3097C109.313 90.6618 109.306 91.0178 109.258 91.3037C109.238 91.4402 109.186 91.5764 109.192 91.5639C109.204 91.5625 109.224 91.4611 109.493 91.3605C109.623 91.316 109.793 91.3209 109.896 91.3536C110.001 91.385 110.049 91.4218 110.076 91.4411C110.099 91.461 110.063 91.4317 110.03 91.3898C109.363 90.4611 108.726 88.9248 108.111 87.6012C108.076 87.5253 108.042 87.4493 108.007 87.3732C104.39 79.3631 101.267 71.1189 98.0812 62.875C97.6767 61.8361 97.2706 60.7992 96.8446 59.7556C96.6359 59.2454 96.4133 58.711 96.1842 58.1957C96.061 57.9197 95.9471 57.671 95.8086 57.3945C95.7523 57.2816 95.6586 57.1031 95.5849 56.9781C95.4618 56.8018 95.4779 56.6985 95.0656 56.3527Z" fill="#6942B5"/>
<path d="M52.0325 85.5615C51.8087 85.663 51.6344 85.8492 51.548 86.0793C51.4615 86.3093 51.47 86.5642 51.5715 86.788C51.673 87.0118 51.8593 87.1861 52.0893 87.2725C52.3193 87.359 52.5743 87.3505 52.7981 87.249C52.7981 87.249 52.7981 87.249 52.7981 87.249C60.8431 81.4182 67.774 75.4522 75.4272 69.7569C78.5389 67.3903 81.6675 65.0367 84.7943 62.7026C84.9354 62.5973 85.0761 62.4902 85.2166 62.3815C87.1478 60.917 89.002 59.0557 91.0443 58.1107C91.0751 58.0984 91.1329 58.0905 91.0779 58.0961C91.0571 58.0943 91.0343 58.106 90.9217 58.0701C90.8874 58.0607 90.7418 57.9916 90.6673 57.8589C90.5819 57.7247 90.5927 57.5501 90.6087 57.4976C90.6899 57.263 90.6995 57.3306 90.705 57.3083C80.7804 66.7552 69.1973 74.289 58.2185 82.6474C57.9817 82.8546 57.405 82.6118 56.8287 82.6669C56.9142 82.5655 56.9948 82.4452 57.2973 82.3002C57.6369 82.1219 58.2395 82.1848 58.5179 82.3834C59.029 82.7493 58.9845 82.8769 59.0628 82.9672C59.1538 83.1295 59.1755 83.1632 59.2083 83.2025C59.2662 83.2684 59.3068 83.282 59.3429 83.2987C59.4134 83.3274 59.4557 83.3408 59.4503 83.3737C59.4319 83.4212 59.4618 83.4884 59.2493 83.7959C59.1413 83.9426 58.892 84.1897 58.5121 84.3019C58.134 84.4161 57.8008 84.3483 57.6362 84.2901C63.0306 94.8871 68.5925 110.687 74.0424 123.973C74.176 124.307 74.3111 124.641 74.4475 124.976C76.4347 129.96 78.8887 134.959 80.5991 139.757C80.6486 139.926 80.6904 140.094 80.7099 140.212C80.7414 140.323 80.683 140.403 80.7761 140.138C80.6938 140.336 80.6239 140.46 80.5879 140.511C80.5805 140.528 80.5817 140.501 80.7169 140.426C80.8181 140.354 81.1787 140.304 81.3443 140.379C81.6558 140.521 81.5033 140.496 81.4352 140.374C81.3567 140.271 81.2441 140.08 81.1557 139.91C80.7695 139.157 80.4406 138.25 80.1242 137.328C79.513 135.527 78.9602 133.629 78.4143 131.748C77.3262 127.971 76.2654 124.183 75.1439 120.387C72.9167 112.828 70.4951 105.311 67.7437 97.9024C67.5525 97.3876 67.3662 96.8763 67.183 96.3638C66.8404 95.406 66.5544 94.4231 66.2918 93.4279C66.1609 92.9348 66.0354 92.4303 65.8885 91.9114C65.8121 91.6481 65.736 91.3865 65.6095 91.0813C65.4813 90.7969 65.307 90.3644 64.765 90.0149C63.6107 89.2998 62.3317 90.082 61.8912 90.7505C61.3874 91.441 61.1833 92.1588 61.082 92.8392C60.9854 93.5333 61.0266 94.186 61.143 94.7711C62.3183 99.4616 64.1156 103.363 65.8137 107.51C65.9928 107.932 66.1719 108.352 66.3511 108.769C72.6484 123.528 80.0469 137.99 86.0844 152.663C86.0999 152.71 86.113 152.769 86.1877 152.886C86.2073 152.915 86.232 152.948 86.2662 152.985C86.3026 153.018 86.3284 153.065 86.4924 153.152C86.6379 153.228 86.8662 153.253 87.0346 153.202C87.2057 153.154 87.3079 153.069 87.3714 153.008C87.5244 152.84 87.5034 152.828 87.5361 152.772C87.5557 152.73 87.5686 152.69 87.5718 152.681C87.5918 152.619 87.5994 152.579 87.6044 152.555C87.616 152.496 87.6203 152.464 87.6258 152.423C87.6353 152.352 87.6419 152.285 87.6472 152.225C87.6579 152.099 87.6647 151.98 87.6694 151.859C87.6827 151.496 87.7356 151.139 87.772 150.743C87.7889 150.544 87.8036 150.336 87.784 150.088C87.7731 149.963 87.7547 149.826 87.7013 149.658C87.6413 149.492 87.5748 149.276 87.2752 149.006C86.9042 148.557 85.8368 148.34 85.2706 148.653C83.8026 149.476 83.5942 150.333 83.1152 151.155C82.7139 152.047 82.3832 152.618 82.1902 153.988C82.1845 154.15 82.187 154.34 82.2622 154.591C82.3336 154.932 82.7918 155.483 83.2716 155.584C83.4968 155.649 83.7267 155.645 83.8446 155.632C83.9576 155.621 84.0535 155.6 84.1387 155.576C84.3172 155.525 84.419 155.477 84.5032 155.437C84.6856 155.349 84.8113 155.268 84.924 155.195C85.0459 155.114 85.1437 155.043 85.2379 154.973C93.1192 147.849 100.218 140.813 108.456 134.585C109.006 134.163 109.579 133.735 110.145 133.321C121.582 125.091 134.042 118.263 146.34 111.228C146.788 110.97 147.213 110.727 147.653 110.476C153.353 107.198 159.11 104.626 165.259 101.746C165.282 101.732 165.299 101.723 165.306 101.719C165.308 101.718 165.318 101.713 165.297 101.725C165.286 101.731 165.271 101.74 165.219 101.763C165.206 101.769 165.189 101.776 165.167 101.784C165.15 101.788 165.178 101.789 165 101.834C164.911 101.847 164.801 101.896 164.468 101.837C164.305 101.802 164.048 101.713 163.818 101.47C163.584 101.231 163.476 100.872 163.478 100.639C163.491 100.164 163.623 100.047 163.671 99.9455C163.73 99.8539 163.766 99.8145 163.794 99.7825C163.846 99.7247 163.878 99.6975 163.882 99.6934C163.888 99.6885 163.892 99.6844 163.896 99.6809C163.977 99.6128 163.896 99.6761 163.866 99.6952C163.801 99.739 163.712 99.7981 163.631 99.8511C163.465 99.9604 163.302 100.066 163.123 100.181C157.423 103.811 151.517 107.205 145.681 110.694C145.138 111.018 144.576 111.358 144.03 111.694C131.53 119.46 119.532 127.851 107.635 136.423C107.286 136.676 106.941 136.926 106.6 137.174C97.9953 143.219 89.426 150.839 81.3531 156.056C81.117 156.106 80.8844 156.134 80.6734 156.135C79.9902 156.103 79.7329 156.076 79.5192 155.434C79.4487 155.157 79.3846 154.876 79.3307 154.591C77.2945 141.669 76.1048 128.094 70.8059 115.756C70.7473 115.613 70.6894 115.47 70.6321 115.327C69.2629 111.926 68.1407 108.422 67.2921 104.86C65.7482 98.5721 65.3121 92.1644 65.0861 85.608L65.0561 85.4346C65.041 85.3812 65.0251 85.3289 65.0085 85.2777C64.9136 84.9899 64.7612 84.6938 64.4929 84.417C64.2363 84.1432 63.7783 83.8943 63.3352 83.9268C62.4496 84.0303 62.1462 84.5922 61.799 84.9825C61.7799 85.0064 61.7608 85.0304 61.7417 85.0547C60.4574 86.8999 61.0133 89.0035 61.2636 90.871C61.2742 90.9305 61.3083 90.9837 61.3579 91.0191C61.4075 91.0544 61.4686 91.069 61.5283 91.0595C61.5879 91.0499 61.6415 91.0171 61.6777 90.968C61.7138 90.919 61.7297 90.8578 61.7211 90.798C61.7211 90.798 61.7211 90.798 61.7211 90.798C61.5045 88.9682 61.1444 86.8224 62.2466 85.4721C62.2629 85.4535 62.2796 85.4354 62.2968 85.4178C62.5806 85.1016 63.1156 84.9644 63.2271 85.1285C63.2731 85.1988 63.2468 85.2506 63.2825 85.3601C63.3117 85.4681 63.3547 85.6229 63.4101 85.7955C63.42 85.8261 63.4299 85.8586 63.4396 85.8927L63.4096 85.7193C63.6298 92.1665 64.2334 98.8539 65.9106 105.202C66.8349 108.817 68.0216 112.363 69.4122 115.818C69.4704 115.963 69.5292 116.108 69.5886 116.253C74.8113 128.452 75.7541 141.697 77.7085 154.89C77.7611 155.182 77.8063 155.474 77.8486 155.766C77.9328 156.347 78.2147 157.053 78.8013 157.518C79.38 157.983 80.068 158.131 80.6504 158.142C81.0331 158.15 81.3932 158.11 81.7395 158.047C91.7572 152.201 99.2155 145.351 108.157 139.349C108.5 139.108 108.847 138.864 109.199 138.617C121.178 130.28 133.382 122.186 145.755 114.501C146.294 114.169 146.846 113.831 147.378 113.506C153.21 109.94 158.907 106.205 164.547 102.296C164.727 102.17 164.89 102.054 165.064 101.929C165.149 101.867 165.243 101.799 165.327 101.736C165.396 101.683 165.389 101.695 165.545 101.565C165.55 101.56 165.556 101.555 165.563 101.549C165.568 101.543 165.607 101.51 165.661 101.45C165.69 101.416 165.727 101.376 165.787 101.283C165.836 101.181 165.967 101.063 165.981 100.587C165.983 100.354 165.875 99.9944 165.641 99.7554C165.411 99.5123 165.153 99.4237 164.99 99.3887C164.656 99.3291 164.545 99.3782 164.454 99.3914C164.273 99.4377 164.3 99.4388 164.282 99.4431C164.259 99.452 164.241 99.4595 164.226 99.4661C164.167 99.492 164.142 99.5058 164.119 99.5184C164.071 99.5442 164.052 99.5566 164.039 99.5643C164.009 99.5823 163.98 99.6008 163.948 99.6216C158.403 102.514 152.514 105.889 146.886 109.129C146.445 109.381 146.017 109.625 145.568 109.883C133.283 116.899 120.724 123.57 109.036 131.786C108.456 132.2 107.867 132.627 107.298 133.049C98.9757 139.116 91.0284 146.13 83.6407 152.839C83.5216 152.93 83.3652 153.032 83.3438 153.04C83.3449 153.041 83.3502 153.035 83.4221 153.014C83.4959 153.005 83.593 152.932 83.9906 153.024C84.3757 153.099 84.7629 153.576 84.8 153.804C84.8503 153.974 84.8429 154.061 84.8424 154.099C84.928 153.294 85.9634 151.035 86.2718 150.922C86.2476 150.932 86.1379 150.951 86.0277 150.914C85.9162 150.879 85.8638 150.807 85.8828 150.783C85.7148 150.618 85.7343 150.551 85.7425 150.535C85.7571 150.519 85.7886 150.544 85.8182 150.58C85.8792 150.656 85.9402 150.782 85.9893 150.914C86.0882 151.183 86.1482 151.497 86.1365 151.799C86.1326 151.899 86.1268 151.998 86.1186 152.092C86.1147 152.136 86.1097 152.184 86.1049 152.218C86.1025 152.236 86.0998 152.252 86.0999 152.251C86.1004 152.25 86.1 152.244 86.113 152.203C86.115 152.197 86.1238 152.17 86.1408 152.133C86.1701 152.084 86.1475 152.075 86.2957 151.913C86.3575 151.853 86.458 151.77 86.6273 151.722C86.7941 151.671 87.0207 151.696 87.1646 151.772C87.3267 151.857 87.3517 151.903 87.3874 151.936C87.4208 151.972 87.4447 152.004 87.4635 152.032C87.5352 152.144 87.5453 152.196 87.558 152.233C81.4355 137.178 75.7833 122.241 69.4678 107.431C69.2887 107.014 69.1078 106.595 68.9252 106.175C67.2196 102.142 65.17 98.011 64.0804 94.1391C63.9773 93.6986 63.8675 93.3106 63.8176 92.9618C63.7647 92.6072 63.7863 92.2702 63.8655 92.0941C63.9019 92.0048 63.9378 91.9649 63.9096 91.9563C63.8883 91.95 63.7594 91.9364 63.702 91.8706C63.6104 91.778 63.7139 91.8138 63.8134 91.979C63.9168 92.1372 64.0243 92.3484 64.1288 92.5675C64.3373 93.0069 64.5414 93.4878 64.7381 93.9556C65.1347 94.9061 65.5176 95.8694 65.8632 96.8354C66.0481 97.3528 66.2354 97.8691 66.4268 98.3892C69.1403 105.76 71.3776 113.292 73.3754 120.881C74.3828 124.693 75.3173 128.499 76.2899 132.326C76.7793 134.235 77.2741 136.161 77.8549 138.063C78.1639 139.049 78.4616 139.995 78.9436 141.016C79.0584 141.253 79.2155 141.549 79.398 141.813C79.6238 142.097 79.8022 142.471 80.5685 142.772C81.5447 143.126 82.4193 142.331 82.5692 142.094C82.8769 141.694 82.9642 141.49 83.1202 141.157C83.376 140.504 83.2808 140.144 83.2566 139.844C83.2153 139.546 83.1561 139.301 83.0962 139.071C81.336 133.674 79.4047 128.846 77.4674 123.771C77.3358 123.435 77.2041 123.1 77.0722 122.766C71.0263 108.885 68.4141 95.6585 58.7382 81.0727C58.4685 80.9782 58.0206 80.8976 57.5361 81.0441C57.0493 81.1877 56.7112 81.5095 56.5371 81.7441C56.1925 82.2305 56.1595 82.5173 56.1015 82.7812C56.0681 82.9736 56.097 83.1485 56.1694 83.3396C56.2066 83.4363 56.2519 83.5319 56.3228 83.6776C56.3623 83.7569 56.3925 83.8311 56.4986 84.0304C56.5848 84.1393 56.5496 84.2861 57.0774 84.6633C57.3646 84.8674 57.9769 84.9316 58.3267 84.749C58.6384 84.5999 58.7255 84.4739 58.8192 84.3632C58.588 84.0183 58.4646 83.3711 58.6815 83.187C69.558 74.9062 81.3114 67.506 91.4283 58.0613C91.4789 57.9938 91.529 58.0217 91.628 57.7273C91.6472 57.6622 91.6575 57.4689 91.5647 57.3233C91.4844 57.1792 91.3204 57.0991 91.2758 57.0866C91.1358 57.0411 91.0829 57.052 91.0322 57.0514C90.8605 57.0638 90.7957 57.093 90.7191 57.115C88.244 58.2253 86.1848 59.465 84.1144 60.9038C83.97 61.0076 83.8271 61.1122 83.6859 61.2176C80.5553 63.5546 77.4224 65.9114 74.3054 68.2819C66.7784 73.9001 59.2259 80.2577 52.0325 85.5615Z" fill="#6942B5"/>
</svg>
