<svg width="81" height="82" viewBox="0 0 81 82" fill="none" xmlns="http://www.w3.org/2000/svg">
<path d="M38.0246 18.7129C37.9282 18.8212 37.7929 18.8869 37.6481 18.8954C37.5034 18.9039 37.3613 18.8545 37.253 18.7582C37.1446 18.6619 37.079 18.5265 37.0705 18.3818C37.062 18.2371 37.1113 18.095 37.2076 17.9866C37.2076 17.9866 37.2076 17.9866 37.2076 17.9866C38.0365 17.0953 38.7552 16.1703 39.9872 15.4507C39.9872 15.4507 39.9873 15.4507 39.9873 15.4507C41.7457 14.8531 43.1549 14.8136 44.676 14.7967C44.9202 14.8037 45.1634 14.8204 45.4055 14.8496C45.4079 14.8499 45.4102 14.8502 45.4126 14.8505C48.5676 15.2545 51.3675 16.5635 54.0007 17.8099C54.0048 17.8118 54.0089 17.8138 54.013 17.8158C56.8489 19.2859 58.6179 21.4567 60.4538 23.4788C60.4573 23.4829 60.4609 23.487 60.4645 23.4911C61.9683 25.1624 62.9856 27.2758 63.7157 29.2118C63.7175 29.2165 63.7193 29.2211 63.7211 29.2257C64.3444 30.8932 64.5647 32.488 64.9082 34.0593C64.909 34.0632 64.9098 34.067 64.9107 34.0709C65.4762 36.7852 65.9249 39.5148 65.9042 42.4081C65.9041 42.4111 65.9041 42.4141 65.904 42.4171C65.8816 43.7889 65.4528 44.9954 65.1403 46.1343C65.1398 46.1361 65.1393 46.138 65.1388 46.1398C64.5584 48.1639 63.9033 50.103 63.1929 52.0683C63.1926 52.0691 63.1923 52.07 63.192 52.0708C62.2103 54.7657 60.5347 57.0408 58.8608 59.1062C58.8604 59.1067 58.86 59.1071 58.8597 59.1076C56.8608 61.3886 54.4373 62.2893 52.2599 63.4794C52.2565 63.4811 52.2531 63.4829 52.2497 63.4846C49.3842 64.9577 46.2892 65.6978 43.2766 66.2526C43.2733 66.2531 43.2701 66.2537 43.2669 66.2543C40.569 66.7923 37.5996 66.6229 35.1632 65.9449C35.1552 65.9428 35.1472 65.9407 35.1392 65.9386C33.1319 65.4095 31.37 64.5059 29.7246 63.5555C29.7187 63.5521 29.7128 63.5487 29.7069 63.5452C27.175 62.0467 24.8717 60.4229 22.5666 58.7049C22.5622 58.7016 22.5578 58.6983 22.5534 58.695C21.9676 58.25 21.3387 57.8561 20.6569 57.3227C19.9694 56.8003 19.2743 56.0124 18.839 55.3633C18.837 55.3604 18.835 55.3575 18.833 55.3546C17.7582 53.7683 16.8477 52.2342 16.1295 50.5106C16.1286 50.5083 16.1276 50.506 16.1267 50.5037C15.196 48.21 14.4316 45.8173 14.1724 43.1382C14.172 43.1335 14.1716 43.1288 14.1712 43.124C14.1899 40.512 14.8555 39.5879 15.3346 38.1135C15.8536 36.7509 16.3919 35.4415 16.8471 34.1055C16.8492 34.0993 16.8513 34.093 16.8534 34.0868C17.0952 33.3486 17.5061 32.2741 18.0859 31.4604C18.6431 30.6535 19.1716 30.0612 19.7069 29.4756C19.7089 29.4734 19.7109 29.4713 19.7129 29.4691C21.8722 27.1618 24.0379 25.0072 26.2704 22.8305C26.2713 22.8296 26.2723 22.8287 26.2732 22.8277C27.5431 21.5836 29.1866 20.1464 30.8562 19.2859C30.8577 19.2851 30.8592 19.2842 30.8608 19.2833C32.6583 18.2542 34.6161 17.3228 36.5785 16.5166C36.8114 16.4206 37.0428 16.3268 37.2772 16.233L37.4009 16.1791C37.4018 16.1788 37.4028 16.1785 37.4038 16.1781C39.3235 15.5392 41.4362 16.0256 43.2429 16.2104C43.2429 16.2104 43.2429 16.2104 43.2429 16.2104L43.2809 16.2075C43.9412 16.2984 44.6164 16.4244 45.1948 16.6394C45.2681 16.6653 45.3315 16.7238 45.3725 16.7957C45.4133 16.868 45.4283 16.9479 45.4129 17.0239C45.3974 17.0999 45.3525 17.1676 45.2866 17.2182C45.2209 17.2685 45.1396 17.2976 45.062 17.2929C45.062 17.2929 45.062 17.2929 45.062 17.2929C44.4467 17.2458 43.898 17.2243 43.3348 17.3837L43.3727 17.3807C43.3727 17.3808 43.3726 17.3808 43.3726 17.3808C41.6437 17.9455 40.2319 19.1305 38.843 19.8187C38.8423 19.8191 38.8415 19.8194 38.8408 19.8198L38.9645 19.7659C38.755 19.8841 38.5484 20.0019 38.3404 20.1213C36.5749 21.1335 34.8785 22.1808 33.0775 23.2112C33.0759 23.2121 33.0742 23.2131 33.0726 23.214C31.6315 23.9707 30.5879 24.8305 29.3466 26.0138C29.3458 26.0146 29.3449 26.0154 29.3441 26.0162C27.1751 28.1148 24.9814 30.2991 22.9397 32.4658C22.9379 32.4678 22.936 32.4698 22.9342 32.4718C22.4321 33.0115 21.9217 33.5362 21.5824 33.9673C21.2513 34.3835 21.0752 34.7393 20.8334 35.4459C20.8316 35.4513 20.8298 35.4567 20.8279 35.4621C20.3733 36.8003 19.9913 38.156 19.6529 39.4851C19.4856 40.1463 19.3282 40.8047 19.2011 41.4206C19.138 41.7276 19.0829 42.0254 19.0472 42.2801C19.0085 42.5237 19.0062 42.7862 19.0073 42.7077C19.0073 42.707 19.0072 42.7064 19.0071 42.7058C19.1879 44.6415 19.7804 46.73 20.5547 48.735C20.5555 48.7371 20.5563 48.7391 20.5571 48.7411C21.1335 50.218 21.7098 51.8134 22.4005 53.1957C22.4017 53.1982 22.403 53.2006 22.4042 53.2031C22.6984 53.7797 22.8641 54.146 23.2271 54.59C23.5875 55.0307 24.0954 55.5024 24.6467 55.9193C24.6509 55.9224 24.655 55.9255 24.6592 55.9287C26.8531 57.5681 29.1532 59.1821 31.4562 60.5447C31.4615 60.5478 31.4668 60.5509 31.4721 60.554C32.9788 61.4291 34.5054 62.1937 36.0292 62.609C36.0354 62.6107 36.0416 62.6124 36.0478 62.6141C38.426 63.2975 40.5455 64.0245 42.8262 63.659C42.8289 63.6585 42.8315 63.6581 42.8342 63.6577C45.7511 63.2016 48.5995 62.5367 51.1218 61.2679C51.1248 61.2664 51.1278 61.2649 51.1308 61.2634C53.3183 60.1358 55.6742 59.0839 56.9735 57.5614C56.9737 57.5611 56.974 57.5608 56.9742 57.5605C58.6287 55.5614 60.178 53.5514 61.006 51.2691C61.0062 51.2684 61.0065 51.2677 61.0067 51.267C61.6877 49.3852 62.3089 47.4275 62.8245 45.5095C62.825 45.5077 62.8254 45.506 62.8259 45.5043C63.1131 44.3986 63.276 43.3297 63.2849 42.3675C63.285 42.3652 63.285 42.3629 63.2851 42.3607C63.3071 39.841 62.9189 37.187 62.3775 34.6101C62.3767 34.6064 62.376 34.6027 62.3752 34.599C62.0442 33.0693 61.6086 31.5421 61.1138 30.2328C61.1124 30.2293 61.1111 30.2257 61.1097 30.2221C60.3943 28.3437 59.5989 26.7118 58.3668 25.3202C58.3638 25.3168 58.3608 25.3134 58.3579 25.31C56.6163 23.3365 54.8232 21.2546 52.841 20.2076C52.8382 20.2062 52.8355 20.2048 52.8327 20.2034C50.2476 18.9058 47.704 17.6598 45.0694 17.1956C45.0675 17.1953 45.0655 17.1949 45.0636 17.1946C44.8329 17.1549 44.6054 17.1059 44.3797 17.0511C43.0576 16.7437 41.4814 16.0719 40.4793 16.4268C40.4793 16.4268 40.4793 16.4268 40.4793 16.4268C39.6362 16.9044 38.8002 17.8579 38.0246 18.7129Z" fill="#DAE562"/>
<path d="M34.5406 33.9569C34.9741 34.2543 35.5583 34.6968 36.3286 35.0832C36.8321 35.3358 37.3837 35.2948 37.8596 35.0812C38.1204 34.9315 38.4203 34.6982 38.6377 34.5323C38.8552 34.3663 38.9811 34.2748 39.2565 34.0281" stroke="#DAE562" stroke-width="2" stroke-linecap="round"/>
<path d="M46.9728 37.4884C47.2414 37.5712 47.7868 37.9347 48.9544 38.6735C49.4354 38.9778 49.9923 39.2084 50.6751 39.3374C51.6945 39.5299 52.1232 38.8148 52.4097 38.4742C52.4827 38.3975 52.5697 38.3266 52.6432 38.25C52.7166 38.1734 52.7739 38.0933 52.8884 37.8305" stroke="#DAE562" stroke-width="2" stroke-linecap="round"/>
<path d="M33.7138 46.6616C33.7807 46.7027 34.9718 47.9142 36.8245 49.7795C38.2197 51.1841 39.8257 51.2467 41.9364 51.1726C43.5891 51.1147 44.2292 50.6712 44.8313 50.4133C45.2093 50.2131 45.5536 50.0349 45.8341 49.9183C45.9837 49.8647 46.148 49.8223 46.3174 49.7786" stroke="#DAE562" stroke-width="2" stroke-linecap="round"/>
</svg>
