<svg width="113" height="110" viewBox="0 0 113 110" fill="none" xmlns="http://www.w3.org/2000/svg">
<path d="M59.6108 58.4061C59.6108 58.2152 59.535 58.0322 59.4 57.8972C59.265 57.7623 59.082 57.6865 58.8912 57.6865C58.7003 57.6865 58.5173 57.7623 58.3823 57.8972C58.2474 58.0322 58.1716 58.2152 58.1716 58.4061C58.1716 58.4061 58.1716 58.4061 58.1716 58.4061C58.174 61.0754 58.3859 63.7259 58.7075 66.3598C58.7093 66.3747 58.7112 66.3897 58.713 66.4047C58.887 68.3305 60.4654 69.8013 61.8872 70.5721C61.9003 70.5797 61.9134 70.5873 61.9265 70.5948C63.2441 71.3793 65.0405 71.767 66.6141 71.171C66.6376 71.1626 66.6612 71.1539 66.6848 71.1451C70.8857 69.363 72.1259 64.8867 72.9684 61.1647C72.9739 61.1381 72.9793 61.1116 72.9846 61.085C73.4826 58.2587 72.8643 55.5543 72.0736 52.973C72.0618 52.9364 72.05 52.9001 72.0381 52.864C71.7239 51.9119 71.2896 50.9397 70.5458 50.1459C69.9227 49.4725 69.0941 49.008 68.2636 48.7347C68.2098 48.7167 68.1556 48.6991 68.1008 48.6821C63.3201 47.2884 58.5514 49.3018 54.6194 51.6103C54.5614 51.6451 54.5035 51.6801 54.4458 51.7152C50.7232 53.9009 48.0642 57.6085 46.534 61.5185C46.5008 61.5997 46.4678 61.6808 46.4352 61.762C44.4095 66.8093 44.1032 72.4406 45.26 77.7411C45.2838 77.8474 45.3079 77.9518 45.3321 78.0544C46.1501 81.7309 48.764 85.0008 52.1485 86.6714C52.2677 86.732 52.3876 86.7909 52.5088 86.8484C58.8864 89.109 64.6181 86.3777 70.2481 85.288C70.3573 85.2625 70.4664 85.2372 70.5754 85.212C80.6276 81.3372 84.6452 71.3548 89.3483 63.0606C89.39 62.9793 89.4315 62.8983 89.4728 62.8174C91.6959 57.6971 89.7958 52.4357 88.6902 47.5798C88.6673 47.4906 88.6444 47.4015 88.6216 47.3124C87.4988 42.8984 84.1243 39.5973 80.7172 36.9815C80.6254 36.9113 80.5329 36.8412 80.4399 36.7712C68.799 29.5552 55.3896 35.9765 44.4489 40.5795C44.4209 40.5923 44.3929 40.6052 44.3651 40.6182C32.8181 48.2335 35.1133 62.618 32.671 73.7478C32.6514 73.8802 32.6335 74.0116 32.6175 74.1419C31.8949 78.4681 33.9004 83.0025 36.6109 86.0936C36.6926 86.1949 36.7754 86.2954 36.8592 86.395C44.0652 94.5867 55.0792 97.831 65.5469 97.8353C65.6485 97.8333 65.7499 97.8305 65.851 97.827C78.6866 97.1587 86.3944 85.9479 92.9257 76.8417C93.0201 76.7085 93.1131 76.5753 93.2047 76.4421C101.278 65.6051 97.4154 51.371 93.8096 39.867C93.7295 39.5742 93.6419 39.2858 93.5461 38.9988C91.8541 33.9398 88.0481 30.0339 84.2275 26.7092C84.0058 26.5161 83.7798 26.33 83.5497 26.1511C74.1802 19.4068 62.4316 22.1432 52.4109 24.037C52.1059 24.1007 51.8026 24.169 51.501 24.242C39.9854 27.0197 31.4718 36.399 26.3382 46.4768C26.2229 46.7021 26.1101 46.9266 25.9996 47.1503C19.1488 59.3833 21.6885 74.5033 26.5078 86.6457C26.6065 86.9477 26.7096 87.2446 26.8183 87.5403C29.3938 94.6657 34.9246 100.253 40.7501 104.544C41.0043 104.736 41.2638 104.922 41.5284 105.101C55.7813 113.319 72.574 109.584 86.4738 103.665C86.7691 103.526 87.0597 103.383 87.3488 103.234C94.4948 99.5075 99.159 93.0035 103.763 87.111C103.948 86.8733 104.134 86.6216 104.307 86.3749C110.195 76.8475 110.889 65.957 112.221 55.5408C112.248 55.2916 112.272 55.0428 112.293 54.7944C113.659 38.3291 103.885 24.1296 95.2062 11.496C95.0726 11.3045 94.9363 11.116 94.7973 10.9306C88.9668 3.21415 79.1194 1.08421 70.4669 0.186293C70.2617 0.165602 70.0563 0.146598 69.8507 0.12925C58.7025 -0.72491 48.0863 2.78984 38.064 6.46575C37.9204 6.51923 37.7773 6.57325 37.6346 6.62781C27.7434 10.3692 19.2384 17.1999 12.7397 25.3505L12.6565 25.4647C12.6062 25.5424 12.556 25.6204 12.5059 25.6985C11.2928 27.5903 10.192 29.5459 9.18949 31.5479C5.4027 39.1279 3.02009 47.2735 1.43363 55.4844L1.42899 55.5084C1.42458 55.5372 1.42019 55.5659 1.41582 55.5945C0.661487 60.4757 0.296891 65.3919 0.00119275 70.2852C-0.00553927 70.3943 0.0317782 70.5022 0.103988 70.5852C0.176253 70.6682 0.277492 70.7195 0.386383 70.7279C0.495274 70.7363 0.603169 70.7011 0.687281 70.6301C0.771337 70.5591 0.824723 70.4581 0.834745 70.3493C0.834745 70.3493 0.834745 70.3493 0.834745 70.3493C1.27598 65.4659 1.7354 60.5956 2.67157 55.8115C2.67701 55.7834 2.68247 55.7552 2.68795 55.7271L2.6833 55.7511C4.57689 47.6992 7.56402 39.9293 11.499 32.7593C12.5415 30.8627 13.6515 29.0103 14.833 27.2065C14.8818 27.132 14.9307 27.0577 14.9797 26.9835L14.8964 27.0977C21.2378 19.3062 29.342 12.9097 38.6842 9.37338C38.8191 9.32179 38.9545 9.2707 39.0903 9.22009C48.998 5.56647 59.2841 2.12911 69.6245 2.88854C69.8153 2.90368 70.0057 2.92037 70.1958 2.93862C78.6364 3.74933 87.6479 5.88414 92.6865 12.5248C92.8089 12.6855 92.9291 12.8488 93.0472 13.015C101.833 25.5202 111.596 39.1057 110.285 54.6218C110.265 54.8563 110.242 55.0912 110.217 55.3265C108.944 65.6073 107.919 76.5963 102.503 85.1002C102.349 85.316 102.184 85.5342 102.022 85.738C97.3419 91.6243 92.555 97.5771 86.1395 100.892C85.8792 101.026 85.6179 101.155 85.3529 101.279C72.1758 107.018 55.4559 110.288 42.9936 102.938C42.7633 102.782 42.5375 102.622 42.3165 102.458C36.5822 98.2927 31.1177 93.4496 28.7127 86.8439C28.6124 86.5712 28.5175 86.2976 28.4267 86.0192C23.6027 73.6319 21.5064 59.883 27.9903 48.1332C28.0961 47.9189 28.2042 47.7036 28.3147 47.4874C33.261 37.7551 41.2716 28.8142 51.9739 26.1712C52.2547 26.1014 52.5372 26.0359 52.8213 25.9748C62.7488 23.9708 74.1482 21.5779 82.4504 27.5756C82.6574 27.7339 82.8613 27.8976 83.0621 28.0671C86.8823 31.2796 90.7512 34.7194 92.3362 39.4048C92.4254 39.6693 92.5069 39.9349 92.5813 40.2044C96.2695 51.8741 99.9293 65.3868 92.2179 75.764C92.1299 75.892 92.0403 76.0201 91.9493 76.148C85.4338 85.3104 77.2195 95.4566 65.7864 95.8627C65.6948 95.8655 65.603 95.8677 65.511 95.8692C55.5859 95.8607 44.944 92.5914 38.4101 85.0913C38.3337 85.0004 38.2579 84.909 38.1828 84.8171C35.5515 81.7944 33.5895 78.2846 34.1805 74.3345C34.1949 74.2173 34.211 74.0989 34.2288 73.9793C36.4673 62.8485 35.4138 48.3162 45.1525 42.3073C45.1759 42.2964 45.1994 42.2856 45.223 42.2748C56.0087 37.6459 69.1355 31.4281 79.638 37.8536C79.7298 37.9204 79.8209 37.9872 79.9114 38.0541C83.2732 40.5444 86.6134 43.5043 87.6556 47.5614C87.6786 47.6502 87.7016 47.7391 87.7244 47.828C88.8618 52.6383 90.5675 57.9271 88.5694 62.3542C88.5282 62.4343 88.4868 62.5146 88.4451 62.5951C83.8992 70.7901 78.869 80.5677 70.2173 83.598C70.1064 83.6216 69.9955 83.6454 69.8845 83.6694C64.2678 84.7562 58.1899 87.0257 53.3082 85.1668C53.2016 85.1161 53.0963 85.0643 52.9915 85.0111C50.0365 83.5439 47.6376 80.9319 46.8087 77.6858C46.7834 77.5902 46.7584 77.4927 46.7337 77.3933C45.521 72.4184 45.626 66.9984 47.5463 62.2077C47.5778 62.1292 47.6096 62.0507 47.6417 61.9723C49.1332 58.1877 51.621 54.833 55.0961 52.7851C55.1518 52.7512 55.2077 52.7175 55.2637 52.6839C59.0545 50.4398 63.5604 48.5353 67.7757 49.7434C67.8231 49.7577 67.8698 49.7723 67.9158 49.7872C68.6307 50.0169 69.2671 50.3708 69.7605 50.89C70.3484 51.5008 70.7415 52.3228 71.0285 53.1956C71.0397 53.2299 71.051 53.2645 71.0623 53.2994C71.8265 55.7542 72.3359 58.4258 71.8578 60.8489C71.8523 60.8744 71.8467 60.8999 71.8411 60.9254C71.0225 64.5274 69.5365 68.6163 66.214 69.8577C66.1967 69.8637 66.1795 69.8696 66.1623 69.8754C65.0245 70.2698 63.7841 69.9422 62.6777 69.2926C62.6658 69.2857 62.6538 69.2788 62.6419 69.2718C61.3229 68.533 60.2799 67.571 60.1413 66.2277C60.1395 66.213 60.1377 66.1983 60.1359 66.1836C59.8199 63.5977 59.6127 60.9915 59.6108 58.4061Z" fill="#DAE562"/>
</svg>
