<svg width="69" height="71" viewBox="0 0 69 71" fill="none" xmlns="http://www.w3.org/2000/svg">
<path d="M34.6262 25.3624C34.5581 25.1543 34.4101 24.9817 34.2148 24.8827C34.0194 24.7837 33.7927 24.7664 33.5846 24.8345C33.3764 24.9026 33.2039 25.0506 33.1049 25.246C33.0059 25.4413 32.9885 25.668 33.0566 25.8761C33.0722 25.923 33.0822 25.9534 33.1064 26.0151C33.139 26.0791 33.1154 26.0945 33.2779 26.3176C33.3047 26.3493 33.3221 26.3715 33.3805 26.4239C33.4501 26.4838 33.5561 26.5625 33.7286 26.6084C33.8879 26.6574 34.16 26.6367 34.33 26.5386C34.5026 26.4487 34.5986 26.3176 34.622 26.2858C34.7643 26.0695 34.7503 26.019 34.7719 25.9604C34.7975 25.8555 34.8018 25.8035 34.8077 25.758C34.8279 25.5702 34.8299 25.4436 34.8343 25.3039C34.841 25.0354 34.8413 24.7764 34.8414 24.5205C34.841 24.0096 34.8373 23.5031 34.8349 22.9942C34.8298 21.9806 34.8282 20.9712 34.8332 19.9562C34.8334 19.9267 34.8335 19.8973 34.8337 19.8679C34.834 19.8064 34.8344 19.745 34.8349 19.6836C34.8883 15.2468 35.0772 10.7436 35.8633 6.44614C35.9021 6.2517 35.9433 6.05869 35.9864 5.87306C36.038 5.65316 36.0775 5.49804 36.1265 5.35392C36.1336 5.3322 36.1505 5.29399 36.1406 5.31537C36.134 5.32705 36.1219 5.35435 36.0749 5.41159C36.0352 5.45004 35.8925 5.65501 35.511 5.67583C35.3286 5.68253 35.1442 5.60923 35.0383 5.52979C34.9277 5.44457 34.9279 5.43218 34.8903 5.38986C34.7052 5.10605 34.7862 5.16767 34.771 5.16792C34.7733 5.18063 34.7785 5.21779 34.7824 5.26147C34.8097 5.59334 34.8059 5.98162 34.7993 6.39337C34.7838 7.18401 34.7438 8.00927 34.6995 8.81024C34.6088 10.4264 34.4905 12.0581 34.3649 13.6805C34.1092 16.9253 33.8303 20.2008 33.5118 23.4084C33.4961 23.5635 33.4514 23.6361 33.4391 23.6464C33.4286 23.6565 33.4035 23.6843 33.281 23.7C33.1276 23.7199 32.8743 23.6983 32.6487 23.6285C32.2237 23.4911 31.7841 23.2987 31.3673 23.0517C27.8914 20.923 25.0375 17.6567 21.1405 15.4133C20.8526 15.2571 20.5578 15.1046 20.2506 14.9611C19.387 14.6479 18.6685 13.7944 16.9225 14.2763C16.7156 14.3568 16.5306 14.4466 16.3296 14.5903C16.1057 14.7571 15.9135 14.9386 15.735 15.256C15.4978 15.6626 15.45 16.2292 15.5239 16.5897C15.6003 17.0005 15.7318 17.2615 15.8671 17.5062C16.1489 17.9907 16.4389 18.3122 16.7364 18.6265C17.3332 19.2415 17.9392 19.732 18.5539 20.2068C19.7875 21.1494 21.0387 21.9773 22.2908 22.792C24.7286 24.4067 27.5456 25.9765 29.34 27.6093C30.2352 28.4942 31.3703 28.6656 32.4339 28.3517C32.5778 28.306 32.7198 28.2421 32.8563 28.1606C33.5844 27.7074 33.9474 26.8743 34.2866 26.2688C36.3087 20.6354 34.5851 15.898 35.0335 10.8919C35.0496 10.475 35.0849 10.0616 35.1419 9.65322C35.3313 8.29401 35.7936 6.94167 36.5562 5.92859C36.5044 6.00142 36.3989 6.11003 36.2337 6.17007C36.0677 6.23135 35.911 6.21508 35.825 6.19233C35.6532 6.14122 35.6399 6.10612 35.6209 6.09717C35.598 6.07818 35.6319 6.11338 35.6576 6.1536C35.7151 6.23854 35.7817 6.36176 35.8373 6.48598C35.9289 6.68796 35.9441 6.94291 35.8991 7.11202C35.8475 7.33331 35.7373 7.5474 35.7028 7.86531C35.5576 9.00831 35.6995 10.3647 35.6897 11.6264C35.6866 11.9023 35.6727 12.1872 35.6441 12.4594C35.3075 15.712 34.9219 18.9476 34.4428 22.1778C34.1329 24.2782 33.791 26.368 33.4197 28.4606C33.4197 28.4606 33.4197 28.4606 33.4197 28.4606C33.9281 26.397 34.3971 24.3297 34.8367 22.2484C35.5152 19.0492 36.1074 15.828 36.7003 12.6134C36.7506 12.3449 36.8188 12.0689 36.896 11.806C37.2451 10.577 37.8355 9.46835 38.0077 8.1204C38.0499 7.73863 37.9865 7.23825 37.8031 6.76369C37.6528 6.37287 37.469 6.08809 37.3161 5.77627C37.2197 5.58516 37.1151 5.40073 36.9674 5.20162C36.8895 5.10037 36.8138 4.99999 36.656 4.86602C36.5701 4.80145 36.4841 4.71483 36.2269 4.6405C36.0982 4.60661 35.8967 4.58886 35.689 4.66529C35.4825 4.74037 35.344 4.87769 35.2651 4.9876C34.3218 6.37141 33.9003 7.91513 33.6786 9.44886C33.6146 9.90763 33.5734 10.3677 33.552 10.8286C33.1484 15.7633 34.2309 21.433 32.6181 25.2772C32.3841 25.6496 31.9056 25.6482 31.6111 25.705C31.6048 25.6958 31.598 25.6921 31.5894 25.6948C31.5132 25.7368 31.2931 25.6606 31.3425 25.677C28.7416 23.3643 26.2184 22.1685 23.7071 20.556C22.4614 19.7845 21.2273 19.0065 20.0806 18.1713C19.5131 17.7556 18.9643 17.3234 18.5169 16.8809C18.2969 16.6633 18.1057 16.4387 18.0047 16.2706C17.9556 16.1923 17.9384 16.1321 17.9429 16.1578C17.9499 16.1732 17.9433 16.3316 17.8843 16.4234C17.7955 16.5599 17.7828 16.482 17.909 16.396C17.8457 16.3503 18.1163 16.2343 18.4475 16.2613C18.7807 16.2781 19.1654 16.3738 19.5259 16.5369C19.7916 16.657 20.0594 16.791 20.3278 16.9323C23.8521 18.878 26.7826 22.0961 30.5509 24.4285C31.0191 24.7054 31.4936 24.993 32.0248 25.2293C32.4617 25.4142 32.9288 25.5314 33.485 25.4738C33.8995 25.431 34.411 25.2408 34.7638 24.8425C35.1194 24.447 35.2455 23.9765 35.285 23.5932C35.5983 20.3306 35.8356 17.0689 36.0549 13.8019C36.162 12.1707 36.2623 10.5303 36.3396 8.89427C36.3771 8.08206 36.4118 7.2469 36.4233 6.4188C36.4266 5.97516 36.4348 5.60526 36.3937 5.10809C36.3866 5.03467 36.377 4.95562 36.3631 4.87947C36.3369 4.81467 36.3815 4.71059 36.1506 4.37602C36.1064 4.32595 36.1049 4.31074 35.9824 4.2164C35.8654 4.12903 35.6695 4.05185 35.4751 4.05881C35.0707 4.07888 34.8975 4.30653 34.8366 4.37121C34.7683 4.45374 34.7338 4.51641 34.7036 4.57385C34.6745 4.63037 34.6512 4.68514 34.6324 4.7335C34.6211 4.76249 34.6104 4.79159 34.6001 4.82134C34.5076 5.09842 34.473 5.2542 34.4125 5.50862C34.3653 5.71306 34.3209 5.92181 34.2794 6.12999C33.4543 10.6552 33.2419 15.1517 33.1834 19.6715C33.1829 19.7338 33.1825 19.7961 33.1822 19.8585C33.182 19.8884 33.1819 19.9183 33.1817 19.9482C33.1767 20.9695 33.1782 21.9859 33.1834 23.0023C33.1858 23.5121 33.1895 24.0199 33.1899 24.521C33.1898 24.7706 33.1893 25.0248 33.1833 25.2607C33.1804 25.3767 33.1748 25.5024 33.1673 25.5671C33.1666 25.5774 33.1617 25.5948 33.1717 25.552C33.1855 25.5234 33.1616 25.5059 33.2872 25.3132C33.3079 25.2853 33.3956 25.1635 33.5616 25.0767C33.7247 24.9823 33.9892 24.9621 34.1419 25.0094C34.3075 25.0534 34.4063 25.128 34.4685 25.1814C34.5205 25.228 34.5346 25.2465 34.5563 25.2721C34.6784 25.4421 34.6321 25.3986 34.6415 25.4061C34.6389 25.3994 34.6336 25.3851 34.6262 25.3624Z" fill="#6942B5"/>
<path d="M39.1141 6.04322C39.0884 5.64287 38.9046 5.26914 38.6033 5.00424C38.3021 4.73935 37.9079 4.60499 37.5075 4.63073C37.1072 4.65646 36.7335 4.84018 36.4686 5.14147C36.2037 5.44275 36.0693 5.83693 36.095 6.23728C36.163 6.87811 36.3444 7.09135 36.4634 7.31402C36.5909 7.52138 36.7176 7.68437 36.8353 7.82675C37.0752 8.11398 37.3069 8.34488 37.5404 8.56494C38.0078 9.00187 38.4699 9.37367 38.9457 9.73455C39.889 10.4463 40.8555 11.0799 41.8386 11.6787C42.9228 12.3377 44.024 12.9474 45.1415 13.5234C45.2479 13.5782 45.3558 13.632 45.4651 13.6848C47.2992 14.588 49.3129 14.6415 50.7431 15.1631C50.8807 15.2161 51.0083 15.2718 51.1194 15.329C51.2005 15.3728 51.2369 15.391 51.3217 15.4365C51.3534 15.4529 51.386 15.4706 51.4436 15.5C51.4446 15.5005 51.4457 15.501 51.4468 15.5016C51.4505 15.5034 51.4643 15.5108 51.4881 15.5221C51.5016 15.5284 51.5167 15.5359 51.5556 15.5515C51.5761 15.5594 51.6011 15.5696 51.6542 15.5852C51.7181 15.5959 51.7587 15.64 52.0677 15.6232C52.2113 15.6038 52.5668 15.5637 52.8645 15.1486C53.1522 14.7165 53.0403 14.2918 52.9802 14.1423C52.8364 13.8201 52.7704 13.8125 52.728 13.7567C52.6469 13.679 52.6286 13.6705 52.6077 13.6538C52.5745 13.6294 52.5539 13.6166 52.5584 13.6194C52.5567 13.6184 52.5552 13.6174 52.5537 13.6164C52.5479 13.6127 52.5433 13.6098 52.539 13.6072C52.5306 13.602 52.524 13.598 52.5173 13.5941C52.5048 13.5867 52.4899 13.5779 52.4789 13.5717C52.4647 13.5637 52.449 13.555 52.4313 13.5451C52.2992 13.4718 52.1692 13.4012 52.043 13.3328C51.7857 13.1932 51.5338 13.0579 51.279 12.9214C50.7704 12.649 50.2598 12.3776 49.7505 12.1078C48.7294 11.5669 47.7107 11.0311 46.689 10.4927C44.6496 9.41845 42.6105 8.3397 40.5848 7.23777C40.508 7.19603 40.4332 7.15477 40.3583 7.11283C40.0495 6.94 39.7831 6.69475 39.5298 6.43941C39.4016 6.31082 39.2785 6.18074 39.145 6.05137C39.0775 5.98632 39.0101 5.9229 38.9251 5.85388C38.8826 5.81963 38.8361 5.78357 38.7665 5.73906C38.7318 5.71723 38.6891 5.69098 38.6169 5.65697C38.5745 5.63801 38.5359 5.61957 38.4453 5.59233C38.3604 5.57806 38.2475 5.50321 37.8603 5.57482C37.7369 5.59899 37.6117 5.63388 37.4805 5.69106C37.3085 5.77295 37.1538 5.84174 36.9269 6.09448C36.7092 6.3343 36.5739 6.74905 36.607 7.07138C36.6761 7.65326 36.8886 7.84533 37.0053 8.01849C37.2757 8.35202 37.4968 8.52865 37.724 8.71673C38.1711 9.07509 38.6042 9.36398 39.0399 9.64616C39.9124 10.2064 40.7773 10.708 41.6448 11.2045C43.3698 12.1947 45.1476 13.1356 46.7287 14.1279C46.9887 14.2942 47.2496 14.4593 47.5117 14.6233C49.8865 16.0882 52.3564 17.4108 55.1166 18.4179C55.2016 18.4469 55.2441 18.4754 55.2631 18.4922C55.2872 18.5133 55.3419 18.5716 55.3451 18.8501C55.3463 19.112 55.2796 19.4671 55.1791 19.826C54.9754 20.5512 54.6544 21.3253 54.3242 22.0954C53.6604 23.6507 52.8924 25.2218 52.3908 27.0193C52.3561 27.1471 52.3156 27.3022 52.2792 27.4459C52.2457 27.578 52.2104 27.7201 52.1734 27.8721C49.9304 37.7534 48.0165 47.6251 46.3514 57.6066C46.3332 57.7195 46.3154 57.8315 46.2978 57.9426C46.275 58.0864 46.2526 58.2196 46.2362 58.2979C46.234 58.3082 46.2328 58.3131 46.2341 58.3083C46.2347 58.3059 46.236 58.301 46.2386 58.292C46.2452 58.2816 46.2368 58.2543 46.3325 58.0764C46.4078 57.9976 46.4181 57.7647 47.0204 57.5548C47.1494 57.516 47.4139 57.4999 47.6116 57.5632C47.8169 57.6223 47.9714 57.7312 48.0706 57.8255C48.2676 58.0205 48.3078 58.1495 48.3447 58.2335C48.4431 58.5381 48.4039 58.5201 48.4131 58.5349C48.4146 58.5592 48.4141 58.5624 48.4141 58.5585C48.4137 58.5369 48.4164 58.4631 48.4192 58.4101C48.4321 58.1622 48.4541 57.8805 48.4753 57.6139C48.5194 57.0673 48.5685 56.5156 48.6183 55.9651C48.7187 54.8606 48.8235 53.7569 48.9312 52.6521C49.1479 50.443 49.372 48.2335 49.6436 46.0406L49.6367 46.0833C49.6876 45.7855 49.738 45.4933 49.7898 45.1964C50.5811 40.6693 51.4768 36.1588 52.4432 31.6659L52.4499 31.635C52.4688 31.5234 52.488 31.408 52.5063 31.2956C52.6106 30.6547 52.6883 30.0134 52.7511 29.3712C52.9667 27.1437 53.0082 24.9039 53.1542 22.6776C53.1542 22.6776 53.1542 22.6776 53.1542 22.6776C52.6456 24.8495 52.0422 27.009 51.5328 29.1689C51.3854 29.7913 51.2454 30.4138 51.1132 31.0341C51.09 31.1429 51.0659 31.2543 51.0423 31.3617L51.049 31.3309C49.8632 35.7986 48.846 40.3125 47.9226 44.8432C47.8621 45.1403 47.8028 45.4327 47.7427 45.7307L47.7358 45.7734C47.3943 47.9886 47.0914 50.198 46.8104 52.4147C46.6706 53.5231 46.5376 54.6305 46.4158 55.7449C46.3552 56.301 46.2972 56.8579 46.2454 57.4224C46.2203 57.7011 46.1951 57.9839 46.177 58.289C46.1731 58.3615 46.1681 58.4407 46.1674 58.5603C46.1675 58.5959 46.1678 58.6318 46.171 58.6818C46.1802 58.6998 46.1448 58.7286 46.2484 59.0431C46.2866 59.1305 46.3283 59.262 46.5268 59.4585C46.6268 59.5534 46.7821 59.6629 46.9882 59.7222C47.1867 59.7857 47.4522 59.7696 47.5819 59.7307C48.1871 59.5199 48.2006 59.2837 48.2795 59.1987C48.4519 58.8412 48.3854 58.927 48.4109 58.8674C48.4197 58.8333 48.4267 58.8028 48.4335 58.7716C48.4721 58.5881 48.4919 58.4617 48.5189 58.2964C48.5365 58.1865 48.5543 58.0757 48.5723 57.964C50.2205 48.0764 52.0967 38.125 54.2832 28.3834C54.3522 28.0973 54.4196 27.8266 54.4844 27.5849C54.8967 26.0755 55.6238 24.5393 56.3045 22.9443C56.6437 22.1435 56.9901 21.3242 57.2503 20.4003C57.3762 19.9346 57.4899 19.4405 57.493 18.8466C57.5036 18.2815 57.3208 17.4262 56.6839 16.8822C56.4148 16.6458 56.1286 16.4971 55.8439 16.3926C53.4314 15.4734 51.1626 13.9023 48.856 12.4737C48.5995 12.3133 48.3432 12.1522 48.0868 11.9903C46.3138 10.8946 44.5498 10.0227 42.8114 9.09021C41.9453 8.62815 41.0864 8.16517 40.2679 7.67525C39.863 7.43174 39.463 7.17845 39.1306 6.9277C38.9685 6.80675 38.8121 6.66678 38.7658 6.61166C38.7375 6.60171 38.7941 6.5623 38.8438 6.90663C38.867 7.0981 38.77 7.39727 38.6343 7.54069C38.4969 7.69248 38.429 7.70913 38.3873 7.73095C38.3566 7.74343 38.351 7.73946 38.3669 7.73088C38.0008 7.7976 37.9135 7.72807 37.8487 7.71936C37.7816 7.69885 37.7617 7.68782 37.7419 7.6785C37.71 7.66198 37.7102 7.65805 37.7139 7.65728C37.7237 7.65646 37.7573 7.66915 37.791 7.68206C37.8617 7.70986 37.946 7.74471 38.0322 7.77859C38.2058 7.84724 38.3887 7.91314 38.5718 7.97827C38.9364 8.10776 39.3002 8.23438 39.6278 8.41774C39.7074 8.46231 39.7867 8.50623 39.8679 8.55075C41.8814 9.65459 43.864 10.8214 45.8281 12.0133C46.8122 12.6105 47.7889 13.2126 48.7664 13.8202C49.2539 14.1233 49.7425 14.4281 50.2282 14.7326C50.4714 14.8851 50.7119 15.0362 50.9555 15.19C51.0738 15.2649 51.2 15.3443 51.3129 15.4172C51.3275 15.4266 51.3397 15.4346 51.3489 15.4408C51.3562 15.4456 51.3647 15.4511 51.3661 15.4523C51.3669 15.453 51.3664 15.4529 51.3631 15.451C51.3614 15.45 51.359 15.4485 51.3552 15.4461C51.3542 15.4455 51.3531 15.4448 51.352 15.444C51.3552 15.4461 51.341 15.4374 51.3087 15.4138C51.2887 15.3978 51.2711 15.3898 51.1903 15.3125C51.148 15.2568 51.0821 15.2493 50.9384 14.9272C50.8782 14.7777 50.7664 14.3531 51.054 13.921C51.3518 13.5059 51.7072 13.4659 51.8508 13.4465C52.1597 13.4297 52.2001 13.4738 52.2637 13.4843C52.3166 13.4999 52.3413 13.51 52.3614 13.5178C52.3995 13.5331 52.4137 13.5401 52.4258 13.5457C52.4475 13.5561 52.4556 13.5605 52.4574 13.5614C52.458 13.5617 52.4585 13.5619 52.459 13.5622C52.4766 13.5704 52.4235 13.5397 52.4029 13.5266C52.3291 13.482 52.2948 13.4597 52.2188 13.4134C52.0179 13.2916 51.821 13.1915 51.6286 13.1026C49.7414 12.306 48.1813 11.7473 46.8315 10.9939C46.7296 10.9395 46.6282 10.8861 46.527 10.834C45.465 10.2867 44.423 9.70938 43.4104 9.09387C42.4936 8.53576 41.5988 7.94697 40.7706 7.32167C40.3549 7.00695 39.9592 6.68545 39.6106 6.35899C39.4384 6.1975 39.2783 6.03331 39.1623 5.89352C39.1061 5.82647 39.0587 5.76007 39.0439 5.735C39.0229 5.72529 39.0678 5.67692 39.1141 6.04322Z" fill="#6942B5"/>
<path d="M9.49461 33.8287C9.71431 33.7568 9.89645 33.6005 10.001 33.3943C10.1055 33.1881 10.1238 32.9489 10.0519 32.7292C9.97998 32.5095 9.82375 32.3273 9.61756 32.2228C9.41136 32.1183 9.1721 32.1 8.9524 32.1719C8.9524 32.1719 8.9524 32.1719 8.9524 32.1719C8.88508 32.215 8.76423 32.1578 9.14478 32.2004C9.36448 32.2278 9.63168 32.5187 9.65286 32.6326C9.69835 32.7562 9.6883 32.7829 9.69096 32.7928C9.69099 32.7938 9.691 32.7945 9.691 32.7948C9.84609 29.9829 12.4666 27.0924 14.039 24.0667C14.2029 23.7756 14.3654 23.4809 14.5265 23.1822C14.6118 23.024 14.697 22.8642 14.7826 22.7017C15.4076 21.5345 15.7983 20.2279 16.0973 19.0484C16.1603 18.8141 16.226 18.5816 16.2902 18.4233C16.3311 18.3215 16.3506 18.2737 16.3848 18.1955C16.3912 18.1809 16.3955 18.1723 16.3939 18.1759C16.3939 18.1753 16.3932 18.1797 16.3716 18.2168C16.3588 18.237 16.3461 18.2629 16.2911 18.3287C16.2611 18.3622 16.2241 18.4081 16.1249 18.4775C16.0314 18.5363 15.8239 18.6754 15.4619 18.6055C15.0918 18.5266 14.9013 18.2233 14.8551 18.0942C14.8052 17.9615 14.8085 17.9352 14.7994 17.8828C14.7888 17.7943 14.7927 17.7531 14.7942 17.7207C14.7988 17.6597 14.8037 17.641 14.8062 17.6263C14.8155 17.5834 14.8014 17.6403 14.7898 17.6762C14.7452 17.8198 14.6895 17.9858 14.6307 18.1597C14.5208 18.4835 14.4029 18.822 14.2879 19.1493C14.0538 19.8154 13.8173 20.4764 13.578 21.1401C13.0978 22.4713 12.6122 23.7942 12.1196 25.1149C11.1299 27.7522 10.1314 30.4151 9.02965 32.9532C8.9978 33.0249 8.96377 33.0966 8.92775 33.168C8.45474 34.1035 7.58964 34.6649 6.69938 35.694C6.67879 35.7197 6.65988 35.7433 6.64273 35.7647C6.60624 35.8104 6.5675 35.8579 6.54288 35.8863C6.5395 35.8922 6.50439 35.9229 6.58248 35.8497C6.59339 35.84 6.60703 35.8282 6.62579 35.8133C6.63811 35.8037 6.63616 35.8046 6.66725 35.7818C6.73364 35.7418 6.79974 35.6651 7.1037 35.5868C7.25509 35.5544 7.51364 35.5226 7.82886 35.6517C8.14686 35.7753 8.39744 36.0844 8.47864 36.3046C8.56855 36.5306 8.56888 36.6793 8.56924 36.7822C8.56821 36.8293 8.56647 36.8478 8.56401 36.8753C8.55383 36.9756 8.5389 37.0309 8.52769 37.0732C8.48121 37.2264 8.47235 37.2208 8.47222 37.2261C8.48006 37.2086 8.56094 37.0667 8.62346 36.9625C8.7536 36.7443 8.90732 36.4948 9.04421 36.2727C9.33319 35.8045 9.62449 35.3353 9.91481 34.864C10.4974 33.9188 11.0743 32.9702 11.6416 32.0133C12.7744 30.0935 13.8853 28.1645 14.8727 26.1084C15.0255 25.7869 15.1705 25.4624 15.3079 25.1354C16.2851 22.7336 16.9552 20.2253 16.7947 17.4684C16.7714 17.2202 16.7566 17.0726 16.702 16.7884C16.6802 16.6881 16.6593 16.5831 16.5966 16.414C16.5552 16.319 16.5657 16.3073 16.4356 16.108C16.31 15.9543 16.1446 15.701 15.6138 15.6687C15.3873 15.6655 15.1871 15.7532 15.0849 15.8175C15.003 15.8676 14.9416 15.9191 14.8907 15.9678C14.7905 16.064 14.7227 16.1624 14.6921 16.2085C14.6185 16.3184 14.5498 16.4542 14.5157 16.5287C14.3405 16.915 14.2541 17.2037 14.149 17.5429C13.9568 18.1854 13.8055 18.8036 13.6581 19.4318C13.3645 20.6938 13.1127 21.9335 12.8625 23.1861C12.3598 25.6726 11.9188 28.2198 11.3336 30.6173C11.1369 31.3528 10.8683 32.0699 10.5343 32.7548C9.8919 34.0797 8.91435 35.1874 7.81903 36.2042C7.84069 36.1436 7.88426 36.1369 7.75292 36.1204C7.69355 36.1106 7.61463 36.0939 7.50828 36.0701C7.45354 36.0583 7.395 36.0445 7.30177 36.0302C7.25489 36.0237 7.19945 36.0149 7.09688 36.0145C7.04279 36.0156 6.97685 36.0151 6.85422 36.0423C6.74485 36.0759 6.47393 36.1192 6.22849 36.4925C6.04321 36.764 5.88498 37.1646 5.91485 37.6054C6.06699 38.7848 6.51899 39.4321 6.99304 39.819C11.694 42.5224 16.0565 43.8121 20.3127 46.2167C20.869 46.5189 21.405 46.8103 21.9514 47.1092C27.9725 50.4363 34.0936 53.5488 39.9028 57.1582C40.0916 57.275 40.2787 57.3881 40.4686 57.5004C42.6433 58.8182 45.1575 59.8086 47.2838 60.7641C47.3655 60.8147 47.4109 60.8425 47.4954 60.8918C43.7788 55.3695 36.8507 52.76 31.4435 48.8151C31.2741 48.7055 31.1045 48.5973 30.9347 48.4905C25.6614 45.1522 19.7977 42.8938 14.0185 40.7732C13.8816 40.7217 13.747 40.6688 13.6147 40.6149C12.2301 40.0427 10.8523 39.3087 9.69365 38.6242C9.51992 38.5179 9.35472 38.4031 9.24603 38.3053C9.15655 38.2277 9.08438 38.1617 9.03147 38.1098C8.97465 38.0595 8.88882 37.9505 8.96145 38.0409C8.97505 38.0609 8.99456 38.0906 9.01926 38.1427C9.03153 38.1689 9.04506 38.2009 9.05845 38.2418C9.06963 38.2885 9.09037 38.3033 9.10321 38.5012C9.11262 38.6697 9.05312 38.9389 8.89014 39.1355C8.73019 39.3348 8.53332 39.4227 8.40908 39.4585C8.20042 39.5096 8.20773 39.4913 8.14362 39.4956C7.96465 39.4845 8.02201 39.4808 8.02833 39.4889C8.07313 39.5053 8.16009 39.5414 8.24285 39.579C8.58599 39.735 8.99818 39.9509 9.35874 40.1445C10.1214 40.5545 10.8833 40.9859 11.6468 41.4211C13.1811 42.2972 14.6954 43.1803 16.2263 44.0614C19.3059 45.8151 22.3019 47.592 25.6646 49.1106L25.6131 49.0874C25.9499 49.2484 26.2853 49.4029 26.6214 49.5538C29.1249 50.6704 31.7892 51.269 34.4323 51.8974C36.0135 52.2711 37.5907 52.6501 39.1272 53.1339C39.2301 53.1688 39.3307 53.2036 39.4353 53.241C41.2328 53.8695 42.9613 54.7274 44.4346 55.9487C44.4364 55.9502 44.4388 55.9509 44.4412 55.9507C44.4436 55.9504 44.4458 55.9493 44.4473 55.9474C44.4488 55.9456 44.4495 55.9432 44.4493 55.9409C44.4491 55.9385 44.448 55.9363 44.4462 55.9347C44.4462 55.9347 44.4462 55.9347 44.4462 55.9347C43.0105 54.6605 41.2592 53.8162 39.5145 53.0444C39.4128 52.9987 39.3155 52.9545 39.2138 52.9082C37.7323 52.2711 36.2984 51.5146 34.8823 50.7315C32.5161 49.4202 30.1822 48.0447 27.7802 46.9729C27.4584 46.8284 27.1392 46.6827 26.824 46.5345L26.7725 46.5113C23.7005 45.1513 20.549 43.4567 17.4217 41.8656C15.8531 41.06 14.293 40.2578 12.7009 39.4556C11.9074 39.0567 11.1161 38.6616 10.3004 38.2749C9.90858 38.0911 9.48084 37.8893 9.02378 37.708C8.90515 37.662 8.79064 37.6173 8.61957 37.5664C8.57719 37.5542 8.54617 37.5457 8.48761 37.5321C8.40754 37.5143 8.32243 37.4958 8.18317 37.4925C8.14797 37.492 8.10883 37.4929 8.06379 37.4968C8.04127 37.4987 8.01727 37.5015 7.99152 37.5054C7.97059 37.509 7.93025 37.5138 7.85042 37.5366C7.70858 37.5775 7.49854 37.6733 7.32993 37.8834C7.15828 38.0908 7.09465 38.3736 7.10454 38.5588C7.11853 38.7769 7.14257 38.7993 7.15628 38.8548C7.17253 38.9046 7.18982 38.9461 7.20674 38.9823C7.24074 39.0545 7.27314 39.1065 7.30325 39.1512C7.65596 39.5958 7.75867 39.6141 7.99122 39.8167C8.24844 40.0213 8.49105 40.1656 8.72705 40.2969C10.2228 41.0829 11.7199 41.3492 13.1738 41.8289C13.3113 41.8729 13.4498 41.9187 13.5892 41.9666C19.4449 43.9243 25.3009 45.9033 30.4952 49.1891C30.662 49.2941 30.8285 49.4004 30.9946 49.5081C36.767 52.8745 41.989 58.0908 48.0204 59.9971C47.955 59.9579 47.9122 59.9308 47.8376 59.8834C45.3998 58.7275 43.2277 57.795 41.1315 56.4233C40.9529 56.3087 40.7773 56.1936 40.6002 56.0749C34.8664 52.2145 28.8655 48.8428 23.0056 45.2743C22.4731 44.9533 21.9529 44.6368 21.4136 44.3073C17.2859 41.6869 12.3904 39.6379 8.64 37.4811C8.33283 37.2939 7.87799 37.2705 7.89108 37.4186C7.88464 37.4852 7.83837 37.5269 7.85066 37.4728C7.62151 37.8193 7.38124 37.85 7.30129 37.8763C7.20805 37.8965 7.17322 37.8934 7.14985 37.8936C7.10765 37.8916 7.11649 37.8876 7.1288 37.8865C7.15827 37.8839 7.22171 37.8868 7.28877 37.8896C7.4258 37.8953 7.59214 37.9019 7.77869 37.8884C8.13261 37.8694 8.69693 37.729 9.0454 37.2888C9.98654 36.0382 10.8417 34.6677 11.5311 33.2406C11.8938 32.4968 12.1948 31.7193 12.4249 30.9214C13.0856 28.4267 13.6284 25.9591 14.2608 23.5026C14.5738 22.2726 14.8917 21.0577 15.241 19.8444C15.4154 19.2428 15.594 18.6502 15.795 18.0798C15.899 17.7871 16.0018 17.5191 16.1112 17.3077C16.1314 17.2689 16.1649 17.2142 16.1678 17.2146C16.1694 17.2125 16.1686 17.222 16.1234 17.2674C16.1006 17.2893 16.0668 17.3193 16.0119 17.3531C15.945 17.3955 15.7899 17.4672 15.6013 17.465C15.1563 17.438 15.033 17.225 14.9625 17.1448C14.896 17.0435 14.9126 17.0582 14.9034 17.0436C14.899 17.0342 14.9113 17.0824 14.9175 17.1269C14.9397 17.2717 14.9485 17.3983 14.9589 17.5971C15.0002 19.7859 14.2675 22.1567 13.3298 24.279C13.1986 24.5722 13.0602 24.8628 12.915 25.1502C11.9433 27.0554 10.7966 28.934 9.64151 30.7991C9.06207 31.7312 8.47427 32.6596 7.88213 33.5935C7.58678 34.0596 7.29152 34.5246 6.99449 34.9984C6.85303 35.2243 6.69572 35.4765 6.54859 35.721C6.46726 35.8597 6.41376 35.9373 6.29263 36.1767C6.28558 36.1957 6.24681 36.2555 6.19556 36.4302C6.18253 36.4791 6.16646 36.54 6.15583 36.6449C6.15326 36.6737 6.15146 36.693 6.1504 36.7415C6.15071 36.8476 6.15141 36.9989 6.24213 37.2268C6.32412 37.4489 6.57594 37.7594 6.89561 37.8837C7.21249 38.0135 7.47315 37.9818 7.62708 37.9487C7.93613 37.8693 8.00907 37.789 8.08411 37.7427C8.12001 37.7164 8.11822 37.7172 8.13317 37.7055C8.15629 37.6871 8.17467 37.6713 8.19069 37.657C8.31167 37.5458 8.33951 37.5051 8.3701 37.472C8.43829 37.3931 8.48487 37.3349 8.53259 37.2754C8.55426 37.2483 8.57679 37.2196 8.60032 37.1892C9.24356 36.409 10.0578 35.2288 10.6385 34.0134C10.6866 33.9145 10.7328 33.8136 10.7766 33.7109C11.8832 31.0604 12.8409 28.4011 13.8076 25.7334C14.287 24.401 14.7596 23.0678 15.2275 21.7248C15.4608 21.0552 15.6912 20.3883 15.9204 19.7129C16.033 19.3807 16.1486 19.0375 16.2585 18.7017C16.3182 18.5188 16.372 18.3534 16.427 18.1693C16.4482 18.0928 16.444 18.1261 16.4827 17.9553C16.4875 17.9291 16.4938 17.9014 16.4988 17.8339C16.5005 17.7984 16.5044 17.7546 16.4935 17.6641C16.4843 17.6108 16.4875 17.5838 16.4372 17.4502C16.3906 17.3201 16.1995 17.0162 15.8287 16.9372C15.4661 16.8671 15.2577 17.0065 15.1632 17.0659C15.063 17.136 15.0249 17.1831 14.9935 17.2181C14.936 17.2869 14.92 17.3176 14.9034 17.3442C14.8758 17.3906 14.8572 17.4311 14.8582 17.4288C14.8439 17.4585 14.8325 17.4842 14.8202 17.5127C14.7659 17.6405 14.7508 17.6813 14.7056 17.7959C14.5868 18.1062 14.5236 18.3637 14.457 18.6169C14.1624 19.8287 13.8462 20.912 13.3094 21.9289C13.2273 22.0859 13.1454 22.2402 13.063 22.3929C12.9074 22.6815 12.7496 22.9662 12.5898 23.2478C11.0832 26.2803 8.35199 28.6085 7.94779 32.8012C7.94784 32.8139 7.94803 32.8266 7.94837 32.8395C7.95391 32.9439 7.95385 33.0675 8.03438 33.2802C8.08863 33.4831 8.43009 33.8504 8.74471 33.8971C9.0413 33.9578 9.18101 33.9084 9.2847 33.8898C9.38604 33.8656 9.44854 33.8434 9.49461 33.8287Z" fill="#6942B5"/>
</svg>
