<svg width="204" height="141" viewBox="0 0 204 141" fill="none" xmlns="http://www.w3.org/2000/svg">
<path d="M128.595 73.939C128.764 74.18 129.022 74.3442 129.312 74.3952C129.601 74.4463 129.9 74.3801 130.141 74.2112C130.382 74.0423 130.546 73.7846 130.597 73.4947C130.648 73.2048 130.582 72.9065 130.413 72.6654C130.413 72.6654 130.413 72.6654 130.413 72.6654C126.57 67.193 122.13 61.7187 116.043 58.286C116.029 58.2775 116.014 58.269 115.999 58.2605C111.637 55.8435 106.888 54.6224 102.275 53.1557C101.435 52.8922 100.595 52.6235 99.761 52.3444C99.7479 52.34 99.7347 52.3356 99.7216 52.3312C92.5567 49.9626 85.2957 47.932 77.9569 46.1741C77.9511 46.1727 77.9452 46.1714 77.9394 46.17C72.513 44.9134 66.8351 43.9324 61.1579 44.8941C61.1555 44.8945 61.1531 44.8949 61.1507 44.8953C58.0612 45.353 56.0198 48.1138 55.0508 50.6336C55.0495 50.6369 55.0482 50.6402 55.0468 50.6435C53.7961 54.3372 55.5738 57.4951 56.6332 60.4126C56.6343 60.4153 56.6354 60.4179 56.6364 60.4206C58.6631 65.1963 62.5508 68.4394 66.0824 71.7368C66.0921 71.7456 66.1019 71.7545 66.1117 71.7634C69.1761 74.5319 72.7379 76.5396 76.2498 78.5165C76.2644 78.5246 76.279 78.5328 76.2937 78.5409C82.283 81.8367 88.3898 84.8971 94.7054 87.5505C94.7191 87.5562 94.7328 87.562 94.7465 87.5677C100.168 89.8225 105.719 91.7964 111.422 93.291C111.432 93.2935 111.442 93.296 111.451 93.2985C117.263 94.8552 123.454 95.3009 129.415 94.6951C129.416 94.6949 129.418 94.6948 129.42 94.6946C133.896 94.2918 138.267 92.4749 141.639 89.4574C141.642 89.4546 141.645 89.4519 141.648 89.4492C143.236 88.0239 143.65 85.9831 143.826 84.2578C143.828 84.2442 143.829 84.2306 143.83 84.2169C144.03 79.0092 140.724 75.3879 138.065 71.9681C138.049 71.9488 138.033 71.9295 138.017 71.9102C135.219 68.6236 131.642 66.5327 128.266 64.295C128.24 64.2783 128.214 64.2616 128.188 64.2448C122.008 60.2852 115.61 56.7322 109.065 53.4438C109.036 53.4293 109.007 53.4149 108.979 53.4004C101.998 49.9195 94.8974 46.6306 87.5066 44.0468C87.4793 44.0372 87.452 44.0278 87.4248 44.0183C81.9892 42.1413 76.4829 40.5023 70.7772 39.4075C70.7543 39.4033 70.7315 39.399 70.7087 39.3948C66.6095 38.5874 61.7257 38.9217 58.171 41.6575C58.1551 41.6691 58.1392 41.6808 58.1234 41.6925C55.2413 43.8885 55.2478 47.4825 55.4419 50.2641C55.4442 50.2929 55.4465 50.3216 55.4489 50.3503C55.7853 53.2409 57.4762 55.3331 58.7707 57.5556C58.7933 57.5924 58.8161 57.6293 58.8391 57.6664C61.3598 61.6756 64.1961 65.4479 67.1422 69.136C67.1813 69.1845 67.2202 69.2329 67.2591 69.281C69.5319 72.1063 71.8858 74.9059 74.5895 77.3676C74.6436 77.4173 74.6979 77.4669 74.7523 77.5165C77.1569 79.7075 79.7343 81.7077 82.4245 83.5346C82.489 83.5784 82.5535 83.6221 82.6181 83.6657C85.7645 85.8332 89.227 87.6371 92.7887 89.0131C92.8614 89.0415 92.9346 89.07 93.0082 89.0986C98.2443 91.0953 103.572 92.7098 109 94.0703C109.07 94.0876 109.14 94.1048 109.21 94.1218C115.421 95.6863 122.012 95.9302 128.316 95.0256C128.378 95.0175 128.44 95.0093 128.502 95.0011C133.029 94.4056 137.27 92.3697 140.766 89.5505C140.816 89.5097 140.867 89.4688 140.917 89.428C142.1 88.5061 142.965 87.0089 143.132 85.5114C143.143 85.4302 143.153 85.3491 143.161 85.2681C143.089 80.0775 139.318 77.1481 136.65 73.9173C136.595 73.8572 136.539 73.7968 136.484 73.7361C132.542 69.5748 128.034 66.1712 123.438 62.9203C123.365 62.8688 123.291 62.8172 123.217 62.7657C117.518 58.809 111.445 55.4276 105.157 52.5187C105.074 52.4801 104.99 52.4415 104.906 52.403C99.2804 49.8248 93.5243 47.5338 87.5994 45.7293C87.5152 45.7038 87.4314 45.6785 87.3482 45.6535C81.8354 43.9849 75.9778 43.0299 70.1546 43.4499C70.0736 43.4552 69.9929 43.461 69.9126 43.4671C66.638 43.6821 63.7271 45.6046 61.6876 47.9124C61.631 47.9746 61.5754 48.0369 61.5206 48.0993C59.1842 51.1134 60.3976 54.6664 61.0886 57.5662C61.1098 57.6431 61.1312 57.72 61.1528 57.7968C62.5797 62.6398 65.4627 66.7072 68.3063 70.607C68.3657 70.6872 68.4253 70.7675 68.4851 70.8478C70.3453 73.3217 72.7594 75.1123 75.0475 76.8464C75.1298 76.9083 75.2121 76.9702 75.2943 77.0321C78.325 79.3467 81.6794 81.2818 85.0801 82.9131C85.1749 82.9588 85.2706 83.0048 85.3671 83.0509C90.7386 85.5916 96.1919 87.8313 101.753 89.8838C101.849 89.919 101.945 89.9539 102.04 89.9884C106.125 91.4883 110.44 92.6294 114.748 93.3406C114.845 93.3575 114.943 93.3743 115.04 93.3911C121.454 94.3522 127.768 95.5631 134.636 94.1907C134.734 94.1603 134.829 94.1275 134.921 94.0923C136.163 93.6582 137.098 92.4505 137.481 91.3386C137.519 91.2408 137.553 91.1434 137.585 91.0453C139.188 83.17 132.702 78.2827 129.119 72.9943C129.116 72.9901 129.113 72.986 129.11 72.9818C126.934 70.0539 124.489 67.3349 121.883 64.8264C121.88 64.8232 121.877 64.8201 121.873 64.817C118.854 61.9174 115.595 59.2209 112.047 56.946C112.039 56.9404 112.03 56.9349 112.021 56.9293C109.804 55.5081 107.513 54.2162 105.17 53.0328C103.402 52.1406 101.604 51.3106 99.7807 50.5431C99.7711 50.5391 99.7615 50.5351 99.7519 50.531C95.5557 48.7593 91.0267 47.9096 86.6231 46.9672C86.6165 46.9657 86.6099 46.9643 86.6033 46.9629C81.6051 45.8903 76.5536 45.2829 71.5277 44.645C71.3593 44.6239 71.1894 44.6704 71.0553 44.7745C70.9212 44.8786 70.834 45.0317 70.8129 45.2001C70.7917 45.3685 70.8382 45.5385 70.9423 45.6725C71.0464 45.8066 71.1995 45.8938 71.3679 45.915C71.3679 45.915 71.3679 45.915 71.3679 45.915C76.393 46.5523 81.4187 47.1588 86.3327 48.2139C86.3392 48.2153 86.3456 48.2167 86.3521 48.2181C90.7123 49.1537 94.7467 51.0694 98.8031 52.7882C98.8124 52.7921 98.8217 52.796 98.8311 52.8C100.607 53.5475 102.363 54.3451 104.091 55.196C106.381 56.3244 108.625 57.5456 110.79 58.8839C110.798 58.8892 110.807 58.8944 110.815 58.8997C114.279 61.0421 117.618 63.4093 120.737 66.0726C120.74 66.0755 120.744 66.0784 120.747 66.0813C123.46 68.4035 126.263 70.6669 128.384 73.5195C128.387 73.5235 128.39 73.5275 128.393 73.5315C132.11 78.72 137.715 84.5337 135.974 90.4846C135.947 90.5558 135.919 90.6251 135.889 90.6933C135.54 91.4958 134.934 91.9124 134.217 92.1369C134.157 92.1561 134.093 92.1762 134.025 92.1968C128.264 93.3082 121.608 92.2183 115.431 91.1788C115.336 91.1613 115.24 91.1438 115.146 91.1263C110.935 90.3801 106.921 89.1095 102.898 87.6252C102.804 87.5911 102.71 87.5568 102.615 87.5221C97.1442 85.5035 91.702 83.2765 86.4424 80.7987C86.348 80.7538 86.2545 80.7091 86.1619 80.6646C82.8274 79.0697 79.6177 77.3444 76.6576 75.1808C76.5741 75.1207 76.4909 75.0607 76.4079 75.0007C74.0924 73.325 71.8065 71.6712 70.1388 69.5778C70.0774 69.5004 70.0162 69.423 69.9552 69.3457C67.0319 65.5991 64.0529 61.7678 62.6318 57.3605C62.6089 57.2865 62.5861 57.2125 62.5636 57.1386C61.7483 54.3571 60.8539 51.0274 62.5466 48.9987C62.5961 48.9421 62.6463 48.8857 62.6974 48.8295C64.6063 46.7012 67.3734 45.7095 70.0543 45.598C70.1311 45.5937 70.2082 45.5894 70.2855 45.585C75.8231 45.2359 81.3523 46.1811 86.7031 47.7994C86.7848 47.824 86.8672 47.8488 86.95 47.8739C92.7747 49.6475 98.5652 51.6278 104.131 54.1118C104.214 54.1489 104.297 54.186 104.379 54.2234C110.598 57.0338 116.591 60.3639 122.221 64.2085C122.295 64.2589 122.368 64.3093 122.442 64.3597C127.003 67.5274 131.607 70.7781 135.376 74.7551C135.431 74.8148 135.486 74.8743 135.54 74.9336C138.209 77.9952 141.613 81.4776 141.472 85.0888C141.465 85.1513 141.457 85.2133 141.448 85.275C141.29 86.4093 140.734 87.3666 139.827 88.0723C139.78 88.1098 139.732 88.1474 139.684 88.1849C136.357 90.7813 132.372 92.4887 128.239 93.0265C128.179 93.0345 128.118 93.0425 128.057 93.0505C121.896 93.928 115.679 93.7731 109.644 92.3088C109.576 92.2927 109.507 92.2763 109.437 92.2599C104.094 90.9628 98.7745 89.38 93.6251 87.4811C93.5527 87.454 93.4809 87.427 93.4094 87.3999C89.904 86.0888 86.5314 84.5307 83.3703 82.5107C83.3054 82.4699 83.2405 82.4291 83.1757 82.3882C80.4722 80.6811 77.8615 78.8232 75.4225 76.7544C75.3673 76.7076 75.3123 76.6607 75.2573 76.6137C72.5218 74.2942 70.0211 71.6921 67.7511 68.8833C67.7124 68.8355 67.6736 68.7874 67.6347 68.7392C64.7047 65.072 61.8951 61.2805 59.4315 57.3029C59.409 57.2659 59.3867 57.2292 59.3645 57.1925C58.0856 55.015 56.7502 52.6192 56.7139 50.2964C56.7139 50.2691 56.714 50.2418 56.7141 50.2146C56.7097 47.501 57.3616 44.596 59.3077 43.3772C59.3219 43.3678 59.3361 43.3583 59.3504 43.349C62.4851 41.1979 66.4468 41.134 70.2484 41.8676C70.2702 41.8717 70.2921 41.8758 70.314 41.88C75.8101 42.9448 81.2516 44.5683 86.5916 46.4139C86.6184 46.4232 86.6453 46.4326 86.6721 46.4419C93.9424 48.9831 101.163 51.7794 108.13 55.1288C108.159 55.1427 108.188 55.1566 108.217 55.1705C114.743 58.3347 121.162 61.7832 127.256 65.6871C127.282 65.7037 127.308 65.7203 127.333 65.7368C130.681 67.9429 134.096 70.1945 136.524 73.1387C136.539 73.1576 136.555 73.1765 136.57 73.1954C139.165 76.4819 142.086 80.2379 141.802 84.0039C141.801 84.0155 141.8 84.027 141.798 84.0385C141.635 85.5393 140.994 86.87 140.058 87.6202C140.055 87.6225 140.053 87.6248 140.05 87.6271C137.008 90.164 133.112 91.574 129.166 91.928C129.164 91.9282 129.162 91.9284 129.161 91.9285C123.416 92.5053 117.692 92.1302 112.116 90.6983C112.107 90.6959 112.097 90.6936 112.088 90.6912C106.505 89.2818 100.972 87.5621 95.5586 85.5223C95.5449 85.5171 95.5312 85.512 95.5175 85.5068C89.2092 83.1044 82.9328 80.4786 76.9342 77.3563C76.9195 77.3486 76.9048 77.3408 76.8902 77.3331C73.3612 75.4549 69.8275 73.5238 66.9098 70.884C66.9001 70.8752 66.8904 70.8664 66.8807 70.8575C63.3682 67.6051 59.6723 64.2067 57.9877 59.9005C57.9867 59.8978 57.9857 59.8951 57.9847 59.8924C56.938 56.9952 55.7974 53.786 56.7361 51.3149C56.737 51.3126 56.7379 51.3103 56.7388 51.308C57.6376 49.006 59.0994 46.8185 61.4211 46.3907C61.4229 46.3903 61.4248 46.39 61.4266 46.3896C66.7495 45.2999 72.3244 45.9867 77.7163 47.1518C77.7221 47.1531 77.7279 47.1544 77.7337 47.1557C85.0606 48.7913 92.3545 50.6871 99.4834 53.0435C99.4964 53.0479 99.5095 53.0523 99.5226 53.0567C100.354 53.3348 101.179 53.6352 101.996 53.9525C106.483 55.7124 110.817 57.9129 114.904 60.1915C114.918 60.1994 114.932 60.2073 114.946 60.2152C120.57 63.3795 124.815 68.5488 128.595 73.939Z" fill="#6942B5"/>
<path d="M43.8564 29.6985C44.0245 29.6267 44.1571 29.491 44.2252 29.3214C44.2932 29.1517 44.2911 28.962 44.2192 28.794C44.1474 28.6259 44.0117 28.4933 43.8421 28.4252C43.6724 28.3572 43.4827 28.3593 43.3147 28.4312C43.3147 28.4312 43.3147 28.4312 43.3147 28.4312C43.406 28.4109 43.1425 28.4474 42.9746 28.4306C42.7855 28.4211 42.5821 28.3997 42.3765 28.3738C41.9633 28.3212 41.542 28.2507 41.1181 28.1767C40.2614 28.0309 39.4337 27.8488 38.4862 27.7428C38.3463 27.7309 38.2204 27.7182 38.0211 27.7295C37.8551 27.7474 37.5614 27.766 37.2925 28.0935C37.047 28.4367 37.1055 28.7217 37.1283 28.879C37.3817 29.746 37.7281 30.0494 38.0242 30.5335C38.3136 30.9604 38.6445 31.4767 38.6935 31.7371C38.6965 31.7534 38.6952 31.76 38.6958 31.7462C38.9376 32.8866 37.2598 31.8407 36.1279 31.0251C34.8354 30.1614 34.0253 29.1184 32.1223 28.3047C32.022 28.2891 31.9599 28.2656 31.7498 28.3008C31.5907 28.3027 31.2227 28.5732 31.1787 28.8025C31.075 29.2228 31.1801 29.3162 31.2001 29.4298C32.2369 31.4112 33.5443 32.4574 34.838 33.8364C34.8833 33.8818 34.9108 33.9124 34.9307 33.9376C34.94 33.9491 34.9416 33.9547 34.9313 33.9348C34.9242 33.9194 34.9087 33.8892 34.899 33.8256C34.8895 33.7881 34.8851 33.5954 35.0091 33.4582C32.8481 32.1399 28.9268 30.2371 25.6783 28.8129C25.4558 28.7216 25.2285 28.6114 24.9817 28.4918C24.7641 28.3885 24.5472 28.2665 24.2379 28.1512C24.0795 28.0965 23.8967 28.0334 23.6118 28.0305C23.3376 28.0163 22.8941 28.1705 22.6627 28.4363C22.2233 28.9564 22.2301 29.3156 22.1859 29.6486C22.1432 30.5133 22.3121 31.2328 22.6802 31.9808C22.7858 32.1847 22.9056 32.3734 23.0333 32.549C24.3472 34.2501 26.1358 34.941 27.151 36.1253C27.1828 36.163 27.2094 36.1967 27.2307 36.2255C27.2688 36.274 27.3072 36.3483 27.2936 36.3217C27.2908 36.301 27.2567 36.2659 27.2823 36.0889C27.2955 35.9264 27.497 35.7136 27.5702 35.6935C27.7371 35.6247 27.6591 35.6664 27.6134 35.6548C27.5495 35.6513 27.4733 35.6411 27.3803 35.6244C27.0222 35.5578 26.6163 35.4326 26.2184 35.2986C25.4235 35.0281 24.6157 34.7024 23.81 34.3745C22.1632 33.7304 20.6941 32.9808 18.6836 32.5548C18.5601 32.5422 18.5095 32.5195 18.239 32.5552C18.1213 32.5792 17.9661 32.6019 17.7288 32.7719C17.5081 32.9253 17.323 33.2466 17.2925 33.4941C17.2427 33.9336 17.3472 34.0705 17.386 34.1922C17.4384 34.312 17.474 34.3703 17.5169 34.4407C17.6681 34.6772 17.7852 34.8069 17.9071 34.9469C19.1304 36.2564 20.5024 37.0888 21.6973 38.1274C21.6989 38.1202 21.7055 38.1512 21.6322 38.0194C21.6161 37.9861 21.5975 37.9416 21.5832 37.881C21.5625 37.796 21.5528 37.6676 21.5898 37.5342C21.6681 37.2502 21.8813 37.1211 21.9621 37.0859C22.1079 37.0267 22.1138 37.0471 22.115 37.0444C22.1103 37.0461 22.0924 37.0477 22.0644 37.0474C21.9551 37.0466 21.7909 37.0253 21.6335 36.997C19.4118 36.5374 17.1835 35.5069 14.9591 34.728C14.8642 34.698 14.7612 34.6689 14.5973 34.6595C14.3869 34.6569 14.0423 34.6572 13.6663 35.0247C13.3306 35.4019 13.3432 35.6868 13.3295 35.8514C13.326 35.9937 13.3478 36.1176 13.3615 36.1834C13.4312 36.4799 13.488 36.5765 13.5479 36.7136C13.6643 36.9592 13.7743 37.1449 13.8905 37.3334C15.1268 39.2369 16.6405 40.6995 18.0584 42.3068C18.0945 42.3426 18.1096 42.3756 18.0865 42.32C18.0779 42.2917 18.0444 42.2201 18.0558 42.0683C18.0638 41.9056 18.1794 41.7098 18.2805 41.6337C18.4673 41.4987 18.4655 41.5473 18.4423 41.5422C18.4135 41.5473 18.3575 41.5511 18.2903 41.5502C16.683 41.4343 14.899 40.7705 12.9689 40.2955C12.8196 40.2776 12.6792 40.2204 12.3099 40.3353C12.1085 40.4021 11.8542 40.5977 11.7406 40.8521C11.6322 41.0838 11.6366 41.2826 11.6429 41.389C11.6979 41.8344 11.8052 41.9479 11.8813 42.1129C12.0487 42.4169 12.2094 42.6366 12.3781 42.8626C13.3778 44.1483 14.5285 45.146 15.695 46.1835C15.6918 46.1731 15.6932 46.1951 15.627 46.0766C15.6045 46.0188 15.5386 45.9223 15.5768 45.6801C15.6249 45.4418 15.7841 45.31 15.8718 45.2603C16.1355 45.1466 16.0285 45.218 16.0134 45.2063C15.9371 45.2124 15.8051 45.2054 15.6819 45.1941C15.4264 45.1705 15.1585 45.1302 14.8882 45.0836C13.6352 44.896 12.5531 44.5137 10.9611 44.5818C10.7623 44.6123 10.5469 44.6548 10.2976 44.7775C10.0605 44.8874 9.72669 45.173 9.63206 45.5661C9.49262 46.3483 9.80942 46.6846 9.98929 47.0167C10.4878 47.759 11.039 48.2855 11.6077 48.82C12.0009 49.1824 12.4059 49.5261 12.8156 49.8537C14.9429 51.558 17.2553 53.0106 19.1982 54.7422C19.3924 54.9214 19.5782 55.105 19.7475 55.2923C20.016 55.5795 20.2224 56.0299 20.1586 56.1912C20.1444 56.2198 20.0971 56.1979 20.1021 56.0729C20.1026 55.9465 20.217 55.7792 20.2729 55.7289C20.3876 55.6255 20.2799 55.6401 20.1572 55.6029C20.0683 55.5825 19.9506 55.5586 19.8233 55.5375C19.5509 55.4923 19.2375 55.4418 18.912 55.3954C18.0136 55.288 17.1851 55.1111 15.955 55.1445C15.8471 55.1557 15.7383 55.1726 15.6067 55.2131C15.3661 55.273 15.0004 55.5318 14.8937 55.8622C14.7815 56.1816 14.8207 56.4101 14.8535 56.5999C14.9321 56.9712 15.0625 57.2373 15.1931 57.5C15.4597 58.017 15.7586 58.4701 16.0701 58.9148C16.1541 59.0337 16.2842 59.1151 16.4294 59.1426C16.5748 59.1701 16.7235 59.1414 16.845 59.0614C16.9665 58.9813 17.0516 58.8561 17.0839 58.7117C17.116 58.5674 17.0926 58.4157 17.0166 58.2916C17.0166 58.2916 17.0166 58.2916 17.0166 58.2916C16.7486 57.8521 16.4869 57.4087 16.2923 56.973C16.1974 56.7598 16.1185 56.5343 16.1035 56.3858C16.0928 56.3144 16.1178 56.2715 16.1023 56.3411C16.088 56.4205 15.9606 56.5071 15.9724 56.5006C15.9737 56.5038 15.994 56.5039 16.0252 56.5075C16.6171 56.5812 17.5145 57.0984 18.3721 57.4274C18.7078 57.5559 19.0573 57.6705 19.46 57.738C19.6508 57.7691 19.8539 57.7855 20.0863 57.7759C20.4124 57.7496 20.775 57.7371 21.2831 57.4062C21.5329 57.2423 21.8027 56.8888 21.8587 56.5435C21.922 56.2004 21.8489 55.945 21.7769 55.7574C21.4508 55.0504 21.0543 54.7889 20.7307 54.4043C20.5287 54.1808 20.3203 53.9722 20.1082 53.7706C18.0492 51.8839 15.8858 50.2877 13.804 48.6167C13.4065 48.299 13.0068 47.9825 12.6276 47.664C12.0838 47.2041 11.5376 46.7151 11.1904 46.2214C11.0394 46.0344 11.0022 45.7709 10.9995 45.9182C10.9793 46.0009 10.897 46.0479 10.9367 46.0196C10.9684 45.9989 11.0657 45.9656 11.1765 45.9465C12.0804 45.8675 13.4601 46.1682 14.6654 46.3696C14.9453 46.4177 15.2212 46.4689 15.5223 46.5137C15.6734 46.535 15.8245 46.5577 16.0248 46.5629C16.08 46.5634 16.1259 46.564 16.2078 46.5557C16.2786 46.544 16.3751 46.5483 16.5718 46.442C16.6938 46.3714 16.8738 46.2168 16.9293 45.9437C16.9554 45.8201 16.9399 45.6873 16.9206 45.6153C16.9041 45.5492 16.8818 45.495 16.8591 45.4494C16.7506 45.2558 16.7217 45.2489 16.6562 45.1767C15.6473 44.0987 14.6766 42.8963 13.812 41.7801C13.6717 41.5942 13.5372 41.4038 13.4525 41.2532C13.412 41.1999 13.3927 41.0692 13.4229 41.2623C13.4247 41.3116 13.4342 41.4359 13.3526 41.613C13.2675 41.8073 13.0608 41.9636 12.9231 42.0069C12.6724 42.0813 12.6568 42.0357 12.6467 42.0421C14.3466 42.4059 16.1372 43.0157 18.2716 43.1737C18.3954 43.1745 18.5108 43.1732 18.6713 43.1522C18.819 43.122 19.0176 43.126 19.3397 42.8777C19.5147 42.7388 19.6732 42.4649 19.6893 42.2072C19.7087 41.9672 19.6493 41.7983 19.6073 41.6901C19.5121 41.4663 19.4279 41.3622 19.3338 41.2404C18.0624 39.5939 16.8933 37.7721 15.8297 36.1291C15.7373 35.9805 15.6491 35.8323 15.5923 35.7234C15.5654 35.6779 15.5454 35.6072 15.5683 35.704C15.5724 35.7277 15.5854 35.7893 15.5833 35.8905C15.571 36.0038 15.5919 36.2414 15.2912 36.5807C14.9531 36.9111 14.65 36.9035 14.4974 36.9025C14.3771 36.8951 14.32 36.8756 14.2808 36.8631C16.6012 37.4989 18.9227 37.9694 21.3689 38.4769C21.5608 38.5103 21.7494 38.545 21.9907 38.5629C22.0617 38.5669 22.1063 38.5703 22.2069 38.5664C22.2942 38.5584 22.3975 38.5663 22.6143 38.474C22.7391 38.4182 22.9862 38.2595 23.0756 37.9343C23.1181 37.7803 23.1082 37.6288 23.0814 37.5188C23.0629 37.4409 23.0373 37.3778 23.0112 37.3248C22.8837 37.0963 22.8523 37.0918 22.7751 37.0057C21.6312 35.8158 20.4766 34.601 19.4911 33.5402C19.4082 33.448 19.325 33.3426 19.3092 33.3171C19.3068 33.3146 19.3094 33.3151 19.3282 33.3582C19.3367 33.4085 19.4153 33.4661 19.3766 33.8327C19.3526 34.0394 19.1875 34.3278 18.997 34.4587C18.7929 34.6043 18.673 34.617 18.5925 34.6344C18.4149 34.6573 18.4148 34.6405 18.3855 34.6398C19.793 34.8917 21.5714 35.5265 23.2169 36.0261C24.0558 36.2871 24.9 36.5512 25.7655 36.7884C26.2055 36.9064 26.6382 37.0224 27.1443 37.0997C27.2821 37.1192 27.4018 37.1335 27.5678 37.1381C27.6419 37.1394 27.732 37.1388 27.8391 37.126C27.9342 37.1132 28.0753 37.0934 28.2494 37.0045C28.4141 36.9414 28.7023 36.6293 28.7296 36.3675C28.7746 36.0742 28.7172 35.9468 28.676 35.8161C28.5899 35.5911 28.4866 35.4543 28.4135 35.3521C28.3719 35.2958 28.3274 35.2394 28.2795 35.1818C26.9292 33.6605 25.3087 32.7537 24.4911 31.5251C24.4131 31.4078 24.3463 31.2909 24.2922 31.1752C24.1023 30.7723 23.9933 30.1971 24.0229 29.7831C24.0192 29.6417 24.1065 29.4932 23.9854 29.6426C23.9124 29.7283 23.7074 29.7889 23.6699 29.7706C23.6234 29.7608 23.675 29.7521 23.7434 29.7661C23.8876 29.7922 24.1034 29.872 24.3185 29.9623C24.5692 30.0674 24.8411 30.1818 25.1309 30.2812C26.7985 30.8547 28.4741 31.5648 30.1401 32.279C30.9732 32.6376 31.8067 33.0048 32.6435 33.3689C33.0596 33.5495 33.4832 33.7329 33.9114 33.9083C34.132 33.9982 34.3443 34.0828 34.5745 34.1649C34.6858 34.2044 34.8133 34.2471 34.9339 34.2798C35.0131 34.3008 35.0673 34.3147 35.1653 34.3298C35.2168 34.3372 35.2693 34.3425 35.3325 34.3413C35.4412 34.3201 35.5249 34.3867 35.7958 34.1356C35.9424 33.9744 35.9405 33.7402 35.9268 33.6792C35.9131 33.5873 35.8864 33.5243 35.8606 33.4715C35.8234 33.3983 35.7937 33.357 35.7573 33.308C35.6906 33.2215 35.6482 33.1762 35.5825 33.1073C34.4038 31.8461 33.1319 30.2411 32.4722 29.0005C32.4547 28.9986 32.5143 28.9402 32.4495 29.2351C32.4231 29.401 32.1215 29.6223 32.0218 29.6152C31.8877 29.6372 31.875 29.6205 31.8534 29.6196C32.7555 30.0138 34.1498 31.2362 35.3836 32.076C36.0344 32.5214 36.6816 32.9662 37.5075 33.292C37.9166 33.4258 38.4334 33.6502 39.1294 33.3311C39.8293 32.9323 39.8893 32.2544 39.9301 31.8289C39.9376 31.7156 39.9273 31.614 39.9128 31.5287C39.7144 30.7209 39.3845 30.3367 39.1081 29.8422C38.9665 29.6076 38.8274 29.3795 38.7048 29.1592C38.5862 28.9521 38.4666 28.6854 38.4688 28.638C38.4617 28.6266 38.5168 28.7249 38.3772 28.9301C38.2158 29.12 38.0995 29.0959 38.1091 29.1019C38.1497 29.0998 38.2548 29.1049 38.3566 29.1149C39.1413 29.2012 40.0197 29.3865 40.8802 29.5343C41.3139 29.6099 41.7496 29.6833 42.2036 29.7412C42.4308 29.7697 42.6601 29.7946 42.9065 29.8072C43.1717 29.8047 43.3557 29.8689 43.8564 29.6985Z" fill="#DAE562"/>
<path d="M170.403 66.6193C170.215 66.5397 170.003 66.538 169.814 66.6146C169.625 66.6911 169.474 66.8397 169.394 67.0275C169.315 67.2153 169.313 67.427 169.39 67.6161C169.466 67.8051 169.615 67.956 169.803 68.0356C169.803 68.0356 169.803 68.0356 169.803 68.0356C171.852 68.7526 173.741 69.1025 175.557 69.7081C175.718 69.7631 175.91 69.8405 175.963 69.8743C175.943 69.8612 175.889 69.8392 175.806 69.7228C175.71 69.6017 175.68 69.333 175.721 69.2231C175.802 68.9981 175.812 69.0594 175.782 69.0699C175.723 69.1209 175.584 69.2136 175.445 69.2943C174.814 69.6664 174.072 69.9743 173.304 70.5326C173.128 70.6669 172.944 70.8112 172.75 71.0516C172.578 71.2576 172.418 71.6465 172.451 72.0006C172.477 72.3536 172.603 72.5901 172.705 72.7673C172.919 73.1172 173.113 73.3153 173.289 73.5146C173.638 73.8948 173.931 74.2136 174.079 74.459C174.133 74.5459 174.164 74.6175 174.18 74.6706C174.435 75.6603 175.336 76.1872 175.937 76.3865C176.576 76.608 177.158 76.6809 177.717 76.7436C178.828 76.8607 179.895 76.8803 180.815 77.0968C181.051 77.1533 181.271 77.2306 181.447 77.3247C181.435 77.3053 181.284 77.325 181.12 76.9399C181.055 76.7487 181.085 76.562 181.119 76.467C181.15 76.3782 181.179 76.338 181.189 76.32C181.23 76.261 181.135 76.3408 181.043 76.384C180.845 76.4885 180.587 76.5974 180.327 76.7C179.801 76.9069 179.242 77.1027 178.685 77.3424C178.436 77.4508 178.204 77.5472 177.907 77.6948C177.776 77.7612 177.657 77.828 177.538 77.9062C177.378 78.016 177.283 78.0733 177.077 78.2958C176.933 78.4591 176.62 78.8721 176.717 79.4736C176.83 80.0371 177.128 80.253 177.293 80.3937C177.981 80.864 178.361 80.8916 178.815 81.0259C179.687 81.2383 180.5 81.3544 181.317 81.47C182.131 81.583 182.942 81.6808 183.73 81.7895C184.127 81.8447 184.521 81.9024 184.895 81.9703C185.08 82.0042 185.261 82.0405 185.425 82.0823C185.501 82.1014 185.581 82.1251 185.626 82.1414C185.665 82.1414 185.735 82.2324 185.509 82.0345C185.512 82.0374 185.514 82.0402 185.517 82.0431C185.597 82.1258 185.643 82.2012 185.64 82.202C185.638 82.222 185.572 82.0142 185.657 81.8426C185.738 81.6848 185.764 81.71 185.702 81.7335C185.645 81.761 185.535 81.8017 185.417 81.833C184.914 81.9672 184.251 82.0212 183.601 82.0525C182.946 82.0832 182.271 82.0889 181.58 82.1055C181.232 82.1143 180.882 82.1248 180.511 82.1506C180.324 82.1642 180.138 82.1798 179.916 82.2123C179.813 82.2275 179.685 82.2496 179.552 82.2827C179.394 82.334 179.251 82.3288 178.866 82.5963C178.744 82.6909 178.651 82.7662 178.513 82.9129C178.442 82.9898 178.372 83.0759 178.305 83.1784C178.226 83.3003 178.137 83.4716 178.087 83.6733C177.91 84.1848 178.254 84.9394 178.513 85.1278C178.791 85.3836 178.96 85.4448 179.125 85.5212C179.436 85.6502 179.668 85.6989 179.884 85.7444C180.323 85.831 180.709 85.8705 181.095 85.905C181.858 85.9699 182.589 85.997 183.313 86.0287C184.035 86.0599 184.744 86.0901 185.43 86.1509C185.768 86.1812 186.106 86.22 186.41 86.2744C186.699 86.3197 187.03 86.4314 187.03 86.4414C187.103 86.4788 187.122 86.5425 187.021 86.3859C186.975 86.3133 186.907 86.1116 186.934 85.9245C186.958 85.7317 187.032 85.6277 187.065 85.5843C187.181 85.4793 186.905 85.6919 186.666 85.7772C186.411 85.8843 186.111 85.9842 185.812 86.0727C185.2 86.2527 184.556 86.4004 183.901 86.5366C182.57 86.8187 181.315 86.9869 179.808 87.3005C179.537 87.3699 179.329 87.4241 179.03 87.5359C178.97 87.559 178.878 87.5957 178.778 87.6448C178.729 87.6688 178.68 87.6951 178.628 87.7256C178.582 87.7534 178.513 87.7941 178.409 87.8791C178.312 87.9605 178.199 88.0685 178.093 88.2486C177.944 88.4545 177.843 89.0248 178.02 89.3727C178.161 89.6821 178.295 89.7856 178.417 89.8909C178.478 89.939 178.534 89.9765 178.586 90.0075C178.619 90.0275 178.652 90.0451 178.683 90.0611C184.12 91.2237 188.489 90.7013 192.783 91.4802C192.749 91.4706 192.69 91.4556 192.589 91.4007C192.46 91.3174 192.11 91.1385 192.042 90.5198C192.03 90.2361 192.098 90.0907 192.147 89.9816C192.197 89.8759 192.26 89.7977 192.282 89.7719C192.339 89.7062 192.376 89.6774 192.391 89.6653C192.446 89.626 192.376 89.6743 192.321 89.6999C192.193 89.7636 192.013 89.8384 191.838 89.9054C191.477 90.0431 191.094 90.17 190.704 90.2915C188.709 90.9016 186.637 91.4224 184.579 91.7999C184.403 91.8429 184.312 91.8113 183.903 92.0368C183.839 92.0774 183.768 92.1292 183.695 92.2019C183.625 92.2728 183.535 92.3667 183.448 92.5577C183.367 92.7364 183.335 92.9619 183.36 93.1515C183.381 93.3157 183.431 93.4468 183.485 93.5493C183.609 93.7679 183.677 93.8157 183.746 93.8853C183.813 93.948 183.879 93.9962 183.917 94.0223C184.262 94.2464 184.455 94.3002 184.663 94.3838C185.081 94.5381 185.457 94.6482 185.842 94.7588C187.483 95.2265 189.228 95.5424 190.69 95.9439C190.779 95.9732 190.832 95.9948 190.859 96.0072C190.865 96.0077 190.864 96.0136 190.812 95.9602C190.787 95.9309 190.761 95.9036 190.718 95.8227C190.675 95.74 190.64 95.6143 190.644 95.4893C190.655 95.2281 190.784 95.0959 190.81 95.0685C190.852 95.0278 190.852 95.0351 190.843 95.0411C190.818 95.0603 190.753 95.0955 190.677 95.1285C190.363 95.2643 189.936 95.3799 189.523 95.4755C187.104 96.0168 184.7 96.0584 181.976 96.4487C181.856 96.4772 181.783 96.4923 181.617 96.5562C181.53 96.5933 181.481 96.6091 181.336 96.7011C181.203 96.8062 181.028 96.8705 180.836 97.3253C180.653 97.7551 180.874 98.3132 180.99 98.4398C181.115 98.6164 181.23 98.7057 181.296 98.7593C181.461 98.8839 181.544 98.9262 181.652 98.9846C182.011 99.1686 182.282 99.262 182.567 99.364C183.118 99.5563 183.65 99.7126 184.178 99.8635C185.471 100.242 186.977 100.48 187.871 100.889C188.076 101.003 188.265 101.136 188.383 101.25C188.51 101.378 188.496 101.388 188.533 101.334C188.578 101.31 188.485 101.469 188.299 101.578C188.119 101.693 187.879 101.794 187.63 101.872C187.58 101.888 187.528 101.904 187.473 101.919C186.502 102.181 185.404 102.052 184.363 102.192C182.276 102.468 180.175 102.65 178.016 102.926C177.796 102.956 177.58 102.988 177.351 103.029C177.24 103.05 177.117 103.074 176.99 103.105C176.843 103.151 176.769 103.13 176.415 103.33C176.344 103.398 176.125 103.452 175.98 103.943C175.919 104.187 175.997 104.471 176.073 104.596C176.159 104.749 176.22 104.801 176.279 104.858C176.488 105.036 176.564 105.048 176.652 105.093C176.813 105.163 176.927 105.198 177.042 105.234C177.268 105.304 177.475 105.358 177.678 105.414C177.833 105.455 177.985 105.492 178.136 105.528C178.795 105.683 179.467 105.817 180.084 106.061C180.732 106.312 181.412 106.806 181.588 107.194C181.64 107.323 181.547 107.352 181.495 107.253C181.445 107.157 181.447 107.116 181.377 107.155C181.325 107.181 181.238 107.226 181.141 107.261C180.771 107.431 180.384 107.577 179.987 107.73C177.572 108.64 174.614 108.856 171.671 109.015C171.068 109.046 170.461 109.072 169.851 109.101L169.552 109.089L169.228 109.306C168.79 109.631 168.665 110.128 168.636 110.361C168.575 111.06 168.987 111.171 169.033 111.46C169.05 111.538 169.024 111.626 168.958 111.688C168.134 112.321 166.738 112.529 165.546 112.818C165.496 112.829 165.453 112.86 165.424 112.903C165.395 112.946 165.383 112.998 165.392 113.047C165.4 113.097 165.428 113.142 165.47 113.173C165.511 113.204 165.563 113.219 165.613 113.213C165.613 113.213 165.613 113.213 165.613 113.213C166.879 113.01 168.105 113.02 169.434 112.289C169.562 112.198 169.709 112.104 169.856 111.973C170.349 111.551 170.637 110.794 170.688 110.695C170.703 110.649 170.682 110.855 170.481 111.01L169.858 111.215C170.459 111.239 171.066 111.269 171.677 111.297C174.67 111.406 177.815 111.61 181.03 110.433C181.559 110.229 182.073 109.949 182.554 109.607C182.846 109.406 183.12 109.163 183.364 108.842C183.66 108.453 183.929 107.867 183.864 107.198C183.802 106.525 183.407 106.028 183.062 105.755C182.14 105.089 181.381 104.985 180.636 104.666C179.955 104.398 179.296 104.102 178.615 103.869C178.46 103.816 178.305 103.767 178.153 103.723C177.953 103.665 177.753 103.607 177.58 103.549C177.497 103.522 177.412 103.49 177.38 103.474C177.371 103.475 177.351 103.441 177.482 103.549C177.52 103.587 177.565 103.622 177.638 103.75C177.702 103.854 177.774 104.109 177.718 104.329C177.585 104.768 177.415 104.784 177.383 104.827C177.216 104.917 177.346 104.85 177.402 104.845C177.473 104.83 177.566 104.813 177.656 104.799C177.841 104.769 178.039 104.744 178.242 104.721C180.313 104.502 182.47 104.357 184.611 104.074C185.696 103.927 186.724 103.499 187.831 103.202C187.895 103.184 187.958 103.166 188.019 103.148C188.611 102.91 189.358 102.915 189.94 101.814C190.178 101.195 189.905 100.596 189.685 100.27C189.449 99.9195 189.19 99.6679 188.926 99.4379C187.457 98.3786 186.176 98.0239 184.822 97.6018C184.296 97.4515 183.766 97.3113 183.281 97.1683C183.043 97.0981 182.788 97.0146 182.662 96.9615C182.634 96.9508 182.614 96.9367 182.66 96.973C182.679 96.9909 182.732 97.0251 182.822 97.1502C182.9 97.2278 183.096 97.7057 182.938 98.0759C182.774 98.4608 182.643 98.4886 182.572 98.5506C182.496 98.5976 182.487 98.5957 182.47 98.6024C182.45 98.6074 182.473 98.5952 182.512 98.5829C184.739 98.0835 187.384 97.6585 189.896 97.0972C190.355 96.9888 190.807 96.8861 191.319 96.6899C191.454 96.635 191.575 96.5863 191.757 96.4758C191.843 96.421 191.928 96.3674 192.053 96.24C192.149 96.1409 192.349 95.8959 192.36 95.5297C192.366 95.3509 192.317 95.1712 192.246 95.0344C192.175 94.8999 192.124 94.8405 192.058 94.7683C191.916 94.6242 191.838 94.5791 191.747 94.5199C191.541 94.3983 191.453 94.3649 191.29 94.2993C189.551 93.7106 188.009 93.3056 186.438 92.794C186.085 92.6793 185.737 92.5604 185.428 92.4322C185.293 92.3788 185.106 92.2797 185.138 92.2913C185.144 92.2952 185.162 92.3064 185.195 92.3367C185.229 92.3732 185.269 92.3923 185.366 92.5623C185.408 92.643 185.452 92.7531 185.47 92.8963C185.492 93.0615 185.464 93.2634 185.392 93.4195C185.316 93.5863 185.241 93.6633 185.186 93.7195C185.128 93.777 185.076 93.814 185.035 93.8404C184.79 93.9713 184.878 93.9071 184.916 93.9135C187.114 93.5955 189.248 93.1405 191.386 92.4947C191.807 92.3643 192.223 92.229 192.66 92.064C192.876 91.9813 193.099 91.8932 193.349 91.7702C193.474 91.7054 193.602 91.6492 193.822 91.4824C193.877 91.4387 193.962 91.367 194.047 91.2671C194.082 91.2264 194.168 91.1165 194.229 90.9892C194.288 90.857 194.363 90.6897 194.35 90.3773C194.276 89.7009 193.892 89.4918 193.707 89.3757C193.568 89.2998 193.46 89.2663 193.364 89.2408C188.513 88.3901 183.422 88.6328 179.752 87.9811C179.756 88.0047 179.937 87.9936 180.174 88.462C180.326 88.7576 180.235 89.2659 180.115 89.4235C180.031 89.5665 179.952 89.6364 179.902 89.6789C179.737 89.7981 179.828 89.7267 179.868 89.7186C179.994 89.6704 180.163 89.6209 180.378 89.5663C181.545 89.3207 183.025 89.0945 184.378 88.799C185.07 88.65 185.758 88.4893 186.469 88.2768C186.82 88.1709 187.183 88.0512 187.561 87.8919C187.943 87.7042 188.326 87.6197 188.878 86.9903C189.019 86.8055 189.167 86.556 189.213 86.1936C189.261 85.8441 189.145 85.4658 189.019 85.2544C188.743 84.8029 188.507 84.6696 188.277 84.5071C186.176 83.5616 184.975 83.8033 183.458 83.6091C182.734 83.5528 182.016 83.5017 181.338 83.4271C181 83.3894 180.667 83.3448 180.394 83.286C180.266 83.2594 180.136 83.2192 180.114 83.2074C180.108 83.2091 180.124 83.1928 180.263 83.3174C180.32 83.3714 180.434 83.5005 180.501 83.6943C180.573 83.8838 180.572 84.1361 180.53 84.2847C180.453 84.5525 180.377 84.5954 180.365 84.617C180.35 84.632 180.364 84.6152 180.398 84.5887C180.14 84.762 180.168 84.7037 180.182 84.7092C180.202 84.7024 180.26 84.6889 180.317 84.6782C180.443 84.6546 180.591 84.6339 180.745 84.6147C181.056 84.5763 181.39 84.5436 181.729 84.5096C182.405 84.4422 183.102 84.3722 183.811 84.2746C184.527 84.1702 185.233 84.0712 186.045 83.8005C186.44 83.6176 186.957 83.5952 187.48 82.6941C187.716 82.2115 187.596 81.6325 187.444 81.3458C187.367 81.1895 187.293 81.0771 187.204 80.9568C187.13 80.8591 187.05 80.7658 186.964 80.6744C186.958 80.6684 186.952 80.6624 186.946 80.6564C186.589 80.3278 186.456 80.3383 186.301 80.2671C186.169 80.2192 186.037 80.1816 185.925 80.1524C185.687 80.0904 185.477 80.0471 185.267 80.0057C184.845 79.9238 184.437 79.8568 184.028 79.7912C183.222 79.6622 182.42 79.5419 181.634 79.4086C180.851 79.2747 180.067 79.1329 179.361 78.9402C179.191 78.893 179.024 78.8417 178.878 78.786C178.745 78.7391 178.602 78.6564 178.639 78.6752C178.647 78.6926 178.795 78.7504 178.875 79.1136C178.934 79.5107 178.738 79.725 178.718 79.7501C178.645 79.8204 178.76 79.7206 178.895 79.66C179.067 79.5757 179.32 79.4679 179.557 79.3656C180.109 79.1277 180.667 78.848 181.226 78.5206C181.508 78.3538 181.786 78.1836 182.095 77.951C182.252 77.8246 182.406 77.7252 182.636 77.4274C182.689 77.3537 182.763 77.2413 182.818 77.0868C182.879 76.9168 182.917 76.6558 182.828 76.3908C182.612 75.8573 182.329 75.7974 182.172 75.7104C181.839 75.5765 181.523 75.4926 181.218 75.4187C180.055 75.1511 178.98 75.0721 177.979 74.8888C176.994 74.7572 176.039 74.2805 176.164 74.1426C176.088 73.8499 175.965 73.5951 175.832 73.3781C175.455 72.7822 175.006 72.4315 174.653 72.1228C174.478 71.9744 174.318 71.8268 174.259 71.7626C174.229 71.7336 174.243 71.741 174.248 71.8466C174.256 71.9543 174.186 72.0948 174.163 72.1048C174.181 72.0619 174.266 71.9669 174.369 71.8799C174.86 71.4677 175.564 71.0966 176.281 70.6363C176.452 70.5225 176.625 70.4123 176.836 70.2183C176.941 70.1029 177.085 70.0285 177.218 69.6255C177.285 69.4294 177.243 69.0625 177.092 68.8633C176.96 68.6733 176.834 68.5963 176.728 68.5336C176.449 68.3843 176.265 68.3289 176.062 68.2552C174.115 67.611 172.088 67.208 170.403 66.6193Z" fill="#DAE562"/>
</svg>
