<svg width="260" height="243" viewBox="0 0 260 243" fill="none" xmlns="http://www.w3.org/2000/svg">
<path d="M133.608 101.845C133.707 101.861 133.808 101.837 133.889 101.779C133.97 101.72 134.025 101.632 134.041 101.533C134.057 101.434 134.034 101.333 133.975 101.252C133.917 101.171 133.828 101.116 133.73 101.1C133.73 101.1 133.73 101.1 133.73 101.1C128.98 100.603 124.909 103.019 120.875 104.797C120.871 104.799 120.866 104.801 120.862 104.803C115.718 107.32 110.701 110.061 105.751 112.924C103.757 114.086 101.778 115.28 99.8365 116.531C99.815 116.545 99.7936 116.559 99.7722 116.572C95.5793 119.396 91.1136 122.441 88.9262 127.439C88.9156 127.466 88.9053 127.493 88.8951 127.519C87.3677 132.355 90.8015 136.33 93.5826 139.397C93.5954 139.41 93.6082 139.423 93.6212 139.436C96.3092 141.816 99.7521 141.207 102.695 141.286C102.744 141.286 102.792 141.285 102.841 141.284C108.172 141.118 113.21 139.587 118.183 138.155C118.226 138.142 118.27 138.129 118.313 138.116C123.798 136.435 129.053 134.259 134.277 132.01C134.308 131.996 134.34 131.982 134.372 131.968C140.88 129.121 147.28 126.076 153.554 122.718C153.57 122.709 153.586 122.7 153.602 122.691C157.742 120.419 161.961 117.833 164.943 113.882C164.949 113.874 164.955 113.866 164.961 113.858C165.865 112.739 165.958 111.119 165.732 110.019C165.73 110.006 165.727 109.993 165.725 109.98C164.999 106.731 162.604 104.788 160.429 103.119C160.406 103.102 160.382 103.085 160.358 103.067C154.549 99.628 148.584 101.484 143.017 101.95C142.974 101.956 142.931 101.961 142.888 101.967C134.479 103.175 126.33 105.285 118.221 107.561C118.186 107.571 118.15 107.581 118.115 107.591C110.156 109.882 102.343 112.676 94.8108 116.157C94.7901 116.167 94.7695 116.177 94.7489 116.186C89.5436 118.82 83.9448 121.178 80.4408 126.695C80.4325 126.714 80.4243 126.733 80.4163 126.752C79.5867 128.746 80.6051 130.676 81.438 132.109C81.4512 132.131 81.4644 132.154 81.4777 132.177C85.0098 137.599 91.6394 138.448 97.2154 139.41C97.2819 139.42 97.3485 139.429 97.4154 139.437C100.388 139.737 103.222 139.315 105.968 138.812C106.031 138.799 106.095 138.786 106.16 138.772C111.562 137.611 116.854 136.097 122.076 134.347C122.132 134.328 122.187 134.309 122.243 134.291C127.875 132.377 133.385 130.17 138.811 127.752C138.854 127.732 138.898 127.713 138.942 127.693C145.687 124.672 151.854 120.496 157.522 115.862C157.544 115.844 157.567 115.825 157.589 115.807C158.869 114.708 160.421 113.576 161.105 111.477C161.113 111.449 161.122 111.42 161.13 111.392C161.517 110.184 161.225 108.603 160.372 107.594C160.353 107.569 160.333 107.544 160.312 107.52C156.197 104.009 151.933 104.673 147.842 103.987C147.794 103.982 147.746 103.977 147.697 103.972C141.349 103.492 135.232 104.388 129.156 105.405C129.107 105.413 129.057 105.422 129.008 105.431C121.523 106.783 114.205 108.872 107.115 111.603C107.077 111.617 107.04 111.632 107.002 111.647C101.457 113.804 96.1138 116.463 90.9891 119.452C90.9652 119.466 90.9415 119.48 90.9177 119.494C87.0377 121.791 83.1665 124.36 80.208 128.046C80.1975 128.06 80.187 128.073 80.1767 128.086C79.3114 129.159 79.1111 130.632 79.1193 131.807C79.1191 131.822 79.1189 131.838 79.1187 131.853C79.1335 134.716 81.0956 136.739 82.879 138.242C82.9006 138.26 82.9222 138.278 82.9439 138.295C86.1223 140.753 89.9301 141.447 93.5514 142.053C93.5929 142.059 93.6345 142.065 93.6761 142.071C100.569 142.893 106.985 140.703 113.312 139.091C113.352 139.08 113.392 139.069 113.432 139.058C121.82 136.575 129.653 132.944 137.455 129.257C137.479 129.246 137.502 129.235 137.525 129.224C143.339 126.429 148.981 123.234 154.299 119.533C154.306 119.528 154.313 119.523 154.32 119.518C157.788 117.031 161.497 114.286 163.311 109.728C163.312 109.724 163.313 109.721 163.315 109.718C163.876 108.339 163.765 106.618 163.291 105.528C163.291 105.527 163.29 105.526 163.29 105.525C161.227 101.716 158.123 101.233 155.509 100.088C155.49 100.081 155.472 100.074 155.453 100.067C148.965 97.9896 142.844 99.0633 136.84 99.2203C136.799 99.2223 136.758 99.2242 136.717 99.2263C132.488 99.4407 128.332 100.084 124.252 101.007C124.213 101.016 124.174 101.025 124.135 101.034C119.742 102.04 115.502 103.548 111.382 105.256C111.351 105.269 111.321 105.282 111.29 105.294C109.797 105.914 108.317 106.564 106.852 107.246C104.202 108.479 101.6 109.814 99.0699 111.275C99.0504 111.287 99.0309 111.298 99.0114 111.309C95.5626 113.307 92.344 115.676 89.2098 118.124C89.2013 118.13 89.1929 118.137 89.1844 118.143C86.5749 120.174 84.177 122.45 81.8273 124.728C81.725 124.826 81.6662 124.962 81.6637 125.104C81.6612 125.246 81.7153 125.383 81.814 125.486C81.9128 125.588 82.0481 125.647 82.1902 125.649C82.3324 125.652 82.4697 125.598 82.572 125.499C82.572 125.499 82.572 125.499 82.572 125.499C84.9229 123.22 87.2824 120.981 89.8447 118.988C89.853 118.982 89.8613 118.975 89.8696 118.969C92.9592 116.56 96.4101 114.663 99.8506 112.813C99.8701 112.802 99.8896 112.792 99.9091 112.781C102.439 111.424 105.02 110.157 107.646 108.998C109.098 108.357 110.564 107.75 112.044 107.183C112.075 107.172 112.105 107.16 112.135 107.149C116.224 105.587 120.418 104.35 124.666 103.483C124.704 103.476 124.742 103.468 124.78 103.46C128.766 102.656 132.802 102.066 136.821 101.954C136.86 101.953 136.899 101.952 136.938 101.951C142.933 101.878 149.229 101.215 154.305 103.088C154.32 103.094 154.334 103.099 154.348 103.105C156.726 104.049 159.466 105.572 159.974 106.867C159.974 106.867 159.974 106.868 159.974 106.868C160.297 107.667 160.59 108.126 160.431 108.72C160.43 108.723 160.429 108.726 160.428 108.728C159.345 112.211 156.22 115.174 152.939 117.574C152.933 117.579 152.926 117.584 152.92 117.589C147.797 121.304 142.289 124.493 136.594 127.318C136.571 127.329 136.549 127.34 136.526 127.351C128.84 131.104 121.03 134.812 112.932 137.302C112.894 137.313 112.856 137.324 112.818 137.335C106.566 139.024 100.156 141.242 93.9108 140.467C93.873 140.461 93.8352 140.455 93.7975 140.45C90.2884 139.883 86.6296 139.089 84.0051 136.999C83.9872 136.984 83.9694 136.969 83.9517 136.954C82.2955 135.573 80.8461 133.758 80.9315 131.89C80.9319 131.879 80.9324 131.869 80.9329 131.858C80.9738 130.842 81.343 130.064 81.8694 129.408C81.876 129.399 81.8827 129.391 81.8894 129.383C84.5429 126.083 88.2359 123.591 92.0152 121.381C92.0383 121.368 92.0615 121.354 92.0847 121.341C97.1346 118.421 102.406 115.889 107.831 113.779C107.868 113.764 107.905 113.75 107.943 113.735C114.885 111.06 122.092 108.987 129.406 107.647C129.454 107.639 129.502 107.63 129.55 107.621C135.515 106.595 141.609 105.518 147.501 105.973C147.545 105.977 147.588 105.981 147.632 105.986C151.507 106.48 156.351 106.856 158.482 108.995C158.491 109.006 158.499 109.018 158.508 109.03C158.865 109.531 158.865 110.062 158.688 110.685C158.684 110.699 158.679 110.714 158.675 110.728C158.367 111.836 157.284 112.996 156.096 114.027C156.075 114.045 156.055 114.062 156.035 114.08C150.568 118.774 144.734 123.073 138.183 126.009C138.14 126.028 138.098 126.047 138.056 126.066C132.688 128.458 127.202 130.619 121.637 132.49C121.582 132.509 121.527 132.527 121.472 132.545C116.314 134.257 111.056 135.724 105.756 136.863C105.693 136.876 105.63 136.889 105.568 136.903C102.846 137.449 100.183 138.623 97.5497 138.349C97.4909 138.342 97.4323 138.334 97.374 138.325C91.8628 137.423 85.4485 136.336 82.4785 131.593C82.467 131.573 82.4557 131.553 82.4444 131.533C81.6427 130.136 81.3117 128.543 81.8609 127.358C81.8662 127.346 81.8717 127.333 81.8773 127.32C84.6774 122.906 90.3946 120.15 95.4464 117.68C95.4666 117.67 95.4869 117.661 95.5071 117.651C102.936 114.217 110.668 111.372 118.548 109.105C118.583 109.095 118.618 109.085 118.653 109.075C126.696 106.817 134.894 104.891 143.122 103.832C143.164 103.827 143.206 103.822 143.248 103.817C148.695 103.332 154.924 102.225 159.064 104.865C159.082 104.877 159.099 104.89 159.116 104.902C161.148 106.408 163.15 108.279 163.578 110.388C163.58 110.396 163.582 110.404 163.583 110.413C163.772 111.381 163.87 112.114 163.431 112.733C163.428 112.737 163.425 112.742 163.422 112.746C160.82 116.434 156.933 119.112 152.869 121.342C152.853 121.351 152.837 121.36 152.822 121.368C146.619 124.697 140.226 127.745 133.766 130.571C133.734 130.585 133.703 130.599 133.671 130.613C128.478 132.85 123.241 135.01 117.874 136.654C117.831 136.667 117.788 136.68 117.746 136.693C112.793 138.129 107.871 139.894 102.81 140.132C102.764 140.134 102.718 140.135 102.672 140.137C99.7364 140.165 96.3602 140.566 94.3673 138.703C94.3574 138.693 94.3476 138.682 94.3378 138.672C91.5882 135.744 88.7177 131.674 90.072 127.984C90.0814 127.961 90.091 127.937 90.1009 127.913C92.0694 123.524 96.4728 120.56 100.58 117.825C100.601 117.811 100.623 117.797 100.644 117.783C102.57 116.542 104.508 115.302 106.449 114.071C111.262 111.04 116.093 107.977 121.189 105.484C121.193 105.482 121.198 105.48 121.202 105.478C125.179 103.698 129.345 101.361 133.608 101.845Z" fill="#6942B5"/>
<path d="M191.229 90.8858C191.139 91.0162 191.104 91.1771 191.133 91.333C191.161 91.4889 191.25 91.6272 191.381 91.7173C191.511 91.8074 191.672 91.842 191.828 91.8135C191.984 91.7851 192.122 91.6958 192.212 91.5654C192.212 91.5654 192.212 91.5654 192.212 91.5654C193.014 90.4099 193.935 89.2676 194.859 88.1668C200.099 82.1252 205.75 76.2115 212.039 71.3866C212.266 71.2289 212.511 71.0685 212.727 70.9418C212.863 70.8614 212.982 70.7965 213.08 70.7473C213.213 70.681 213.306 70.6438 213.361 70.6306C213.365 70.6294 213.362 70.6324 213.327 70.6327C213.282 70.634 213.114 70.6157 212.982 70.4647C212.854 70.3157 212.857 70.1622 212.862 70.1193C212.866 70.0807 212.868 70.083 212.866 70.087C212.849 70.1379 212.794 70.2397 212.722 70.353C212.444 70.7856 212.062 71.2475 211.697 71.6787C210.944 72.562 210.143 73.422 209.337 74.2678C207.721 75.9602 206.052 77.6157 204.362 79.2559C200.988 82.5228 197.535 85.727 194.028 88.8412C193.645 89.1804 193.269 89.5174 192.891 89.8613C192.696 90.0386 192.498 90.2207 192.305 90.4031C192.254 90.4513 192.205 90.4986 192.157 90.5446C192.128 90.5733 192.109 90.5913 192.077 90.6236C192.063 90.6373 192.049 90.6514 192.028 90.6736C192.017 90.6861 192.014 90.6865 191.971 90.7391C191.959 90.7533 191.946 90.7696 191.922 90.8064C191.913 90.8346 191.928 90.7528 191.837 90.9964C191.82 91.0613 191.791 91.1575 191.822 91.3334C191.844 91.506 192.019 91.7609 192.215 91.8428C192.609 91.9921 192.701 91.8789 192.772 91.8725C192.906 91.8184 192.876 91.8233 192.888 91.8192C192.894 91.8159 192.899 91.813 192.903 91.8102C192.939 91.7887 192.953 91.7779 192.967 91.7678C193.146 91.6264 193.207 91.5639 193.314 91.4704C193.713 91.1129 194.094 90.7589 194.484 90.3941C194.659 90.2296 194.842 90.0576 195.022 89.8873C198.761 86.3322 202.346 82.623 206.037 79.0276C206.106 78.96 206.174 78.8933 206.242 78.8274C207.238 77.8516 208.233 76.854 209.19 75.8339C210.194 74.7704 211.149 73.6497 212.058 72.5111C212.104 72.4546 212.125 72.3822 212.118 72.3099C212.11 72.2376 212.074 72.1714 212.017 72.1257C211.961 72.0801 211.888 72.0588 211.816 72.0665C211.744 72.0742 211.678 72.1104 211.632 72.1669C211.632 72.1669 211.632 72.1669 211.632 72.1669C210.723 73.3046 209.787 74.4028 208.79 75.4589C207.841 76.4703 206.851 77.4633 205.858 78.4357C205.791 78.5014 205.723 78.5678 205.654 78.6349C201.958 82.2067 197.984 85.5044 194.113 88.8855C193.927 89.0473 193.739 89.211 193.558 89.3673C193.158 89.7149 192.765 90.0567 192.372 90.3935C192.287 90.4666 192.146 90.5855 192.118 90.6064C192.124 90.6021 192.132 90.5955 192.163 90.5767C192.167 90.5743 192.171 90.5717 192.176 90.5688C192.188 90.5647 192.157 90.5707 192.287 90.5177C192.358 90.5117 192.449 90.3987 192.842 90.5477C193.038 90.6295 193.213 90.8841 193.234 91.0565C193.266 91.2322 193.236 91.328 193.22 91.3925C193.13 91.6337 193.146 91.5511 193.136 91.579C193.114 91.6139 193.102 91.6279 193.093 91.6392C193.061 91.6782 193.071 91.6656 193.069 91.668C193.071 91.6658 193.081 91.6562 193.089 91.6481C193.111 91.6267 193.128 91.6111 193.154 91.5868C193.196 91.5472 193.243 91.5034 193.292 91.4582C193.478 91.2865 193.674 91.108 193.866 90.9336C194.239 90.5948 194.611 90.2603 194.99 89.9233C198.512 86.7802 201.937 83.5211 205.285 80.1966C206.963 78.5272 208.62 76.8432 210.237 75.1177C211.043 74.2543 211.846 73.3791 212.621 72.4594C213.001 72.0032 213.386 71.5415 213.738 70.9933C213.776 70.9327 213.835 70.8344 213.875 70.7587C213.915 70.6819 213.959 70.5981 214.005 70.4622C214.027 70.3928 214.042 70.3477 214.055 70.2318C214.068 70.097 214.055 69.8733 213.885 69.6766C213.711 69.4773 213.475 69.434 213.334 69.4347C213.234 69.4352 213.174 69.4461 213.105 69.4606C212.961 69.4935 212.874 69.53 212.796 69.5614C212.715 69.5945 212.624 69.6375 212.543 69.6779C212.414 69.7428 212.274 69.8202 212.12 69.9111C211.869 70.0592 211.601 70.2352 211.357 70.4045C204.835 75.412 199.275 81.2615 193.945 87.397C193.006 88.5156 192.07 89.6748 191.229 90.8858Z" fill="#DAE562"/>
<path d="M212.8 104.405C212.629 104.279 212.414 104.226 212.204 104.257C211.993 104.289 211.804 104.403 211.677 104.575C211.551 104.746 211.498 104.961 211.53 105.171C211.562 105.382 211.676 105.571 211.847 105.698C211.847 105.698 211.847 105.698 211.847 105.698C212.135 105.889 212.263 105.877 212.396 105.904C212.497 105.918 212.611 105.921 212.687 105.921C212.859 105.92 213.002 105.908 213.152 105.891C213.435 105.858 213.705 105.809 213.963 105.755C214.486 105.645 214.983 105.512 215.478 105.366C221.029 103.629 226.101 100.958 231.053 98.1282C231.28 97.9967 231.51 97.8645 231.743 97.7315C231.849 97.6696 231.916 97.6308 232.021 97.5631C232.092 97.5139 232.112 97.5079 232.233 97.4008C232.281 97.3514 232.343 97.3085 232.434 97.1285C232.476 97.037 232.535 96.8868 232.507 96.661C232.478 96.3387 232.176 96.0683 232.016 96.0163C231.693 95.8977 231.588 95.9608 231.562 95.9528C231.531 95.9562 231.504 95.9603 231.48 95.9645C231.137 96.0385 231.034 96.0879 230.821 96.1573C230.474 96.2766 230.117 96.4092 229.782 96.5331C229.096 96.789 228.421 97.0443 227.743 97.3008C226.384 97.816 225.031 98.3282 223.682 98.8569C220.977 99.9341 218.31 100.98 215.684 102.553L215.498 102.69C215.399 102.784 215.348 102.784 215.088 103.13C215.052 103.183 215.024 103.225 214.974 103.319C214.918 103.427 214.855 103.569 214.813 103.773C214.777 103.929 214.736 104.366 214.917 104.769C215.108 105.195 215.377 105.403 215.582 105.532C216.053 105.786 216.132 105.739 216.288 105.773C216.439 105.788 216.473 105.785 216.545 105.785C216.972 105.764 217.038 105.726 217.199 105.698C219.1 105.227 220.438 103.932 222.167 103.341C222.438 103.246 222.718 103.168 223.001 103.116C226.934 102.402 230.928 101.935 234.916 101.457C235.909 101.34 236.902 101.224 237.896 101.108C238.012 101.095 238.117 101.036 238.19 100.944C238.262 100.853 238.295 100.736 238.282 100.62C238.268 100.504 238.209 100.398 238.118 100.326C238.026 100.253 237.91 100.22 237.794 100.234C237.794 100.234 237.794 100.234 237.794 100.234C236.8 100.35 235.807 100.466 234.812 100.583C230.819 101.062 226.822 101.528 222.841 102.25C222.554 102.303 222.262 102.335 221.97 102.353C220.184 102.446 218.083 102.096 216.51 102.489C216.449 102.506 216.297 102.517 216.492 102.505C216.533 102.505 216.55 102.502 216.665 102.514C216.789 102.544 216.847 102.494 217.289 102.732C217.483 102.853 217.742 103.053 217.927 103.465C218.103 103.856 218.062 104.276 218.028 104.42C217.989 104.612 217.931 104.74 217.882 104.834C217.84 104.914 217.817 104.948 217.789 104.988C217.598 105.239 217.627 105.171 217.622 105.184L217.435 105.321C219.7 103.901 222.246 102.469 224.727 101.074C225.976 100.379 227.234 99.6975 228.513 99.0503C229.151 98.728 229.79 98.4156 230.437 98.1208C230.751 97.9778 231.09 97.8293 231.393 97.7077C231.482 97.6727 231.555 97.6446 231.623 97.6199C231.703 97.5904 231.782 97.5671 231.774 97.5677C231.77 97.5684 231.761 97.5697 231.745 97.5713C231.732 97.561 231.683 97.6216 231.372 97.5111C231.22 97.4628 230.923 97.1978 230.895 96.8828C230.867 96.6623 230.925 96.5185 230.963 96.4343C231.048 96.2689 231.095 96.2447 231.118 96.218C231.168 96.175 231.141 96.2014 231.117 96.217C231.067 96.252 231.012 96.2867 230.926 96.3385C230.699 96.4749 230.473 96.6081 230.249 96.738C225.371 99.5308 220.313 102.174 215.023 103.826C214.558 103.963 214.094 104.087 213.634 104.183C213.409 104.23 213.178 104.272 212.97 104.295C212.861 104.308 212.763 104.315 212.684 104.315C212.649 104.315 212.611 104.313 212.605 104.312C212.602 104.319 212.607 104.281 212.8 104.405Z" fill="#DAE562"/>
<path d="M210.806 146.005C211.116 146.533 211.623 146.916 212.215 147.07C212.807 147.224 213.436 147.136 213.964 146.826C214.491 146.517 214.874 146.01 215.028 145.418C215.182 144.826 215.095 144.197 214.785 143.669C214.258 142.85 213.889 142.666 213.534 142.401C213.182 142.166 212.855 141.994 212.523 141.844C211.861 141.549 211.196 141.342 210.429 141.232C210.417 141.231 210.405 141.229 210.393 141.228C210.223 141.205 210.046 141.189 209.863 141.18C209.599 141.171 209.441 141.165 209.105 141.182C209.025 141.186 208.945 141.193 208.861 141.202C208.776 141.212 208.698 141.22 208.537 141.25C208.39 141.279 208.226 141.318 208.023 141.396C207.844 141.471 207.213 141.697 206.76 142.453C206.511 142.842 206.372 143.529 206.457 143.994C206.491 144.234 206.557 144.437 206.628 144.604C206.707 144.782 206.733 144.82 206.786 144.911C206.978 145.225 207.158 145.396 207.296 145.523C207.489 145.696 207.68 145.823 207.807 145.902C207.929 145.978 208.049 146.045 208.172 146.11C208.274 146.163 208.372 146.211 208.476 146.26C209.272 146.627 209.951 146.852 210.652 147.079C212.046 147.521 213.43 147.873 214.816 148.202C217.63 148.839 220.228 149.475 223.33 149.938C223.622 149.964 223.824 149.983 224.116 150.003C224.188 150.008 224.344 150.018 224.473 150.018C224.505 150.017 224.539 150.021 224.683 150.007C224.753 149.999 224.832 149.994 225.007 149.938C225.095 149.906 225.214 149.865 225.389 149.739C225.435 149.703 225.684 149.531 225.839 149.171C226.004 148.815 225.957 148.336 225.833 148.082C225.571 147.568 225.379 147.534 225.278 147.451C225.177 147.39 225.09 147.354 225.075 147.348C225.042 147.334 225.014 147.323 224.989 147.314C224.938 147.295 224.895 147.281 224.853 147.269C224.587 147.19 224.421 147.156 224.232 147.111C223.862 147.027 223.52 146.954 223.151 146.875C222.443 146.723 221.757 146.575 221.054 146.421C219.658 146.114 218.268 145.797 216.88 145.475C214.154 144.833 211.173 144.174 208.734 143.588L207.153 147.338C208.201 147.95 208.932 148.228 209.781 148.586C213.591 150.118 217.541 150.936 221.439 151.988L221.401 151.974C221.728 152.073 222.054 152.176 222.377 152.284C223.924 152.798 225.451 153.378 226.973 154.004C227.92 154.393 228.864 154.797 229.812 155.203C229.931 155.254 230.071 155.254 230.198 155.209C230.324 155.163 230.428 155.076 230.487 154.96C230.547 154.845 230.559 154.71 230.523 154.58C230.486 154.45 230.405 154.337 230.294 154.269C230.294 154.269 230.294 154.269 230.294 154.269C229.416 153.73 228.535 153.191 227.642 152.663C226.206 151.813 224.739 150.996 223.236 150.234C222.921 150.075 222.605 149.916 222.288 149.757L222.25 149.742C218.599 148.057 214.998 146.181 211.36 144.717C210.61 144.41 209.715 144.046 209.264 143.812L207.683 147.561C210.782 148.148 213.443 148.38 216.308 148.738C217.721 148.908 219.133 149.082 220.537 149.282C221.243 149.382 221.93 149.486 222.624 149.604C222.804 149.635 222.98 149.666 223.137 149.695C223.33 149.731 223.466 149.756 223.648 149.794C223.804 149.825 223.992 149.868 224.065 149.888C224.072 149.89 224.071 149.89 224.054 149.884C224.045 149.881 224.033 149.876 224.013 149.868C224.006 149.864 223.948 149.842 223.858 149.788C223.771 149.714 223.587 149.686 223.328 149.179C223.205 148.929 223.159 148.453 223.323 148.1C223.476 147.743 223.722 147.573 223.766 147.538C223.938 147.415 224.051 147.376 224.133 147.347C224.295 147.295 224.354 147.295 224.398 147.288C224.482 147.281 224.461 147.285 224.465 147.284C224.464 147.285 224.351 147.28 224.299 147.277C224.076 147.261 223.881 147.241 223.609 147.21C221.223 146.794 218.456 145.694 215.946 144.677C214.675 144.153 213.406 143.608 212.194 143.055C211.597 142.781 210.984 142.495 210.514 142.23C210.405 142.168 210.3 142.101 210.277 142.079C210.265 142.069 210.282 142.071 210.374 142.149C210.436 142.207 210.552 142.306 210.707 142.557C210.75 142.63 210.771 142.66 210.838 142.812C210.899 142.955 210.957 143.135 210.989 143.352C211.067 143.774 210.938 144.416 210.709 144.773C210.285 145.47 209.761 145.631 209.654 145.682C209.518 145.734 209.435 145.752 209.384 145.762C209.288 145.78 209.312 145.775 209.33 145.776C209.396 145.776 209.49 145.778 209.643 145.786C209.684 145.789 209.733 145.794 209.786 145.801C209.789 145.801 209.793 145.802 209.797 145.802C210.039 145.835 210.36 145.928 210.628 146.05C210.761 146.11 210.885 146.179 210.957 146.228C211.02 146.25 211.066 146.388 210.806 146.005Z" fill="#DAE562"/>
<path d="M30.4927 157.192C30.4301 157.277 30.404 157.384 30.4202 157.489C30.4363 157.593 30.4934 157.687 30.5788 157.75C30.6642 157.812 30.7709 157.839 30.8756 157.822C30.9802 157.806 31.0742 157.749 31.1368 157.664C31.1368 157.664 31.1368 157.664 31.1368 157.664C32.016 156.467 32.9777 155.306 33.9643 154.17C38.3301 149.238 43.0753 144.55 48.3681 140.651C49.0197 140.185 49.683 139.744 50.3674 139.345C50.6551 139.177 50.8876 139.049 51.1125 138.934C51.2595 138.858 51.3864 138.798 51.4918 138.753C51.5654 138.719 51.7702 138.646 51.7965 138.648C51.8029 138.646 51.8236 138.652 51.7631 138.645C51.7126 138.646 51.552 138.557 51.5119 138.435C51.4554 138.187 51.5078 138.27 51.4791 138.286C51.45 138.345 51.348 138.489 51.2818 138.57C51.1078 138.789 50.936 138.977 50.7297 139.197C49.9379 140.028 49.1065 140.795 48.253 141.572C46.5338 143.13 44.7918 144.619 43.0251 146.116C41.2634 147.607 39.4831 149.092 37.7155 150.577C36.8212 151.329 35.9589 152.056 35.0643 152.82C34.6238 153.196 34.1854 153.573 33.7442 153.959C33.6472 154.044 33.5235 154.153 33.4105 154.253C33.2927 154.358 33.2133 154.428 33.0863 154.543C32.9533 154.665 32.8798 154.731 32.7436 154.862C32.6647 154.94 32.632 154.967 32.5308 155.084C32.4969 155.127 32.462 155.161 32.3914 155.287C32.359 155.358 32.298 155.438 32.2702 155.698C32.2607 155.827 32.2682 156.029 32.3858 156.252C32.4988 156.477 32.7325 156.658 32.9162 156.723C33.2982 156.849 33.4381 156.768 33.4696 156.774C33.5263 156.763 33.567 156.751 33.6005 156.741C33.6668 156.719 33.7058 156.702 33.7388 156.686C33.8604 156.627 33.9086 156.592 33.9815 156.545C34.9786 155.884 35.851 155.142 36.693 154.39C40.867 150.562 43.9655 145.89 47.5596 141.666C47.7238 141.471 47.881 141.279 48.0307 141.064C48.1021 140.957 48.1745 140.856 48.2264 140.708C48.2369 140.672 48.2509 140.632 48.2425 140.567C48.243 140.502 48.1483 140.417 48.0933 140.417C47.9839 140.404 47.9203 140.433 47.8547 140.454C47.1985 140.738 46.6208 141.086 46.025 141.458C45.704 141.664 45.3898 141.882 45.0954 142.12C43.7634 143.199 42.4566 144.29 41.2407 145.405C41.1073 145.528 40.9755 145.651 40.8448 145.773C40.5349 146.065 40.2296 146.353 39.9232 146.635C38.8682 147.604 37.7973 148.493 36.4389 149.141C36.3849 149.167 36.3366 149.206 36.3064 149.259C36.2763 149.312 36.2664 149.372 36.2796 149.429C36.2927 149.486 36.3281 149.536 36.3783 149.571C36.4285 149.605 36.4893 149.619 36.549 149.619C36.549 149.619 36.549 149.619 36.549 149.619C38.1501 149.601 39.7471 148.898 41.0028 147.938C41.3715 147.66 41.7185 147.363 42.0475 147.054C42.1863 146.923 42.3212 146.79 42.4533 146.656C43.6574 145.428 44.6226 144.029 45.7218 142.775C45.9646 142.499 46.1973 142.212 46.4365 141.932C46.8662 141.437 47.341 140.91 47.9273 140.657C47.9761 140.638 48.0411 140.625 48.0546 140.63C48.0612 140.638 48.0225 140.604 48.0282 140.6C48.0288 140.598 48.0266 140.621 48.0192 140.641C47.9858 140.735 47.9157 140.839 47.8471 140.935C47.7018 141.133 47.5409 141.316 47.3714 141.499C43.5913 145.55 39.3226 149.19 35.3168 152.859C34.5157 153.577 33.6873 154.289 32.8555 154.864C32.8249 154.886 32.7989 154.896 32.8742 154.859C32.8955 154.849 32.9247 154.836 32.9829 154.817C33.0123 154.807 33.0494 154.797 33.1029 154.787C33.1325 154.793 33.2649 154.712 33.6434 154.838C33.8252 154.902 34.0574 155.081 34.1697 155.304C34.2864 155.526 34.2936 155.726 34.2843 155.852C34.2568 156.108 34.1983 156.181 34.1703 156.244C34.1086 156.353 34.0908 156.364 34.0819 156.377C34.0688 156.39 34.1081 156.346 34.1585 156.296C34.2606 156.193 34.3295 156.126 34.4499 156.012C34.5666 155.901 34.6407 155.831 34.7521 155.727C34.859 155.627 34.9774 155.517 35.0699 155.431C35.4924 155.039 35.9159 154.65 36.3404 154.26C37.2036 153.467 38.0326 152.703 38.8904 151.909C40.5855 150.34 42.2819 148.753 43.9614 147.161C45.6464 145.562 47.3072 143.973 48.9684 142.326C49.7945 141.501 50.5977 140.698 51.3955 139.805C51.6055 139.567 51.7795 139.365 51.9772 139.102C52.0522 139 52.1758 138.828 52.252 138.67C52.2613 138.618 52.4154 138.449 52.3066 138.113C52.1276 137.708 51.6814 137.802 51.6448 137.81C51.2479 137.906 51.0485 138.032 50.7255 138.197C50.4852 138.326 50.2454 138.465 49.9509 138.642C49.2448 139.068 48.569 139.526 47.9037 140.001C42.5171 143.971 37.773 148.666 33.362 153.646C32.3653 154.793 31.3927 155.967 30.4927 157.192Z" fill="#DAE562"/>
<path d="M17.034 118.253C17.3769 118.365 17.7504 118.337 18.0724 118.174C18.3943 118.01 18.6382 117.726 18.7505 117.383C18.8628 117.04 18.8343 116.667 18.6713 116.345C18.5082 116.023 18.2239 115.779 17.881 115.667C17.881 115.667 17.881 115.667 17.881 115.667C17.4134 115.517 17.0616 115.381 16.6462 115.185C16.5892 115.158 16.5325 115.131 16.4746 115.103C16.2329 114.987 15.9879 114.852 15.9113 114.795C15.8966 114.785 15.8963 114.779 15.9447 114.834C15.9746 114.894 16.1646 115.009 16.1799 115.555C16.1777 115.816 16.0554 116.089 15.9485 116.223C15.8352 116.369 15.7544 116.421 15.7032 116.457C15.5985 116.523 15.5849 116.517 15.5903 116.516C15.6031 116.509 15.6732 116.488 15.7546 116.472C16.047 116.415 16.3387 116.361 16.6298 116.311C23.6159 115.068 30.8408 115.75 38.0032 117.15C38.8239 117.29 39.6329 117.443 40.5524 117.5C41.4158 117.545 42.0905 117.582 42.8898 117.623C42.9797 117.628 43.0662 117.632 43.1494 117.637C43.2481 117.642 43.369 117.648 43.4693 117.653C43.6783 117.663 43.8456 117.671 44.0216 117.679C44.1444 117.684 44.2524 117.688 44.3466 117.692C44.4584 117.696 44.4618 117.698 44.6508 117.701C44.7204 117.701 44.7706 117.702 44.8445 117.698C44.8541 117.698 44.8645 117.697 44.8762 117.696C44.8979 117.689 44.9265 117.711 45.1633 117.633C45.2311 117.604 45.3274 117.576 45.4941 117.43C45.6542 117.313 45.9135 116.851 45.7919 116.443C45.681 116.053 45.4889 115.937 45.3999 115.864C45.3007 115.794 45.2435 115.771 45.199 115.751C45.0372 115.689 45.0153 115.695 44.9712 115.684C44.9254 115.675 44.9248 115.676 44.9218 115.675C44.915 115.674 44.9084 115.673 44.9019 115.672C44.8759 115.668 44.8508 115.664 44.8243 115.661C44.7233 115.647 44.5653 115.631 44.501 115.624C42.9077 115.466 41.4366 115.343 39.8844 115.203C36.8092 114.928 33.7666 114.647 30.6992 114.355C24.7097 113.743 18.0585 113.249 12.7896 112.345L12.1159 115.2C13.0827 115.303 13.9589 115.34 14.8591 115.379C19.1375 115.538 23.3691 114.9 27.5943 114.512L27.5793 114.512C28.0316 114.482 28.4842 114.457 28.9371 114.44C31.8522 114.331 34.7747 114.392 37.6852 114.651C39.2821 114.792 40.8723 114.99 42.4599 115.241C42.4599 115.241 42.4599 115.241 42.4599 115.241C40.8952 114.873 39.3171 114.57 37.7255 114.321C34.8246 113.867 31.8882 113.606 28.9491 113.43C28.4925 113.402 28.0362 113.372 27.58 113.341L27.5649 113.342C23.3426 113.157 19.1364 112.569 14.9773 112.414C14.118 112.379 13.2168 112.34 12.4426 112.263L11.769 115.118C18.5146 116.317 24.2816 116.36 30.5102 116.803C33.5909 116.985 36.6446 117.155 39.7246 117.34C41.2724 117.435 42.7727 117.521 44.3083 117.642C44.367 117.647 44.5159 117.661 44.5732 117.667C44.5883 117.669 44.5992 117.67 44.6034 117.67C44.6044 117.67 44.605 117.671 44.6051 117.67C44.5875 117.661 44.6786 117.704 44.4171 117.614C44.3747 117.595 44.3191 117.573 44.2212 117.504C44.1333 117.431 43.9419 117.316 43.8312 116.927C43.7098 116.519 43.9688 116.059 44.1281 115.942C44.294 115.796 44.389 115.77 44.455 115.741C44.6872 115.666 44.6898 115.691 44.7044 115.684C44.7109 115.683 44.7154 115.683 44.7188 115.683C44.7423 115.682 44.71 115.684 44.6637 115.684C44.4565 115.684 44.3463 115.681 44.0931 115.674C43.9223 115.67 43.7578 115.665 43.5516 115.658C43.4526 115.655 43.3329 115.65 43.2351 115.647C43.1527 115.644 43.0668 115.641 42.9775 115.638C42.1833 115.608 41.5097 115.58 40.648 115.542C39.9478 115.506 39.1334 115.366 38.3409 115.229C31.2138 113.838 23.7095 112.614 16.22 113.691C15.9079 113.734 15.5946 113.782 15.2803 113.834C15.1133 113.863 14.9434 113.896 14.7215 113.968C14.5897 114.014 14.4264 114.069 14.1977 114.218C14.0855 114.295 13.946 114.395 13.7855 114.605C13.6333 114.798 13.481 115.145 13.4774 115.482C13.4902 116.183 13.7706 116.433 13.8979 116.607C14.046 116.777 14.1619 116.869 14.268 116.952C14.6785 117.258 14.9804 117.397 15.2819 117.549C15.3503 117.582 15.4183 117.615 15.4877 117.647C15.9724 117.88 16.5521 118.101 17.034 118.253Z" fill="#DAE562"/>
<path d="M34.3282 88.2005C34.5157 88.5198 34.8224 88.7517 35.1809 88.8449C35.5394 88.9381 35.9202 88.8851 36.2396 88.6976C36.5589 88.5101 36.7908 88.2033 36.884 87.8449C36.9772 87.4864 36.9242 87.1056 36.7367 86.7862C36.7367 86.7862 36.7367 86.7862 36.7367 86.7862C36.0469 85.8043 35.5404 85.6805 34.9624 85.3776C34.3926 85.1273 33.8035 84.9534 33.1271 84.8953C32.919 84.8787 32.702 84.8751 32.474 84.892C32.0568 84.9284 31.7592 84.9513 31.254 85.089C31.1233 85.1279 30.7721 85.2344 30.472 85.4651C30.2992 85.5872 29.9569 85.9345 29.8553 86.3853C29.7403 86.8407 29.8625 87.2736 30.0046 87.5343C30.4941 88.3 30.77 88.3253 31.0708 88.5403C31.6107 88.8522 32.1197 89.0591 32.5959 89.2442C33.5805 89.6204 34.5469 89.9128 35.5276 90.1863C37.4639 90.7205 39.4249 91.1527 41.3812 91.5407C45.3393 92.2341 49.1009 93.1812 53.3544 93.057C53.5162 93.0245 53.6611 92.9906 53.7916 92.9543C54.0293 92.8722 54.2485 92.8642 54.5741 92.5488C54.6824 92.434 54.7673 92.2113 54.7319 92.0253C54.7057 91.8496 54.6051 91.714 54.5372 91.6413C54.4278 91.5202 54.2663 91.4185 54.18 91.3685C53.7324 91.1202 53.3452 90.9945 52.9229 90.8498C52.1082 90.5808 51.2815 90.3572 50.4697 90.1413C48.8429 89.713 47.2002 89.3151 45.5662 88.9297C42.3122 88.1548 38.9443 87.4709 35.7965 86.8495C35.7219 86.8326 35.6759 86.819 35.6562 86.8119C35.654 86.8117 35.6481 86.8048 35.7168 86.838C35.7556 86.8584 35.8167 86.8901 35.9094 86.9685C35.9554 86.9969 36.3713 87.3905 36.3177 87.9742C36.2647 88.5119 35.9593 88.7477 35.8679 88.8239C35.7887 88.885 35.7376 88.9109 35.7044 88.9277C35.6382 88.959 35.6487 88.9513 35.6519 88.9513C35.671 88.9454 35.7275 88.9312 35.7918 88.9182C38.6703 88.541 42.4057 88.404 45.1136 89.0412C45.3806 89.1266 45.5847 89.1928 45.8667 89.2746C45.9009 89.2843 45.9231 89.2908 45.9872 89.3075C46.0148 89.3145 46.0423 89.3212 46.0765 89.3285C46.1108 89.3348 46.0559 89.3273 46.1878 89.348C46.2216 89.3523 46.2622 89.3578 46.3369 89.3592C46.4169 89.3539 46.5101 89.3783 46.7993 89.2728C46.9393 89.2142 47.1745 89.0963 47.3628 88.7944C47.5573 88.4943 47.5627 88.0771 47.4892 87.8577C47.3112 87.3843 47.2463 87.4341 47.1987 87.3581C47.0063 87.1753 46.9676 87.1782 46.9172 87.1441C46.8733 87.1197 46.8427 87.1051 46.8192 87.0939C46.7962 87.083 46.7754 87.0736 46.7544 87.0645C46.7161 87.0476 46.6595 87.0241 46.6376 87.0152C46.5074 86.9624 46.3932 86.9188 46.2618 86.869C44.8152 86.3309 43.4094 85.7582 41.976 85.1888C41.2573 84.9053 40.5418 84.6272 39.7847 84.3692C39.4145 84.2431 39.0187 84.1174 38.6072 84.0102C38.3941 83.9555 38.1682 83.9036 37.926 83.8641C37.7768 83.842 37.6626 83.8252 37.4677 83.8165C37.3688 83.8128 37.2645 83.8127 37.1456 83.8216C36.9902 83.8356 36.7948 83.8589 36.5324 83.9601L35.5602 84.2956L35.4627 85.4953C35.4755 86.3852 35.7127 86.6506 35.8568 86.9621C36.0185 87.2511 36.1763 87.4682 36.3365 87.6717C36.6561 88.0728 36.9776 88.394 37.3095 88.6928C38.0362 89.3407 39.1853 89.3156 40.1786 89.3417C40.78 89.358 41.3365 89.3988 41.7711 89.6481C43.023 90.3643 44.3119 91.0134 45.608 91.6456C46.8805 92.265 48.1623 92.8646 49.4436 93.4649C49.4436 93.4649 49.4436 93.4649 49.4436 93.4649C48.1623 92.8646 46.8805 92.265 45.608 91.6456C44.3119 91.0134 43.023 90.3643 41.7711 89.6481C41.3363 89.3988 41.0307 88.9219 40.7931 88.3942C40.3906 87.5131 40.1919 86.5096 39.6781 86.0497C39.4392 85.8358 39.2149 85.6198 39.0433 85.4299C38.9586 85.3369 38.8879 85.2482 38.8543 85.2053C38.8104 85.1887 38.8672 85.0924 38.8824 85.5976L37.8127 87.1327C37.4264 87.2608 37.4343 87.2008 37.4272 87.2072C37.4359 87.2019 37.4781 87.1985 37.5418 87.2002C37.6512 87.2013 37.8095 87.2153 37.9713 87.2345C38.2877 87.2712 38.6492 87.3304 38.9953 87.3911C39.7069 87.5181 40.4276 87.6673 41.1523 87.8327C42.5959 88.1646 44.0666 88.5586 45.4315 89.0666C45.5506 89.1117 45.6565 89.1526 45.7473 89.1899C45.7626 89.1962 45.7977 89.2109 45.8073 89.2153C45.8132 89.2179 45.8159 89.2193 45.813 89.2179C45.81 89.2164 45.8006 89.2124 45.7705 89.1958C45.7343 89.1696 45.705 89.1788 45.5172 89.0006C45.4706 88.9257 45.4069 88.9767 45.2296 88.5053C45.1563 88.2867 45.1616 87.8703 45.3558 87.5708C45.5436 87.2695 45.7782 87.1521 45.9171 87.094C46.2043 86.9892 46.2942 87.0141 46.3696 87.0088C46.4397 87.0101 46.4745 87.015 46.5011 87.0183C46.5936 87.0328 46.5497 87.0266 46.5678 87.0297C46.5794 87.0322 46.579 87.0322 46.5732 87.0307C46.5563 87.0262 46.5375 87.0208 46.5168 87.0148C46.4099 86.9833 46.3206 86.9549 46.19 86.9129C46.0851 86.879 45.9782 86.8437 45.8476 86.8002C42.0757 85.9161 38.9869 85.9771 35.2832 86.4246C35.1632 86.4497 35.0556 86.4726 34.8891 86.5242C34.7936 86.5564 34.7537 86.5647 34.582 86.6456C34.5044 86.6844 34.4165 86.7324 34.3085 86.8158C34.1753 86.9238 33.8386 87.2005 33.7836 87.776C33.7227 88.3974 34.1803 88.847 34.2541 88.8963C34.3747 88.9986 34.473 89.0543 34.559 89.0989C34.7238 89.1796 34.7722 89.1915 34.8693 89.2247C35.0457 89.2797 35.1298 89.2969 35.2697 89.3266C38.6732 89.92 41.9473 90.1785 45.276 90.5793C46.9302 90.7743 48.593 90.9867 50.2199 91.2733C51.0301 91.4176 51.8547 91.5828 52.6315 91.7986C53.0255 91.9107 53.4118 92.0319 53.7133 92.1916C53.7703 92.2202 53.8513 92.2795 53.8497 92.281C53.8555 92.2854 53.8215 92.257 53.8069 92.1703C53.7872 92.0798 53.8415 91.9585 53.8676 91.9379C53.9259 91.9016 53.7126 92.0208 53.5425 92.0585C53.4405 92.0869 53.3174 92.1155 53.174 92.1434C49.5223 92.2137 45.5425 90.8928 41.8275 89.7886C39.9558 89.1991 38.0858 88.5627 36.2762 87.8832C35.3628 87.5389 34.4626 87.1847 33.6184 86.8001C33.2187 86.6166 32.7812 86.4009 32.4914 86.2114C32.4212 86.1659 32.3507 86.1135 32.3288 86.0922C32.3014 86.077 32.3135 86.0334 32.4462 86.2548C32.5228 86.3902 32.624 86.7066 32.5363 87.0512C32.4571 87.3948 32.2144 87.6226 32.1378 87.6757C31.9756 87.7906 31.9788 87.7639 32.0142 87.7602C32.1364 87.7292 32.3737 87.6965 32.6759 87.6761C32.7411 87.6719 32.8187 87.6726 32.9034 87.6794C33.1802 87.7008 33.5227 87.7933 33.8263 87.9292C33.9775 87.9963 34.1225 88.076 34.2318 88.151C34.3361 88.2121 34.4267 88.3407 34.3282 88.2005Z" fill="#DAE562"/>
</svg>
