<svg width="168" height="158" viewBox="0 0 168 158" fill="none" xmlns="http://www.w3.org/2000/svg">
<path d="M44.4487 96.3899C44.0816 96.4479 43.7526 96.6494 43.5342 96.9501C43.3157 97.2507 43.2255 97.6258 43.2836 97.9928C43.3417 98.3599 43.5432 98.6889 43.8438 98.9074C44.1445 99.1259 44.5196 99.216 44.8866 99.1579C46.1552 98.9572 47.4205 98.7412 48.6829 98.5117C54.4351 97.4645 60.1234 96.1456 65.7604 94.66C65.7777 94.6555 65.795 94.6509 65.8123 94.6463L66.2637 94.5273L66.5537 94.1609C66.7167 93.97 67.006 93.4446 66.8713 92.8476C66.7344 92.2799 66.4455 92.0586 66.3008 91.9276C65.9781 91.6745 65.7964 91.62 65.6297 91.5486C65.2969 91.4219 65.0479 91.364 64.7971 91.3064C64.2932 91.1955 63.8427 91.1289 63.3825 91.0676C62.468 90.9486 61.5744 90.8722 60.6893 90.8085C58.9094 90.6831 57.1531 90.6155 55.3782 90.5681C55.3428 90.5672 55.3072 90.5663 55.2715 90.5654C41.6753 90.2882 28.1294 90.6215 14.5746 90.9243C13.3019 90.9546 12.0304 90.9856 10.7542 91.0172C10.7163 91.0181 10.6799 91.0344 10.6531 91.0619C10.6262 91.0894 10.6111 91.1259 10.6111 91.1638C10.6111 91.2017 10.6261 91.2382 10.6529 91.2658C10.6797 91.2933 10.7161 91.3096 10.754 91.3106C10.754 91.3106 10.754 91.3106 10.754 91.3106C12.03 91.3442 13.3011 91.3795 14.5733 91.4164C28.1147 91.8279 41.6793 92.3084 55.1541 93.1316C55.1893 93.134 55.2245 93.1363 55.2594 93.1386C57.0118 93.2557 58.7432 93.3795 60.4644 93.5399C61.318 93.6205 62.177 93.7101 63.0042 93.828C63.4164 93.8874 63.818 93.9531 64.1809 94.0358C64.3541 94.0751 64.5275 94.1244 64.6096 94.1576C64.6414 94.1649 64.6703 94.2044 64.5163 94.0881C64.4524 94.0237 64.2446 93.8918 64.1303 93.4311C64.0792 93.2121 64.1066 92.9394 64.168 92.7711C64.2307 92.5908 64.3007 92.4938 64.3559 92.4221L65.0972 91.9367C65.0801 91.9412 65.0629 91.9457 65.0458 91.9502C59.4648 93.4211 53.8437 94.7237 48.1816 95.7544C46.939 95.9803 45.6948 96.1927 44.4487 96.3899Z" fill="#6942B5"/>
<path d="M109.598 90.9855C109.198 91.0488 108.839 91.2684 108.601 91.5959C108.363 91.9234 108.265 92.332 108.328 92.7319C108.392 93.1318 108.611 93.4902 108.939 93.7283C109.266 93.9663 109.675 94.0645 110.075 94.0012C110.075 94.0012 110.075 94.0012 110.075 94.0012C111.018 93.7902 111.247 93.5595 111.656 93.366C112.014 93.1734 112.367 92.9812 112.562 92.9059C112.569 92.9034 112.575 92.9011 112.58 92.8991L110.541 91.2342C110.567 91.0915 110.573 91.1037 110.57 91.1096C109.341 93.9579 109.27 97.8214 108.017 100.892C108.012 100.904 108.007 100.917 108.002 100.929C103.379 112.262 99.1157 123.756 95.1744 135.348C94.8952 136.17 94.619 136.991 94.3428 137.817C94.3428 137.817 94.3428 137.817 94.3428 137.817C94.619 136.991 94.8952 136.17 95.1744 135.348C99.1157 123.756 103.379 112.262 108.002 100.929C108.007 100.917 108.012 100.904 108.017 100.892C109.312 97.7203 111.917 95.4117 113.444 92.1299C113.477 92.0324 113.515 91.9492 113.558 91.7014L113.948 89.1266L111.519 90.0365C111.497 90.0445 111.476 90.0526 111.454 90.0609C110.906 90.2831 110.563 90.4919 110.214 90.6744C110.045 90.7649 109.886 90.8485 109.752 90.9113C109.631 90.9733 109.471 91.0146 109.598 90.9855Z" fill="#6942B5"/>
<path d="M69.2766 42.1033C69.4608 42.3671 69.7421 42.5469 70.0589 42.6033C70.3756 42.6597 70.7018 42.5879 70.9656 42.4038C71.2294 42.2197 71.4093 41.9383 71.4656 41.6216C71.522 41.3048 71.4502 40.9787 71.2661 40.7149C71.2661 40.7149 71.2661 40.7149 71.2661 40.7149C71.115 40.5036 70.9787 40.3962 70.8505 40.2991C70.7375 40.217 70.6747 40.1791 70.5855 40.1261C70.4009 40.0193 70.274 39.9586 70.1308 39.8914C69.8102 39.7443 69.6017 39.6625 69.3053 39.549C68.8007 39.3579 68.2698 39.1791 67.752 39.0126C66.7117 38.6793 65.6991 38.3852 64.6693 38.0957C54.7801 35.3935 44.8374 33.1861 34.8897 30.989C34.4771 30.8989 34.067 30.8101 33.6733 30.7257C33.4448 30.6764 33.2993 30.644 33.1136 30.5983C33.014 30.5734 32.9495 30.556 32.8963 30.54C32.8648 30.5315 32.8525 30.5205 32.9416 30.5638C32.9615 30.5746 32.94 30.5611 33.0083 30.6011C33.0531 30.6293 33.1147 30.6667 33.2104 30.7587C33.2995 30.8522 33.4591 31.0076 33.5416 31.3641C33.6375 31.7205 33.4626 32.2179 33.2598 32.4124C33.0611 32.6248 32.9131 32.6788 32.8189 32.7202C32.7488 32.7474 32.7199 32.7544 32.6844 32.764C32.5569 32.7945 32.5277 32.79 32.512 32.7921C32.6599 32.7892 33.1528 32.8341 33.513 32.8743C34.2787 32.9587 35.0794 33.0654 35.8615 33.1738C37.4498 33.3955 39.0124 33.6353 40.5883 33.8891C43.7228 34.395 46.8772 34.9548 50.0104 35.5734C56.2694 36.8181 62.5119 38.2719 68.5347 40.3309C69.0582 40.5111 69.574 40.6957 70.0881 40.8886C70.4597 41.028 70.7851 41.2801 71.0914 41.5811C71.2444 41.7314 71.3902 41.8932 71.544 42.0613C71.6221 42.1456 71.6969 42.2299 71.7986 42.3215C71.8507 42.367 71.9016 42.4142 72.0215 42.4751C72.0588 42.4919 72.0836 42.5058 72.1569 42.5277C72.2224 42.5444 72.3055 42.5793 72.5552 42.5787C72.6418 42.5758 72.7604 42.566 72.9112 42.5237C72.9875 42.5019 73.0694 42.4729 73.165 42.4256C73.2927 42.3621 73.4352 42.2667 73.564 42.1344C74.1455 41.4962 73.9739 40.879 73.9417 40.7146C73.8319 40.3388 73.7807 40.3139 73.7373 40.2223L73.3545 39.8304C72.9955 39.2465 72.5589 38.7149 72.006 38.4174C65.5296 35.2664 59.1219 34.3747 52.7418 32.9126L52.8198 32.9306C52.5324 32.8582 52.2368 32.7829 51.9481 32.7085C46.2612 31.2267 40.4657 29.7418 34.5837 28.6676C32.4895 28.2816 30.3875 27.9411 28.2731 27.6505C28.0411 27.6189 27.8006 27.6654 27.6013 27.794C27.4021 27.9225 27.2608 28.1206 27.2078 28.3476C27.1548 28.5746 27.1938 28.8147 27.3156 29.0182C27.4373 29.2218 27.6323 29.3699 27.8543 29.4443C27.8543 29.4443 27.8543 29.4443 27.8543 29.4443C29.8646 30.1166 31.8663 30.7863 33.8707 31.4504C39.5048 33.3064 45.1127 35.1648 50.9252 36.6801C51.2206 36.7562 51.5239 36.8334 51.8197 36.9077L51.8978 36.9257C58.1734 38.3249 64.852 39.3803 70.1152 41.9504C70.5481 42.1806 71.0706 42.2265 71.6248 42.2858L71.2419 41.8939C71.2142 41.826 71.1752 41.8209 71.0722 41.4688C71.0431 41.3166 70.8725 40.7129 71.4449 40.084C71.5715 39.954 71.7113 39.8605 71.8358 39.7986C71.929 39.7525 72.0085 39.7245 72.0819 39.7035C72.2272 39.6628 72.3389 39.654 72.4182 39.6515C72.6466 39.6519 72.7015 39.6824 72.7437 39.6943C72.7883 39.7101 72.7952 39.7192 72.806 39.7285C72.8316 39.7622 72.7836 39.7733 72.745 39.7852C72.6581 39.806 72.5489 39.8165 72.4406 39.8263C72.2214 39.8445 71.9966 39.8561 71.7777 39.8584C71.3376 39.8619 70.9193 39.8262 70.5401 39.684C70.015 39.4869 69.4901 39.2971 68.959 39.1106C62.8746 36.9873 56.6634 35.2666 50.4098 33.7516C47.2801 32.9983 44.1268 32.3042 40.979 31.6918C39.3957 31.3847 37.824 31.0987 36.211 30.8398C35.415 30.7127 34.6022 30.59 33.7905 30.4894C33.5621 30.4618 33.414 30.4439 33.1598 30.419C32.9377 30.4011 32.777 30.3726 32.3874 30.3808C32.3135 30.3859 32.2399 30.3868 32.0822 30.4251C32.0389 30.4367 32.0046 30.4453 31.9269 30.4755C31.8226 30.5209 31.6674 30.5794 31.4643 30.7967C31.2571 30.996 31.0805 31.4988 31.1777 31.8612C31.2615 32.2235 31.425 32.3852 31.5211 32.4855C31.6238 32.5844 31.6953 32.629 31.7528 32.6649C31.8438 32.7182 31.8175 32.7016 31.8472 32.7176C31.9936 32.79 32.0742 32.8138 32.1724 32.8462C32.3078 32.8884 32.3909 32.9105 32.5215 32.9441C32.7541 33.003 32.9117 33.039 33.1595 33.0936C33.5518 33.1798 33.9606 33.2693 34.3722 33.3591C44.2879 35.5486 54.2515 37.7634 64.0139 40.4315C65.0252 40.7157 66.0174 41.0042 67.0099 41.3223C67.5027 41.4807 68.0027 41.6497 68.4451 41.8174C68.7019 41.9154 68.8825 41.9877 69.1087 42.0916C69.2056 42.1367 69.2897 42.1789 69.36 42.2199C69.4118 42.2361 69.4726 42.3424 69.2766 42.1033Z" fill="#6942B5"/>
<path d="M49.0836 64.4909C49.1442 64.7459 49.3036 64.9664 49.5268 65.1038C49.7499 65.2413 50.0185 65.2844 50.2735 65.2238C50.5284 65.1632 50.7489 65.0039 50.8863 64.7807C51.0238 64.5576 51.0669 64.289 51.0063 64.034C51.0063 64.034 51.0063 64.034 51.0063 64.034C50.1145 61.0617 48.2883 59.1811 46.67 57.098C40.2022 49.419 33.3511 42.2568 26.6102 34.9117C26.5033 34.7961 26.3883 34.6871 26.2668 34.5833C25.7443 34.1386 25.1127 33.8068 24.4988 33.457C24.1905 33.2801 23.8855 33.0987 23.6066 32.8957C23.5404 32.8487 23.4677 32.7912 23.4052 32.7387C23.377 32.7215 23.3309 32.6521 23.3279 32.6861C23.2357 32.7892 23.2636 32.71 23.2608 32.7287C23.2634 32.7293 23.2691 32.7325 23.2721 32.7338C23.2789 32.7369 23.291 32.7448 23.298 32.7488C23.3142 32.7585 23.3336 32.7718 23.35 32.783C23.489 32.8805 23.6184 32.9915 23.7388 33.1112C23.8171 33.1892 23.8955 33.2683 23.9734 33.3474C32.6956 42.7106 40.6024 52.8851 47.6838 63.5251C47.8409 63.7697 47.9931 64.0104 48.1402 64.2468C43.8608 55.0123 37.4472 44.976 31.5613 35.6729C31.4764 35.5437 31.3928 35.4166 31.3104 35.2914C29.3009 32.3189 27.7162 29.5244 25.4009 26.3041C25.3164 26.207 25.2308 26.1134 25.1398 26.0192C24.8537 25.7257 24.4558 25.5333 23.9822 25.4068C23.7379 25.3456 23.4973 25.2904 23.1216 25.2833C22.9358 25.2893 22.6667 25.282 22.3435 25.4958C22.0094 25.7259 21.9349 26.0941 21.9392 26.2744L21.9729 26.5741C22.0455 26.687 22.1112 26.8034 22.1633 26.9221C23.9162 30.4554 26.4451 33.1789 28.7598 36.1243L28.752 36.1139C28.7937 36.1698 28.8357 36.2262 28.8779 36.2832C30.413 38.3581 31.8852 40.4894 33.3475 42.6226C34.8151 44.7673 36.2684 46.9229 37.7264 49.0758C37.7393 49.095 37.7596 49.1083 37.7824 49.1128C37.8053 49.1174 37.8289 49.1129 37.8482 49.1002C37.8676 49.0875 37.8811 49.0677 37.886 49.0449C37.8909 49.0221 37.8868 48.9983 37.8744 48.9787C37.8744 48.9787 37.8744 48.9787 37.8744 48.9787C36.48 46.7841 35.0827 44.5916 33.6736 42.4059C32.2694 40.2313 30.8598 38.0572 29.3922 35.9159C29.3517 35.8571 29.3116 35.7988 29.2718 35.741L29.2639 35.7306C27.0766 32.7425 24.6736 29.733 23.3101 26.4575C23.2715 26.3522 23.25 26.2393 23.2437 26.1277L23.2774 26.4274C23.2989 26.4441 23.2927 26.6434 23.1051 26.7896C22.9263 26.9195 22.8332 26.9165 22.8083 26.9522C22.7588 27.0106 22.8124 27.1115 22.8489 27.2232C22.9342 27.4488 23.0318 27.6996 23.2026 27.8795C23.2579 27.9379 23.3115 27.9975 23.3651 28.0604C25.1333 30.5917 27.0601 33.9326 29.0001 36.8125C29.0831 36.9386 29.1676 37.0664 29.2536 37.196C35.4821 46.2626 42.0939 56.1422 48.6033 63.949C48.4482 63.7155 48.2889 63.4773 48.1257 63.2346C40.7843 52.7087 32.7004 42.7109 23.9734 33.3473C23.8955 33.2682 23.8171 33.1892 23.7388 33.1112C23.6181 32.9912 23.5075 32.8637 23.3963 32.7319C23.3833 32.7163 23.3673 32.6982 23.3538 32.6828C23.3483 32.6761 23.3369 32.6647 23.3301 32.6575C23.3272 32.6543 23.3207 32.6485 23.3145 32.6436C23.3113 32.6411 23.308 32.6387 23.3038 32.6363C23.304 32.6366 23.295 32.6294 23.2752 32.6293C23.2508 32.6207 23.2146 32.6794 23.2224 32.6807C23.2508 32.7885 23.2676 32.7847 23.2894 32.8325C23.3303 32.9073 23.3771 32.9887 23.415 33.0619C23.5807 33.3698 23.7319 33.6928 23.8796 34.019C24.1721 34.6672 24.454 35.3271 24.8586 35.8853C24.9526 36.0146 25.0523 36.1378 25.1592 36.2534C31.8905 43.5868 38.7794 50.7957 45.1429 58.3523C46.7193 60.3249 48.5033 62.4183 49.0836 64.4909Z" fill="#6942B5"/>
<path d="M48.2451 65.2013C47.8287 65.2672 47.4556 65.4958 47.2078 65.8367C46.96 66.1777 46.8577 66.6032 46.9236 67.0195C46.9895 67.4359 47.218 67.809 47.559 68.0569C47.9 68.3047 48.3255 68.4069 48.7418 68.341C49.3109 68.251 49.8803 68.1609 50.4493 68.0709C50.4845 68.0653 50.5186 68.0599 50.5539 68.0543C50.716 68.0284 50.8352 68.0189 50.8937 68.0178C50.9504 67.9982 50.9973 68.0897 50.5904 67.8952C50.4582 67.8208 50.2854 67.6819 50.1559 67.4832C50.0235 67.2888 49.956 67.0373 49.9443 66.8954C49.9153 66.5727 49.9939 66.4162 50.0095 66.3723C50.0455 66.2999 50.0013 66.3894 49.936 66.4691C49.6378 66.8471 49.1252 67.3201 48.622 67.756C39.4888 74.9937 29.192 81.4781 19.1809 87.8443C19.2501 87.8073 19.3559 87.7424 19.5849 87.7304C19.8237 87.709 20.1445 87.8638 20.2598 88.0015C20.4944 88.279 20.4463 88.3378 20.4675 88.3798C20.4769 88.4478 20.467 88.4048 20.4691 88.3687C20.4702 88.2852 20.4861 88.1587 20.5107 88.0367C20.5594 87.7908 20.6456 87.5301 20.7388 87.3509C20.8173 87.2009 20.9174 87.0464 21.0335 86.8941C21.3584 86.4668 21.6504 85.8763 22.1565 85.495C27.9269 81.6953 34.9505 79.4669 41.2907 76.1102C41.7605 75.8703 42.2047 75.6111 42.6446 75.3137C45.7383 73.3248 48.3055 69.6694 47.9324 65.3813C47.8812 65.0667 47.8493 64.7641 47.5586 64.2508C47.4189 64.0101 47.1265 63.6559 46.7252 63.4392C46.3093 63.2026 45.8147 63.146 45.5018 63.1727C35.7213 70.688 32.1363 77.8129 24.949 84.5587L25.057 84.4563C24.8604 84.6289 24.6653 84.7981 24.4699 84.9653C22.8334 86.3648 21.5694 88.2067 19.9731 89.7925C19.5367 90.227 19.0761 90.6404 18.5907 91.018C18.526 91.068 18.4646 91.1154 18.3988 91.1645C17.8597 91.5846 17.2376 91.9304 16.7739 92.5259C16.2664 93.1633 16.533 93.9918 16.8622 94.5523C16.8622 94.5523 16.8622 94.5523 16.8622 94.5523C16.6364 93.9223 16.5501 93.1603 17.0321 92.7457C17.4862 92.3237 18.1372 92.0912 18.7715 91.8417C18.8484 91.8123 18.9219 91.7853 18.9998 91.7564C19.5854 91.5413 20.1892 91.3393 20.7968 91.1306C23.0069 90.3763 25.3058 89.5015 27.064 87.9961C27.2732 87.817 27.4815 87.6361 27.6908 87.4519L27.7988 87.3495C34.3041 80.856 41.3985 71.6699 45.7534 66.7547C45.5952 66.7694 45.2743 66.7383 45.0009 66.5815C44.7365 66.4377 44.5678 66.2188 44.508 66.1121C44.384 65.8811 44.4261 65.8776 44.4333 65.9231C44.9162 68.4626 44.2392 71.9687 41.59 73.8008C41.2254 74.0637 40.8519 74.2981 40.4503 74.5189C34.2687 78.0507 27.5401 80.3577 21.3479 84.4203C20.7941 84.8397 20.0831 85.119 19.5743 85.7365C19.3984 85.9523 19.2323 86.1872 19.0889 86.4388C18.8636 86.843 18.7363 87.2183 18.6381 87.6196C18.5909 87.8224 18.5525 88.0238 18.536 88.2727C18.5306 88.4029 18.5199 88.5244 18.5607 88.7584C18.5987 88.8804 18.5729 89.0225 18.8652 89.3622C19.0091 89.53 19.3703 89.7033 19.6512 89.6798C19.9212 89.6662 20.0649 89.5859 20.1726 89.5264C30.5202 83.4345 40.923 77.692 50.6696 70.1534C51.2547 69.6485 51.8033 69.1942 52.4306 68.428C52.5739 68.2466 52.7858 67.9539 52.9265 67.6253C53.0246 67.3923 53.1497 67.0352 53.1025 66.56C53.0977 66.0908 52.6221 65.3461 52.1674 65.1374C52.0458 65.0686 51.9695 65.0376 51.9071 65.0121C51.8411 64.9858 51.777 64.9641 51.7149 64.9458C51.5908 64.9092 51.4747 64.886 51.3641 64.8701C51.1445 64.838 50.9275 64.8381 50.8272 64.8403C50.5741 64.8457 50.3242 64.8726 50.0571 64.9146C50.0218 64.9202 49.9877 64.9256 49.9525 64.9312C49.3836 65.0212 48.8142 65.1113 48.2451 65.2013Z" fill="#6942B5"/>
<path d="M63.6216 91.9222C63.2005 92.218 62.9142 92.669 62.8256 93.176C62.7371 93.6829 62.8535 94.2043 63.1493 94.6254C63.4452 95.0465 63.8962 95.3328 64.4031 95.4213C64.91 95.5099 65.4314 95.3935 65.8525 95.0977C65.8525 95.0977 65.8525 95.0977 65.8525 95.0977C66.064 94.9317 66.3384 94.8201 66.8398 94.2278C67.0714 93.9465 67.4781 93.2498 67.3493 92.4064C67.2127 91.5934 66.8268 91.2167 66.5975 90.977C66.5738 90.9538 66.5498 90.9309 66.5256 90.9084C65.651 90.1148 64.7765 89.8033 63.9979 89.5511C60.1998 88.5515 56.975 88.5738 53.6859 88.7826C53.6558 88.7851 53.6256 88.7876 53.5952 88.7902C43.626 89.6832 33.7848 90.7489 23.8616 90.9384C23.8527 90.9386 23.8438 90.9387 23.835 90.9389C20.314 90.9786 16.292 91.3679 13.422 90.2552C13.4214 90.255 13.4209 90.2549 13.4204 90.2548L13.3775 91.5041C13.2253 91.6039 13.2099 91.5788 13.1974 91.581C13.1892 91.5768 13.2024 91.5672 13.2215 91.5581C13.2607 91.5395 13.3224 91.5208 13.3888 91.5037C13.5244 91.4694 13.6789 91.4395 13.839 91.412C14.1601 91.3575 14.503 91.3121 14.848 91.2826C15.539 91.2243 16.2471 91.2309 16.9069 91.4154C16.9072 91.4154 16.9076 91.4155 16.9079 91.4156C19.4572 92.1622 21.9728 93.0335 24.5486 93.6945C25.6785 93.9909 26.815 94.2608 27.959 94.5038C26.815 94.2608 25.6785 93.9909 24.5486 93.6945C21.9728 93.0335 19.4572 92.1622 16.9079 91.4156C16.9076 91.4155 16.9072 91.4154 16.9069 91.4154C16.2471 91.2308 15.6265 90.9104 14.9724 90.6043C14.6449 90.4518 14.3101 90.3026 13.9501 90.1857C13.7688 90.1277 13.5852 90.0772 13.376 90.0454C13.2712 90.03 13.1635 90.0185 13.0325 90.0205C12.9643 90.0223 12.8962 90.026 12.8033 90.0433C12.7094 90.0669 12.6106 90.0685 12.3899 90.2194L11.6233 90.9655L12.347 91.4687C12.3493 91.471 12.3516 91.4734 12.3539 91.4757C16.049 94.0996 19.9089 94.609 23.8093 94.8502C23.8184 94.8505 23.8274 94.8508 23.8365 94.8511C33.9351 95.1851 44.0689 94.7976 54.0322 93.9047C54.0623 93.9022 54.0923 93.8996 54.1222 93.8969C57.2008 93.6491 60.4728 92.943 62.9583 93.3865C63.4226 93.4757 63.7947 93.6547 63.8778 93.7455C63.8804 93.7479 63.8827 93.7501 63.8849 93.7523C63.8342 93.6881 63.6079 93.5222 63.5083 92.9601C63.4656 92.6906 63.5132 92.3853 63.588 92.194C63.6625 91.997 63.7401 91.8934 63.7868 91.8321C63.9703 91.631 63.817 91.7976 63.6216 91.9222Z" fill="#6942B5"/>
<path d="M63.1906 97.6607C63.2514 98.0449 63.4623 98.3891 63.7769 98.6178C64.0915 98.8464 64.484 98.9407 64.8682 98.88C65.2523 98.8192 65.5966 98.6083 65.8252 98.2937C66.0539 97.9791 66.1482 97.5865 66.0874 97.2024C66.0874 97.2024 66.0874 97.2024 66.0874 97.2024C66.042 96.9173 66.0008 96.6485 65.9897 96.4696C65.9821 96.3873 65.9934 96.3124 65.9819 96.3938C65.9704 96.4371 65.9642 96.5362 65.8318 96.7421C65.7143 96.9498 65.332 97.2151 65.0639 97.2465C65.0281 97.2533 64.9939 97.2581 64.9616 97.2614C64.5301 97.2793 64.5228 97.2022 64.5013 97.2083C64.4979 97.2065 64.5315 97.2229 64.5823 97.2552C64.6739 97.3121 64.8214 97.421 64.9396 97.5153C65.218 97.7372 65.4919 97.9817 65.7664 98.2351C66.3235 98.7511 66.8934 99.3192 67.4445 99.8792C68.5589 101.014 69.6529 102.175 70.7534 103.349C77.4725 110.575 84.2176 117.85 90.8619 125.185C90.9977 125.335 91.1339 125.486 91.2707 125.637C94.0611 128.747 96.9363 131.845 99.1143 135.431C99.2573 135.678 99.3932 135.927 99.5152 136.184C96.8725 132.958 94.4801 129.065 91.938 125.527C91.8176 125.358 91.6959 125.186 91.5728 125.013C84.2177 114.531 75.8395 104.704 68.1702 94.6367C67.917 94.2794 67.6686 93.8746 67.4785 93.5053C66.8439 92.3182 66.3205 91.0848 65.4897 89.9243C65.1582 89.482 64.8837 89.0636 64.2783 88.5036C64.1699 88.4081 64.0753 88.3274 63.9789 88.2508C63.9015 88.1911 63.8153 88.1168 63.6245 88.0066C63.5989 87.9922 63.5702 87.9768 63.5363 87.9599C63.5231 87.9535 63.5349 87.9589 63.4957 87.9404C63.4516 87.9199 63.3997 87.8973 63.3319 87.8734C63.1939 87.8309 63.0052 87.7521 62.5947 87.7816C62.2063 87.7794 61.4481 88.1754 61.2192 88.7379C60.9783 89.2755 61.0533 89.6014 61.0784 89.7911C61.1018 89.9101 61.1043 89.907 61.11 89.9311C61.1154 89.9512 61.1209 89.9699 61.1262 89.9875C61.137 90.0227 61.1476 90.0536 61.1578 90.0813C61.2398 90.2951 61.2922 90.3691 61.3388 90.4486C61.3885 90.5285 61.4179 90.5696 61.4353 90.5947C61.4558 90.624 61.4762 90.6524 61.497 90.6807C61.5383 90.7371 61.582 90.7945 61.6276 90.853C61.69 90.9329 61.7583 91.018 61.8339 91.1106C61.9838 91.2938 62.0946 91.425 62.2503 91.6086C62.3732 91.7529 62.5076 91.9093 62.6534 92.0776C63.1815 92.6865 63.729 93.304 64.2691 93.9091C65.3609 95.1319 66.4394 96.322 67.5301 97.5228C69.6981 99.9082 71.8914 102.306 74.0607 104.7C78.4065 109.498 82.7101 114.325 86.8036 119.319C86.9696 119.522 87.1333 119.724 87.2945 119.925C92.3171 126.252 96.7062 133.461 98.1302 141.356C98.1364 141.395 98.1414 141.427 98.1451 141.452C98.1466 141.463 98.148 141.475 98.1471 141.466C98.147 141.464 98.145 141.452 98.1451 141.411C98.1478 141.379 98.1379 141.402 98.161 141.265C98.1759 141.203 98.1931 141.11 98.2904 140.966C98.3438 140.893 98.4011 140.821 98.5355 140.736C98.6771 140.647 98.8687 140.607 99.0143 140.619C99.3131 140.649 99.4156 140.758 99.4814 140.805C99.5095 140.828 99.5268 140.845 99.5418 140.861C99.571 140.891 99.5858 140.911 99.5964 140.924C99.6168 140.952 99.6139 140.949 99.6175 140.954C99.6209 140.959 99.6155 140.951 99.6107 140.942C99.5977 140.92 99.5854 140.897 99.5679 140.865C98.1175 138.085 96.9771 135.061 95.3794 132.343C95.263 132.145 95.1413 131.945 95.014 131.743C89.8731 123.643 84.4449 115.807 79.048 107.926C76.8869 104.776 74.7243 101.626 72.5796 98.4596C72.5316 98.3888 72.4592 98.3366 72.3753 98.3162C72.2914 98.2958 72.2034 98.3087 72.13 98.3523C72.0566 98.396 72.0033 98.4671 71.9811 98.5506C71.959 98.634 71.9702 98.7226 72.0095 98.7986C72.0095 98.7986 72.0095 98.7986 72.0095 98.7986C73.7712 102.201 75.6113 105.563 77.5056 108.892C82.2325 117.216 87.3546 125.319 92.4544 133.354C92.5803 133.554 92.7062 133.749 92.8315 133.937C94.5492 136.535 96.6737 138.88 98.1191 141.649C98.1411 141.689 98.1556 141.716 98.1842 141.766C98.197 141.788 98.2089 141.809 98.2339 141.848C98.2485 141.87 98.2495 141.873 98.2852 141.921C98.3024 141.944 98.3231 141.97 98.3576 142.006C98.3754 142.024 98.3951 142.043 98.4256 142.069C98.4972 142.121 98.6045 142.232 98.9074 142.263C99.0549 142.275 99.2483 142.234 99.3916 142.144C99.5275 142.058 99.5857 141.985 99.6401 141.91C99.7394 141.764 99.7581 141.667 99.7741 141.599C99.7997 141.448 99.7893 141.467 99.7923 141.426C99.7927 141.371 99.7886 141.33 99.7873 141.315C99.7837 141.275 99.7789 141.242 99.776 141.221C99.7689 141.171 99.7635 141.138 99.7572 141.098C98.2352 132.7 93.8393 125.331 88.8262 118.724C88.6654 118.514 88.5022 118.304 88.3369 118.093C84.3346 112.977 80.2738 107.915 76.1492 102.897C74.091 100.394 72.0035 97.8909 69.9198 95.4277C68.8715 94.1883 67.8294 92.9653 66.7717 91.7255C66.2491 91.1124 65.7174 90.4893 65.2144 89.8912C65.0756 89.7263 64.9489 89.5746 64.8352 89.4373C64.6912 89.2636 64.59 89.14 64.4638 88.9827C64.4008 88.904 64.3476 88.836 64.3061 88.7816C64.2478 88.7068 64.1978 88.6318 64.2241 88.6713C64.2384 88.6984 64.2691 88.7311 64.3401 88.915C64.3489 88.939 64.3583 88.9663 64.3681 88.9981C64.3729 89.014 64.3779 89.0311 64.3828 89.0496C64.3881 89.0719 64.3903 89.0681 64.4124 89.1804C64.4356 89.3597 64.511 89.6775 64.2727 90.2096C64.0465 90.7664 63.2934 91.1593 62.9123 91.1564C62.5091 91.1852 62.3302 91.1082 62.2042 91.07C62.0766 91.0239 62.0287 90.9951 62.027 90.9952C61.9997 90.9817 61.9781 90.97 61.96 90.9598C61.8253 90.8804 61.8461 90.8845 61.8622 90.9001C61.8882 90.9212 61.9486 90.9724 62.0291 91.0442C62.1623 91.1596 62.4776 91.5542 62.738 91.9174C63.4662 92.9328 64.3921 93.9526 65.247 94.9913C65.5544 95.3692 65.882 95.7621 66.1687 96.129C74.4803 106.068 83.0168 115.412 90.8424 125.556C90.9731 125.724 91.1025 125.89 91.2305 126.054C93.938 129.471 96.797 133.016 99.5217 136.18C99.3953 135.925 99.2573 135.678 99.1143 135.431C96.9411 131.852 94.3812 128.497 91.7692 125.211C91.6416 125.052 91.5142 124.894 91.3871 124.737C85.1583 117.039 79.1935 109.146 72.7606 101.554C71.7035 100.317 70.6403 99.1006 69.5161 97.8951C68.9586 97.2987 68.3755 96.6929 67.762 96.1086C67.4566 95.8193 67.1501 95.5369 66.7702 95.2293C66.6059 95.097 66.3891 94.93 66.1536 94.78C66.0104 94.6909 65.9196 94.6335 65.7027 94.5332C65.5989 94.4867 65.4865 94.4429 65.3547 94.4064C65.2051 94.365 64.9561 94.3136 64.664 94.3437C64.6177 94.3484 64.5699 94.3552 64.5209 94.3644C64.1076 94.421 63.596 94.7745 63.3987 95.1046C63.185 95.4322 63.1363 95.6745 63.098 95.8605C63.0351 96.23 63.0528 96.4492 63.0629 96.6577C63.0911 97.0617 63.1458 97.3695 63.1906 97.6607Z" fill="#6942B5"/>
<path d="M94.6093 134.838C94.4452 135.245 94.4499 135.702 94.6222 136.106C94.7946 136.51 95.1205 136.83 95.5284 136.994C95.9362 137.158 96.3925 137.153 96.7969 136.981C97.2012 136.809 97.5206 136.483 97.6846 136.075C97.6846 136.075 97.6846 136.075 97.6846 136.075C98.6587 133.364 99.2536 130.93 99.9614 128.371C102.867 117.478 105.559 106.576 108.275 95.6579C108.293 95.585 108.311 95.5133 108.328 95.4427C108.561 94.5146 108.816 93.5572 109.092 92.7374C109.13 92.6273 109.16 92.5464 109.193 92.4651C109.207 92.4319 109.222 92.3983 109.226 92.3922C109.227 92.3909 109.229 92.389 109.216 92.4169C109.209 92.4304 109.199 92.4498 109.181 92.4779C109.162 92.5079 109.152 92.5322 109.062 92.6426C109.019 92.6932 108.962 92.7555 108.874 92.8307C108.829 92.8682 108.776 92.9088 108.711 92.951C108.638 92.9947 108.601 93.0285 108.39 93.1121C108.039 93.2688 107.358 93.2518 106.951 92.984C106.742 92.861 106.608 92.7179 106.559 92.6627C106.492 92.5888 106.442 92.52 106.402 92.4583C106.119 91.9487 106.205 91.9592 106.174 91.888C106.158 91.7866 106.164 91.8214 106.162 91.8407C106.161 91.8867 106.156 91.9884 106.148 92.0857C106.116 92.5039 106.057 92.9726 105.995 93.4418C105.741 95.324 105.423 97.2476 105.153 99.176C105.116 99.4392 105.078 99.7089 105.039 99.985C103.431 111.295 102.202 122.692 100.675 134.026C100.645 134.242 100.618 134.453 100.593 134.662C100.174 137.81 100.256 141.186 99.3405 144.082C99.2936 144.23 99.1247 144.305 99.2702 144.198C99.4336 144.167 99.3629 144.138 99.3264 143.979C99.2844 143.835 99.2457 143.661 99.1928 143.49C99.1519 143.358 99.1195 143.22 99.0966 143.082C99.7172 133.344 103.082 122.981 103.388 112.698C103.391 112.654 103.393 112.61 103.395 112.566C103.948 107.064 105.063 101.591 106.974 96.3896C107.262 95.6129 107.57 94.8437 107.901 94.0858C107.905 94.0761 107.909 94.0664 107.913 94.0568C108.683 92.4636 109.624 90.9591 110.668 89.5235C110.671 89.5192 110.672 89.5138 110.671 89.5086C110.67 89.5034 110.668 89.4987 110.663 89.4956C110.659 89.4926 110.654 89.4913 110.648 89.4921C110.643 89.4929 110.639 89.4957 110.635 89.5C110.635 89.5 110.635 89.5 110.635 89.5C109.567 90.915 108.576 92.4009 107.788 93.9983C107.783 94.0107 107.779 94.0204 107.774 94.0301C107.437 94.7882 107.123 95.558 106.83 96.3356C104.883 101.544 103.761 107.027 103.137 112.544C103.133 112.593 103.13 112.637 103.127 112.681C102.682 123.105 98.4772 132.504 97.7969 143.294C97.8291 143.492 97.8742 143.687 97.9342 143.88C98.0138 144.134 98.1439 144.375 98.3391 144.607C98.4392 144.724 98.5528 144.84 98.7198 144.949C98.8772 145.053 99.1549 145.168 99.4391 145.092C99.6829 145.033 99.8409 144.846 99.9092 144.733C99.9847 144.612 100.028 144.509 100.073 144.409C101.094 141.202 101.925 138.159 102.632 134.998C102.675 134.792 102.717 134.582 102.758 134.368C104.89 123.098 107.046 111.843 108.702 100.508C108.742 100.23 108.781 99.9587 108.818 99.6934C109.091 97.7455 109.314 95.8077 109.484 93.8153C109.525 93.3074 109.564 92.8243 109.582 92.2472C109.585 92.1048 109.588 91.9475 109.582 91.7672C109.576 91.64 109.58 91.5976 109.543 91.3473C109.534 91.2907 109.522 91.2279 109.502 91.1522C109.475 91.0595 109.431 90.8695 109.263 90.6055C109.219 90.5383 109.165 90.4647 109.095 90.3865C109.043 90.3279 108.902 90.1781 108.686 90.0511C108.266 89.775 107.569 89.757 107.201 89.9199C106.98 90.0074 106.94 90.0436 106.862 90.0905C106.792 90.1359 106.734 90.1802 106.684 90.222C106.585 90.3058 106.518 90.379 106.464 90.4427C106.348 90.5833 106.325 90.6301 106.291 90.6822C106.26 90.7334 106.235 90.779 106.212 90.8216C106.163 90.9165 106.146 90.9564 106.123 91.0099C106.078 91.1153 106.045 91.2024 106.019 91.2757C105.959 91.4454 105.924 91.5575 105.878 91.7059C105.575 92.7346 105.355 93.6764 105.112 94.6399C105.094 94.7122 105.076 94.7856 105.057 94.8601C102.344 105.768 99.6489 116.68 96.7605 127.509C96.0807 129.989 95.3936 132.658 94.6093 134.838Z" fill="#6942B5"/>
<path d="M113.285 53.423C113.069 53.4572 112.875 53.5756 112.747 53.7523C112.619 53.929 112.566 54.1495 112.6 54.3653C112.634 54.581 112.752 54.7744 112.929 54.9028C113.106 55.0313 113.326 55.0842 113.542 55.0501C113.542 55.0501 113.542 55.0501 113.542 55.0501C113.307 55.0727 113.329 55.0427 113.323 55.0487C113.324 55.0488 113.347 55.0557 113.367 55.0624C113.414 55.0784 113.471 55.1008 113.533 55.1262C113.657 55.1771 113.792 55.2381 113.919 55.2971C114.185 55.4211 114.452 55.5526 114.723 55.6889C115.26 55.9592 115.8 56.2411 116.342 56.5275C117.411 57.093 118.494 57.6791 119.565 58.2617C124.043 60.7032 128.502 63.1758 132.97 65.6373C133.09 65.7032 133.21 65.7694 133.33 65.836C141.153 70.2156 149.36 74.5612 157.333 78.1761C157.556 78.3016 157.762 78.4288 157.942 78.5573C157.876 78.5102 157.747 78.4294 157.596 78.1896C157.538 78.1072 157.399 77.7922 157.407 77.5111C157.398 77.2287 157.533 76.9153 157.597 76.821C157.753 76.571 157.89 76.4874 157.953 76.4415C157.999 76.4108 158.025 76.3977 158.037 76.3912C158.072 76.3744 157.95 76.4144 157.864 76.4308C157.641 76.4801 157.377 76.5209 157.118 76.5552C156.58 76.6265 155.991 76.6812 155.43 76.7249C154.275 76.8147 153.1 76.874 151.93 76.9229C149.595 77.0187 147.218 77.0733 144.869 77.1204C140.145 77.2135 135.419 77.2776 130.69 77.4269C130.577 77.4304 130.465 77.434 130.353 77.4378C124.154 77.3127 117.545 80.3887 112.748 82.5979C112.642 82.6322 112.537 82.6732 112.432 82.7181C111.76 83.0106 111.237 83.2566 110.374 84.0423C110.191 84.244 109.846 84.6521 109.921 85.3342C109.98 86.1226 110.639 87.0927 111.387 87.4144C112.117 87.7711 112.787 87.8191 113.379 87.8359C114.596 87.8453 115.651 87.643 116.71 87.4168C118.808 86.9479 120.809 86.3077 122.789 85.6678C126.751 84.3805 130.653 82.98 134.622 82.0124C134.775 81.9749 134.923 81.9388 135.07 81.9032C139.587 80.8248 144.184 79.909 148.781 79.7173C149.931 79.6775 151.084 79.6915 152.203 79.8184C152.223 79.8208 152.247 79.8238 152.271 79.8268C153.454 80.0469 155.121 79.9564 156.252 79.2566C156.383 79.1876 156.481 79.0684 156.526 78.9266C156.571 78.7846 156.559 78.6316 156.492 78.4999C156.425 78.3683 156.308 78.2685 156.167 78.2214C156.026 78.1743 155.872 78.1837 155.739 78.2487C155.739 78.2487 155.739 78.2487 155.739 78.2487C154.667 78.8123 153.703 78.8152 152.436 78.5931C152.412 78.5896 152.388 78.5861 152.363 78.5825C151.151 78.4193 149.944 78.3828 148.748 78.4008C143.977 78.5098 139.313 79.3661 134.713 80.3475C134.563 80.3799 134.413 80.4129 134.261 80.4463C130.148 81.3462 126.183 82.6559 122.217 83.8221C120.242 84.4008 118.249 84.9719 116.285 85.3503C115.306 85.5338 114.326 85.6734 113.445 85.6364C113.024 85.6197 112.613 85.5343 112.419 85.4191C112.228 85.29 112.238 85.2946 112.194 85.0444C112.234 85.4579 112.045 85.6178 112.041 85.6322C112.003 85.6632 112.228 85.5721 112.434 85.5607C112.651 85.538 112.894 85.5366 113.134 85.5198C113.275 85.503 113.415 85.4791 113.55 85.4453C119.796 83.1402 124.517 81.4831 130.48 81.5102C130.592 81.5069 130.705 81.5035 130.818 81.5C135.559 81.3503 140.294 81.0845 145.039 80.7352C147.399 80.5598 149.788 80.3636 152.157 80.1293C153.344 80.0109 154.539 79.8835 155.747 79.7247C156.337 79.646 156.959 79.5576 157.583 79.4428C157.74 79.4138 157.892 79.384 158.064 79.3471C158.223 79.3126 158.397 79.2723 158.578 79.2224C158.662 79.199 158.761 79.1705 158.873 79.1328C158.987 79.093 159.066 79.0672 159.248 78.9825C159.33 78.9433 159.416 78.8974 159.513 78.8336C159.65 78.7395 159.847 78.6015 160.034 78.2995C160.113 78.1829 160.266 77.8231 160.255 77.5059C160.265 77.1905 160.107 76.8267 160.035 76.7236C159.853 76.4318 159.669 76.2985 159.524 76.1985C159.229 76.0087 158.936 75.8479 158.648 75.7015C150.08 72.2269 142.03 68.7841 134.126 64.3929C134.005 64.3266 133.885 64.2605 133.766 64.1946C129.297 61.7334 124.841 59.2621 120.352 56.8147C119.278 56.2305 118.191 55.6423 117.112 55.0712C116.563 54.7817 116.017 54.4962 115.463 54.2172C115.183 54.0763 114.906 53.9394 114.613 53.8033C114.473 53.7382 114.322 53.6696 114.16 53.6029C114.078 53.5692 113.999 53.5376 113.897 53.5029C113.854 53.4881 113.794 53.4685 113.721 53.4502C113.655 53.4409 113.573 53.3904 113.285 53.423Z" fill="#6942B5"/>
<path d="M112.494 12.1744C112.348 11.9002 112.098 11.6953 111.801 11.6047C111.504 11.5142 111.183 11.5454 110.909 11.6916C110.635 11.8378 110.43 12.0869 110.339 12.3841C110.249 12.6813 110.28 13.0024 110.426 13.2766C110.426 13.2766 110.426 13.2766 110.426 13.2766C110.866 14.899 110.1 18.5156 109.826 21.2665C109.657 22.6672 109.501 24.0786 109.366 25.4907C109.346 25.7015 109.326 25.9152 109.307 26.132C108.609 34.0242 108.807 41.9505 108.988 49.8318C109.001 50.4743 109.023 51.1572 109.022 51.7551C109.015 52.3091 109.011 52.5932 109.003 53.1309C109.002 53.2528 109.001 53.2763 108.999 53.4522C108.998 53.522 108.997 53.5777 108.996 53.6196C108.995 53.6446 108.995 53.6442 108.995 53.684C108.994 53.6989 108.994 53.7146 108.994 53.6965C108.997 53.6811 108.989 53.71 109.007 53.5972C109.011 53.5772 109.015 53.5533 109.035 53.4957C109.083 53.444 109.002 53.3161 109.441 53.0766C109.683 52.9607 110.053 53.0782 110.161 53.197C110.289 53.3118 110.317 53.3864 110.343 53.4359C110.386 53.533 110.388 53.564 110.395 53.5921C110.411 53.683 110.406 53.679 110.408 53.6946C110.41 53.7289 110.409 53.7206 110.409 53.7216C110.409 53.7035 110.409 53.7113 110.409 53.7055C110.409 53.699 110.409 53.6908 110.409 53.6813C110.411 53.4163 110.413 53.2843 110.416 52.9974C110.426 52.1168 110.437 51.2337 110.448 50.3312C110.471 48.5383 110.496 46.7733 110.522 44.9817C110.574 41.3966 110.631 37.8456 110.696 34.2698C110.857 27.1695 110.875 19.8583 111.359 12.986C111.413 12.6698 111.473 12.3452 111.509 11.984C111.526 11.8014 111.54 11.6121 111.524 11.3803C111.489 11.1617 111.515 10.817 111.07 10.4353C110.93 10.329 110.765 10.2766 110.637 10.2605C110.531 10.2464 110.436 10.25 110.349 10.2606C110.195 10.2808 110.088 10.3154 109.985 10.352C109.799 10.42 109.645 10.4986 109.493 10.5815C109.211 10.7373 108.947 10.9124 108.702 11.0823C108.183 11.4432 106.944 10.8835 106.435 11.2922C100.839 15.939 95.8259 20.8807 90.6612 25.7602C90.1232 26.2724 89.6387 26.7379 89.1046 27.2539C86.8351 29.4493 84.6269 31.792 82.5217 34.1735C81.457 35.3773 80.4201 36.5899 79.4046 37.8185C78.8966 38.4327 78.385 39.0629 77.8891 39.6812C77.6383 39.9932 77.393 40.3013 77.1498 40.5977C77.0333 40.7398 76.9063 40.891 76.8062 41.0008C76.7533 41.0592 76.7045 41.1064 76.6984 41.1133C76.6988 41.1156 76.7043 41.1055 76.7848 41.0664C76.8478 41.037 77.0908 40.9339 77.4108 41.0262C77.1763 40.9652 77.0061 40.8852 76.9134 40.8174C76.8084 40.7338 76.7967 40.7171 76.7657 40.6134C76.739 40.5087 76.7417 40.3117 76.8025 40.0626C76.9197 39.5778 77.1876 39.0248 77.503 38.4783C78.1377 37.3884 78.9482 36.3098 79.7735 35.2633C81.434 33.1736 83.2463 31.1249 85.0304 29.0941C88.6282 25.0165 92.2411 20.9258 95.6348 16.6359L95.6485 16.6181C95.8011 16.4131 95.9511 16.2093 96.0992 16.0058C96.5674 15.3627 97.0212 14.7176 97.4678 14.0607C98.4956 12.5714 99.4319 10.9744 100.427 9.58734C100.47 9.52936 100.511 9.4752 100.555 9.41874C101.163 8.62555 101.782 8.09117 102.71 7.65592C102.886 7.56637 103.019 7.41061 103.08 7.22289C103.141 7.03517 103.125 6.83088 103.036 6.65496C102.946 6.47903 102.79 6.34589 102.603 6.28481C102.415 6.22373 102.211 6.23972 102.035 6.32927C102.035 6.32927 102.035 6.32927 102.035 6.32927C101.052 6.76696 100.024 7.62458 99.3775 8.50756C99.3272 8.57256 99.2803 8.63446 99.2315 8.70027C98.1334 10.2353 97.2552 11.7522 96.2357 13.2208C95.7967 13.8633 95.3506 14.4927 94.8888 15.1193C94.7427 15.3175 94.5947 15.516 94.4441 15.7156L94.4579 15.6978C91.0704 19.9222 87.4196 23.9261 83.7359 27.9299C81.9066 29.9268 80.0414 31.9378 78.2773 34.0484C77.3974 35.1116 76.5238 36.2046 75.76 37.4385C75.3796 38.0702 75.0204 38.7081 74.7864 39.543C74.6724 39.982 74.5953 40.4516 74.6967 41.0189C74.7896 41.5805 75.1544 42.1648 75.6055 42.5047C75.9976 42.8104 76.4004 42.9796 76.8092 43.106C77.2238 43.2269 77.5715 43.0961 77.7194 43.0256C77.891 42.9421 77.9706 42.8793 78.0542 42.8161C78.1983 42.7025 78.2874 42.6143 78.3801 42.5226C78.5456 42.3571 78.691 42.1971 78.8256 42.0498C79.1014 41.7461 79.3592 41.4575 79.6255 41.1647C80.1504 40.5872 80.6901 40.011 81.2317 39.4515C82.3137 38.3334 83.4324 37.2434 84.5774 36.1589C86.844 34.0152 89.2053 31.8999 91.496 29.7842C92.0347 29.2864 92.5246 28.8381 93.0674 28.3433C98.3126 23.603 103.524 18.6788 108.832 14.2734C109.291 13.9052 109.022 12.5896 109.511 12.2479C109.733 12.0943 109.968 11.94 110.178 11.8244C110.289 11.7632 110.395 11.7125 110.468 11.6864C110.506 11.6721 110.536 11.6668 110.523 11.669C110.515 11.6647 110.411 11.7029 110.217 11.5692C110.031 11.3903 110.117 11.3976 110.109 11.49C110.116 11.5776 110.111 11.7092 110.097 11.8453C110.07 12.121 110.015 12.4277 109.961 12.742C109.435 20.0189 109.446 27.0812 109.279 34.2442C109.215 37.822 109.158 41.3745 109.106 44.9611C109.079 46.7534 109.055 48.5191 109.032 50.313C109.021 51.2161 109.01 52.0994 109 52.982C108.997 53.2709 108.995 53.3981 108.993 53.6741C108.993 53.6846 108.993 53.6939 108.993 53.7022C108.993 53.7117 108.993 53.6922 108.993 53.7301C108.993 53.7402 108.993 53.7378 108.994 53.7745C108.996 53.7907 108.991 53.7872 109.008 53.8782C109.015 53.9064 109.017 53.9374 109.06 54.0346C109.086 54.084 109.113 54.1587 109.241 54.2735C109.35 54.3923 109.72 54.5098 109.961 54.3938C110.4 54.1544 110.32 54.0264 110.368 53.9747C110.388 53.9171 110.392 53.8931 110.396 53.8731C110.414 53.7599 110.406 53.7874 110.409 53.7699C110.41 53.7431 110.41 53.7365 110.41 53.7149C110.411 53.6691 110.411 53.6713 110.412 53.6448C110.413 53.6013 110.413 53.5447 110.415 53.4743C110.417 53.2969 110.418 53.2736 110.419 53.1512C110.427 52.6121 110.431 52.3279 110.438 51.7735C110.439 51.0936 110.416 50.4511 110.404 49.8015C110.224 41.954 110.904 34.1264 111.639 26.3457C111.659 26.1323 111.679 25.9218 111.699 25.7141C111.832 24.3231 111.985 22.9327 112.152 21.5468C112.325 20.1063 112.519 18.6603 112.692 17.1926C112.771 15.6633 113.328 14.4144 112.494 12.1744Z" fill="#6942B5"/>
</svg>
