<svg preserveAspectRatio="none" width="100%" height="100%" overflow="visible" style="display: block;" viewBox="0 0 337.398 27.6453" fill="none" xmlns="http://www.w3.org/2000/svg">
<path id="Vector 80" d="M1.61798 4.37086C1.18886 4.37086 0.777325 4.54133 0.473895 4.84476C0.170465 5.14819 1.26257e-08 5.55973 1.26257e-08 5.98884C1.26257e-08 6.41796 0.170465 6.8295 0.473895 7.13293C0.777325 7.43636 1.18886 7.60682 1.61798 7.60682C14.3501 7.22047 26.9586 6.75693 39.6139 6.32594C39.6271 6.32548 39.6404 6.32502 39.6537 6.32456C40.3304 6.30116 41.0192 6.27729 41.7199 6.25297C95.6038 4.41166 149.497 2.3559 203.349 2.74822C203.415 2.74889 203.481 2.74956 203.547 2.75023C237.303 3.11105 270.975 4.73901 304.394 9.2544C304.487 9.26666 304.58 9.27889 304.672 9.29106C311.541 10.2611 318.845 10.9684 325.105 12.5099C325.167 12.5338 325.229 12.56 325.276 12.583C325.303 12.5924 325.345 12.6308 325.213 12.5335C325.171 12.497 325.14 12.4821 325.027 12.3434C324.977 12.2777 324.917 12.1888 324.865 12.062C324.814 11.9499 324.748 11.6963 324.773 11.4599C324.849 10.9091 325.078 10.74 325.215 10.6081C325.382 10.4767 325.395 10.4856 325.455 10.4529C325.632 10.3777 325.58 10.4096 325.57 10.4075C325.547 10.4123 325.499 10.4202 325.454 10.4263C325.254 10.4531 324.986 10.4724 324.735 10.4867C324.221 10.5154 323.661 10.531 323.131 10.5426C322.033 10.5656 320.955 10.5732 319.848 10.5779C317.685 10.5862 315.451 10.5788 313.268 10.5664C308.861 10.5399 304.493 10.4893 300.053 10.3912C300.012 10.3903 299.972 10.3894 299.931 10.3885C261.77 9.51025 223.535 8.2166 185.305 8.69903C185.301 8.69909 185.297 8.69915 185.293 8.69921C160.179 9.07107 135.059 10.4263 110.129 13.4393C110.111 13.4414 110.093 13.4436 110.075 13.4457C104.509 14.264 99.5521 14.3158 93.3971 16.3576C93.3691 16.3758 93.3418 16.3941 93.3153 16.4125C93.2082 16.4896 93.0978 16.5634 92.9306 16.7441C92.8535 16.8321 92.7513 16.9506 92.6547 17.1716C92.5598 17.3748 92.4975 17.7566 92.5923 18.0697C92.6893 18.4025 92.8441 18.5767 92.974 18.708C93.0822 18.8147 93.2103 18.9015 93.2814 18.9442C93.4595 19.0502 93.5747 19.0954 93.6997 19.1438C94.1424 19.304 94.4711 19.3639 94.8157 19.4331C95.478 19.5588 96.1173 19.6465 96.7461 19.7317C98.0018 19.8986 99.264 20.045 100.497 20.1817C102.988 20.4527 105.448 20.6803 107.949 20.7312C108.023 20.7327 108.097 20.7341 108.172 20.7353C133.827 20.9465 159.321 21.1897 184.862 21.6556C184.912 21.6564 184.963 21.6573 185.013 21.6581C218.42 22.2612 251.867 23.6869 285.224 25.7349C285.241 25.736 285.258 25.7371 285.275 25.7381C289.133 25.9818 292.972 26.1519 296.822 26.2853C310.159 26.7144 323.515 26.8837 336.892 27.6447C337.013 27.6511 337.134 27.6074 337.229 27.5268C337.323 27.4459 337.383 27.3348 337.396 27.2143C337.408 27.0938 337.372 26.9727 337.297 26.8742C337.221 26.7759 337.111 26.7083 336.991 26.6897C336.991 26.6897 336.991 26.6897 336.991 26.6897C323.787 24.5994 310.575 22.0551 297.231 20.6227C293.383 20.1997 289.536 19.8546 285.663 19.6089C285.646 19.6078 285.629 19.6068 285.612 19.6057C252.14 17.5413 218.659 16.1045 185.116 15.4986C185.065 15.4977 185.015 15.4969 184.964 15.4961C159.33 15.0334 133.7 16.0732 108.173 16.6495C108.099 16.6507 108.025 16.652 107.952 16.6534C105.474 16.6987 103.041 16.8899 100.592 17.0167C99.3809 17.0791 98.141 17.1258 96.9469 17.1076C96.3529 17.0977 95.7474 17.0708 95.2045 17.006C94.9349 16.9743 94.6524 16.9221 94.5226 16.88C94.4933 16.8716 94.4773 16.8615 94.518 16.8861C94.5431 16.9254 94.7239 16.9318 94.9009 17.4313C94.9747 17.6723 94.9228 17.9713 94.8582 18.1052C94.7923 18.2542 94.7382 18.3084 94.7103 18.3415C94.65 18.4047 94.6578 18.3882 94.6803 18.3742C94.6868 18.3697 94.6933 18.3653 94.7003 18.3608C98.9454 17.0656 105.106 16.8149 110.388 16.1241C110.406 16.122 110.424 16.1199 110.442 16.1178C135.279 13.1649 160.288 11.8884 185.334 11.5172C185.339 11.5171 185.343 11.5171 185.347 11.517C223.481 11.0354 261.715 11.7744 299.88 12.653C299.921 12.6539 299.962 12.6548 300.002 12.6557C304.445 12.7555 308.814 12.8896 313.229 13.0058C315.417 13.0629 317.655 13.1167 319.836 13.1466C320.952 13.161 322.04 13.1706 323.171 13.1612C323.718 13.1561 324.296 13.1468 324.87 13.1203C325.157 13.1061 325.452 13.0904 325.795 13.0484C325.876 13.038 325.975 13.024 326.084 13.0028C326.133 12.993 326.196 12.9799 326.277 12.9581C326.357 12.9345 326.423 12.9208 326.593 12.8426C326.686 12.7934 326.714 12.796 326.918 12.6352C327.083 12.4778 327.33 12.2889 327.41 11.7001C327.438 11.4472 327.367 11.1731 327.311 11.0478C327.252 10.907 327.184 10.8039 327.122 10.7238C326.984 10.5526 326.933 10.5215 326.863 10.4622C326.619 10.2783 326.542 10.2576 326.44 10.2027C326.314 10.1403 326.177 10.0819 326.061 10.0371C318.742 8.16552 312.054 7.62015 305.026 6.60461C304.933 6.5924 304.84 6.58015 304.747 6.56786C271.195 2.03469 237.396 0.425495 203.574 0.0642984C203.508 0.0636236 203.442 0.0629536 203.376 0.0622884C149.43 -0.330503 95.5087 1.19158 41.6081 3.01922C40.9073 3.04336 40.2185 3.06714 39.5419 3.09054C39.5286 3.091 39.5153 3.09146 39.502 3.09192C26.8829 3.52231 14.1197 3.9884 1.61798 4.37086Z" fill="var(--stroke-0, #DAE562)"/>
</svg>
